<?xml version="1.0" encoding="UTF-8" standalone="no"?>
<svg width="725" height="260" viewBox="0 -13720 51714 13720" xmlns="http://www.w3.org/2000/svg"><g transform="translate(3400, -4960)"><g><rect x="-1400" y="-3800" width="2900" height="3800" rx="200" ry="200" fill="#FFFFFF" stroke="#000000" stroke-width="100"></rect><g transform="translate(400, -1100)"></g></g><g><rect x="-800" y="-3100" width="1600" height="1600" rx="200" ry="200" fill="#FFFFFF" stroke="#000000" stroke-width="100"></rect><g transform="translate(-300, -2600)"></g></g></g><g transform="translate(8900, -2760)"><g><rect x="-2000" y="-8200" width="4000" height="8200" rx="200" ry="200" fill="#FFFFFF" stroke="#000000" stroke-width="100"></rect><g transform="translate(900, -1100)"></g></g><g><rect x="-600" y="-3100" width="2100" height="1600" rx="200" ry="200" fill="#FFFFFF" stroke="#000000" stroke-width="100"></rect><g transform="translate(400, -2600)"></g></g><g><rect x="-1400" y="-7500" width="2900" height="3800" rx="200" ry="200" fill="#FFFFFF" stroke="#000000" stroke-width="100"></rect><g transform="translate(400, -4800)"></g></g><g><path d="M 0 -5200 V 1200" fill="none" stroke="black" stroke-width="100"></path></g><g><path d="M 0 -9400 V -6800" fill="none" stroke="black" stroke-width="100"></path></g><g><rect x="-800" y="-6800" width="1600" height="1600" rx="200" ry="200" fill="#FFFFFF" stroke="#000000" stroke-width="100"></rect><g transform="translate(-300, -6300)"></g></g></g><g transform="translate(17926, -1968)"><g><rect x="-5026" y="-9783" width="7680" height="9783" rx="200" ry="200" fill="#FFFFFF" stroke="#000000" stroke-width="100"></rect><g transform="translate(1321, -507)"><path d="M413 469h23c8 -27 15 -47 29 -81l115 -290l105 300c0 18 -14 30 -39 31l-34 2v28c82 -3 82 -3 98 -3s16 0 98 3v-28l-26 -2c-22 -3 -34 -20 -64 -87l-137 -349h-46l-136 342l-150 -342h-47l-102 336c-25 78 -38 98 -66 100l-28 2v28c99 -3 99 -3 119 -3s20 0 119 3v-28 l-40 -2c-25 -1 -38 -9 -38 -24c0 -8 85 -292 88 -301" fill="black" stroke="black" stroke-width="1" transform="translate(0, 0) scale(1, -1)"></path></g></g><g><rect x="-4426" y="-9083" width="3826" height="5642" rx="200" ry="200" fill="#FFFFFF" stroke="#000000" stroke-width="100"></rect><g transform="translate(-1702, -3953)"><path d="M283 49c87 0 136 77 136 115v163c0 66 -4 73 -44 73h-37v28c53 6 105 20 156 41l9 -4v-363c0 -64 3 -70 37 -72l41 -3v-30c-69 3 -69 3 -83 3c-15 0 -16 0 -83 -3c3 47 4 63 4 92l-67 -62c-27 -25 -67 -39 -112 -39c-136 0 -141 82 -141 171v168c0 66 -4 73 -44 73h-37 v28c53 6 105 20 156 41l9 -4v-295c0 -76 20 -121 100 -121" fill="black" stroke="black" stroke-width="1" transform="translate(0, 0) scale(1, -1)"></path></g></g><g><rect x="-3826" y="-8383" width="2726" height="3561" rx="200" ry="200" fill="#FFFFFF" stroke="#000000" stroke-width="100"></rect><g transform="translate(-2115, -5325)"><path d="M288 254l148 -200c11 -15 23 -23 35 -24l25 -3v-30c-52 3 -52 3 -62 3c-9 0 -9 0 -61 -3l-133 195l-134 -192h-86v27h17c10 0 23 6 30 15l149 176l-120 174c-10 14 -32 28 -50 29l-21 2l-5 26l116 20c34 -34 45 -47 60 -69l76 -116l124 175h82v-28h-14 c-17 0 -28 -4 -34 -11" fill="black" stroke="black" stroke-width="1" transform="translate(0, 0) scale(1, -1)"></path></g></g><g><path d="M 0 -1376 V 1200" fill="none" stroke="black" stroke-width="100"></path></g><g><path d="M 1377 -3441 V -2309 A 200 200 0 0 1 1177 -2109 H 749" fill="none" stroke="black" stroke-width="100"></path></g><g><path d="M -2515 -6194 V -2309 A 200 200 0 0 0 -2315 -2109 H -749" fill="none" stroke="black" stroke-width="100"></path></g><g><path d="M -2515 -10983 V -7683" fill="none" stroke="black" stroke-width="100"></path></g><g><rect x="-749" y="-2841" width="1498" height="1465" rx="200" ry="200" fill="#FFFFFF" stroke="#000000" stroke-width="100"></rect><g transform="translate(-250, -1879)"><path d="M455 432l-314 -397h135c96 0 138 7 142 25l18 79h30l-6 -47c-7 -48 -9 -72 -9 -95l-276 3c-43 0 -49 0 -153 -3l-6 20l90 105l170 212c27 34 44 57 65 90h-143c-74 0 -92 -5 -96 -26l-12 -68h-30c6 69 7 81 9 132l248 -3c38 0 68 1 138 3v-30" fill="black" stroke="black" stroke-width="1" transform="translate(0, 0) scale(1, -1)"></path></g></g><g><rect x="600" y="-5183" width="1554" height="1742" rx="200" ry="200" fill="#FFFFFF" stroke="#000000" stroke-width="100"></rect><g transform="translate(1099, -4224)"><path d="M297 86l119 292c4 10 6 19 6 26c0 14 -14 23 -42 25l-26 2v28c79 -3 79 -3 95 -3s16 0 95 3v-28l-28 -2c-25 -3 -44 -30 -84 -121l-203 -468c-38 -87 -81 -123 -148 -123c-19 0 -35 5 -54 15l24 75h13c17 -15 35 -23 51 -23c38 0 77 47 109 131l23 61 c-18 50 -28 74 -56 142l-109 262c-15 35 -27 46 -52 49l-18 2v28c97 -3 97 -3 116 -3s19 0 116 3v-28l-38 -2c-23 -1 -34 -9 -34 -23c0 -10 4 -25 10 -42l64 -168c18 -49 29 -72 51 -110" fill="black" stroke="black" stroke-width="1" transform="translate(0, 0) scale(1, -1)"></path></g></g><g><rect x="-3226" y="-7683" width="1422" height="1489" rx="200" ry="200" fill="#FFFFFF" stroke="#000000" stroke-width="100"></rect><g transform="translate(-2727, -6714)"><path d="M41 143h30v-41c0 -50 52 -85 125 -85c71 0 121 38 121 92c0 86 -94 60 -212 112c-46 21 -68 55 -68 103c0 90 71 145 187 145c41 0 77 -7 130 -25c-3 -31 -4 -55 -5 -113h-28v23c0 47 -51 82 -118 82c-61 0 -96 -28 -96 -78c0 -130 284 -37 284 -210 c0 -98 -93 -168 -224 -168c-46 0 -85 7 -137 24c8 40 11 70 11 139" fill="black" stroke="black" stroke-width="1" transform="translate(0, 0) scale(1, -1)"></path></g></g></g><g transform="translate(28340, -1200)"><g><rect x="-5760" y="-11320" width="8682" height="11320" rx="200" ry="200" fill="#FFFFFF" stroke="#000000" stroke-width="100"></rect><g transform="translate(400, -783)"><path d="M55 289c0 135 146 180 221 180c49 0 85 -12 122 -42l142 4l4 -12l-25 -41h-92c8 -21 11 -34 11 -54c0 -127 -143 -174 -204 -174c-8 0 -14 1 -24 2c-17 -17 -46 -34 -46 -57c0 -27 24 -39 76 -39h160c70 0 118 -50 118 -122c0 -122 -119 -217 -270 -217 c-127 0 -216 63 -216 154c0 31 14 68 28 76l87 47c-48 14 -66 30 -66 58c0 15 5 28 15 43l79 61c-74 8 -120 59 -120 133zM240 435c-64 0 -101 -45 -101 -122s45 -129 112 -129c61 0 103 45 103 110c0 85 -46 141 -114 141zM287 -14c-69 0 -97 -2 -113 -10 c-40 -17 -66 -58 -66 -103c0 -74 60 -125 147 -125c105 0 184 64 184 150c0 65 -39 88 -152 88" fill="black" stroke="black" stroke-width="1" transform="translate(0, 0) scale(1, -1)"></path><path d="" fill="black" stroke="black" stroke-width="1" transform="translate(555, 0) scale(1, -1)"></path><path d="M342 271c0 -83 -65 -147 -147 -147c-83 0 -148 64 -148 147c0 81 65 146 148 146c82 0 147 -65 147 -146zM304 271c0 60 -50 109 -109 109c-62 0 -110 -49 -110 -109c0 -62 48 -110 110 -110c59 0 109 48 109 110" fill="black" stroke="black" stroke-width="1" transform="translate(804, 0) scale(1, -1)"></path><path d="" fill="black" stroke="black" stroke-width="1" transform="translate(1192, 0) scale(1, -1)"></path><path d="M88 473c88 0 171 -80 146 -450l6 -4c48 89 192 260 176 366c-3 16 -10 34 -16 50l4 11c16 7 47 21 64 21c16 0 18 -17 20 -29c13 -85 -61 -184 -105 -244c-54 -74 -108 -151 -156 -230c-2 -70 -12 -147 -26 -215c-19 -9 -38 -17 -58 -22c-5 8 -11 16 -16 24 c15 68 46 163 82 220c2 82 -2 165 -16 249c-11 70 -42 192 -137 192c-37 0 -54 -18 -73 -46l-6 -1c-3 3 -7 6 -8 12c25 49 54 96 119 96" fill="black" stroke="black" stroke-width="1" transform="translate(1441, 0) scale(1, -1)"></path></g></g><g><rect x="-5160" y="-10620" width="4460" height="6612" rx="200" ry="200" fill="#FFFFFF" stroke="#1B1C1D" stroke-width="100"></rect><g transform="translate(-1781, -4781)"><path d="M88 473c88 0 171 -80 146 -450l6 -4c48 89 192 260 176 366c-3 16 -10 34 -16 50l4 11c16 7 47 21 64 21c16 0 18 -17 20 -29c13 -85 -61 -184 -105 -244c-54 -74 -108 -151 -156 -230c-2 -70 -12 -147 -26 -215c-19 -9 -38 -17 -58 -22c-5 8 -11 16 -16 24 c15 68 46 163 82 220c2 82 -2 165 -16 249c-11 70 -42 192 -137 192c-37 0 -54 -18 -73 -46l-6 -1c-3 3 -7 6 -8 12c25 49 54 96 119 96" fill="black" stroke="black" stroke-width="1" transform="translate(0, 0) scale(1, -1)"></path></g></g><g><path d="M 0 -1656 V 1200" fill="none" stroke="black" stroke-width="100"></path></g><g><path d="M 1377 -12520 V -2732 A 200 200 0 0 1 1177 -2532 H 777" fill="none" stroke="black" stroke-width="100"></path></g><g><path d="M 0 -12520 V -3408" fill="none" stroke="black" stroke-width="100"></path></g><g><path d="M -2880 -5654 V -2732 A 200 200 0 0 0 -2680 -2532 H -777" fill="none" stroke="black" stroke-width="100"></path></g><g><path d="M -2880 -7957 V -7357" fill="none" stroke="black" stroke-width="100"></path></g><g><path d="M -2880 -12520 V -9920" fill="none" stroke="black" stroke-width="100"></path></g><g><rect x="-777" y="-3408" width="1554" height="1752" rx="200" ry="200" fill="#FFFFFF" stroke="#000000" stroke-width="100"></rect><g transform="translate(-278, -2439)"><path d="M55 289c0 135 146 180 221 180c49 0 85 -12 122 -42l142 4l4 -12l-25 -41h-92c8 -21 11 -34 11 -54c0 -127 -143 -174 -204 -174c-8 0 -14 1 -24 2c-17 -17 -46 -34 -46 -57c0 -27 24 -39 76 -39h160c70 0 118 -50 118 -122c0 -122 -119 -217 -270 -217 c-127 0 -216 63 -216 154c0 31 14 68 28 76l87 47c-48 14 -66 30 -66 58c0 15 5 28 15 43l79 61c-74 8 -120 59 -120 133zM240 435c-64 0 -101 -45 -101 -122s45 -129 112 -129c61 0 103 45 103 110c0 85 -46 141 -114 141zM287 -14c-69 0 -97 -2 -113 -10 c-40 -17 -66 -58 -66 -103c0 -74 60 -125 147 -125c105 0 184 64 184 150c0 65 -39 88 -152 88" fill="black" stroke="black" stroke-width="1" transform="translate(0, 0) scale(1, -1)"></path></g></g><g><rect x="-4560" y="-7357" width="3360" height="1703" rx="200" ry="200" fill="#FFFFFF" stroke="#000000" stroke-width="100"></rect><g transform="translate(-4061, -6170)"><path d="M562 97c5 -3 8 -6 9 -13c-26 -30 -82 -100 -128 -100c-51 0 -62 111 -68 144l-3 3c-48 -67 -126 -147 -218 -147c-68 0 -97 49 -106 109c-24 150 73 380 241 380c112 0 114 -136 125 -213l7 -3c26 58 61 134 63 202h11c11 -15 21 -31 30 -46c-25 -70 -60 -135 -99 -197 c6 -32 22 -161 67 -161c27 0 46 24 62 42h7zM368 164l-4 28c-9 60 -30 245 -117 245c-109 0 -142 -235 -128 -322c7 -45 25 -87 78 -87c71 0 137 85 171 136" fill="black" stroke="black" stroke-width="1" transform="translate(0, 0) scale(1, -1)"></path><path d="M284 215h-260l-6 5l28 67h262l6 -5" fill="black" stroke="black" stroke-width="1" transform="translate(594, 0) scale(1, -1)"></path><path d="M188 465v-363c0 -63 3 -70 37 -72l46 -3v-30c-100 3 -100 3 -125 3s-25 0 -125 -3v30l46 3c34 2 37 9 37 72v225c0 66 -4 73 -44 73h-37v28c53 6 105 20 156 41zM142 687c28 0 55 -28 55 -56c0 -29 -27 -55 -56 -55s-55 26 -55 55c0 30 26 56 56 56" fill="black" stroke="black" stroke-width="1" transform="translate(926, 0) scale(1, -1)"></path><path d="M410 -3v284c0 77 -44 127 -111 127c-61 0 -127 -49 -127 -94v-212c0 -63 3 -70 37 -72l45 -3v-30c-68 2 -95 3 -124 3s-56 -1 -124 -3v30l45 3c34 2 37 9 37 72v225c0 66 -4 73 -44 73h-37v28c53 6 105 20 156 41l9 -4v-87l76 66c21 18 42 25 79 25 c112 0 167 -57 167 -174v-193c0 -64 3 -70 37 -72l41 -3v-30c-69 3 -69 3 -83 3c-17 0 -18 0 -79 -3" fill="black" stroke="black" stroke-width="1" transform="translate(1216, 0) scale(1, -1)"></path><path d="M539 431l-31 -2c-20 -2 -34 -20 -56 -67l-159 -369h-50l-172 403c-11 25 -16 31 -31 33l-34 2v28c49 -2 97 -3 116 -3s19 0 117 3v-28l-49 -2c-16 -1 -25 -8 -25 -19s3 -24 9 -38l119 -288c38 83 92 217 104 246c12 30 19 57 19 73s-8 25 -24 26l-41 2v28 c60 -2 78 -3 94 -3s34 1 94 3v-28" fill="black" stroke="black" stroke-width="1" transform="translate(1797, 0) scale(1, -1)"></path></g></g><g><rect x="-3636" y="-9920" width="1512" height="1963" rx="200" ry="200" fill="#FFFFFF" stroke="#000000" stroke-width="100"></rect><g transform="translate(-3136, -8740)"><path d="M458 205c20 -125 -76 -220 -197 -220c-44 0 -89 13 -127 44c3 -95 6 -191 17 -288c-26 -6 -50 -15 -74 -24l-9 10c11 186 6 375 5 562c0 150 -15 306 135 372c28 12 57 19 88 19c64 0 103 -36 113 -99c17 -102 -54 -181 -141 -212l1 -9c91 -2 174 -59 189 -155zM376 208 c-13 83 -70 131 -152 131c-17 0 -32 -3 -47 -10l-9 8c4 10 5 22 6 34c106 0 187 75 169 187c-7 48 -37 88 -89 88c-19 0 -37 -6 -52 -17c-80 -56 -77 -424 -61 -526c9 -58 51 -91 108 -91c106 0 142 103 127 196" fill="black" stroke="black" stroke-width="1" transform="translate(0, 0) scale(1, -1)"></path></g></g></g><g transform="translate(39447, -2786)"><g><rect x="-6185" y="-8148" width="10004" height="8148" rx="200" ry="200" fill="#FFFFFF" stroke="#DB2828" stroke-width="100"></rect><g transform="translate(2822, -516)"><path d="M465 287c24 -148 -62 -303 -219 -303c-113 0 -168 69 -185 176c-23 144 47 266 185 298v6c-47 29 -126 75 -135 133c-13 79 102 105 163 105c25 0 50 -3 75 -8c8 -13 14 -27 19 -39l-9 -6c-33 19 -68 30 -103 30s-85 -15 -78 -57c18 -116 258 -152 287 -335zM393 269 c-13 81 -54 130 -125 179c-127 -37 -152 -153 -131 -281c11 -68 46 -155 130 -155c118 0 141 162 126 257" fill="black" stroke="black" stroke-width="1" transform="translate(0, 0) scale(1, -1)"></path></g></g><g><path d="M 0 -2218 V 1200" fill="none" stroke="black" stroke-width="100"></path><polygon points="0,0 150,300 300,0" stroke="black" stroke-width="100" fill="black" transform="translate(-150, -1918)"></polygon><polygon points="0,0 150,300 300,0" stroke="black" stroke-width="100" fill="black" transform="translate(-150, 300)"></polygon></g><g><path d="M 3319 -9348 V -3428 A 200 200 0 0 1 3119 -3228 H 2719" fill="none" stroke="black" stroke-width="100"></path></g><g><path d="M -3319 -5438 V -3428 A 200 200 0 0 0 -3119 -3228 H -2719" fill="none" stroke="black" stroke-width="100"></path><polygon points="0,0 150,300 300,0" stroke="black" stroke-width="100" fill="black" transform="translate(-3469, -5138)"></polygon></g><g><path d="M -1053 -9348 V -6643 A 200 200 0 0 1 -1253 -6443 H -1653" fill="none" stroke="black" stroke-width="100"></path></g><g><path d="M -5585 -9348 V -6643 A 200 200 0 0 0 -5385 -6443 H -4985" fill="none" stroke="black" stroke-width="100"></path></g><g><rect x="-2719" y="-4238" width="5438" height="2020" rx="200" ry="200" fill="#FFFFFF" stroke="#000000" stroke-width="100"></rect><g transform="translate(-2219, -3001)"><path d="M579 -3c-9 0 -73 3 -91 3c-12 0 -28 -1 -77 -3l5 92l-111 -93c-5 -4 -28 -8 -48 -8c-65 0 -112 13 -146 42c-49 40 -77 119 -77 199c0 122 149 257 272 257c40 0 78 -14 106 -49v183c0 30 -7 41 -25 41h-56v28c79 12 112 20 156 37l9 -8v-616c0 -63 3 -70 37 -72l46 -3 v-30zM412 350c0 16 -67 72 -146 72c-90 0 -144 -64 -144 -173c0 -119 63 -204 151 -204c47 0 96 31 124 78c13 23 15 33 15 98v129" fill="black" stroke="black" stroke-width="1" transform="translate(0, 0) scale(1, -1)"></path><path d="M250 -20c-89 0 -224 45 -224 239c0 104 32 173 114 221c40 24 85 29 122 29c112 0 186 -75 186 -190c0 -12 -1 -21 -2 -35c-47 -10 -156 -18 -242 -18c-34 0 -64 1 -85 4c2 -58 9 -86 28 -119c28 -49 82 -78 147 -78c43 0 66 9 130 47l13 -10l-20 -34 c-12 -18 -102 -56 -167 -56zM359 267c-3 67 -10 96 -32 129c-18 27 -44 40 -77 40c-48 0 -91 -27 -112 -71c-13 -26 -17 -48 -17 -95c26 -6 69 -9 112 -9c51 0 102 3 126 6" fill="black" stroke="black" stroke-width="1" transform="translate(610, 0) scale(1, -1)"></path><path d="M341 717v-77l-12 -6c-24 21 -42 28 -69 28c-57 0 -70 -28 -70 -143v-85l131 4l-7 -53h-124v-283c0 -63 3 -70 37 -72l46 -3v-30c-100 3 -100 3 -125 3s-25 0 -125 -3v30l46 3c34 2 37 9 37 72v283l-69 -4v22l69 31v42v2c0 77 57 259 168 259c21 0 43 -6 67 -20" fill="black" stroke="black" stroke-width="1" transform="translate(1088, 0) scale(1, -1)"></path><path d="M284 215h-260l-6 5l28 67h262l6 -5" fill="black" stroke="black" stroke-width="1" transform="translate(1420, 0) scale(1, -1)"></path><path d="M146 266c0 -281 109 -403 155 -460l-19 -21c-82 77 -114 116 -149 183c-48 90 -73 191 -73 298c0 276 165 409 222 460l19 -26c-58 -68 -155 -174 -155 -434" fill="black" stroke="black" stroke-width="1" transform="translate(1752, 0) scale(1, -1)"></path><path d="M55 289c0 135 146 180 221 180c49 0 85 -12 122 -42l142 4l4 -12l-25 -41h-92c8 -21 11 -34 11 -54c0 -127 -143 -174 -204 -174c-8 0 -14 1 -24 2c-17 -17 -46 -34 -46 -57c0 -27 24 -39 76 -39h160c70 0 118 -50 118 -122c0 -122 -119 -217 -270 -217 c-127 0 -216 63 -216 154c0 31 14 68 28 76l87 47c-48 14 -66 30 -66 58c0 15 5 28 15 43l79 61c-74 8 -120 59 -120 133zM240 435c-64 0 -101 -45 -101 -122s45 -129 112 -129c61 0 103 45 103 110c0 85 -46 141 -114 141zM287 -14c-69 0 -97 -2 -113 -10 c-40 -17 -66 -58 -66 -103c0 -74 60 -125 147 -125c105 0 184 64 184 150c0 65 -39 88 -152 88" fill="black" stroke="black" stroke-width="1" transform="translate(2084, 0) scale(1, -1)"></path><path d="" fill="black" stroke="black" stroke-width="1" transform="translate(2639, 0) scale(1, -1)"></path><path d="M342 271c0 -83 -65 -147 -147 -147c-83 0 -148 64 -148 147c0 81 65 146 148 146c82 0 147 -65 147 -146zM304 271c0 60 -50 109 -109 109c-62 0 -110 -49 -110 -109c0 -62 48 -110 110 -110c59 0 109 48 109 110" fill="black" stroke="black" stroke-width="1" transform="translate(2888, 0) scale(1, -1)"></path><path d="" fill="black" stroke="black" stroke-width="1" transform="translate(3276, 0) scale(1, -1)"></path><path d="M88 473c88 0 171 -80 146 -450l6 -4c48 89 192 260 176 366c-3 16 -10 34 -16 50l4 11c16 7 47 21 64 21c16 0 18 -17 20 -29c13 -85 -61 -184 -105 -244c-54 -74 -108 -151 -156 -230c-2 -70 -12 -147 -26 -215c-19 -9 -38 -17 -58 -22c-5 8 -11 16 -16 24 c15 68 46 163 82 220c2 82 -2 165 -16 249c-11 70 -42 192 -137 192c-37 0 -54 -18 -73 -46l-6 -1c-3 3 -7 6 -8 12c25 49 54 96 119 96" fill="black" stroke="black" stroke-width="1" transform="translate(3525, 0) scale(1, -1)"></path><path d="M51 726c57 -51 222 -184 222 -461c0 -288 -169 -430 -222 -480l-19 21c51 63 155 184 155 460c0 260 -100 370 -155 434" fill="black" stroke="black" stroke-width="1" transform="translate(4106, 0) scale(1, -1)"></path></g></g><g><rect x="-4985" y="-7448" width="3332" height="2010" rx="200" ry="200" fill="#FFFFFF" stroke="#1B1C1D" stroke-width="100"></rect><g transform="translate(-4486, -6211)"><path d="M579 -3c-9 0 -73 3 -91 3c-12 0 -28 -1 -77 -3l5 92l-111 -93c-5 -4 -28 -8 -48 -8c-65 0 -112 13 -146 42c-49 40 -77 119 -77 199c0 122 149 257 272 257c40 0 78 -14 106 -49v183c0 30 -7 41 -25 41h-56v28c79 12 112 20 156 37l9 -8v-616c0 -63 3 -70 37 -72l46 -3 v-30zM412 350c0 16 -67 72 -146 72c-90 0 -144 -64 -144 -173c0 -119 63 -204 151 -204c47 0 96 31 124 78c13 23 15 33 15 98v129" fill="black" stroke="black" stroke-width="1" transform="translate(0, 0) scale(1, -1)"></path><path d="M250 -20c-89 0 -224 45 -224 239c0 104 32 173 114 221c40 24 85 29 122 29c112 0 186 -75 186 -190c0 -12 -1 -21 -2 -35c-47 -10 -156 -18 -242 -18c-34 0 -64 1 -85 4c2 -58 9 -86 28 -119c28 -49 82 -78 147 -78c43 0 66 9 130 47l13 -10l-20 -34 c-12 -18 -102 -56 -167 -56zM359 267c-3 67 -10 96 -32 129c-18 27 -44 40 -77 40c-48 0 -91 -27 -112 -71c-13 -26 -17 -48 -17 -95c26 -6 69 -9 112 -9c51 0 102 3 126 6" fill="black" stroke="black" stroke-width="1" transform="translate(610, 0) scale(1, -1)"></path><path d="M341 717v-77l-12 -6c-24 21 -42 28 -69 28c-57 0 -70 -28 -70 -143v-85l131 4l-7 -53h-124v-283c0 -63 3 -70 37 -72l46 -3v-30c-100 3 -100 3 -125 3s-25 0 -125 -3v30l46 3c34 2 37 9 37 72v283l-69 -4v22l69 31v42v2c0 77 57 259 168 259c21 0 43 -6 67 -20" fill="black" stroke="black" stroke-width="1" transform="translate(1088, 0) scale(1, -1)"></path><path d="M284 215h-260l-6 5l28 67h262l6 -5" fill="black" stroke="black" stroke-width="1" transform="translate(1420, 0) scale(1, -1)"></path><path d="M88 473c88 0 171 -80 146 -450l6 -4c48 89 192 260 176 366c-3 16 -10 34 -16 50l4 11c16 7 47 21 64 21c16 0 18 -17 20 -29c13 -85 -61 -184 -105 -244c-54 -74 -108 -151 -156 -230c-2 -70 -12 -147 -26 -215c-19 -9 -38 -17 -58 -22c-5 8 -11 16 -16 24 c15 68 46 163 82 220c2 82 -2 165 -16 249c-11 70 -42 192 -137 192c-37 0 -54 -18 -73 -46l-6 -1c-3 3 -7 6 -8 12c25 49 54 96 119 96" fill="black" stroke="black" stroke-width="1" transform="translate(1752, 0) scale(1, -1)"></path></g></g></g><g transform="translate(47490, -5981)"><g><path d="M 0 0 V 1200" fill="none" stroke="black" stroke-width="100"></path><polygon points="0,0 150,300 300,0" stroke="red" stroke-width="100" fill="red" transform="translate(-150, 300)"></polygon></g><g><path d="M 2224 -2957 V -1079 A 200 200 0 0 1 2024 -879 H 1624" fill="none" stroke="black" stroke-width="100"></path></g><g><path d="M -2224 -2957 V -1079 A 200 200 0 0 0 -2024 -879 H -1624" fill="none" stroke="black" stroke-width="100"></path></g><g><rect x="-1624" y="-1757" width="3248" height="1757" rx="200" ry="200" fill="#FFFFFF" stroke="#DB2828" stroke-width="100"></rect><g transform="translate(-1125, -520)"><path d="M579 -3c-9 0 -73 3 -91 3c-12 0 -28 -1 -77 -3l5 92l-111 -93c-5 -4 -28 -8 -48 -8c-65 0 -112 13 -146 42c-49 40 -77 119 -77 199c0 122 149 257 272 257c40 0 78 -14 106 -49v183c0 30 -7 41 -25 41h-56v28c79 12 112 20 156 37l9 -8v-616c0 -63 3 -70 37 -72l46 -3 v-30zM412 350c0 16 -67 72 -146 72c-90 0 -144 -64 -144 -173c0 -119 63 -204 151 -204c47 0 96 31 124 78c13 23 15 33 15 98v129" fill="black" stroke="black" stroke-width="1" transform="translate(0, 0) scale(1, -1)"></path><path d="M250 -20c-89 0 -224 45 -224 239c0 104 32 173 114 221c40 24 85 29 122 29c112 0 186 -75 186 -190c0 -12 -1 -21 -2 -35c-47 -10 -156 -18 -242 -18c-34 0 -64 1 -85 4c2 -58 9 -86 28 -119c28 -49 82 -78 147 -78c43 0 66 9 130 47l13 -10l-20 -34 c-12 -18 -102 -56 -167 -56zM359 267c-3 67 -10 96 -32 129c-18 27 -44 40 -77 40c-48 0 -91 -27 -112 -71c-13 -26 -17 -48 -17 -95c26 -6 69 -9 112 -9c51 0 102 3 126 6" fill="black" stroke="black" stroke-width="1" transform="translate(610, 0) scale(1, -1)"></path><path d="M341 717v-77l-12 -6c-24 21 -42 28 -69 28c-57 0 -70 -28 -70 -143v-85l131 4l-7 -53h-124v-283c0 -63 3 -70 37 -72l46 -3v-30c-100 3 -100 3 -125 3s-25 0 -125 -3v30l46 3c34 2 37 9 37 72v283l-69 -4v22l69 31v42v2c0 77 57 259 168 259c21 0 43 -6 67 -20" fill="black" stroke="black" stroke-width="1" transform="translate(1088, 0) scale(1, -1)"></path><path d="M284 215h-260l-6 5l28 67h262l6 -5" fill="black" stroke="black" stroke-width="1" transform="translate(1420, 0) scale(1, -1)"></path><path d="M465 287c24 -148 -62 -303 -219 -303c-113 0 -168 69 -185 176c-23 144 47 266 185 298v6c-47 29 -126 75 -135 133c-13 79 102 105 163 105c25 0 50 -3 75 -8c8 -13 14 -27 19 -39l-9 -6c-33 19 -68 30 -103 30s-85 -15 -78 -57c18 -116 258 -152 287 -335zM393 269 c-13 81 -54 130 -125 179c-127 -37 -152 -153 -131 -281c11 -68 46 -155 130 -155c118 0 141 162 126 257" fill="black" stroke="black" stroke-width="1" transform="translate(1752, 0) scale(1, -1)"></path></g></g></g></svg>