<?xml version="1.0" encoding="UTF-8" standalone="no"?>
<svg width="496" height="212" viewBox="0 -10600 24800 10600" xmlns="http://www.w3.org/2000/svg"><g transform="translate(3400, -3400)"><g><rect x="-1400" y="-3800" width="2900" height="3800" rx="200" ry="200" fill="#FFFFFF" stroke="#000000" stroke-width="100"></rect><g transform="translate(400, -1100)"></g></g><g><rect x="-800" y="-3100" width="1600" height="1600" rx="200" ry="200" fill="#FFFFFF" stroke="#000000" stroke-width="100"></rect><g transform="translate(-300, -2600)"></g></g></g><g transform="translate(8900, -1200)"><g><rect x="-2000" y="-8200" width="4000" height="8200" rx="200" ry="200" fill="#FFFFFF" stroke="#000000" stroke-width="100"></rect><g transform="translate(900, -1100)"></g></g><g><rect x="-600" y="-3100" width="2100" height="1600" rx="200" ry="200" fill="#FFFFFF" stroke="#000000" stroke-width="100"></rect><g transform="translate(400, -2600)"></g></g><g><rect x="-1400" y="-7500" width="2900" height="3800" rx="200" ry="200" fill="#FFFFFF" stroke="#000000" stroke-width="100"></rect><g transform="translate(400, -4800)"></g></g><g><path d="M 0 -5200 V 1200" fill="none" stroke="black" stroke-width="100"></path></g><g><path d="M 0 -9400 V -6800" fill="none" stroke="black" stroke-width="100"></path></g><g><rect x="-800" y="-6800" width="1600" height="1600" rx="200" ry="200" fill="#FFFFFF" stroke="#000000" stroke-width="100"></rect><g transform="translate(-300, -6300)"></g></g></g><g transform="translate(15614, -2358)"><g><rect x="-2714" y="-5883" width="5368" height="5883" rx="200" ry="200" fill="#FFFFFF" stroke="#000000" stroke-width="100"></rect><g transform="translate(1321, -507)"><path d="M413 469h23c8 -27 15 -47 29 -81l115 -290l105 300c0 18 -14 30 -39 31l-34 2v28c82 -3 82 -3 98 -3s16 0 98 3v-28l-26 -2c-22 -3 -34 -20 -64 -87l-137 -349h-46l-136 342l-150 -342h-47l-102 336c-25 78 -38 98 -66 100l-28 2v28c99 -3 99 -3 119 -3s20 0 119 3v-28 l-40 -2c-25 -1 -38 -9 -38 -24c0 -8 85 -292 88 -301" fill="black" stroke="black" stroke-width="1" transform="translate(0, 0) scale(1, -1)"></path></g></g><g><path d="M 0 -1376 V 1200" fill="none" stroke="black" stroke-width="100"></path></g><g><path d="M 1377 -3441 V -2309 A 200 200 0 0 1 1177 -2109 H 749" fill="none" stroke="black" stroke-width="100"></path></g><g><path d="M -1357 -3441 V -2309 A 200 200 0 0 0 -1157 -2109 H -749" fill="none" stroke="black" stroke-width="100"></path></g><g><path d="M -1357 -7083 V -4913" fill="none" stroke="black" stroke-width="100"></path></g><g><rect x="-749" y="-2841" width="1498" height="1465" rx="200" ry="200" fill="#FFFFFF" stroke="#000000" stroke-width="100"></rect><g transform="translate(-250, -1879)"><path d="M455 432l-314 -397h135c96 0 138 7 142 25l18 79h30l-6 -47c-7 -48 -9 -72 -9 -95l-276 3c-43 0 -49 0 -153 -3l-6 20l90 105l170 212c27 34 44 57 65 90h-143c-74 0 -92 -5 -96 -26l-12 -68h-30c6 69 7 81 9 132l248 -3c38 0 68 1 138 3v-30" fill="black" stroke="black" stroke-width="1" transform="translate(0, 0) scale(1, -1)"></path></g></g><g><rect x="600" y="-5183" width="1554" height="1742" rx="200" ry="200" fill="#FFFFFF" stroke="#000000" stroke-width="100"></rect><g transform="translate(1099, -4224)"><path d="M297 86l119 292c4 10 6 19 6 26c0 14 -14 23 -42 25l-26 2v28c79 -3 79 -3 95 -3s16 0 95 3v-28l-28 -2c-25 -3 -44 -30 -84 -121l-203 -468c-38 -87 -81 -123 -148 -123c-19 0 -35 5 -54 15l24 75h13c17 -15 35 -23 51 -23c38 0 77 47 109 131l23 61 c-18 50 -28 74 -56 142l-109 262c-15 35 -27 46 -52 49l-18 2v28c97 -3 97 -3 116 -3s19 0 116 3v-28l-38 -2c-23 -1 -34 -9 -34 -23c0 -10 4 -25 10 -42l64 -168c18 -49 29 -72 51 -110" fill="black" stroke="black" stroke-width="1" transform="translate(0, 0) scale(1, -1)"></path></g></g><g><rect x="-2114" y="-4913" width="1514" height="1472" rx="200" ry="200" fill="#FFFFFF" stroke="#000000" stroke-width="100"></rect><g transform="translate(-1615, -3944)"><path d="M288 254l148 -200c11 -15 23 -23 35 -24l25 -3v-30c-52 3 -52 3 -62 3c-9 0 -9 0 -61 -3l-133 195l-134 -192h-86v27h17c10 0 23 6 30 15l149 176l-120 174c-10 14 -32 28 -50 29l-21 2l-5 26l116 20c34 -34 45 -47 60 -69l76 -116l124 175h82v-28h-14 c-17 0 -28 -4 -34 -11" fill="black" stroke="black" stroke-width="1" transform="translate(0, 0) scale(1, -1)"></path></g></g></g><g transform="translate(21534, -4430)"><g><path d="M 0 0 V 1200" fill="none" stroke="black" stroke-width="100"></path><polygon points="0,0 150,300 300,0" stroke="black" stroke-width="100" fill="black" transform="translate(-150, 300)"></polygon></g><g><path d="M 1266 -2940 V -1070 A 200 200 0 0 1 1066 -870 H 666" fill="none" stroke="black" stroke-width="100"></path></g><g><path d="M 0 -2940 V -1740" fill="none" stroke="black" stroke-width="100"></path></g><g><path d="M -1266 -2940 V -1070 A 200 200 0 0 0 -1066 -870 H -666" fill="none" stroke="black" stroke-width="100"></path><polygon points="150,0 300,300 0,300" stroke="black" stroke-width="100" fill="black" transform="translate(-1416, -2340)"></polygon></g><g><rect x="-666" y="-1740" width="1332" height="1740" rx="200" ry="200" fill="#FFFFFF" stroke="#000000" stroke-width="100"></rect><g transform="translate(-166, -503)"><path d="M341 717v-77l-12 -6c-24 21 -42 28 -69 28c-57 0 -70 -28 -70 -143v-85l131 4l-7 -53h-124v-283c0 -63 3 -70 37 -72l46 -3v-30c-100 3 -100 3 -125 3s-25 0 -125 -3v30l46 3c34 2 37 9 37 72v283l-69 -4v22l69 31v42v2c0 77 57 259 168 259c21 0 43 -6 67 -20" fill="black" stroke="black" stroke-width="1" transform="translate(0, 0) scale(1, -1)"></path></g></g></g></svg>