<?xml version="1.0" encoding="UTF-8" standalone="no"?>
<svg width="612" height="180" viewBox="0 -9012 30618 9012" xmlns="http://www.w3.org/2000/svg"><g transform="translate(3400, -2606)"><g><rect x="-1400" y="-3800" width="2900" height="3800" rx="200" ry="200" fill="#FFFFFF" stroke="#000000" stroke-width="100"></rect><g transform="translate(400, -1100)"></g></g><g><rect x="-800" y="-3100" width="1600" height="1600" rx="200" ry="200" fill="#FFFFFF" stroke="#000000" stroke-width="100"></rect><g transform="translate(-300, -2600)"></g></g></g><g transform="translate(8300, -2606)"><g><rect x="-1400" y="-3800" width="2900" height="3800" rx="200" ry="200" fill="#FFFFFF" stroke="#000000" stroke-width="100"></rect><g transform="translate(400, -1100)"></g></g><g><path d="M 0 -1500 V 1200" fill="none" stroke="black" stroke-width="100"></path></g><g><path d="M 0 -5000 V -3100" fill="none" stroke="black" stroke-width="100"></path></g><g><rect x="-800" y="-3100" width="1600" height="1600" rx="200" ry="200" fill="#FFFFFF" stroke="#000000" stroke-width="100"></rect><g transform="translate(-300, -2600)"></g></g></g><g transform="translate(13711, -1685)"><g><rect x="-1911" y="-5642" width="3826" height="5642" rx="200" ry="200" fill="#FFFFFF" stroke="#000000" stroke-width="100"></rect><g transform="translate(813, -512)"><path d="M283 49c87 0 136 77 136 115v163c0 66 -4 73 -44 73h-37v28c53 6 105 20 156 41l9 -4v-363c0 -64 3 -70 37 -72l41 -3v-30c-69 3 -69 3 -83 3c-15 0 -16 0 -83 -3c3 47 4 63 4 92l-67 -62c-27 -25 -67 -39 -112 -39c-136 0 -141 82 -141 171v168c0 66 -4 73 -44 73h-37 v28c53 6 105 20 156 41l9 -4v-295c0 -76 20 -121 100 -121" fill="black" stroke="black" stroke-width="1" transform="translate(0, 0) scale(1, -1)"></path></g></g><g><rect x="-1311" y="-4942" width="2726" height="3561" rx="200" ry="200" fill="#FFFFFF" stroke="#000000" stroke-width="100"></rect><g transform="translate(400, -1884)"><path d="M288 254l148 -200c11 -15 23 -23 35 -24l25 -3v-30c-52 3 -52 3 -62 3c-9 0 -9 0 -61 -3l-133 195l-134 -192h-86v27h17c10 0 23 6 30 15l149 176l-120 174c-10 14 -32 28 -50 29l-21 2l-5 26l116 20c34 -34 45 -47 60 -69l76 -116l124 175h82v-28h-14 c-17 0 -28 -4 -34 -11" fill="black" stroke="black" stroke-width="1" transform="translate(0, 0) scale(1, -1)"></path></g></g><g><path d="M 0 -2753 V 1200" fill="none" stroke="black" stroke-width="100"></path></g><g><path d="M 0 -6842 V -4242" fill="none" stroke="black" stroke-width="100"></path></g><g><rect x="-711" y="-4242" width="1422" height="1489" rx="200" ry="200" fill="#FFFFFF" stroke="#000000" stroke-width="100"></rect><g transform="translate(-212, -3273)"><path d="M41 143h30v-41c0 -50 52 -85 125 -85c71 0 121 38 121 92c0 86 -94 60 -212 112c-46 21 -68 55 -68 103c0 90 71 145 187 145c41 0 77 -7 130 -25c-3 -31 -4 -55 -5 -113h-28v23c0 47 -51 82 -118 82c-61 0 -96 -28 -96 -78c0 -130 284 -37 284 -210 c0 -98 -93 -168 -224 -168c-46 0 -85 7 -137 24c8 40 11 70 11 139" fill="black" stroke="black" stroke-width="1" transform="translate(0, 0) scale(1, -1)"></path></g></g></g><g transform="translate(19906, -1200)"><g><rect x="-2280" y="-6612" width="4460" height="6612" rx="200" ry="200" fill="#FFFFFF" stroke="#DB2828" stroke-width="100"></rect><g transform="translate(1099, -773)"><path d="M88 473c88 0 171 -80 146 -450l6 -4c48 89 192 260 176 366c-3 16 -10 34 -16 50l4 11c16 7 47 21 64 21c16 0 18 -17 20 -29c13 -85 -61 -184 -105 -244c-54 -74 -108 -151 -156 -230c-2 -70 -12 -147 -26 -215c-19 -9 -38 -17 -58 -22c-5 8 -11 16 -16 24 c15 68 46 163 82 220c2 82 -2 165 -16 249c-11 70 -42 192 -137 192c-37 0 -54 -18 -73 -46l-6 -1c-3 3 -7 6 -8 12c25 49 54 96 119 96" fill="black" stroke="black" stroke-width="1" transform="translate(0, 0) scale(1, -1)"></path></g></g><g><path d="M 0 -1646 V 1200" fill="none" stroke="black" stroke-width="100"></path></g><g><path d="M 0 -3949 V -3349" fill="none" stroke="black" stroke-width="100"></path></g><g><path d="M 0 -7812 V -5912" fill="none" stroke="black" stroke-width="100"></path></g><g><rect x="-1680" y="-3349" width="3360" height="1703" rx="200" ry="200" fill="#FFFFFF" stroke="#000000" stroke-width="100"></rect><g transform="translate(-1181, -2162)"><path d="M562 97c5 -3 8 -6 9 -13c-26 -30 -82 -100 -128 -100c-51 0 -62 111 -68 144l-3 3c-48 -67 -126 -147 -218 -147c-68 0 -97 49 -106 109c-24 150 73 380 241 380c112 0 114 -136 125 -213l7 -3c26 58 61 134 63 202h11c11 -15 21 -31 30 -46c-25 -70 -60 -135 -99 -197 c6 -32 22 -161 67 -161c27 0 46 24 62 42h7zM368 164l-4 28c-9 60 -30 245 -117 245c-109 0 -142 -235 -128 -322c7 -45 25 -87 78 -87c71 0 137 85 171 136" fill="black" stroke="black" stroke-width="1" transform="translate(0, 0) scale(1, -1)"></path><path d="M284 215h-260l-6 5l28 67h262l6 -5" fill="black" stroke="black" stroke-width="1" transform="translate(594, 0) scale(1, -1)"></path><path d="M188 465v-363c0 -63 3 -70 37 -72l46 -3v-30c-100 3 -100 3 -125 3s-25 0 -125 -3v30l46 3c34 2 37 9 37 72v225c0 66 -4 73 -44 73h-37v28c53 6 105 20 156 41zM142 687c28 0 55 -28 55 -56c0 -29 -27 -55 -56 -55s-55 26 -55 55c0 30 26 56 56 56" fill="black" stroke="black" stroke-width="1" transform="translate(926, 0) scale(1, -1)"></path><path d="M410 -3v284c0 77 -44 127 -111 127c-61 0 -127 -49 -127 -94v-212c0 -63 3 -70 37 -72l45 -3v-30c-68 2 -95 3 -124 3s-56 -1 -124 -3v30l45 3c34 2 37 9 37 72v225c0 66 -4 73 -44 73h-37v28c53 6 105 20 156 41l9 -4v-87l76 66c21 18 42 25 79 25 c112 0 167 -57 167 -174v-193c0 -64 3 -70 37 -72l41 -3v-30c-69 3 -69 3 -83 3c-17 0 -18 0 -79 -3" fill="black" stroke="black" stroke-width="1" transform="translate(1216, 0) scale(1, -1)"></path><path d="M539 431l-31 -2c-20 -2 -34 -20 -56 -67l-159 -369h-50l-172 403c-11 25 -16 31 -31 33l-34 2v28c49 -2 97 -3 116 -3s19 0 117 3v-28l-49 -2c-16 -1 -25 -8 -25 -19s3 -24 9 -38l119 -288c38 83 92 217 104 246c12 30 19 57 19 73s-8 25 -24 26l-41 2v28 c60 -2 78 -3 94 -3s34 1 94 3v-28" fill="black" stroke="black" stroke-width="1" transform="translate(1797, 0) scale(1, -1)"></path></g></g><g><rect x="-756" y="-5912" width="1512" height="1963" rx="200" ry="200" fill="#FFFFFF" stroke="#000000" stroke-width="100"></rect><g transform="translate(-256, -4732)"><path d="M458 205c20 -125 -76 -220 -197 -220c-44 0 -89 13 -127 44c3 -95 6 -191 17 -288c-26 -6 -50 -15 -74 -24l-9 10c11 186 6 375 5 562c0 150 -15 306 135 372c28 12 57 19 88 19c64 0 103 -36 113 -99c17 -102 -54 -181 -141 -212l1 -9c91 -2 174 -59 189 -155zM376 208 c-13 83 -70 131 -152 131c-17 0 -32 -3 -47 -10l-9 8c4 10 5 22 6 34c106 0 187 75 169 187c-7 48 -37 88 -89 88c-19 0 -37 -6 -52 -17c-80 -56 -77 -424 -61 -526c9 -58 51 -91 108 -91c106 0 142 103 127 196" fill="black" stroke="black" stroke-width="1" transform="translate(0, 0) scale(1, -1)"></path></g></g></g><g transform="translate(26352, -3501)"><g><path d="M 0 0 V 1200" fill="none" stroke="black" stroke-width="100"></path><polygon points="0,0 150,300 300,0" stroke="red" stroke-width="100" fill="red" transform="translate(-150, 300)"></polygon></g><g><path d="M 2266 -3210 V -1205 A 200 200 0 0 1 2066 -1005 H 1666" fill="none" stroke="black" stroke-width="100"></path></g><g><path d="M -2266 -3210 V -1205 A 200 200 0 0 0 -2066 -1005 H -1666" fill="none" stroke="black" stroke-width="100"></path></g><g><rect x="-1666" y="-2010" width="3332" height="2010" rx="200" ry="200" fill="#FFFFFF" stroke="#DB2828" stroke-width="100"></rect><g transform="translate(-1167, -773)"><path d="M579 -3c-9 0 -73 3 -91 3c-12 0 -28 -1 -77 -3l5 92l-111 -93c-5 -4 -28 -8 -48 -8c-65 0 -112 13 -146 42c-49 40 -77 119 -77 199c0 122 149 257 272 257c40 0 78 -14 106 -49v183c0 30 -7 41 -25 41h-56v28c79 12 112 20 156 37l9 -8v-616c0 -63 3 -70 37 -72l46 -3 v-30zM412 350c0 16 -67 72 -146 72c-90 0 -144 -64 -144 -173c0 -119 63 -204 151 -204c47 0 96 31 124 78c13 23 15 33 15 98v129" fill="black" stroke="black" stroke-width="1" transform="translate(0, 0) scale(1, -1)"></path><path d="M250 -20c-89 0 -224 45 -224 239c0 104 32 173 114 221c40 24 85 29 122 29c112 0 186 -75 186 -190c0 -12 -1 -21 -2 -35c-47 -10 -156 -18 -242 -18c-34 0 -64 1 -85 4c2 -58 9 -86 28 -119c28 -49 82 -78 147 -78c43 0 66 9 130 47l13 -10l-20 -34 c-12 -18 -102 -56 -167 -56zM359 267c-3 67 -10 96 -32 129c-18 27 -44 40 -77 40c-48 0 -91 -27 -112 -71c-13 -26 -17 -48 -17 -95c26 -6 69 -9 112 -9c51 0 102 3 126 6" fill="black" stroke="black" stroke-width="1" transform="translate(610, 0) scale(1, -1)"></path><path d="M341 717v-77l-12 -6c-24 21 -42 28 -69 28c-57 0 -70 -28 -70 -143v-85l131 4l-7 -53h-124v-283c0 -63 3 -70 37 -72l46 -3v-30c-100 3 -100 3 -125 3s-25 0 -125 -3v30l46 3c34 2 37 9 37 72v283l-69 -4v22l69 31v42v2c0 77 57 259 168 259c21 0 43 -6 67 -20" fill="black" stroke="black" stroke-width="1" transform="translate(1088, 0) scale(1, -1)"></path><path d="M284 215h-260l-6 5l28 67h262l6 -5" fill="black" stroke="black" stroke-width="1" transform="translate(1420, 0) scale(1, -1)"></path><path d="M88 473c88 0 171 -80 146 -450l6 -4c48 89 192 260 176 366c-3 16 -10 34 -16 50l4 11c16 7 47 21 64 21c16 0 18 -17 20 -29c13 -85 -61 -184 -105 -244c-54 -74 -108 -151 -156 -230c-2 -70 -12 -147 -26 -215c-19 -9 -38 -17 -58 -22c-5 8 -11 16 -16 24 c15 68 46 163 82 220c2 82 -2 165 -16 249c-11 70 -42 192 -137 192c-37 0 -54 -18 -73 -46l-6 -1c-3 3 -7 6 -8 12c25 49 54 96 119 96" fill="black" stroke="black" stroke-width="1" transform="translate(1752, 0) scale(1, -1)"></path></g></g></g></svg>