<?xml version="1.0" encoding="UTF-8" standalone="no"?>
<svg width="662" height="212" viewBox="0 -10600 33144 10600" xmlns="http://www.w3.org/2000/svg"><g transform="translate(3400, -3400)"><g><rect x="-1400" y="-3800" width="2900" height="3800" rx="200" ry="200" fill="#FFFFFF" stroke="#000000" stroke-width="100"></rect><g transform="translate(400, -1100)"></g></g><g><rect x="-800" y="-3100" width="1600" height="1600" rx="200" ry="200" fill="#FFFFFF" stroke="#000000" stroke-width="100"></rect><g transform="translate(-300, -2600)"></g></g></g><g transform="translate(8900, -1200)"><g><rect x="-2000" y="-8200" width="4000" height="8200" rx="200" ry="200" fill="#FFFFFF" stroke="#000000" stroke-width="100"></rect><g transform="translate(900, -1100)"></g></g><g><rect x="-600" y="-3100" width="2100" height="1600" rx="200" ry="200" fill="#FFFFFF" stroke="#000000" stroke-width="100"></rect><g transform="translate(400, -2600)"></g></g><g><rect x="-1400" y="-7500" width="2900" height="3800" rx="200" ry="200" fill="#FFFFFF" stroke="#000000" stroke-width="100"></rect><g transform="translate(400, -4800)"></g></g><g><path d="M 0 -5200 V 1200" fill="none" stroke="black" stroke-width="100"></path></g><g><path d="M 0 -9400 V -6800" fill="none" stroke="black" stroke-width="100"></path></g><g><rect x="-800" y="-6800" width="1600" height="1600" rx="200" ry="200" fill="#FFFFFF" stroke="#000000" stroke-width="100"></rect><g transform="translate(-300, -6300)"></g></g></g><g transform="translate(16913, -1444)"><g><rect x="-4013" y="-7711" width="6667" height="7711" rx="200" ry="200" fill="#FFFFFF" stroke="#000000" stroke-width="100"></rect><g transform="translate(1321, -507)"><path d="M413 469h23c8 -27 15 -47 29 -81l115 -290l105 300c0 18 -14 30 -39 31l-34 2v28c82 -3 82 -3 98 -3s16 0 98 3v-28l-26 -2c-22 -3 -34 -20 -64 -87l-137 -349h-46l-136 342l-150 -342h-47l-102 336c-25 78 -38 98 -66 100l-28 2v28c99 -3 99 -3 119 -3s20 0 119 3v-28 l-40 -2c-25 -1 -38 -9 -38 -24c0 -8 85 -292 88 -301" fill="black" stroke="black" stroke-width="1" transform="translate(0, 0) scale(1, -1)"></path></g></g><g><rect x="-3413" y="-7011" width="2813" height="3570" rx="200" ry="200" fill="#FFFFFF" stroke="#000000" stroke-width="100"></rect><g transform="translate(-1702, -3953)"><path d="M283 49c87 0 136 77 136 115v163c0 66 -4 73 -44 73h-37v28c53 6 105 20 156 41l9 -4v-363c0 -64 3 -70 37 -72l41 -3v-30c-69 3 -69 3 -83 3c-15 0 -16 0 -83 -3c3 47 4 63 4 92l-67 -62c-27 -25 -67 -39 -112 -39c-136 0 -141 82 -141 171v168c0 66 -4 73 -44 73h-37 v28c53 6 105 20 156 41l9 -4v-295c0 -76 20 -121 100 -121" fill="black" stroke="black" stroke-width="1" transform="translate(0, 0) scale(1, -1)"></path></g></g><g><path d="M 0 -1376 V 1200" fill="none" stroke="black" stroke-width="100"></path></g><g><path d="M 1377 -3441 V -2309 A 200 200 0 0 1 1177 -2109 H 749" fill="none" stroke="black" stroke-width="100"></path></g><g><path d="M -2102 -4822 V -2309 A 200 200 0 0 0 -1902 -2109 H -749" fill="none" stroke="black" stroke-width="100"></path></g><g><path d="M -2102 -8911 V -6311" fill="none" stroke="black" stroke-width="100"></path></g><g><rect x="-749" y="-2841" width="1498" height="1465" rx="200" ry="200" fill="#FFFFFF" stroke="#000000" stroke-width="100"></rect><g transform="translate(-250, -1879)"><path d="M455 432l-314 -397h135c96 0 138 7 142 25l18 79h30l-6 -47c-7 -48 -9 -72 -9 -95l-276 3c-43 0 -49 0 -153 -3l-6 20l90 105l170 212c27 34 44 57 65 90h-143c-74 0 -92 -5 -96 -26l-12 -68h-30c6 69 7 81 9 132l248 -3c38 0 68 1 138 3v-30" fill="black" stroke="black" stroke-width="1" transform="translate(0, 0) scale(1, -1)"></path></g></g><g><rect x="600" y="-5183" width="1554" height="1742" rx="200" ry="200" fill="#FFFFFF" stroke="#000000" stroke-width="100"></rect><g transform="translate(1099, -4224)"><path d="M297 86l119 292c4 10 6 19 6 26c0 14 -14 23 -42 25l-26 2v28c79 -3 79 -3 95 -3s16 0 95 3v-28l-28 -2c-25 -3 -44 -30 -84 -121l-203 -468c-38 -87 -81 -123 -148 -123c-19 0 -35 5 -54 15l24 75h13c17 -15 35 -23 51 -23c38 0 77 47 109 131l23 61 c-18 50 -28 74 -56 142l-109 262c-15 35 -27 46 -52 49l-18 2v28c97 -3 97 -3 116 -3s19 0 116 3v-28l-38 -2c-23 -1 -34 -9 -34 -23c0 -10 4 -25 10 -42l64 -168c18 -49 29 -72 51 -110" fill="black" stroke="black" stroke-width="1" transform="translate(0, 0) scale(1, -1)"></path></g></g><g><rect x="-2813" y="-6311" width="1422" height="1489" rx="200" ry="200" fill="#FFFFFF" stroke="#21BA45" stroke-width="100"></rect><g transform="translate(-2314, -5342)"><path d="M41 143h30v-41c0 -50 52 -85 125 -85c71 0 121 38 121 92c0 86 -94 60 -212 112c-46 21 -68 55 -68 103c0 90 71 145 187 145c41 0 77 -7 130 -25c-3 -31 -4 -55 -5 -113h-28v23c0 47 -51 82 -118 82c-61 0 -96 -28 -96 -78c0 -130 284 -37 284 -210 c0 -98 -93 -168 -224 -168c-46 0 -85 7 -137 24c8 40 11 70 11 139" fill="black" stroke="black" stroke-width="1" transform="translate(0, 0) scale(1, -1)"></path></g></g></g><g transform="translate(24467, -2207)"><g><rect x="-2900" y="-6185" width="4777" height="6185" rx="200" ry="200" fill="#FFFFFF" stroke="#21BA45" stroke-width="100"></rect><g transform="translate(1052, -512)"><path d="M98 382l-76 -4v21l78 35v70c0 30 -1 49 -4 79c31 10 61 23 85 38l12 -11c-8 -64 -11 -100 -11 -142v-38l137 6l-9 -54h-128v-262c0 -49 16 -69 55 -69c19 0 34 5 59 19l13 -17l-48 -53c-6 -7 -30 -12 -53 -12c-77 0 -110 32 -110 106v288" fill="black" stroke="black" stroke-width="1" transform="translate(0, 0) scale(1, -1)"></path></g></g><g><path d="M 0 -1533 V 1200" fill="none" stroke="black" stroke-width="100"></path></g><g><path d="M 1377 -7385 V -2609 A 200 200 0 0 1 1177 -2409 H 777" fill="none" stroke="black" stroke-width="100"></path></g><g><path d="M 0 -7385 V -3285" fill="none" stroke="black" stroke-width="100"></path></g><g><path d="M -1500 -3885 V -2609 A 200 200 0 0 0 -1300 -2409 H -777" fill="none" stroke="black" stroke-width="100"></path></g><g><path d="M -1500 -7385 V -5485" fill="none" stroke="black" stroke-width="100"></path></g><g><rect x="-777" y="-3285" width="1554" height="1752" rx="200" ry="200" fill="#FFFFFF" stroke="#000000" stroke-width="100"></rect><g transform="translate(-278, -2316)"><path d="M55 289c0 135 146 180 221 180c49 0 85 -12 122 -42l142 4l4 -12l-25 -41h-92c8 -21 11 -34 11 -54c0 -127 -143 -174 -204 -174c-8 0 -14 1 -24 2c-17 -17 -46 -34 -46 -57c0 -27 24 -39 76 -39h160c70 0 118 -50 118 -122c0 -122 -119 -217 -270 -217 c-127 0 -216 63 -216 154c0 31 14 68 28 76l87 47c-48 14 -66 30 -66 58c0 15 5 28 15 43l79 61c-74 8 -120 59 -120 133zM240 435c-64 0 -101 -45 -101 -122s45 -129 112 -129c61 0 103 45 103 110c0 85 -46 141 -114 141zM287 -14c-69 0 -97 -2 -113 -10 c-40 -17 -66 -58 -66 -103c0 -74 60 -125 147 -125c105 0 184 64 184 150c0 65 -39 88 -152 88" fill="black" stroke="black" stroke-width="1" transform="translate(0, 0) scale(1, -1)"></path></g></g><g><rect x="-2300" y="-5485" width="1600" height="1600" rx="200" ry="200" fill="#FFFFFF" stroke="#F2711C" stroke-width="100"></rect><g transform="translate(-1800, -4985)"></g></g></g><g transform="translate(29744, -4500)"><g><path d="M 0 0 V 1200" fill="none" stroke="black" stroke-width="100"></path></g><g><path d="M 1400 -2800 V -1000 A 200 200 0 0 1 1200 -800 H 800" fill="none" stroke="black" stroke-width="100"></path></g><g><path d="M -1400 -2800 V -1000 A 200 200 0 0 0 -1200 -800 H -800" fill="none" stroke="black" stroke-width="100"></path></g><g><rect x="-800" y="-1600" width="1600" height="1600" rx="200" ry="200" fill="#FFFFFF" stroke="#F2711C" stroke-width="100"></rect><g transform="translate(-300, -1100)"></g></g></g></svg>