<?xml version="1.0" encoding="UTF-8" standalone="no"?>
<svg width="681" height="234" viewBox="0 -11709 34094 11709" xmlns="http://www.w3.org/2000/svg"><g transform="translate(3957, -2776)"><g><rect x="-1957" y="-6156" width="3912" height="6156" rx="200" ry="200" fill="#FFFFFF" stroke="#000000" stroke-width="100"></rect><g transform="translate(900, -783)"><path d="M297 86l119 292c4 10 6 19 6 26c0 14 -14 23 -42 25l-26 2v28c79 -3 79 -3 95 -3s16 0 95 3v-28l-28 -2c-25 -3 -44 -30 -84 -121l-203 -468c-38 -87 -81 -123 -148 -123c-19 0 -35 5 -54 15l24 75h13c17 -15 35 -23 51 -23c38 0 77 47 109 131l23 61 c-18 50 -28 74 -56 142l-109 262c-15 35 -27 46 -52 49l-18 2v28c97 -3 97 -3 116 -3s19 0 116 3v-28l-38 -2c-23 -1 -34 -9 -34 -23c0 -10 4 -25 10 -42l64 -168c18 -49 29 -72 51 -110" fill="black" stroke="black" stroke-width="1" transform="translate(0, 0) scale(1, -1)"></path></g></g><g><rect x="-1357" y="-5456" width="2812" height="3814" rx="200" ry="200" fill="#FFFFFF" stroke="#000000" stroke-width="100"></rect><g transform="translate(400, -2425)"><path d="M297 86l119 292c4 10 6 19 6 26c0 14 -14 23 -42 25l-26 2v28c79 -3 79 -3 95 -3s16 0 95 3v-28l-28 -2c-25 -3 -44 -30 -84 -121l-203 -468c-38 -87 -81 -123 -148 -123c-19 0 -35 5 -54 15l24 75h13c17 -15 35 -23 51 -23c38 0 77 47 109 131l23 61 c-18 50 -28 74 -56 142l-109 262c-15 35 -27 46 -52 49l-18 2v28c97 -3 97 -3 116 -3s19 0 116 3v-28l-38 -2c-23 -1 -34 -9 -34 -23c0 -10 4 -25 10 -42l64 -168c18 -49 29 -72 51 -110" fill="black" stroke="black" stroke-width="1" transform="translate(0, 0) scale(1, -1)"></path></g></g><g><rect x="-757" y="-4756" width="1514" height="1472" rx="200" ry="200" fill="#FFFFFF" stroke="#000000" stroke-width="100"></rect><g transform="translate(-258, -3787)"><path d="M288 254l148 -200c11 -15 23 -23 35 -24l25 -3v-30c-52 3 -52 3 -62 3c-9 0 -9 0 -61 -3l-133 195l-134 -192h-86v27h17c10 0 23 6 30 15l149 176l-120 174c-10 14 -32 28 -50 29l-21 2l-5 26l116 20c34 -34 45 -47 60 -69l76 -116l124 175h82v-28h-14 c-17 0 -28 -4 -34 -11" fill="black" stroke="black" stroke-width="1" transform="translate(0, 0) scale(1, -1)"></path></g></g></g><g transform="translate(10505, -1200)"><g><rect x="-2593" y="-9309" width="6998" height="9309" rx="200" ry="200" fill="#FFFFFF" stroke="#000000" stroke-width="100"></rect><g transform="translate(3573, -503)"><path d="M341 717v-77l-12 -6c-24 21 -42 28 -69 28c-57 0 -70 -28 -70 -143v-85l131 4l-7 -53h-124v-283c0 -63 3 -70 37 -72l46 -3v-30c-100 3 -100 3 -125 3s-25 0 -125 -3v30l46 3c34 2 37 9 37 72v283l-69 -4v22l69 31v42v2c0 77 57 259 168 259c21 0 43 -6 67 -20" fill="black" stroke="black" stroke-width="1" transform="translate(0, 0) scale(1, -1)"></path></g></g><g><rect x="-1993" y="-8609" width="5898" height="6969" rx="200" ry="200" fill="#FFFFFF" stroke="#000000" stroke-width="100"></rect><g transform="translate(400, -2423)"><path d="M188 465v-363c0 -63 3 -70 37 -72l46 -3v-30c-100 3 -100 3 -125 3s-25 0 -125 -3v30l46 3c34 2 37 9 37 72v225c0 66 -4 73 -44 73h-37v28c53 6 105 20 156 41zM142 687c28 0 55 -28 55 -56c0 -29 -27 -55 -56 -55s-55 26 -55 55c0 30 26 56 56 56" fill="black" stroke="black" stroke-width="1" transform="translate(0, 0) scale(1, -1)"></path><path d="M579 -3c-9 0 -73 3 -91 3c-12 0 -28 -1 -77 -3l5 92l-111 -93c-5 -4 -28 -8 -48 -8c-65 0 -112 13 -146 42c-49 40 -77 119 -77 199c0 122 149 257 272 257c40 0 78 -14 106 -49v183c0 30 -7 41 -25 41h-56v28c79 12 112 20 156 37l9 -8v-616c0 -63 3 -70 37 -72l46 -3 v-30zM412 350c0 16 -67 72 -146 72c-90 0 -144 -64 -144 -173c0 -119 63 -204 151 -204c47 0 96 31 124 78c13 23 15 33 15 98v129" fill="black" stroke="black" stroke-width="1" transform="translate(290, 0) scale(1, -1)"></path><path d="M284 215h-260l-6 5l28 67h262l6 -5" fill="black" stroke="black" stroke-width="1" transform="translate(900, 0) scale(1, -1)"></path><path d="M297 86l119 292c4 10 6 19 6 26c0 14 -14 23 -42 25l-26 2v28c79 -3 79 -3 95 -3s16 0 95 3v-28l-28 -2c-25 -3 -44 -30 -84 -121l-203 -468c-38 -87 -81 -123 -148 -123c-19 0 -35 5 -54 15l24 75h13c17 -15 35 -23 51 -23c38 0 77 47 109 131l23 61 c-18 50 -28 74 -56 142l-109 262c-15 35 -27 46 -52 49l-18 2v28c97 -3 97 -3 116 -3s19 0 116 3v-28l-38 -2c-23 -1 -34 -9 -34 -23c0 -10 4 -25 10 -42l64 -168c18 -49 29 -72 51 -110" fill="black" stroke="black" stroke-width="1" transform="translate(1232, 0) scale(1, -1)"></path><path d="" fill="black" stroke="black" stroke-width="1" transform="translate(1787, 0) scale(1, -1)"></path><path d="M342 271c0 -83 -65 -147 -147 -147c-83 0 -148 64 -148 147c0 81 65 146 148 146c82 0 147 -65 147 -146zM304 271c0 60 -50 109 -109 109c-62 0 -110 -49 -110 -109c0 -62 48 -110 110 -110c59 0 109 48 109 110" fill="black" stroke="black" stroke-width="1" transform="translate(2036, 0) scale(1, -1)"></path><path d="" fill="black" stroke="black" stroke-width="1" transform="translate(2424, 0) scale(1, -1)"></path><path d="M341 717v-77l-12 -6c-24 21 -42 28 -69 28c-57 0 -70 -28 -70 -143v-85l131 4l-7 -53h-124v-283c0 -63 3 -70 37 -72l46 -3v-30c-100 3 -100 3 -125 3s-25 0 -125 -3v30l46 3c34 2 37 9 37 72v283l-69 -4v22l69 31v42v2c0 77 57 259 168 259c21 0 43 -6 67 -20" fill="black" stroke="black" stroke-width="1" transform="translate(2673, 0) scale(1, -1)"></path></g></g><g><path d="M 0 -3560 V 1200" fill="none" stroke="black" stroke-width="100"></path></g><g><path d="M 0 -6169 V -5569" fill="none" stroke="black" stroke-width="100"></path></g><g><path d="M 0 -10509 V -7909" fill="none" stroke="black" stroke-width="100"></path></g><g><rect x="-1393" y="-5569" width="2786" height="2009" rx="200" ry="200" fill="#FFFFFF" stroke="#000000" stroke-width="100"></rect><g transform="translate(-894, -4343)"><path d="M188 465v-363c0 -63 3 -70 37 -72l46 -3v-30c-100 3 -100 3 -125 3s-25 0 -125 -3v30l46 3c34 2 37 9 37 72v225c0 66 -4 73 -44 73h-37v28c53 6 105 20 156 41zM142 687c28 0 55 -28 55 -56c0 -29 -27 -55 -56 -55s-55 26 -55 55c0 30 26 56 56 56" fill="black" stroke="black" stroke-width="1" transform="translate(0, 0) scale(1, -1)"></path><path d="M579 -3c-9 0 -73 3 -91 3c-12 0 -28 -1 -77 -3l5 92l-111 -93c-5 -4 -28 -8 -48 -8c-65 0 -112 13 -146 42c-49 40 -77 119 -77 199c0 122 149 257 272 257c40 0 78 -14 106 -49v183c0 30 -7 41 -25 41h-56v28c79 12 112 20 156 37l9 -8v-616c0 -63 3 -70 37 -72l46 -3 v-30zM412 350c0 16 -67 72 -146 72c-90 0 -144 -64 -144 -173c0 -119 63 -204 151 -204c47 0 96 31 124 78c13 23 15 33 15 98v129" fill="black" stroke="black" stroke-width="1" transform="translate(290, 0) scale(1, -1)"></path><path d="M284 215h-260l-6 5l28 67h262l6 -5" fill="black" stroke="black" stroke-width="1" transform="translate(900, 0) scale(1, -1)"></path><path d="M297 86l119 292c4 10 6 19 6 26c0 14 -14 23 -42 25l-26 2v28c79 -3 79 -3 95 -3s16 0 95 3v-28l-28 -2c-25 -3 -44 -30 -84 -121l-203 -468c-38 -87 -81 -123 -148 -123c-19 0 -35 5 -54 15l24 75h13c17 -15 35 -23 51 -23c38 0 77 47 109 131l23 61 c-18 50 -28 74 -56 142l-109 262c-15 35 -27 46 -52 49l-18 2v28c97 -3 97 -3 116 -3s19 0 116 3v-28l-38 -2c-23 -1 -34 -9 -34 -23c0 -10 4 -25 10 -42l64 -168c18 -49 29 -72 51 -110" fill="black" stroke="black" stroke-width="1" transform="translate(1232, 0) scale(1, -1)"></path></g></g><g><rect x="-666" y="-7909" width="1332" height="1740" rx="200" ry="200" fill="#FFFFFF" stroke="#000000" stroke-width="100"></rect><g transform="translate(-166, -6672)"><path d="M341 717v-77l-12 -6c-24 21 -42 28 -69 28c-57 0 -70 -28 -70 -143v-85l131 4l-7 -53h-124v-283c0 -63 3 -70 37 -72l46 -3v-30c-100 3 -100 3 -125 3s-25 0 -125 -3v30l46 3c34 2 37 9 37 72v283l-69 -4v22l69 31v42v2c0 77 57 259 168 259c21 0 43 -6 67 -20" fill="black" stroke="black" stroke-width="1" transform="translate(0, 0) scale(1, -1)"></path></g></g></g><g transform="translate(21320, -1794)"><g><rect x="-4410" y="-8121" width="8720" height="8121" rx="200" ry="200" fill="#FFFFFF" stroke="#DB2828" stroke-width="100"></rect><g transform="translate(3298, -783)"><path d="M458 205c20 -125 -76 -220 -197 -220c-44 0 -89 13 -127 44c3 -95 6 -191 17 -288c-26 -6 -50 -15 -74 -24l-9 10c11 186 6 375 5 562c0 150 -15 306 135 372c28 12 57 19 88 19c64 0 103 -36 113 -99c17 -102 -54 -181 -141 -212l1 -9c91 -2 174 -59 189 -155zM376 208 c-13 83 -70 131 -152 131c-17 0 -32 -3 -47 -10l-9 8c4 10 5 22 6 34c106 0 187 75 169 187c-7 48 -37 88 -89 88c-19 0 -37 -6 -52 -17c-80 -56 -77 -424 -61 -526c9 -58 51 -91 108 -91c106 0 142 103 127 196" fill="black" stroke="black" stroke-width="1" transform="translate(0, 0) scale(1, -1)"></path></g></g><g><path d="M 0 -2463 V 1200" fill="none" stroke="black" stroke-width="100"></path><polygon points="0,0 150,300 300,0" stroke="black" stroke-width="100" fill="black" transform="translate(-150, -2163)"></polygon><polygon points="0,0 150,300 300,0" stroke="red" stroke-width="100" fill="red" transform="translate(-150, 300)"></polygon></g><g><path d="M 0 -5401 V -4201" fill="none" stroke="black" stroke-width="100"></path><polygon points="0,0 150,300 300,0" stroke="black" stroke-width="100" fill="black" transform="translate(-150, -5101)"></polygon></g><g><path d="M 3810 -9321 V -6611 A 200 200 0 0 1 3610 -6411 H 3210" fill="none" stroke="black" stroke-width="100"></path></g><g><path d="M -3810 -9321 V -6611 A 200 200 0 0 0 -3610 -6411 H -3210" fill="none" stroke="black" stroke-width="100"></path></g><g><rect x="-2593" y="-4201" width="5186" height="1738" rx="200" ry="200" fill="#FFFFFF" stroke="#000000" stroke-width="100"></rect><g transform="translate(-2094, -2975)"><path d="M283 49c87 0 136 77 136 115v163c0 66 -4 73 -44 73h-37v28c53 6 105 20 156 41l9 -4v-363c0 -64 3 -70 37 -72l41 -3v-30c-69 3 -69 3 -83 3c-15 0 -16 0 -83 -3c3 47 4 63 4 92l-67 -62c-27 -25 -67 -39 -112 -39c-136 0 -141 82 -141 171v168c0 66 -4 73 -44 73h-37 v28c53 6 105 20 156 41l9 -4v-295c0 -76 20 -121 100 -121" fill="black" stroke="black" stroke-width="1" transform="translate(0, 0) scale(1, -1)"></path><path d="M410 -3v284c0 77 -44 127 -111 127c-61 0 -127 -49 -127 -94v-212c0 -63 3 -70 37 -72l45 -3v-30c-68 2 -95 3 -124 3s-56 -1 -124 -3v30l45 3c34 2 37 9 37 72v225c0 66 -4 73 -44 73h-37v28c53 6 105 20 156 41l9 -4v-87l76 66c21 18 42 25 79 25 c112 0 167 -57 167 -174v-193c0 -64 3 -70 37 -72l41 -3v-30c-69 3 -69 3 -83 3c-17 0 -18 0 -79 -3" fill="black" stroke="black" stroke-width="1" transform="translate(602, 0) scale(1, -1)"></path><path d="M188 465v-363c0 -63 3 -70 37 -72l46 -3v-30c-100 3 -100 3 -125 3s-25 0 -125 -3v30l46 3c34 2 37 9 37 72v225c0 66 -4 73 -44 73h-37v28c53 6 105 20 156 41zM142 687c28 0 55 -28 55 -56c0 -29 -27 -55 -56 -55s-55 26 -55 55c0 30 26 56 56 56" fill="black" stroke="black" stroke-width="1" transform="translate(1183, 0) scale(1, -1)"></path><path d="M98 382l-76 -4v21l78 35v70c0 30 -1 49 -4 79c31 10 61 23 85 38l12 -11c-8 -64 -11 -100 -11 -142v-38l137 6l-9 -54h-128v-262c0 -49 16 -69 55 -69c19 0 34 5 59 19l13 -17l-48 -53c-6 -7 -30 -12 -53 -12c-77 0 -110 32 -110 106v288" fill="black" stroke="black" stroke-width="1" transform="translate(1473, 0) scale(1, -1)"></path><path d="M284 215h-260l-6 5l28 67h262l6 -5" fill="black" stroke="black" stroke-width="1" transform="translate(1798, 0) scale(1, -1)"></path><path d="M23 661v28c79 12 112 20 156 37l9 -8v-616c0 -63 3 -70 37 -72l46 -3v-30c-100 3 -100 3 -125 3s-25 0 -125 -3v30l46 3c34 2 37 9 37 72v518c0 30 -7 41 -25 41h-56" fill="black" stroke="black" stroke-width="1" transform="translate(2130, 0) scale(1, -1)"></path><path d="M284 215h-260l-6 5l28 67h262l6 -5" fill="black" stroke="black" stroke-width="1" transform="translate(2420, 0) scale(1, -1)"></path><path d="M188 465v-363c0 -63 3 -70 37 -72l46 -3v-30c-100 3 -100 3 -125 3s-25 0 -125 -3v30l46 3c34 2 37 9 37 72v225c0 66 -4 73 -44 73h-37v28c53 6 105 20 156 41zM142 687c28 0 55 -28 55 -56c0 -29 -27 -55 -56 -55s-55 26 -55 55c0 30 26 56 56 56" fill="black" stroke="black" stroke-width="1" transform="translate(2752, 0) scale(1, -1)"></path><path d="M410 -3v284c0 77 -44 127 -111 127c-61 0 -127 -49 -127 -94v-212c0 -63 3 -70 37 -72l45 -3v-30c-68 2 -95 3 -124 3s-56 -1 -124 -3v30l45 3c34 2 37 9 37 72v225c0 66 -4 73 -44 73h-37v28c53 6 105 20 156 41l9 -4v-87l76 66c21 18 42 25 79 25 c112 0 167 -57 167 -174v-193c0 -64 3 -70 37 -72l41 -3v-30c-69 3 -69 3 -83 3c-17 0 -18 0 -79 -3" fill="black" stroke="black" stroke-width="1" transform="translate(3042, 0) scale(1, -1)"></path><path d="M539 431l-31 -2c-20 -2 -34 -20 -56 -67l-159 -369h-50l-172 403c-11 25 -16 31 -31 33l-34 2v28c49 -2 97 -3 116 -3s19 0 117 3v-28l-49 -2c-16 -1 -25 -8 -25 -19s3 -24 9 -38l119 -288c38 83 92 217 104 246c12 30 19 57 19 73s-8 25 -24 26l-41 2v28 c60 -2 78 -3 94 -3s34 1 94 3v-28" fill="black" stroke="black" stroke-width="1" transform="translate(3623, 0) scale(1, -1)"></path></g></g><g><rect x="-3210" y="-7421" width="6420" height="2020" rx="200" ry="200" fill="#FFFFFF" stroke="#000000" stroke-width="100"></rect><g transform="translate(-2711, -6184)"><path d="M579 -3c-9 0 -73 3 -91 3c-12 0 -28 -1 -77 -3l5 92l-111 -93c-5 -4 -28 -8 -48 -8c-65 0 -112 13 -146 42c-49 40 -77 119 -77 199c0 122 149 257 272 257c40 0 78 -14 106 -49v183c0 30 -7 41 -25 41h-56v28c79 12 112 20 156 37l9 -8v-616c0 -63 3 -70 37 -72l46 -3 v-30zM412 350c0 16 -67 72 -146 72c-90 0 -144 -64 -144 -173c0 -119 63 -204 151 -204c47 0 96 31 124 78c13 23 15 33 15 98v129" fill="black" stroke="black" stroke-width="1" transform="translate(0, 0) scale(1, -1)"></path><path d="M250 -20c-89 0 -224 45 -224 239c0 104 32 173 114 221c40 24 85 29 122 29c112 0 186 -75 186 -190c0 -12 -1 -21 -2 -35c-47 -10 -156 -18 -242 -18c-34 0 -64 1 -85 4c2 -58 9 -86 28 -119c28 -49 82 -78 147 -78c43 0 66 9 130 47l13 -10l-20 -34 c-12 -18 -102 -56 -167 -56zM359 267c-3 67 -10 96 -32 129c-18 27 -44 40 -77 40c-48 0 -91 -27 -112 -71c-13 -26 -17 -48 -17 -95c26 -6 69 -9 112 -9c51 0 102 3 126 6" fill="black" stroke="black" stroke-width="1" transform="translate(610, 0) scale(1, -1)"></path><path d="M341 717v-77l-12 -6c-24 21 -42 28 -69 28c-57 0 -70 -28 -70 -143v-85l131 4l-7 -53h-124v-283c0 -63 3 -70 37 -72l46 -3v-30c-100 3 -100 3 -125 3s-25 0 -125 -3v30l46 3c34 2 37 9 37 72v283l-69 -4v22l69 31v42v2c0 77 57 259 168 259c21 0 43 -6 67 -20" fill="black" stroke="black" stroke-width="1" transform="translate(1088, 0) scale(1, -1)"></path><path d="M284 215h-260l-6 5l28 67h262l6 -5" fill="black" stroke="black" stroke-width="1" transform="translate(1420, 0) scale(1, -1)"></path><path d="M146 266c0 -281 109 -403 155 -460l-19 -21c-82 77 -114 116 -149 183c-48 90 -73 191 -73 298c0 276 165 409 222 460l19 -26c-58 -68 -155 -174 -155 -434" fill="black" stroke="black" stroke-width="1" transform="translate(1752, 0) scale(1, -1)"></path><path d="M188 465v-363c0 -63 3 -70 37 -72l46 -3v-30c-100 3 -100 3 -125 3s-25 0 -125 -3v30l46 3c34 2 37 9 37 72v225c0 66 -4 73 -44 73h-37v28c53 6 105 20 156 41zM142 687c28 0 55 -28 55 -56c0 -29 -27 -55 -56 -55s-55 26 -55 55c0 30 26 56 56 56" fill="black" stroke="black" stroke-width="1" transform="translate(2084, 0) scale(1, -1)"></path><path d="M579 -3c-9 0 -73 3 -91 3c-12 0 -28 -1 -77 -3l5 92l-111 -93c-5 -4 -28 -8 -48 -8c-65 0 -112 13 -146 42c-49 40 -77 119 -77 199c0 122 149 257 272 257c40 0 78 -14 106 -49v183c0 30 -7 41 -25 41h-56v28c79 12 112 20 156 37l9 -8v-616c0 -63 3 -70 37 -72l46 -3 v-30zM412 350c0 16 -67 72 -146 72c-90 0 -144 -64 -144 -173c0 -119 63 -204 151 -204c47 0 96 31 124 78c13 23 15 33 15 98v129" fill="black" stroke="black" stroke-width="1" transform="translate(2374, 0) scale(1, -1)"></path><path d="M284 215h-260l-6 5l28 67h262l6 -5" fill="black" stroke="black" stroke-width="1" transform="translate(2984, 0) scale(1, -1)"></path><path d="M297 86l119 292c4 10 6 19 6 26c0 14 -14 23 -42 25l-26 2v28c79 -3 79 -3 95 -3s16 0 95 3v-28l-28 -2c-25 -3 -44 -30 -84 -121l-203 -468c-38 -87 -81 -123 -148 -123c-19 0 -35 5 -54 15l24 75h13c17 -15 35 -23 51 -23c38 0 77 47 109 131l23 61 c-18 50 -28 74 -56 142l-109 262c-15 35 -27 46 -52 49l-18 2v28c97 -3 97 -3 116 -3s19 0 116 3v-28l-38 -2c-23 -1 -34 -9 -34 -23c0 -10 4 -25 10 -42l64 -168c18 -49 29 -72 51 -110" fill="black" stroke="black" stroke-width="1" transform="translate(3316, 0) scale(1, -1)"></path><path d="" fill="black" stroke="black" stroke-width="1" transform="translate(3871, 0) scale(1, -1)"></path><path d="M342 271c0 -83 -65 -147 -147 -147c-83 0 -148 64 -148 147c0 81 65 146 148 146c82 0 147 -65 147 -146zM304 271c0 60 -50 109 -109 109c-62 0 -110 -49 -110 -109c0 -62 48 -110 110 -110c59 0 109 48 109 110" fill="black" stroke="black" stroke-width="1" transform="translate(4120, 0) scale(1, -1)"></path><path d="" fill="black" stroke="black" stroke-width="1" transform="translate(4508, 0) scale(1, -1)"></path><path d="M341 717v-77l-12 -6c-24 21 -42 28 -69 28c-57 0 -70 -28 -70 -143v-85l131 4l-7 -53h-124v-283c0 -63 3 -70 37 -72l46 -3v-30c-100 3 -100 3 -125 3s-25 0 -125 -3v30l46 3c34 2 37 9 37 72v283l-69 -4v22l69 31v42v2c0 77 57 259 168 259c21 0 43 -6 67 -20" fill="black" stroke="black" stroke-width="1" transform="translate(4757, 0) scale(1, -1)"></path><path d="M51 726c57 -51 222 -184 222 -461c0 -288 -169 -430 -222 -480l-19 21c51 63 155 184 155 460c0 260 -100 370 -155 434" fill="black" stroke="black" stroke-width="1" transform="translate(5089, 0) scale(1, -1)"></path></g></g></g><g transform="translate(29862, -4844)"><g><path d="M 0 0 V 1200" fill="none" stroke="black" stroke-width="100"></path><polygon points="0,0 150,300 300,0" stroke="red" stroke-width="100" fill="red" transform="translate(-150, 300)"></polygon></g><g><path d="M 2232 -3220 V -1210 A 200 200 0 0 1 2032 -1010 H 1632" fill="none" stroke="black" stroke-width="100"></path></g><g><path d="M -2232 -3220 V -1210 A 200 200 0 0 0 -2032 -1010 H -1632" fill="none" stroke="black" stroke-width="100"></path></g><g><rect x="-1632" y="-2020" width="3264" height="2020" rx="200" ry="200" fill="#FFFFFF" stroke="#DB2828" stroke-width="100"></rect><g transform="translate(-1132, -783)"><path d="M579 -3c-9 0 -73 3 -91 3c-12 0 -28 -1 -77 -3l5 92l-111 -93c-5 -4 -28 -8 -48 -8c-65 0 -112 13 -146 42c-49 40 -77 119 -77 199c0 122 149 257 272 257c40 0 78 -14 106 -49v183c0 30 -7 41 -25 41h-56v28c79 12 112 20 156 37l9 -8v-616c0 -63 3 -70 37 -72l46 -3 v-30zM412 350c0 16 -67 72 -146 72c-90 0 -144 -64 -144 -173c0 -119 63 -204 151 -204c47 0 96 31 124 78c13 23 15 33 15 98v129" fill="black" stroke="black" stroke-width="1" transform="translate(0, 0) scale(1, -1)"></path><path d="M250 -20c-89 0 -224 45 -224 239c0 104 32 173 114 221c40 24 85 29 122 29c112 0 186 -75 186 -190c0 -12 -1 -21 -2 -35c-47 -10 -156 -18 -242 -18c-34 0 -64 1 -85 4c2 -58 9 -86 28 -119c28 -49 82 -78 147 -78c43 0 66 9 130 47l13 -10l-20 -34 c-12 -18 -102 -56 -167 -56zM359 267c-3 67 -10 96 -32 129c-18 27 -44 40 -77 40c-48 0 -91 -27 -112 -71c-13 -26 -17 -48 -17 -95c26 -6 69 -9 112 -9c51 0 102 3 126 6" fill="black" stroke="black" stroke-width="1" transform="translate(610, 0) scale(1, -1)"></path><path d="M341 717v-77l-12 -6c-24 21 -42 28 -69 28c-57 0 -70 -28 -70 -143v-85l131 4l-7 -53h-124v-283c0 -63 3 -70 37 -72l46 -3v-30c-100 3 -100 3 -125 3s-25 0 -125 -3v30l46 3c34 2 37 9 37 72v283l-69 -4v22l69 31v42v2c0 77 57 259 168 259c21 0 43 -6 67 -20" fill="black" stroke="black" stroke-width="1" transform="translate(1088, 0) scale(1, -1)"></path><path d="M284 215h-260l-6 5l28 67h262l6 -5" fill="black" stroke="black" stroke-width="1" transform="translate(1420, 0) scale(1, -1)"></path><path d="M458 205c20 -125 -76 -220 -197 -220c-44 0 -89 13 -127 44c3 -95 6 -191 17 -288c-26 -6 -50 -15 -74 -24l-9 10c11 186 6 375 5 562c0 150 -15 306 135 372c28 12 57 19 88 19c64 0 103 -36 113 -99c17 -102 -54 -181 -141 -212l1 -9c91 -2 174 -59 189 -155zM376 208 c-13 83 -70 131 -152 131c-17 0 -32 -3 -47 -10l-9 8c4 10 5 22 6 34c106 0 187 75 169 187c-7 48 -37 88 -89 88c-19 0 -37 -6 -52 -17c-80 -56 -77 -424 -61 -526c9 -58 51 -91 108 -91c106 0 142 103 127 196" fill="black" stroke="black" stroke-width="1" transform="translate(1752, 0) scale(1, -1)"></path></g></g></g></svg>