<?xml version="1.0" encoding="UTF-8" standalone="no"?>
<svg width="408" height="200" viewBox="0 -10030 20442 10030" xmlns="http://www.w3.org/2000/svg"><g transform="translate(3957, -2072)"><g><rect x="-1957" y="-5886" width="3912" height="5886" rx="200" ry="200" fill="#FFFFFF" stroke="#000000" stroke-width="100"></rect><g transform="translate(940, -503)"><path d="M288 254l148 -200c11 -15 23 -23 35 -24l25 -3v-30c-52 3 -52 3 -62 3c-9 0 -9 0 -61 -3l-133 195l-134 -192h-86v27h17c10 0 23 6 30 15l149 176l-120 174c-10 14 -32 28 -50 29l-21 2l-5 26l116 20c34 -34 45 -47 60 -69l76 -116l124 175h82v-28h-14 c-17 0 -28 -4 -34 -11" fill="black" stroke="black" stroke-width="1" transform="translate(0, 0) scale(1, -1)"></path></g></g><g><rect x="-1357" y="-5186" width="2812" height="3814" rx="200" ry="200" fill="#FFFFFF" stroke="#000000" stroke-width="100"></rect><g transform="translate(400, -2155)"><path d="M297 86l119 292c4 10 6 19 6 26c0 14 -14 23 -42 25l-26 2v28c79 -3 79 -3 95 -3s16 0 95 3v-28l-28 -2c-25 -3 -44 -30 -84 -121l-203 -468c-38 -87 -81 -123 -148 -123c-19 0 -35 5 -54 15l24 75h13c17 -15 35 -23 51 -23c38 0 77 47 109 131l23 61 c-18 50 -28 74 -56 142l-109 262c-15 35 -27 46 -52 49l-18 2v28c97 -3 97 -3 116 -3s19 0 116 3v-28l-38 -2c-23 -1 -34 -9 -34 -23c0 -10 4 -25 10 -42l64 -168c18 -49 29 -72 51 -110" fill="black" stroke="black" stroke-width="1" transform="translate(0, 0) scale(1, -1)"></path></g></g><g><rect x="-757" y="-4486" width="1514" height="1472" rx="200" ry="200" fill="#FFFFFF" stroke="#000000" stroke-width="100"></rect><g transform="translate(-258, -3517)"><path d="M288 254l148 -200c11 -15 23 -23 35 -24l25 -3v-30c-52 3 -52 3 -62 3c-9 0 -9 0 -61 -3l-133 195l-134 -192h-86v27h17c10 0 23 6 30 15l149 176l-120 174c-10 14 -32 28 -50 29l-21 2l-5 26l116 20c34 -34 45 -47 60 -69l76 -116l124 175h82v-28h-14 c-17 0 -28 -4 -34 -11" fill="black" stroke="black" stroke-width="1" transform="translate(0, 0) scale(1, -1)"></path></g></g></g><g transform="translate(9289, -1200)"><g><rect x="-1377" y="-7630" width="4024" height="7630" rx="200" ry="200" fill="#FFFFFF" stroke="#000000" stroke-width="100"></rect><g transform="translate(400, -512)"><path d="M188 465v-363c0 -63 3 -70 37 -72l46 -3v-30c-100 3 -100 3 -125 3s-25 0 -125 -3v30l46 3c34 2 37 9 37 72v225c0 66 -4 73 -44 73h-37v28c53 6 105 20 156 41zM142 687c28 0 55 -28 55 -56c0 -29 -27 -55 -56 -55s-55 26 -55 55c0 30 26 56 56 56" fill="black" stroke="black" stroke-width="1" transform="translate(0, 0) scale(1, -1)"></path><path d="M579 -3c-9 0 -73 3 -91 3c-12 0 -28 -1 -77 -3l5 92l-111 -93c-5 -4 -28 -8 -48 -8c-65 0 -112 13 -146 42c-49 40 -77 119 -77 199c0 122 149 257 272 257c40 0 78 -14 106 -49v183c0 30 -7 41 -25 41h-56v28c79 12 112 20 156 37l9 -8v-616c0 -63 3 -70 37 -72l46 -3 v-30zM412 350c0 16 -67 72 -146 72c-90 0 -144 -64 -144 -173c0 -119 63 -204 151 -204c47 0 96 31 124 78c13 23 15 33 15 98v129" fill="black" stroke="black" stroke-width="1" transform="translate(290, 0) scale(1, -1)"></path><path d="M284 215h-260l-6 5l28 67h262l6 -5" fill="black" stroke="black" stroke-width="1" transform="translate(900, 0) scale(1, -1)"></path><path d="M288 254l148 -200c11 -15 23 -23 35 -24l25 -3v-30c-52 3 -52 3 -62 3c-9 0 -9 0 -61 -3l-133 195l-134 -192h-86v27h17c10 0 23 6 30 15l149 176l-120 174c-10 14 -32 28 -50 29l-21 2l-5 26l116 20c34 -34 45 -47 60 -69l76 -116l124 175h82v-28h-14 c-17 0 -28 -4 -34 -11" fill="black" stroke="black" stroke-width="1" transform="translate(1232, 0) scale(1, -1)"></path></g></g><g><path d="M 0 -2238 V 1200" fill="none" stroke="black" stroke-width="100"></path><polygon points="0,0 150,300 300,0" stroke="red" stroke-width="100" fill="red" transform="translate(-150, -1938)"></polygon><polygon points="0,0 150,300 300,0" stroke="black" stroke-width="100" fill="black" transform="translate(-150, 300)"></polygon></g><g><path d="M 0 -5190 V -3990" fill="none" stroke="black" stroke-width="100"></path><polygon points="0,0 150,300 300,0" stroke="black" stroke-width="100" fill="black" transform="translate(-150, -4890)"></polygon></g><g><path d="M 0 -8830 V -6930" fill="none" stroke="black" stroke-width="100"></path></g><g><rect x="-777" y="-3990" width="1554" height="1752" rx="200" ry="200" fill="#FFFFFF" stroke="#DB2828" stroke-width="100"></rect><g transform="translate(-278, -3021)"><path d="M55 289c0 135 146 180 221 180c49 0 85 -12 122 -42l142 4l4 -12l-25 -41h-92c8 -21 11 -34 11 -54c0 -127 -143 -174 -204 -174c-8 0 -14 1 -24 2c-17 -17 -46 -34 -46 -57c0 -27 24 -39 76 -39h160c70 0 118 -50 118 -122c0 -122 -119 -217 -270 -217 c-127 0 -216 63 -216 154c0 31 14 68 28 76l87 47c-48 14 -66 30 -66 58c0 15 5 28 15 43l79 61c-74 8 -120 59 -120 133zM240 435c-64 0 -101 -45 -101 -122s45 -129 112 -129c61 0 103 45 103 110c0 85 -46 141 -114 141zM287 -14c-69 0 -97 -2 -113 -10 c-40 -17 -66 -58 -66 -103c0 -74 60 -125 147 -125c105 0 184 64 184 150c0 65 -39 88 -152 88" fill="black" stroke="black" stroke-width="1" transform="translate(0, 0) scale(1, -1)"></path></g></g><g><rect x="-666" y="-6930" width="1332" height="1740" rx="200" ry="200" fill="#FFFFFF" stroke="#000000" stroke-width="100"></rect><g transform="translate(-166, -5693)"><path d="M341 717v-77l-12 -6c-24 21 -42 28 -69 28c-57 0 -70 -28 -70 -143v-85l131 4l-7 -53h-124v-283c0 -63 3 -70 37 -72l46 -3v-30c-100 3 -100 3 -125 3s-25 0 -125 -3v30l46 3c34 2 37 9 37 72v283l-69 -4v22l69 31v42v2c0 77 57 259 168 259c21 0 43 -6 67 -20" fill="black" stroke="black" stroke-width="1" transform="translate(0, 0) scale(1, -1)"></path></g></g></g><g transform="translate(16189, -4005)"><g><path d="M 0 0 V 1200" fill="none" stroke="black" stroke-width="100"></path><polygon points="0,0 150,300 300,0" stroke="red" stroke-width="100" fill="red" transform="translate(-150, 300)"></polygon></g><g><path d="M 2253 -3220 V -1210 A 200 200 0 0 1 2053 -1010 H 1653" fill="none" stroke="black" stroke-width="100"></path><polygon points="150,0 300,300 0,300" stroke="red" stroke-width="100" fill="red" transform="translate(2103, -2620)"></polygon></g><g><path d="M -2253 -3220 V -1210 A 200 200 0 0 0 -2053 -1010 H -1653" fill="none" stroke="black" stroke-width="100"></path></g><g><rect x="-1653" y="-2020" width="3306" height="2020" rx="200" ry="200" fill="#FFFFFF" stroke="#DB2828" stroke-width="100"></rect><g transform="translate(-1154, -783)"><path d="M579 -3c-9 0 -73 3 -91 3c-12 0 -28 -1 -77 -3l5 92l-111 -93c-5 -4 -28 -8 -48 -8c-65 0 -112 13 -146 42c-49 40 -77 119 -77 199c0 122 149 257 272 257c40 0 78 -14 106 -49v183c0 30 -7 41 -25 41h-56v28c79 12 112 20 156 37l9 -8v-616c0 -63 3 -70 37 -72l46 -3 v-30zM412 350c0 16 -67 72 -146 72c-90 0 -144 -64 -144 -173c0 -119 63 -204 151 -204c47 0 96 31 124 78c13 23 15 33 15 98v129" fill="black" stroke="black" stroke-width="1" transform="translate(0, 0) scale(1, -1)"></path><path d="M250 -20c-89 0 -224 45 -224 239c0 104 32 173 114 221c40 24 85 29 122 29c112 0 186 -75 186 -190c0 -12 -1 -21 -2 -35c-47 -10 -156 -18 -242 -18c-34 0 -64 1 -85 4c2 -58 9 -86 28 -119c28 -49 82 -78 147 -78c43 0 66 9 130 47l13 -10l-20 -34 c-12 -18 -102 -56 -167 -56zM359 267c-3 67 -10 96 -32 129c-18 27 -44 40 -77 40c-48 0 -91 -27 -112 -71c-13 -26 -17 -48 -17 -95c26 -6 69 -9 112 -9c51 0 102 3 126 6" fill="black" stroke="black" stroke-width="1" transform="translate(610, 0) scale(1, -1)"></path><path d="M341 717v-77l-12 -6c-24 21 -42 28 -69 28c-57 0 -70 -28 -70 -143v-85l131 4l-7 -53h-124v-283c0 -63 3 -70 37 -72l46 -3v-30c-100 3 -100 3 -125 3s-25 0 -125 -3v30l46 3c34 2 37 9 37 72v283l-69 -4v22l69 31v42v2c0 77 57 259 168 259c21 0 43 -6 67 -20" fill="black" stroke="black" stroke-width="1" transform="translate(1088, 0) scale(1, -1)"></path><path d="M284 215h-260l-6 5l28 67h262l6 -5" fill="black" stroke="black" stroke-width="1" transform="translate(1420, 0) scale(1, -1)"></path><path d="M55 289c0 135 146 180 221 180c49 0 85 -12 122 -42l142 4l4 -12l-25 -41h-92c8 -21 11 -34 11 -54c0 -127 -143 -174 -204 -174c-8 0 -14 1 -24 2c-17 -17 -46 -34 -46 -57c0 -27 24 -39 76 -39h160c70 0 118 -50 118 -122c0 -122 -119 -217 -270 -217 c-127 0 -216 63 -216 154c0 31 14 68 28 76l87 47c-48 14 -66 30 -66 58c0 15 5 28 15 43l79 61c-74 8 -120 59 -120 133zM240 435c-64 0 -101 -45 -101 -122s45 -129 112 -129c61 0 103 45 103 110c0 85 -46 141 -114 141zM287 -14c-69 0 -97 -2 -113 -10 c-40 -17 -66 -58 -66 -103c0 -74 60 -125 147 -125c105 0 184 64 184 150c0 65 -39 88 -152 88" fill="black" stroke="black" stroke-width="1" transform="translate(1752, 0) scale(1, -1)"></path></g></g></g></svg>