<?xml version="1.0" encoding="UTF-8" standalone="no"?>
<svg width="725" height="260" viewBox="0 -16689 36919 16689" xmlns="http://www.w3.org/2000/svg"><g transform="translate(3957, -5266)"><g><rect x="-1957" y="-6156" width="3912" height="6156" rx="200" ry="200" fill="#FFFFFF" stroke="#000000" stroke-width="100"></rect><g transform="translate(900, -783)"><path d="M297 86l119 292c4 10 6 19 6 26c0 14 -14 23 -42 25l-26 2v28c79 -3 79 -3 95 -3s16 0 95 3v-28l-28 -2c-25 -3 -44 -30 -84 -121l-203 -468c-38 -87 -81 -123 -148 -123c-19 0 -35 5 -54 15l24 75h13c17 -15 35 -23 51 -23c38 0 77 47 109 131l23 61 c-18 50 -28 74 -56 142l-109 262c-15 35 -27 46 -52 49l-18 2v28c97 -3 97 -3 116 -3s19 0 116 3v-28l-38 -2c-23 -1 -34 -9 -34 -23c0 -10 4 -25 10 -42l64 -168c18 -49 29 -72 51 -110" fill="black" stroke="black" stroke-width="1" transform="translate(0, 0) scale(1, -1)"></path></g></g><g><rect x="-1357" y="-5456" width="2812" height="3814" rx="200" ry="200" fill="#FFFFFF" stroke="#000000" stroke-width="100"></rect><g transform="translate(400, -2425)"><path d="M297 86l119 292c4 10 6 19 6 26c0 14 -14 23 -42 25l-26 2v28c79 -3 79 -3 95 -3s16 0 95 3v-28l-28 -2c-25 -3 -44 -30 -84 -121l-203 -468c-38 -87 -81 -123 -148 -123c-19 0 -35 5 -54 15l24 75h13c17 -15 35 -23 51 -23c38 0 77 47 109 131l23 61 c-18 50 -28 74 -56 142l-109 262c-15 35 -27 46 -52 49l-18 2v28c97 -3 97 -3 116 -3s19 0 116 3v-28l-38 -2c-23 -1 -34 -9 -34 -23c0 -10 4 -25 10 -42l64 -168c18 -49 29 -72 51 -110" fill="black" stroke="black" stroke-width="1" transform="translate(0, 0) scale(1, -1)"></path></g></g><g><rect x="-757" y="-4756" width="1514" height="1472" rx="200" ry="200" fill="#FFFFFF" stroke="#000000" stroke-width="100"></rect><g transform="translate(-258, -3787)"><path d="M288 254l148 -200c11 -15 23 -23 35 -24l25 -3v-30c-52 3 -52 3 -62 3c-9 0 -9 0 -61 -3l-133 195l-134 -192h-86v27h17c10 0 23 6 30 15l149 176l-120 174c-10 14 -32 28 -50 29l-21 2l-5 26l116 20c34 -34 45 -47 60 -69l76 -116l124 175h82v-28h-14 c-17 0 -28 -4 -34 -11" fill="black" stroke="black" stroke-width="1" transform="translate(0, 0) scale(1, -1)"></path></g></g></g><g transform="translate(11698, -1200)"><g><rect x="-3786" y="-14289" width="9841" height="14289" rx="200" ry="200" fill="#FFFFFF" stroke="#000000" stroke-width="100"></rect><g transform="translate(5223, -503)"><path d="M341 717v-77l-12 -6c-24 21 -42 28 -69 28c-57 0 -70 -28 -70 -143v-85l131 4l-7 -53h-124v-283c0 -63 3 -70 37 -72l46 -3v-30c-100 3 -100 3 -125 3s-25 0 -125 -3v30l46 3c34 2 37 9 37 72v283l-69 -4v22l69 31v42v2c0 77 57 259 168 259c21 0 43 -6 67 -20" fill="black" stroke="black" stroke-width="1" transform="translate(0, 0) scale(1, -1)"></path></g></g><g><rect x="-3186" y="-13589" width="8741" height="11949" rx="200" ry="200" fill="#FFFFFF" stroke="#000000" stroke-width="100"></rect><g transform="translate(2090, -2152)"><path d="M341 717v-77l-12 -6c-24 21 -42 28 -69 28c-57 0 -70 -28 -70 -143v-85l131 4l-7 -53h-124v-283c0 -63 3 -70 37 -72l46 -3v-30c-100 3 -100 3 -125 3s-25 0 -125 -3v30l46 3c34 2 37 9 37 72v283l-69 -4v22l69 31v42v2c0 77 57 259 168 259c21 0 43 -6 67 -20" fill="black" stroke="black" stroke-width="1" transform="translate(0, 0) scale(1, -1)"></path><path d="" fill="black" stroke="black" stroke-width="1" transform="translate(332, 0) scale(1, -1)"></path><path d="M342 271c0 -83 -65 -147 -147 -147c-83 0 -148 64 -148 147c0 81 65 146 148 146c82 0 147 -65 147 -146zM304 271c0 60 -50 109 -109 109c-62 0 -110 -49 -110 -109c0 -62 48 -110 110 -110c59 0 109 48 109 110" fill="black" stroke="black" stroke-width="1" transform="translate(581, 0) scale(1, -1)"></path><path d="" fill="black" stroke="black" stroke-width="1" transform="translate(969, 0) scale(1, -1)"></path><path d="M188 465v-363c0 -63 3 -70 37 -72l46 -3v-30c-100 3 -100 3 -125 3s-25 0 -125 -3v30l46 3c34 2 37 9 37 72v225c0 66 -4 73 -44 73h-37v28c53 6 105 20 156 41zM142 687c28 0 55 -28 55 -56c0 -29 -27 -55 -56 -55s-55 26 -55 55c0 30 26 56 56 56" fill="black" stroke="black" stroke-width="1" transform="translate(1218, 0) scale(1, -1)"></path><path d="M579 -3c-9 0 -73 3 -91 3c-12 0 -28 -1 -77 -3l5 92l-111 -93c-5 -4 -28 -8 -48 -8c-65 0 -112 13 -146 42c-49 40 -77 119 -77 199c0 122 149 257 272 257c40 0 78 -14 106 -49v183c0 30 -7 41 -25 41h-56v28c79 12 112 20 156 37l9 -8v-616c0 -63 3 -70 37 -72l46 -3 v-30zM412 350c0 16 -67 72 -146 72c-90 0 -144 -64 -144 -173c0 -119 63 -204 151 -204c47 0 96 31 124 78c13 23 15 33 15 98v129" fill="black" stroke="black" stroke-width="1" transform="translate(1508, 0) scale(1, -1)"></path><path d="M284 215h-260l-6 5l28 67h262l6 -5" fill="black" stroke="black" stroke-width="1" transform="translate(2118, 0) scale(1, -1)"></path><path d="M288 254l148 -200c11 -15 23 -23 35 -24l25 -3v-30c-52 3 -52 3 -62 3c-9 0 -9 0 -61 -3l-133 195l-134 -192h-86v27h17c10 0 23 6 30 15l149 176l-120 174c-10 14 -32 28 -50 29l-21 2l-5 26l116 20c34 -34 45 -47 60 -69l76 -116l124 175h82v-28h-14 c-17 0 -28 -4 -34 -11" fill="black" stroke="black" stroke-width="1" transform="translate(2450, 0) scale(1, -1)"></path></g></g><g><rect x="-2586" y="-12889" width="7641" height="9600" rx="200" ry="200" fill="#FFFFFF" stroke="#000000" stroke-width="100"></rect><g transform="translate(900, -4072)"><path d="M341 717v-77l-12 -6c-24 21 -42 28 -69 28c-57 0 -70 -28 -70 -143v-85l131 4l-7 -53h-124v-283c0 -63 3 -70 37 -72l46 -3v-30c-100 3 -100 3 -125 3s-25 0 -125 -3v30l46 3c34 2 37 9 37 72v283l-69 -4v22l69 31v42v2c0 77 57 259 168 259c21 0 43 -6 67 -20" fill="black" stroke="black" stroke-width="1" transform="translate(0, 0) scale(1, -1)"></path><path d="" fill="black" stroke="black" stroke-width="1" transform="translate(332, 0) scale(1, -1)"></path><path d="M342 271c0 -83 -65 -147 -147 -147c-83 0 -148 64 -148 147c0 81 65 146 148 146c82 0 147 -65 147 -146zM304 271c0 60 -50 109 -109 109c-62 0 -110 -49 -110 -109c0 -62 48 -110 110 -110c59 0 109 48 109 110" fill="black" stroke="black" stroke-width="1" transform="translate(581, 0) scale(1, -1)"></path><path d="" fill="black" stroke="black" stroke-width="1" transform="translate(969, 0) scale(1, -1)"></path><path d="M146 266c0 -281 109 -403 155 -460l-19 -21c-82 77 -114 116 -149 183c-48 90 -73 191 -73 298c0 276 165 409 222 460l19 -26c-58 -68 -155 -174 -155 -434" fill="black" stroke="black" stroke-width="1" transform="translate(1218, 0) scale(1, -1)"></path><path d="M55 289c0 135 146 180 221 180c49 0 85 -12 122 -42l142 4l4 -12l-25 -41h-92c8 -21 11 -34 11 -54c0 -127 -143 -174 -204 -174c-8 0 -14 1 -24 2c-17 -17 -46 -34 -46 -57c0 -27 24 -39 76 -39h160c70 0 118 -50 118 -122c0 -122 -119 -217 -270 -217 c-127 0 -216 63 -216 154c0 31 14 68 28 76l87 47c-48 14 -66 30 -66 58c0 15 5 28 15 43l79 61c-74 8 -120 59 -120 133zM240 435c-64 0 -101 -45 -101 -122s45 -129 112 -129c61 0 103 45 103 110c0 85 -46 141 -114 141zM287 -14c-69 0 -97 -2 -113 -10 c-40 -17 -66 -58 -66 -103c0 -74 60 -125 147 -125c105 0 184 64 184 150c0 65 -39 88 -152 88" fill="black" stroke="black" stroke-width="1" transform="translate(1550, 0) scale(1, -1)"></path><path d="" fill="black" stroke="black" stroke-width="1" transform="translate(2105, 0) scale(1, -1)"></path><path d="M342 271c0 -83 -65 -147 -147 -147c-83 0 -148 64 -148 147c0 81 65 146 148 146c82 0 147 -65 147 -146zM304 271c0 60 -50 109 -109 109c-62 0 -110 -49 -110 -109c0 -62 48 -110 110 -110c59 0 109 48 109 110" fill="black" stroke="black" stroke-width="1" transform="translate(2354, 0) scale(1, -1)"></path><path d="" fill="black" stroke="black" stroke-width="1" transform="translate(2742, 0) scale(1, -1)"></path><path d="M341 717v-77l-12 -6c-24 21 -42 28 -69 28c-57 0 -70 -28 -70 -143v-85l131 4l-7 -53h-124v-283c0 -63 3 -70 37 -72l46 -3v-30c-100 3 -100 3 -125 3s-25 0 -125 -3v30l46 3c34 2 37 9 37 72v283l-69 -4v22l69 31v42v2c0 77 57 259 168 259c21 0 43 -6 67 -20" fill="black" stroke="black" stroke-width="1" transform="translate(2991, 0) scale(1, -1)"></path><path d="M51 726c57 -51 222 -184 222 -461c0 -288 -169 -430 -222 -480l-19 21c51 63 155 184 155 460c0 260 -100 370 -155 434" fill="black" stroke="black" stroke-width="1" transform="translate(3323, 0) scale(1, -1)"></path></g></g><g><rect x="-1986" y="-12189" width="6541" height="6980" rx="200" ry="200" fill="#FFFFFF" stroke="#000000" stroke-width="100"></rect><g transform="translate(400, -5992)"><path d="M146 266c0 -281 109 -403 155 -460l-19 -21c-82 77 -114 116 -149 183c-48 90 -73 191 -73 298c0 276 165 409 222 460l19 -26c-58 -68 -155 -174 -155 -434" fill="black" stroke="black" stroke-width="1" transform="translate(0, 0) scale(1, -1)"></path><path d="M341 717v-77l-12 -6c-24 21 -42 28 -69 28c-57 0 -70 -28 -70 -143v-85l131 4l-7 -53h-124v-283c0 -63 3 -70 37 -72l46 -3v-30c-100 3 -100 3 -125 3s-25 0 -125 -3v30l46 3c34 2 37 9 37 72v283l-69 -4v22l69 31v42v2c0 77 57 259 168 259c21 0 43 -6 67 -20" fill="black" stroke="black" stroke-width="1" transform="translate(332, 0) scale(1, -1)"></path><path d="" fill="black" stroke="black" stroke-width="1" transform="translate(664, 0) scale(1, -1)"></path><path d="M342 271c0 -83 -65 -147 -147 -147c-83 0 -148 64 -148 147c0 81 65 146 148 146c82 0 147 -65 147 -146zM304 271c0 60 -50 109 -109 109c-62 0 -110 -49 -110 -109c0 -62 48 -110 110 -110c59 0 109 48 109 110" fill="black" stroke="black" stroke-width="1" transform="translate(913, 0) scale(1, -1)"></path><path d="" fill="black" stroke="black" stroke-width="1" transform="translate(1301, 0) scale(1, -1)"></path><path d="M55 289c0 135 146 180 221 180c49 0 85 -12 122 -42l142 4l4 -12l-25 -41h-92c8 -21 11 -34 11 -54c0 -127 -143 -174 -204 -174c-8 0 -14 1 -24 2c-17 -17 -46 -34 -46 -57c0 -27 24 -39 76 -39h160c70 0 118 -50 118 -122c0 -122 -119 -217 -270 -217 c-127 0 -216 63 -216 154c0 31 14 68 28 76l87 47c-48 14 -66 30 -66 58c0 15 5 28 15 43l79 61c-74 8 -120 59 -120 133zM240 435c-64 0 -101 -45 -101 -122s45 -129 112 -129c61 0 103 45 103 110c0 85 -46 141 -114 141zM287 -14c-69 0 -97 -2 -113 -10 c-40 -17 -66 -58 -66 -103c0 -74 60 -125 147 -125c105 0 184 64 184 150c0 65 -39 88 -152 88" fill="black" stroke="black" stroke-width="1" transform="translate(1550, 0) scale(1, -1)"></path><path d="M51 726c57 -51 222 -184 222 -461c0 -288 -169 -430 -222 -480l-19 21c51 63 155 184 155 460c0 260 -100 370 -155 434" fill="black" stroke="black" stroke-width="1" transform="translate(2105, 0) scale(1, -1)"></path><path d="" fill="black" stroke="black" stroke-width="1" transform="translate(2437, 0) scale(1, -1)"></path><path d="M342 271c0 -83 -65 -147 -147 -147c-83 0 -148 64 -148 147c0 81 65 146 148 146c82 0 147 -65 147 -146zM304 271c0 60 -50 109 -109 109c-62 0 -110 -49 -110 -109c0 -62 48 -110 110 -110c59 0 109 48 109 110" fill="black" stroke="black" stroke-width="1" transform="translate(2686, 0) scale(1, -1)"></path><path d="" fill="black" stroke="black" stroke-width="1" transform="translate(3074, 0) scale(1, -1)"></path><path d="M341 717v-77l-12 -6c-24 21 -42 28 -69 28c-57 0 -70 -28 -70 -143v-85l131 4l-7 -53h-124v-283c0 -63 3 -70 37 -72l46 -3v-30c-100 3 -100 3 -125 3s-25 0 -125 -3v30l46 3c34 2 37 9 37 72v283l-69 -4v22l69 31v42v2c0 77 57 259 168 259c21 0 43 -6 67 -20" fill="black" stroke="black" stroke-width="1" transform="translate(3323, 0) scale(1, -1)"></path></g></g><g><path d="M 0 -7129 V 1200" fill="none" stroke="black" stroke-width="100"></path></g><g><path d="M 0 -9749 V -9149" fill="none" stroke="black" stroke-width="100"></path></g><g><path d="M 0 -15489 V -11489" fill="none" stroke="black" stroke-width="100"></path></g><g><rect x="-1386" y="-9149" width="2772" height="2020" rx="200" ry="200" fill="#FFFFFF" stroke="#000000" stroke-width="100"></rect><g transform="translate(-887, -7912)"><path d="M341 717v-77l-12 -6c-24 21 -42 28 -69 28c-57 0 -70 -28 -70 -143v-85l131 4l-7 -53h-124v-283c0 -63 3 -70 37 -72l46 -3v-30c-100 3 -100 3 -125 3s-25 0 -125 -3v30l46 3c34 2 37 9 37 72v283l-69 -4v22l69 31v42v2c0 77 57 259 168 259c21 0 43 -6 67 -20" fill="black" stroke="black" stroke-width="1" transform="translate(0, 0) scale(1, -1)"></path><path d="" fill="black" stroke="black" stroke-width="1" transform="translate(332, 0) scale(1, -1)"></path><path d="M342 271c0 -83 -65 -147 -147 -147c-83 0 -148 64 -148 147c0 81 65 146 148 146c82 0 147 -65 147 -146zM304 271c0 60 -50 109 -109 109c-62 0 -110 -49 -110 -109c0 -62 48 -110 110 -110c59 0 109 48 109 110" fill="black" stroke="black" stroke-width="1" transform="translate(581, 0) scale(1, -1)"></path><path d="" fill="black" stroke="black" stroke-width="1" transform="translate(969, 0) scale(1, -1)"></path><path d="M55 289c0 135 146 180 221 180c49 0 85 -12 122 -42l142 4l4 -12l-25 -41h-92c8 -21 11 -34 11 -54c0 -127 -143 -174 -204 -174c-8 0 -14 1 -24 2c-17 -17 -46 -34 -46 -57c0 -27 24 -39 76 -39h160c70 0 118 -50 118 -122c0 -122 -119 -217 -270 -217 c-127 0 -216 63 -216 154c0 31 14 68 28 76l87 47c-48 14 -66 30 -66 58c0 15 5 28 15 43l79 61c-74 8 -120 59 -120 133zM240 435c-64 0 -101 -45 -101 -122s45 -129 112 -129c61 0 103 45 103 110c0 85 -46 141 -114 141zM287 -14c-69 0 -97 -2 -113 -10 c-40 -17 -66 -58 -66 -103c0 -74 60 -125 147 -125c105 0 184 64 184 150c0 65 -39 88 -152 88" fill="black" stroke="black" stroke-width="1" transform="translate(1218, 0) scale(1, -1)"></path></g></g><g><rect x="-666" y="-11489" width="1332" height="1740" rx="200" ry="200" fill="#FFFFFF" stroke="#000000" stroke-width="100"></rect><g transform="translate(-166, -10252)"><path d="M341 717v-77l-12 -6c-24 21 -42 28 -69 28c-57 0 -70 -28 -70 -143v-85l131 4l-7 -53h-124v-283c0 -63 3 -70 37 -72l46 -3v-30c-100 3 -100 3 -125 3s-25 0 -125 -3v30l46 3c34 2 37 9 37 72v283l-69 -4v22l69 31v42v2c0 77 57 259 168 259c21 0 43 -6 67 -20" fill="black" stroke="black" stroke-width="1" transform="translate(0, 0) scale(1, -1)"></path></g></g></g><g transform="translate(23270, -2639)"><g><rect x="-3517" y="-11410" width="6934" height="11410" rx="200" ry="200" fill="#FFFFFF" stroke="#DB2828" stroke-width="100"></rect><g transform="translate(2236, -777)"><path d="M602 332c30 -190 -108 -332 -293 -336l11 -247c-21 -7 -42 -15 -63 -26l-11 8c3 87 9 175 5 263c-122 17 -219 79 -239 207c-26 162 97 261 242 284l7 -10l-4 -7c-123 -36 -185 -125 -163 -262c14 -90 58 -165 155 -189c-2 69 -10 244 9 305c26 82 114 151 199 151 c87 0 133 -61 145 -141zM534 317c-9 58 -38 123 -108 123c-121 0 -116 -173 -117 -262l-2 -163c157 17 253 141 227 302" fill="black" stroke="black" stroke-width="1" transform="translate(0, 0) scale(1, -1)"></path></g></g><g><path d="M 0 -1662 V 1200" fill="none" stroke="black" stroke-width="100"></path><polygon points="0,0 150,300 300,0" stroke="red" stroke-width="100" fill="red" transform="translate(-150, 300)"></polygon></g><g><path d="M 0 -3961 V -3361" fill="none" stroke="black" stroke-width="100"></path></g><g><path d="M 0 -6573 V -5973" fill="none" stroke="black" stroke-width="100"></path></g><g><path d="M 0 -8690 V -8090" fill="none" stroke="black" stroke-width="100"></path></g><g><path d="M 2917 -12610 V -9900 A 200 200 0 0 1 2717 -9700 H 2317" fill="none" stroke="black" stroke-width="100"></path></g><g><path d="M -2917 -12610 V -9900 A 200 200 0 0 0 -2717 -9700 H -2317" fill="none" stroke="black" stroke-width="100"></path></g><g><rect x="-2645" y="-3361" width="5290" height="1699" rx="200" ry="200" fill="#FFFFFF" stroke="#000000" stroke-width="100"></rect><g transform="translate(-2146, -2174)"><path d="M283 49c87 0 136 77 136 115v163c0 66 -4 73 -44 73h-37v28c53 6 105 20 156 41l9 -4v-363c0 -64 3 -70 37 -72l41 -3v-30c-69 3 -69 3 -83 3c-15 0 -16 0 -83 -3c3 47 4 63 4 92l-67 -62c-27 -25 -67 -39 -112 -39c-136 0 -141 82 -141 171v168c0 66 -4 73 -44 73h-37 v28c53 6 105 20 156 41l9 -4v-295c0 -76 20 -121 100 -121" fill="black" stroke="black" stroke-width="1" transform="translate(0, 0) scale(1, -1)"></path><path d="M410 -3v284c0 77 -44 127 -111 127c-61 0 -127 -49 -127 -94v-212c0 -63 3 -70 37 -72l45 -3v-30c-68 2 -95 3 -124 3s-56 -1 -124 -3v30l45 3c34 2 37 9 37 72v225c0 66 -4 73 -44 73h-37v28c53 6 105 20 156 41l9 -4v-87l76 66c21 18 42 25 79 25 c112 0 167 -57 167 -174v-193c0 -64 3 -70 37 -72l41 -3v-30c-69 3 -69 3 -83 3c-17 0 -18 0 -79 -3" fill="black" stroke="black" stroke-width="1" transform="translate(602, 0) scale(1, -1)"></path><path d="M188 465v-363c0 -63 3 -70 37 -72l46 -3v-30c-100 3 -100 3 -125 3s-25 0 -125 -3v30l46 3c34 2 37 9 37 72v225c0 66 -4 73 -44 73h-37v28c53 6 105 20 156 41zM142 687c28 0 55 -28 55 -56c0 -29 -27 -55 -56 -55s-55 26 -55 55c0 30 26 56 56 56" fill="black" stroke="black" stroke-width="1" transform="translate(1183, 0) scale(1, -1)"></path><path d="M98 382l-76 -4v21l78 35v70c0 30 -1 49 -4 79c31 10 61 23 85 38l12 -11c-8 -64 -11 -100 -11 -142v-38l137 6l-9 -54h-128v-262c0 -49 16 -69 55 -69c19 0 34 5 59 19l13 -17l-48 -53c-6 -7 -30 -12 -53 -12c-77 0 -110 32 -110 106v288" fill="black" stroke="black" stroke-width="1" transform="translate(1473, 0) scale(1, -1)"></path><path d="M284 215h-260l-6 5l28 67h262l6 -5" fill="black" stroke="black" stroke-width="1" transform="translate(1798, 0) scale(1, -1)"></path><path d="M23 400v28c53 6 105 20 156 41l9 -4v-103l56 66c21 25 53 41 83 41c18 0 36 -4 47 -11l-9 -120h-21c-16 32 -37 46 -67 46c-49 0 -89 -50 -89 -110v-172c0 -66 2 -69 47 -72l52 -3v-30c-123 3 -123 3 -143 3c-25 0 -51 -1 -123 -3v30l46 3c34 2 37 9 37 72v225 c0 66 -4 73 -44 73h-37" fill="black" stroke="black" stroke-width="1" transform="translate(2130, 0) scale(1, -1)"></path><path d="M284 215h-260l-6 5l28 67h262l6 -5" fill="black" stroke="black" stroke-width="1" transform="translate(2524, 0) scale(1, -1)"></path><path d="M188 465v-363c0 -63 3 -70 37 -72l46 -3v-30c-100 3 -100 3 -125 3s-25 0 -125 -3v30l46 3c34 2 37 9 37 72v225c0 66 -4 73 -44 73h-37v28c53 6 105 20 156 41zM142 687c28 0 55 -28 55 -56c0 -29 -27 -55 -56 -55s-55 26 -55 55c0 30 26 56 56 56" fill="black" stroke="black" stroke-width="1" transform="translate(2856, 0) scale(1, -1)"></path><path d="M410 -3v284c0 77 -44 127 -111 127c-61 0 -127 -49 -127 -94v-212c0 -63 3 -70 37 -72l45 -3v-30c-68 2 -95 3 -124 3s-56 -1 -124 -3v30l45 3c34 2 37 9 37 72v225c0 66 -4 73 -44 73h-37v28c53 6 105 20 156 41l9 -4v-87l76 66c21 18 42 25 79 25 c112 0 167 -57 167 -174v-193c0 -64 3 -70 37 -72l41 -3v-30c-69 3 -69 3 -83 3c-17 0 -18 0 -79 -3" fill="black" stroke="black" stroke-width="1" transform="translate(3146, 0) scale(1, -1)"></path><path d="M539 431l-31 -2c-20 -2 -34 -20 -56 -67l-159 -369h-50l-172 403c-11 25 -16 31 -31 33l-34 2v28c49 -2 97 -3 116 -3s19 0 117 3v-28l-49 -2c-16 -1 -25 -8 -25 -19s3 -24 9 -38l119 -288c38 83 92 217 104 246c12 30 19 57 19 73s-8 25 -24 26l-41 2v28 c60 -2 78 -3 94 -3s34 1 94 3v-28" fill="black" stroke="black" stroke-width="1" transform="translate(3727, 0) scale(1, -1)"></path></g></g><g><rect x="-1514" y="-5973" width="3028" height="2012" rx="200" ry="200" fill="#FFFFFF" stroke="#000000" stroke-width="100"></rect><g transform="translate(-1015, -4736)"><path d="M341 717v-77l-12 -6c-24 21 -42 28 -69 28c-57 0 -70 -28 -70 -143v-85l131 4l-7 -53h-124v-283c0 -63 3 -70 37 -72l46 -3v-30c-100 3 -100 3 -125 3s-25 0 -125 -3v30l46 3c34 2 37 9 37 72v283l-69 -4v22l69 31v42v2c0 77 57 259 168 259c21 0 43 -6 67 -20" fill="black" stroke="black" stroke-width="1" transform="translate(0, 0) scale(1, -1)"></path><path d="" fill="black" stroke="black" stroke-width="1" transform="translate(332, 0) scale(1, -1)"></path><path d="M652 271c0 -175 -143 -317 -317 -317c-175 0 -317 142 -317 317c0 174 142 316 317 316c174 0 317 -142 317 -316zM604 271c0 148 -122 269 -269 269c-149 0 -270 -121 -270 -269c0 -149 121 -270 270 -270c147 0 269 121 269 270zM393 271c0 -30 -27 -58 -59 -58 c-31 0 -57 28 -57 58s27 58 57 58c31 0 59 -28 59 -58" fill="black" stroke="black" stroke-width="1" transform="translate(581, 0) scale(1, -1)"></path><path d="" fill="black" stroke="black" stroke-width="1" transform="translate(1249, 0) scale(1, -1)"></path><path d="M149 473c28 0 17 -46 13 -104l7 -2c35 57 89 106 165 106c59 0 104 -29 113 -91c16 -105 -47 -499 17 -620l-2 -13c-25 -4 -48 -13 -70 -24l-11 9c-8 32 -16 50 -10 165c5 113 23 345 5 457c-8 46 -38 70 -83 70c-172 0 -134 -289 -130 -408l-5 -9 c-21 -6 -41 -15 -61 -25l-10 10c7 79 16 322 6 388c-2 11 -7 19 -18 19c-20 0 -56 -26 -72 -37l-6 2l-8 11l2 6c29 21 125 90 158 90" fill="black" stroke="black" stroke-width="1" transform="translate(1498, 0) scale(1, -1)"></path></g></g><g><rect x="-2029" y="-8090" width="4058" height="1517" rx="200" ry="200" fill="#FFFFFF" stroke="#000000" stroke-width="100"></rect><g transform="translate(-1530, -7093)"><path d="M324 82l-124 -86c-7 -5 -24 -8 -42 -8c-79 0 -126 45 -126 123c0 87 57 134 193 159l99 18c-3 91 -42 128 -136 128c-46 0 -56 -7 -77 -54l-13 -31l-26 7v65l53 32c38 23 78 34 121 34c116 0 158 -53 158 -199v-183c0 -49 4 -57 28 -58l39 -2v-30c-44 2 -69 3 -74 3 c-13 0 -13 0 -78 -3zM324 124v132c-76 -11 -131 -25 -156 -40c-30 -19 -50 -54 -50 -91c0 -43 35 -80 75 -80c39 0 102 38 131 79" fill="black" stroke="black" stroke-width="1" transform="translate(0, 0) scale(1, -1)"></path><path d="M41 143h30v-41c0 -50 52 -85 125 -85c71 0 121 38 121 92c0 86 -94 60 -212 112c-46 21 -68 55 -68 103c0 90 71 145 187 145c41 0 77 -7 130 -25c-3 -31 -4 -55 -5 -113h-28v23c0 47 -51 82 -118 82c-61 0 -96 -28 -96 -78c0 -130 284 -37 284 -210 c0 -98 -93 -168 -224 -168c-46 0 -85 7 -137 24c8 40 11 70 11 139" fill="black" stroke="black" stroke-width="1" transform="translate(499, 0) scale(1, -1)"></path><path d="M41 143h30v-41c0 -50 52 -85 125 -85c71 0 121 38 121 92c0 86 -94 60 -212 112c-46 21 -68 55 -68 103c0 90 71 145 187 145c41 0 77 -7 130 -25c-3 -31 -4 -55 -5 -113h-28v23c0 47 -51 82 -118 82c-61 0 -96 -28 -96 -78c0 -130 284 -37 284 -210 c0 -98 -93 -168 -224 -168c-46 0 -85 7 -137 24c8 40 11 70 11 139" fill="black" stroke="black" stroke-width="1" transform="translate(922, 0) scale(1, -1)"></path><path d="M279 469c137 0 235 -97 235 -232c0 -150 -110 -257 -264 -257c-129 0 -218 96 -218 237c0 149 101 252 247 252zM261 436c-88 0 -136 -65 -136 -185c0 -142 66 -238 164 -238c81 0 132 72 132 187c0 136 -68 236 -160 236" fill="black" stroke="black" stroke-width="1" transform="translate(1345, 0) scale(1, -1)"></path><path d="M399 311h-28l-7 61c-18 25 -66 45 -110 45c-90 0 -140 -60 -140 -167c0 -132 73 -218 184 -218c36 0 68 9 105 29l10 -15l-21 -32c-10 -15 -85 -34 -137 -34c-134 0 -229 95 -229 230c0 5 -1 9 -1 14c0 137 144 273 268 273c45 0 88 -19 120 -63c-9 -36 -14 -77 -14 -123 " fill="black" stroke="black" stroke-width="1" transform="translate(1890, 0) scale(1, -1)"></path><path d="M284 215h-260l-6 5l28 67h262l6 -5" fill="black" stroke="black" stroke-width="1" transform="translate(2333, 0) scale(1, -1)"></path><path d="M23 400v28c53 6 105 20 156 41l9 -4v-103l56 66c21 25 53 41 83 41c18 0 36 -4 47 -11l-9 -120h-21c-16 32 -37 46 -67 46c-49 0 -89 -50 -89 -110v-172c0 -66 2 -69 47 -72l52 -3v-30c-123 3 -123 3 -143 3c-25 0 -51 -1 -123 -3v30l46 3c34 2 37 9 37 72v225 c0 66 -4 73 -44 73h-37" fill="black" stroke="black" stroke-width="1" transform="translate(2665, 0) scale(1, -1)"></path></g></g><g><rect x="-2317" y="-10710" width="4634" height="2020" rx="200" ry="200" fill="#FFFFFF" stroke="#000000" stroke-width="100"></rect><g transform="translate(-1818, -9473)"><path d="M579 -3c-9 0 -73 3 -91 3c-12 0 -28 -1 -77 -3l5 92l-111 -93c-5 -4 -28 -8 -48 -8c-65 0 -112 13 -146 42c-49 40 -77 119 -77 199c0 122 149 257 272 257c40 0 78 -14 106 -49v183c0 30 -7 41 -25 41h-56v28c79 12 112 20 156 37l9 -8v-616c0 -63 3 -70 37 -72l46 -3 v-30zM412 350c0 16 -67 72 -146 72c-90 0 -144 -64 -144 -173c0 -119 63 -204 151 -204c47 0 96 31 124 78c13 23 15 33 15 98v129" fill="black" stroke="black" stroke-width="1" transform="translate(0, 0) scale(1, -1)"></path><path d="M250 -20c-89 0 -224 45 -224 239c0 104 32 173 114 221c40 24 85 29 122 29c112 0 186 -75 186 -190c0 -12 -1 -21 -2 -35c-47 -10 -156 -18 -242 -18c-34 0 -64 1 -85 4c2 -58 9 -86 28 -119c28 -49 82 -78 147 -78c43 0 66 9 130 47l13 -10l-20 -34 c-12 -18 -102 -56 -167 -56zM359 267c-3 67 -10 96 -32 129c-18 27 -44 40 -77 40c-48 0 -91 -27 -112 -71c-13 -26 -17 -48 -17 -95c26 -6 69 -9 112 -9c51 0 102 3 126 6" fill="black" stroke="black" stroke-width="1" transform="translate(610, 0) scale(1, -1)"></path><path d="M341 717v-77l-12 -6c-24 21 -42 28 -69 28c-57 0 -70 -28 -70 -143v-85l131 4l-7 -53h-124v-283c0 -63 3 -70 37 -72l46 -3v-30c-100 3 -100 3 -125 3s-25 0 -125 -3v30l46 3c34 2 37 9 37 72v283l-69 -4v22l69 31v42v2c0 77 57 259 168 259c21 0 43 -6 67 -20" fill="black" stroke="black" stroke-width="1" transform="translate(1088, 0) scale(1, -1)"></path><path d="M284 215h-260l-6 5l28 67h262l6 -5" fill="black" stroke="black" stroke-width="1" transform="translate(1420, 0) scale(1, -1)"></path><path d="M146 266c0 -281 109 -403 155 -460l-19 -21c-82 77 -114 116 -149 183c-48 90 -73 191 -73 298c0 276 165 409 222 460l19 -26c-58 -68 -155 -174 -155 -434" fill="black" stroke="black" stroke-width="1" transform="translate(1752, 0) scale(1, -1)"></path><path d="M341 717v-77l-12 -6c-24 21 -42 28 -69 28c-57 0 -70 -28 -70 -143v-85l131 4l-7 -53h-124v-283c0 -63 3 -70 37 -72l46 -3v-30c-100 3 -100 3 -125 3s-25 0 -125 -3v30l46 3c34 2 37 9 37 72v283l-69 -4v22l69 31v42v2c0 77 57 259 168 259c21 0 43 -6 67 -20" fill="black" stroke="black" stroke-width="1" transform="translate(2084, 0) scale(1, -1)"></path><path d="M55 289c0 135 146 180 221 180c49 0 85 -12 122 -42l142 4l4 -12l-25 -41h-92c8 -21 11 -34 11 -54c0 -127 -143 -174 -204 -174c-8 0 -14 1 -24 2c-17 -17 -46 -34 -46 -57c0 -27 24 -39 76 -39h160c70 0 118 -50 118 -122c0 -122 -119 -217 -270 -217 c-127 0 -216 63 -216 154c0 31 14 68 28 76l87 47c-48 14 -66 30 -66 58c0 15 5 28 15 43l79 61c-74 8 -120 59 -120 133zM240 435c-64 0 -101 -45 -101 -122s45 -129 112 -129c61 0 103 45 103 110c0 85 -46 141 -114 141zM287 -14c-69 0 -97 -2 -113 -10 c-40 -17 -66 -58 -66 -103c0 -74 60 -125 147 -125c105 0 184 64 184 150c0 65 -39 88 -152 88" fill="black" stroke="black" stroke-width="1" transform="translate(2416, 0) scale(1, -1)"></path><path d="M51 726c57 -51 222 -184 222 -461c0 -288 -169 -430 -222 -480l-19 21c51 63 155 184 155 460c0 260 -100 370 -155 434" fill="black" stroke="black" stroke-width="1" transform="translate(2971, 0) scale(1, -1)"></path><path d="M341 717v-77l-12 -6c-24 21 -42 28 -69 28c-57 0 -70 -28 -70 -143v-85l131 4l-7 -53h-124v-283c0 -63 3 -70 37 -72l46 -3v-30c-100 3 -100 3 -125 3s-25 0 -125 -3v30l46 3c34 2 37 9 37 72v283l-69 -4v22l69 31v42v2c0 77 57 259 168 259c21 0 43 -6 67 -20" fill="black" stroke="black" stroke-width="1" transform="translate(3303, 0) scale(1, -1)"></path></g></g></g><g transform="translate(31803, -7337)"><g><path d="M 0 0 V 1200" fill="none" stroke="black" stroke-width="100"></path><polygon points="0,0 150,300 300,0" stroke="red" stroke-width="100" fill="red" transform="translate(-150, 300)"></polygon></g><g><path d="M 3116 -3214 V -1207 A 200 200 0 0 1 2916 -1007 H 1716" fill="none" stroke="black" stroke-width="100"></path></g><g><path d="M 2316 -3214 V -1207 A 200 200 0 0 1 2116 -1007 H 1716" fill="none" stroke="black" stroke-width="100"></path></g><g><path d="M -2316 -3214 V -1207 A 200 200 0 0 0 -2116 -1007 H -1716" fill="none" stroke="black" stroke-width="100"></path></g><g><path d="M -3116 -3214 V -1207 A 200 200 0 0 0 -2916 -1007 H -1716" fill="none" stroke="black" stroke-width="100"></path></g><g><rect x="-1716" y="-2014" width="3432" height="2014" rx="200" ry="200" fill="#FFFFFF" stroke="#DB2828" stroke-width="100"></rect><g transform="translate(-1217, -777)"><path d="M579 -3c-9 0 -73 3 -91 3c-12 0 -28 -1 -77 -3l5 92l-111 -93c-5 -4 -28 -8 -48 -8c-65 0 -112 13 -146 42c-49 40 -77 119 -77 199c0 122 149 257 272 257c40 0 78 -14 106 -49v183c0 30 -7 41 -25 41h-56v28c79 12 112 20 156 37l9 -8v-616c0 -63 3 -70 37 -72l46 -3 v-30zM412 350c0 16 -67 72 -146 72c-90 0 -144 -64 -144 -173c0 -119 63 -204 151 -204c47 0 96 31 124 78c13 23 15 33 15 98v129" fill="black" stroke="black" stroke-width="1" transform="translate(0, 0) scale(1, -1)"></path><path d="M250 -20c-89 0 -224 45 -224 239c0 104 32 173 114 221c40 24 85 29 122 29c112 0 186 -75 186 -190c0 -12 -1 -21 -2 -35c-47 -10 -156 -18 -242 -18c-34 0 -64 1 -85 4c2 -58 9 -86 28 -119c28 -49 82 -78 147 -78c43 0 66 9 130 47l13 -10l-20 -34 c-12 -18 -102 -56 -167 -56zM359 267c-3 67 -10 96 -32 129c-18 27 -44 40 -77 40c-48 0 -91 -27 -112 -71c-13 -26 -17 -48 -17 -95c26 -6 69 -9 112 -9c51 0 102 3 126 6" fill="black" stroke="black" stroke-width="1" transform="translate(610, 0) scale(1, -1)"></path><path d="M341 717v-77l-12 -6c-24 21 -42 28 -69 28c-57 0 -70 -28 -70 -143v-85l131 4l-7 -53h-124v-283c0 -63 3 -70 37 -72l46 -3v-30c-100 3 -100 3 -125 3s-25 0 -125 -3v30l46 3c34 2 37 9 37 72v283l-69 -4v22l69 31v42v2c0 77 57 259 168 259c21 0 43 -6 67 -20" fill="black" stroke="black" stroke-width="1" transform="translate(1088, 0) scale(1, -1)"></path><path d="M284 215h-260l-6 5l28 67h262l6 -5" fill="black" stroke="black" stroke-width="1" transform="translate(1420, 0) scale(1, -1)"></path><path d="M602 332c30 -190 -108 -332 -293 -336l11 -247c-21 -7 -42 -15 -63 -26l-11 8c3 87 9 175 5 263c-122 17 -219 79 -239 207c-26 162 97 261 242 284l7 -10l-4 -7c-123 -36 -185 -125 -163 -262c14 -90 58 -165 155 -189c-2 69 -10 244 9 305c26 82 114 151 199 151 c87 0 133 -61 145 -141zM534 317c-9 58 -38 123 -108 123c-121 0 -116 -173 -117 -262l-2 -163c157 17 253 141 227 302" fill="black" stroke="black" stroke-width="1" transform="translate(1752, 0) scale(1, -1)"></path></g></g></g></svg>