<?xml version="1.0" encoding="UTF-8" standalone="no"?>
<svg width="600" height="223" viewBox="0 -11189 30023 11189" xmlns="http://www.w3.org/2000/svg"><g transform="translate(3957, -2516)"><g><rect x="-1957" y="-6156" width="3912" height="6156" rx="200" ry="200" fill="#FFFFFF" stroke="#000000" stroke-width="100"></rect><g transform="translate(900, -783)"><path d="M297 86l119 292c4 10 6 19 6 26c0 14 -14 23 -42 25l-26 2v28c79 -3 79 -3 95 -3s16 0 95 3v-28l-28 -2c-25 -3 -44 -30 -84 -121l-203 -468c-38 -87 -81 -123 -148 -123c-19 0 -35 5 -54 15l24 75h13c17 -15 35 -23 51 -23c38 0 77 47 109 131l23 61 c-18 50 -28 74 -56 142l-109 262c-15 35 -27 46 -52 49l-18 2v28c97 -3 97 -3 116 -3s19 0 116 3v-28l-38 -2c-23 -1 -34 -9 -34 -23c0 -10 4 -25 10 -42l64 -168c18 -49 29 -72 51 -110" fill="black" stroke="black" stroke-width="1" transform="translate(0, 0) scale(1, -1)"></path></g></g><g><rect x="-1357" y="-5456" width="2812" height="3814" rx="200" ry="200" fill="#FFFFFF" stroke="#000000" stroke-width="100"></rect><g transform="translate(400, -2425)"><path d="M297 86l119 292c4 10 6 19 6 26c0 14 -14 23 -42 25l-26 2v28c79 -3 79 -3 95 -3s16 0 95 3v-28l-28 -2c-25 -3 -44 -30 -84 -121l-203 -468c-38 -87 -81 -123 -148 -123c-19 0 -35 5 -54 15l24 75h13c17 -15 35 -23 51 -23c38 0 77 47 109 131l23 61 c-18 50 -28 74 -56 142l-109 262c-15 35 -27 46 -52 49l-18 2v28c97 -3 97 -3 116 -3s19 0 116 3v-28l-38 -2c-23 -1 -34 -9 -34 -23c0 -10 4 -25 10 -42l64 -168c18 -49 29 -72 51 -110" fill="black" stroke="black" stroke-width="1" transform="translate(0, 0) scale(1, -1)"></path></g></g><g><rect x="-757" y="-4756" width="1514" height="1472" rx="200" ry="200" fill="#FFFFFF" stroke="#000000" stroke-width="100"></rect><g transform="translate(-258, -3787)"><path d="M288 254l148 -200c11 -15 23 -23 35 -24l25 -3v-30c-52 3 -52 3 -62 3c-9 0 -9 0 -61 -3l-133 195l-134 -192h-86v27h17c10 0 23 6 30 15l149 176l-120 174c-10 14 -32 28 -50 29l-21 2l-5 26l116 20c34 -34 45 -47 60 -69l76 -116l124 175h82v-28h-14 c-17 0 -28 -4 -34 -11" fill="black" stroke="black" stroke-width="1" transform="translate(0, 0) scale(1, -1)"></path></g></g></g><g transform="translate(10498, -1200)"><g><rect x="-2586" y="-8789" width="4972" height="8789" rx="200" ry="200" fill="#FFFFFF" stroke="#000000" stroke-width="100"></rect><g transform="translate(1554, -503)"><path d="M341 717v-77l-12 -6c-24 21 -42 28 -69 28c-57 0 -70 -28 -70 -143v-85l131 4l-7 -53h-124v-283c0 -63 3 -70 37 -72l46 -3v-30c-100 3 -100 3 -125 3s-25 0 -125 -3v30l46 3c34 2 37 9 37 72v283l-69 -4v22l69 31v42v2c0 77 57 259 168 259c21 0 43 -6 67 -20" fill="black" stroke="black" stroke-width="1" transform="translate(0, 0) scale(1, -1)"></path></g></g><g><rect x="-1986" y="-5749" width="3872" height="4109" rx="200" ry="200" fill="#FFFFFF" stroke="#000000" stroke-width="100"></rect><g transform="translate(792, -2156)"><path d="M562 97c5 -3 8 -6 9 -13c-26 -30 -82 -100 -128 -100c-51 0 -62 111 -68 144l-3 3c-48 -67 -126 -147 -218 -147c-68 0 -97 49 -106 109c-24 150 73 380 241 380c112 0 114 -136 125 -213l7 -3c26 58 61 134 63 202h11c11 -15 21 -31 30 -46c-25 -70 -60 -135 -99 -197 c6 -32 22 -161 67 -161c27 0 46 24 62 42h7zM368 164l-4 28c-9 60 -30 245 -117 245c-109 0 -142 -235 -128 -322c7 -45 25 -87 78 -87c71 0 137 85 171 136" fill="black" stroke="black" stroke-width="1" transform="translate(0, 0) scale(1, -1)"></path></g></g><g><path d="M 0 -3029 V 1200" fill="none" stroke="black" stroke-width="100"></path></g><g><path d="M 0 -6349 V -5049" fill="none" stroke="black" stroke-width="100"></path></g><g><path d="M 0 -9989 V -8089" fill="none" stroke="black" stroke-width="100"></path></g><g><rect x="-1386" y="-5049" width="2772" height="2020" rx="200" ry="200" fill="#FFFFFF" stroke="#000000" stroke-width="100"></rect><g transform="translate(-887, -3812)"><path d="M341 717v-77l-12 -6c-24 21 -42 28 -69 28c-57 0 -70 -28 -70 -143v-85l131 4l-7 -53h-124v-283c0 -63 3 -70 37 -72l46 -3v-30c-100 3 -100 3 -125 3s-25 0 -125 -3v30l46 3c34 2 37 9 37 72v283l-69 -4v22l69 31v42v2c0 77 57 259 168 259c21 0 43 -6 67 -20" fill="black" stroke="black" stroke-width="1" transform="translate(0, 0) scale(1, -1)"></path><path d="" fill="black" stroke="black" stroke-width="1" transform="translate(332, 0) scale(1, -1)"></path><path d="M342 271c0 -83 -65 -147 -147 -147c-83 0 -148 64 -148 147c0 81 65 146 148 146c82 0 147 -65 147 -146zM304 271c0 60 -50 109 -109 109c-62 0 -110 -49 -110 -109c0 -62 48 -110 110 -110c59 0 109 48 109 110" fill="black" stroke="black" stroke-width="1" transform="translate(581, 0) scale(1, -1)"></path><path d="" fill="black" stroke="black" stroke-width="1" transform="translate(969, 0) scale(1, -1)"></path><path d="M55 289c0 135 146 180 221 180c49 0 85 -12 122 -42l142 4l4 -12l-25 -41h-92c8 -21 11 -34 11 -54c0 -127 -143 -174 -204 -174c-8 0 -14 1 -24 2c-17 -17 -46 -34 -46 -57c0 -27 24 -39 76 -39h160c70 0 118 -50 118 -122c0 -122 -119 -217 -270 -217 c-127 0 -216 63 -216 154c0 31 14 68 28 76l87 47c-48 14 -66 30 -66 58c0 15 5 28 15 43l79 61c-74 8 -120 59 -120 133zM240 435c-64 0 -101 -45 -101 -122s45 -129 112 -129c61 0 103 45 103 110c0 85 -46 141 -114 141zM287 -14c-69 0 -97 -2 -113 -10 c-40 -17 -66 -58 -66 -103c0 -74 60 -125 147 -125c105 0 184 64 184 150c0 65 -39 88 -152 88" fill="black" stroke="black" stroke-width="1" transform="translate(1218, 0) scale(1, -1)"></path></g></g><g><rect x="-666" y="-8089" width="1332" height="1740" rx="200" ry="200" fill="#FFFFFF" stroke="#000000" stroke-width="100"></rect><g transform="translate(-166, -6852)"><path d="M341 717v-77l-12 -6c-24 21 -42 28 -69 28c-57 0 -70 -28 -70 -143v-85l131 4l-7 -53h-124v-283c0 -63 3 -70 37 -72l46 -3v-30c-100 3 -100 3 -125 3s-25 0 -125 -3v30l46 3c34 2 37 9 37 72v283l-69 -4v22l69 31v42v2c0 77 57 259 168 259c21 0 43 -6 67 -20" fill="black" stroke="black" stroke-width="1" transform="translate(0, 0) scale(1, -1)"></path></g></g></g><g transform="translate(17757, -1803)"><g><rect x="-2873" y="-7582" width="6493" height="7582" rx="200" ry="200" fill="#FFFFFF" stroke="#000000" stroke-width="100"></rect><g transform="translate(2439, -777)"><path d="M602 332c30 -190 -108 -332 -293 -336l11 -247c-21 -7 -42 -15 -63 -26l-11 8c3 87 9 175 5 263c-122 17 -219 79 -239 207c-26 162 97 261 242 284l7 -10l-4 -7c-123 -36 -185 -125 -163 -262c14 -90 58 -165 155 -189c-2 69 -10 244 9 305c26 82 114 151 199 151 c87 0 133 -61 145 -141zM534 317c-9 58 -38 123 -108 123c-121 0 -116 -173 -117 -262l-2 -163c157 17 253 141 227 302" fill="black" stroke="black" stroke-width="1" transform="translate(0, 0) scale(1, -1)"></path></g></g><g><path d="M 0 -1662 V 1200" fill="none" stroke="black" stroke-width="100"></path></g><g><path d="M 2273 -4919 V -2741 A 200 200 0 0 1 2073 -2541 H 1673" fill="none" stroke="black" stroke-width="100"></path><polygon points="0,0 150,300 300,0" stroke="red" stroke-width="100" fill="red" transform="translate(2123, -4619)"></polygon><polygon points="150,0 300,300 0,300" stroke="black" stroke-width="100" fill="black" transform="translate(2123, -4019)"></polygon></g><g><path d="M 2273 -8782 V -6882" fill="none" stroke="black" stroke-width="100"></path></g><g><path d="M -2273 -8782 V -2741 A 200 200 0 0 0 -2073 -2541 H -1673" fill="none" stroke="black" stroke-width="100"></path></g><g><rect x="-1673" y="-3419" width="3346" height="1757" rx="200" ry="200" fill="#FFFFFF" stroke="#000000" stroke-width="100"></rect><g transform="translate(-1173, -2182)"><path d="M579 -3c-9 0 -73 3 -91 3c-12 0 -28 -1 -77 -3l5 92l-111 -93c-5 -4 -28 -8 -48 -8c-65 0 -112 13 -146 42c-49 40 -77 119 -77 199c0 122 149 257 272 257c40 0 78 -14 106 -49v183c0 30 -7 41 -25 41h-56v28c79 12 112 20 156 37l9 -8v-616c0 -63 3 -70 37 -72l46 -3 v-30zM412 350c0 16 -67 72 -146 72c-90 0 -144 -64 -144 -173c0 -119 63 -204 151 -204c47 0 96 31 124 78c13 23 15 33 15 98v129" fill="black" stroke="black" stroke-width="1" transform="translate(0, 0) scale(1, -1)"></path><path d="M250 -20c-89 0 -224 45 -224 239c0 104 32 173 114 221c40 24 85 29 122 29c112 0 186 -75 186 -190c0 -12 -1 -21 -2 -35c-47 -10 -156 -18 -242 -18c-34 0 -64 1 -85 4c2 -58 9 -86 28 -119c28 -49 82 -78 147 -78c43 0 66 9 130 47l13 -10l-20 -34 c-12 -18 -102 -56 -167 -56zM359 267c-3 67 -10 96 -32 129c-18 27 -44 40 -77 40c-48 0 -91 -27 -112 -71c-13 -26 -17 -48 -17 -95c26 -6 69 -9 112 -9c51 0 102 3 126 6" fill="black" stroke="black" stroke-width="1" transform="translate(610, 0) scale(1, -1)"></path><path d="M341 717v-77l-12 -6c-24 21 -42 28 -69 28c-57 0 -70 -28 -70 -143v-85l131 4l-7 -53h-124v-283c0 -63 3 -70 37 -72l46 -3v-30c-100 3 -100 3 -125 3s-25 0 -125 -3v30l46 3c34 2 37 9 37 72v283l-69 -4v22l69 31v42v2c0 77 57 259 168 259c21 0 43 -6 67 -20" fill="black" stroke="black" stroke-width="1" transform="translate(1088, 0) scale(1, -1)"></path><path d="M284 215h-260l-6 5l28 67h262l6 -5" fill="black" stroke="black" stroke-width="1" transform="translate(1420, 0) scale(1, -1)"></path><path d="M562 97c5 -3 8 -6 9 -13c-26 -30 -82 -100 -128 -100c-51 0 -62 111 -68 144l-3 3c-48 -67 -126 -147 -218 -147c-68 0 -97 49 -106 109c-24 150 73 380 241 380c112 0 114 -136 125 -213l7 -3c26 58 61 134 63 202h11c11 -15 21 -31 30 -46c-25 -70 -60 -135 -99 -197 c6 -32 22 -161 67 -161c27 0 46 24 62 42h7zM368 164l-4 28c-9 60 -30 245 -117 245c-109 0 -142 -235 -128 -322c7 -45 25 -87 78 -87c71 0 137 85 171 136" fill="black" stroke="black" stroke-width="1" transform="translate(1752, 0) scale(1, -1)"></path></g></g><g><rect x="1426" y="-6882" width="1694" height="1963" rx="200" ry="200" fill="#FFFFFF" stroke="#DB2828" stroke-width="100"></rect><g transform="translate(1925, -5700)"><path d="M19 377c-7 0 -10 4 -13 8l2 9c25 19 97 69 128 69c68 0 17 -187 38 -312c12 -77 63 -119 138 -115l21 1c3 207 8 417 -4 625c15 9 31 15 49 20l9 -6c-13 -211 -18 -425 -24 -638c138 18 221 139 198 280c-6 37 -18 76 -44 107l-2 13c14 4 48 20 63 20c28 0 42 -67 45 -86 c26 -160 -110 -348 -261 -377c5 -83 10 -166 18 -249c-18 -10 -37 -20 -56 -27l-9 10c12 85 16 175 18 263c-15 -3 -31 -4 -48 -4c-96 0 -159 27 -176 132c-16 104 31 279 -37 279c-20 0 -37 -12 -53 -22" fill="black" stroke="black" stroke-width="1" transform="translate(0, 0) scale(1, -1)"></path></g></g></g><g transform="translate(25700, -4585)"><g><path d="M 0 0 V 1200" fill="none" stroke="black" stroke-width="100"></path><polygon points="0,0 150,300 300,0" stroke="red" stroke-width="100" fill="red" transform="translate(-150, 300)"></polygon></g><g><path d="M 2323 -3218 V -1209 A 200 200 0 0 1 2123 -1009 H 1723" fill="none" stroke="black" stroke-width="100"></path></g><g><path d="M -2323 -3218 V -1209 A 200 200 0 0 0 -2123 -1009 H -1723" fill="none" stroke="black" stroke-width="100"></path><polygon points="150,0 300,300 0,300" stroke="red" stroke-width="100" fill="red" transform="translate(-2473, -2618)"></polygon></g><g><rect x="-1723" y="-2018" width="3446" height="2018" rx="200" ry="200" fill="#FFFFFF" stroke="#DB2828" stroke-width="100"></rect><g transform="translate(-1224, -781)"><path d="M579 -3c-9 0 -73 3 -91 3c-12 0 -28 -1 -77 -3l5 92l-111 -93c-5 -4 -28 -8 -48 -8c-65 0 -112 13 -146 42c-49 40 -77 119 -77 199c0 122 149 257 272 257c40 0 78 -14 106 -49v183c0 30 -7 41 -25 41h-56v28c79 12 112 20 156 37l9 -8v-616c0 -63 3 -70 37 -72l46 -3 v-30zM412 350c0 16 -67 72 -146 72c-90 0 -144 -64 -144 -173c0 -119 63 -204 151 -204c47 0 96 31 124 78c13 23 15 33 15 98v129" fill="black" stroke="black" stroke-width="1" transform="translate(0, 0) scale(1, -1)"></path><path d="M250 -20c-89 0 -224 45 -224 239c0 104 32 173 114 221c40 24 85 29 122 29c112 0 186 -75 186 -190c0 -12 -1 -21 -2 -35c-47 -10 -156 -18 -242 -18c-34 0 -64 1 -85 4c2 -58 9 -86 28 -119c28 -49 82 -78 147 -78c43 0 66 9 130 47l13 -10l-20 -34 c-12 -18 -102 -56 -167 -56zM359 267c-3 67 -10 96 -32 129c-18 27 -44 40 -77 40c-48 0 -91 -27 -112 -71c-13 -26 -17 -48 -17 -95c26 -6 69 -9 112 -9c51 0 102 3 126 6" fill="black" stroke="black" stroke-width="1" transform="translate(610, 0) scale(1, -1)"></path><path d="M341 717v-77l-12 -6c-24 21 -42 28 -69 28c-57 0 -70 -28 -70 -143v-85l131 4l-7 -53h-124v-283c0 -63 3 -70 37 -72l46 -3v-30c-100 3 -100 3 -125 3s-25 0 -125 -3v30l46 3c34 2 37 9 37 72v283l-69 -4v22l69 31v42v2c0 77 57 259 168 259c21 0 43 -6 67 -20" fill="black" stroke="black" stroke-width="1" transform="translate(1088, 0) scale(1, -1)"></path><path d="M284 215h-260l-6 5l28 67h262l6 -5" fill="black" stroke="black" stroke-width="1" transform="translate(1420, 0) scale(1, -1)"></path><path d="M19 377c-7 0 -10 4 -13 8l2 9c25 19 97 69 128 69c68 0 17 -187 38 -312c12 -77 63 -119 138 -115l21 1c3 207 8 417 -4 625c15 9 31 15 49 20l9 -6c-13 -211 -18 -425 -24 -638c138 18 221 139 198 280c-6 37 -18 76 -44 107l-2 13c14 4 48 20 63 20c28 0 42 -67 45 -86 c26 -160 -110 -348 -261 -377c5 -83 10 -166 18 -249c-18 -10 -37 -20 -56 -27l-9 10c12 85 16 175 18 263c-15 -3 -31 -4 -48 -4c-96 0 -159 27 -176 132c-16 104 31 279 -37 279c-20 0 -37 -12 -53 -22" fill="black" stroke="black" stroke-width="1" transform="translate(1752, 0) scale(1, -1)"></path></g></g></g></svg>