<?xml version="1.0" encoding="UTF-8" standalone="no"?>
<svg width="725" height="212" viewBox="0 -10600 37273 10600" xmlns="http://www.w3.org/2000/svg"><g transform="translate(3400, -3400)"><g><rect x="-1400" y="-3800" width="2900" height="3800" rx="200" ry="200" fill="#FFFFFF" stroke="#000000" stroke-width="100"></rect><g transform="translate(400, -1100)"></g></g><g><rect x="-800" y="-3100" width="1600" height="1600" rx="200" ry="200" fill="#FFFFFF" stroke="#000000" stroke-width="100"></rect><g transform="translate(-300, -2600)"></g></g></g><g transform="translate(8900, -1200)"><g><rect x="-2000" y="-8200" width="4000" height="8200" rx="200" ry="200" fill="#FFFFFF" stroke="#000000" stroke-width="100"></rect><g transform="translate(900, -1100)"></g></g><g><rect x="-600" y="-3100" width="2100" height="1600" rx="200" ry="200" fill="#FFFFFF" stroke="#000000" stroke-width="100"></rect><g transform="translate(400, -2600)"></g></g><g><rect x="-1400" y="-7500" width="2900" height="3800" rx="200" ry="200" fill="#FFFFFF" stroke="#000000" stroke-width="100"></rect><g transform="translate(400, -4800)"></g></g><g><path d="M 0 -5200 V 1200" fill="none" stroke="black" stroke-width="100"></path></g><g><path d="M 0 -9400 V -6800" fill="none" stroke="black" stroke-width="100"></path></g><g><rect x="-800" y="-6800" width="1600" height="1600" rx="200" ry="200" fill="#FFFFFF" stroke="#000000" stroke-width="100"></rect><g transform="translate(-300, -6300)"></g></g></g><g transform="translate(15700, -2300)"><g><rect x="-2800" y="-6000" width="5500" height="6000" rx="200" ry="200" fill="#FFFFFF" stroke="#000000" stroke-width="100"></rect><g transform="translate(1600, -1100)"></g></g><g><path d="M 0 -1500 V 1200" fill="none" stroke="black" stroke-width="100"></path></g><g><path d="M 1400 -3700 V -2500 A 200 200 0 0 1 1200 -2300 H 800" fill="none" stroke="black" stroke-width="100"></path></g><g><path d="M -1400 -3700 V -2500 A 200 200 0 0 0 -1200 -2300 H -800" fill="none" stroke="black" stroke-width="100"></path></g><g><path d="M -1400 -7200 V -5300" fill="none" stroke="black" stroke-width="100"></path></g><g><rect x="-800" y="-3100" width="1600" height="1600" rx="200" ry="200" fill="#FFFFFF" stroke="#000000" stroke-width="100"></rect><g transform="translate(-300, -2600)"></g></g><g><rect x="600" y="-5300" width="1600" height="1600" rx="200" ry="200" fill="#FFFFFF" stroke="#000000" stroke-width="100"></rect><g transform="translate(1100, -4800)"></g></g><g><rect x="-2200" y="-5300" width="1600" height="1600" rx="200" ry="200" fill="#FFFFFF" stroke="#000000" stroke-width="100"></rect><g transform="translate(-1700, -4800)"></g></g></g><g transform="translate(22377, -3258)"><g><rect x="-1977" y="-4084" width="3854" height="4084" rx="200" ry="200" fill="#FFFFFF" stroke="#000000" stroke-width="100"></rect><g transform="translate(822, -783)"><path d="M297 86l119 292c4 10 6 19 6 26c0 14 -14 23 -42 25l-26 2v28c79 -3 79 -3 95 -3s16 0 95 3v-28l-28 -2c-25 -3 -44 -30 -84 -121l-203 -468c-38 -87 -81 -123 -148 -123c-19 0 -35 5 -54 15l24 75h13c17 -15 35 -23 51 -23c38 0 77 47 109 131l23 61 c-18 50 -28 74 -56 142l-109 262c-15 35 -27 46 -52 49l-18 2v28c97 -3 97 -3 116 -3s19 0 116 3v-28l-38 -2c-23 -1 -34 -9 -34 -23c0 -10 4 -25 10 -42l64 -168c18 -49 29 -72 51 -110" fill="black" stroke="black" stroke-width="1" transform="translate(0, 0) scale(1, -1)"></path></g></g><g><path d="M 0 -1642 V 1200" fill="none" stroke="black" stroke-width="100"></path></g><g><path d="M 1377 -5284 V -2713 A 200 200 0 0 1 1177 -2513 H 777" fill="none" stroke="black" stroke-width="100"></path></g><g><path d="M 0 -5284 V -3384" fill="none" stroke="black" stroke-width="100"></path></g><g><path d="M -1377 -5284 V -2713 A 200 200 0 0 0 -1177 -2513 H -777" fill="none" stroke="black" stroke-width="100"></path></g><g><rect x="-777" y="-3384" width="1554" height="1742" rx="200" ry="200" fill="#FFFFFF" stroke="#000000" stroke-width="100"></rect><g transform="translate(-278, -2425)"><path d="M297 86l119 292c4 10 6 19 6 26c0 14 -14 23 -42 25l-26 2v28c79 -3 79 -3 95 -3s16 0 95 3v-28l-28 -2c-25 -3 -44 -30 -84 -121l-203 -468c-38 -87 -81 -123 -148 -123c-19 0 -35 5 -54 15l24 75h13c17 -15 35 -23 51 -23c38 0 77 47 109 131l23 61 c-18 50 -28 74 -56 142l-109 262c-15 35 -27 46 -52 49l-18 2v28c97 -3 97 -3 116 -3s19 0 116 3v-28l-38 -2c-23 -1 -34 -9 -34 -23c0 -10 4 -25 10 -42l64 -168c18 -49 29 -72 51 -110" fill="black" stroke="black" stroke-width="1" transform="translate(0, 0) scale(1, -1)"></path></g></g></g><g transform="translate(28240, -2985)"><g><rect x="-1986" y="-4629" width="4673" height="4629" rx="200" ry="200" fill="#FFFFFF" stroke="#000000" stroke-width="100"></rect><g transform="translate(400, -783)"><path d="M188 465v-363c0 -63 3 -70 37 -72l46 -3v-30c-100 3 -100 3 -125 3s-25 0 -125 -3v30l46 3c34 2 37 9 37 72v225c0 66 -4 73 -44 73h-37v28c53 6 105 20 156 41zM142 687c28 0 55 -28 55 -56c0 -29 -27 -55 -56 -55s-55 26 -55 55c0 30 26 56 56 56" fill="black" stroke="black" stroke-width="1" transform="translate(0, 0) scale(1, -1)"></path><path d="M579 -3c-9 0 -73 3 -91 3c-12 0 -28 -1 -77 -3l5 92l-111 -93c-5 -4 -28 -8 -48 -8c-65 0 -112 13 -146 42c-49 40 -77 119 -77 199c0 122 149 257 272 257c40 0 78 -14 106 -49v183c0 30 -7 41 -25 41h-56v28c79 12 112 20 156 37l9 -8v-616c0 -63 3 -70 37 -72l46 -3 v-30zM412 350c0 16 -67 72 -146 72c-90 0 -144 -64 -144 -173c0 -119 63 -204 151 -204c47 0 96 31 124 78c13 23 15 33 15 98v129" fill="black" stroke="black" stroke-width="1" transform="translate(290, 0) scale(1, -1)"></path><path d="M284 215h-260l-6 5l28 67h262l6 -5" fill="black" stroke="black" stroke-width="1" transform="translate(900, 0) scale(1, -1)"></path><path d="M297 86l119 292c4 10 6 19 6 26c0 14 -14 23 -42 25l-26 2v28c79 -3 79 -3 95 -3s16 0 95 3v-28l-28 -2c-25 -3 -44 -30 -84 -121l-203 -468c-38 -87 -81 -123 -148 -123c-19 0 -35 5 -54 15l24 75h13c17 -15 35 -23 51 -23c38 0 77 47 109 131l23 61 c-18 50 -28 74 -56 142l-109 262c-15 35 -27 46 -52 49l-18 2v28c97 -3 97 -3 116 -3s19 0 116 3v-28l-38 -2c-23 -1 -34 -9 -34 -23c0 -10 4 -25 10 -42l64 -168c18 -49 29 -72 51 -110" fill="black" stroke="black" stroke-width="1" transform="translate(1232, 0) scale(1, -1)"></path></g></g><g><path d="M 0 -1909 V 1200" fill="none" stroke="black" stroke-width="100"></path></g><g><path d="M 0 -5829 V -3929" fill="none" stroke="black" stroke-width="100"></path></g><g><rect x="-1386" y="-3929" width="2772" height="2020" rx="200" ry="200" fill="#FFFFFF" stroke="#1B1C1D" stroke-width="100"></rect><g transform="translate(-887, -2692)"><path d="M341 717v-77l-12 -6c-24 21 -42 28 -69 28c-57 0 -70 -28 -70 -143v-85l131 4l-7 -53h-124v-283c0 -63 3 -70 37 -72l46 -3v-30c-100 3 -100 3 -125 3s-25 0 -125 -3v30l46 3c34 2 37 9 37 72v283l-69 -4v22l69 31v42v2c0 77 57 259 168 259c21 0 43 -6 67 -20" fill="black" stroke="black" stroke-width="1" transform="translate(0, 0) scale(1, -1)"></path><path d="" fill="black" stroke="black" stroke-width="1" transform="translate(332, 0) scale(1, -1)"></path><path d="M342 271c0 -83 -65 -147 -147 -147c-83 0 -148 64 -148 147c0 81 65 146 148 146c82 0 147 -65 147 -146zM304 271c0 60 -50 109 -109 109c-62 0 -110 -49 -110 -109c0 -62 48 -110 110 -110c59 0 109 48 109 110" fill="black" stroke="black" stroke-width="1" transform="translate(581, 0) scale(1, -1)"></path><path d="" fill="black" stroke="black" stroke-width="1" transform="translate(969, 0) scale(1, -1)"></path><path d="M55 289c0 135 146 180 221 180c49 0 85 -12 122 -42l142 4l4 -12l-25 -41h-92c8 -21 11 -34 11 -54c0 -127 -143 -174 -204 -174c-8 0 -14 1 -24 2c-17 -17 -46 -34 -46 -57c0 -27 24 -39 76 -39h160c70 0 118 -50 118 -122c0 -122 -119 -217 -270 -217 c-127 0 -216 63 -216 154c0 31 14 68 28 76l87 47c-48 14 -66 30 -66 58c0 15 5 28 15 43l79 61c-74 8 -120 59 -120 133zM240 435c-64 0 -101 -45 -101 -122s45 -129 112 -129c61 0 103 45 103 110c0 85 -46 141 -114 141zM287 -14c-69 0 -97 -2 -113 -10 c-40 -17 -66 -58 -66 -103c0 -74 60 -125 147 -125c105 0 184 64 184 150c0 65 -39 88 -152 88" fill="black" stroke="black" stroke-width="1" transform="translate(1218, 0) scale(1, -1)"></path></g></g></g><g transform="translate(34100, -4445)"><g><path d="M 0 0 V 1200" fill="none" stroke="black" stroke-width="100"></path><rect x="0" y="0" width="300" height="300" rx="200" ry="200" fill="red" stroke="red" stroke-width="100" transform="translate(-150, 300)"></rect></g><g><path d="M 0 -2910 V -1710" fill="none" stroke="black" stroke-width="100"></path></g><g><rect x="-1173" y="-1710" width="2346" height="1710" rx="200" ry="200" fill="#FFFFFF" stroke="#DB2828" stroke-width="100"></rect><g transform="translate(-673, -513)"><path d="M572 0h-526v39h388c19 0 34 16 34 53v253h-332v39h332v232c0 26 -20 42 -47 42h-364v39h515v-697" fill="black" stroke="black" stroke-width="1" transform="translate(0, 0) scale(1, -1)"></path><path d="" fill="black" stroke="black" stroke-width="1" transform="translate(617, 0) scale(1, -1)"></path><path d="M161 146c0 -70 58 -116 135 -116c45 0 89 14 132 42l8 -5l-15 -26c-50 -36 -103 -54 -159 -54c-102 0 -193 50 -193 145c0 65 48 106 143 123v9c-70 12 -105 45 -105 97c0 72 58 107 174 107c59 0 105 -13 138 -40c-16 -27 -29 -49 -38 -68l-11 5c-5 55 -36 83 -92 83 c-55 0 -93 -36 -93 -90c0 -44 22 -86 98 -86c22 0 44 3 68 7l5 -6c-3 -13 -6 -23 -8 -30l-10 -6c-23 6 -45 9 -66 9c-44 0 -111 -20 -111 -100" fill="black" stroke="black" stroke-width="1" transform="translate(866, 0) scale(1, -1)"></path></g></g></g></svg>