<?xml version="1.0" encoding="UTF-8" standalone="no"?>
<!-- Created with Inkscape (http://www.inkscape.org/) -->

<svg
   xmlns:dc="http://purl.org/dc/elements/1.1/"
   xmlns:cc="http://creativecommons.org/ns#"
   xmlns:rdf="http://www.w3.org/1999/02/22-rdf-syntax-ns#"
   xmlns:svg="http://www.w3.org/2000/svg"
   xmlns="http://www.w3.org/2000/svg"
   version="1.1"
   width="1000"
   height="300"
   viewBox="0 -15000 47300 15000"
   id="svg4940">
  <metadata
     id="metadata5224">
    <rdf:RDF>
      <cc:Work
         rdf:about="">
        <dc:format>image/svg+xml</dc:format>
        <dc:type
           rdf:resource="http://purl.org/dc/dcmitype/StillImage" />
        <dc:title></dc:title>
      </cc:Work>
    </rdf:RDF>
  </metadata>
  <defs
     id="defs5222" />
  <g
     transform="translate(4600,-3700)"
     id="g4942">
    <g
       id="g4944">
      <rect
         width="5100"
         height="7600"
         rx="200"
         ry="200"
         x="-2600"
         y="-7600"
         id="rect4946"
         style="fill:#ffffff;stroke:#000000;stroke-width:100" />
      <g
         transform="translate(1400,-1100)"
         id="g4948" />
    </g>
    <g
       id="g4950">
      <rect
         width="4000"
         height="5600"
         rx="200"
         ry="200"
         x="-2000"
         y="-7100"
         id="rect4952"
         style="fill:#ffffff;stroke:#000000;stroke-width:100" />
      <g
         transform="translate(900,-2600)"
         id="g4954" />
    </g>
    <g
       id="g4956">
      <rect
         width="2900"
         height="3600"
         rx="200"
         ry="200"
         x="-1400"
         y="-6600"
         id="rect4958"
         style="fill:#ffffff;stroke:#000000;stroke-width:100" />
      <g
         transform="translate(400,-4100)"
         id="g4960" />
    </g>
    <g
       id="g4962">
      <rect
         width="1600"
         height="1600"
         rx="200"
         ry="200"
         x="-800"
         y="-6100"
         id="rect4964"
         style="fill:#ffffff;stroke:#000000;stroke-width:100" />
      <g
         transform="translate(-300,-5600)"
         id="g4966" />
    </g>
  </g>
  <g
     transform="translate(11100,-1200)"
     id="g4968">
    <g
       id="g4970">
      <rect
         width="4000"
         height="12600"
         rx="200"
         ry="200"
         x="-2000"
         y="-12600"
         id="rect4972"
         style="fill:#ffffff;stroke:#000000;stroke-width:100" />
      <g
         transform="translate(900,-1100)"
         id="g4974" />
    </g>
    <g
       id="g4976">
      <rect
         width="2900"
         height="6000"
         rx="200"
         ry="200"
         x="-1400"
         y="-7500"
         id="rect4978"
         style="fill:#ffffff;stroke:#000000;stroke-width:100" />
      <g
         transform="translate(400,-2600)"
         id="g4980" />
    </g>
    <g
       id="g4982">
      <rect
         width="2100"
         height="1600"
         rx="200"
         ry="200"
         x="-600"
         y="-9700"
         id="rect4984"
         style="fill:#ffffff;stroke:#000000;stroke-width:100" />
      <g
         transform="translate(400,-9200)"
         id="g4986" />
    </g>
    <g
       id="g4988">
      <path
         d="M 0,-3000 V 1200"
         id="path4990"
         style="fill:none;stroke:#000000;stroke-width:100" />
    </g>
    <g
       id="g4992">
      <path
         d="m 0,-5200 v 600"
         id="path4994"
         style="fill:none;stroke:#000000;stroke-width:100" />
    </g>
    <g
       id="g4996">
      <path
         d="m 0,-10300 v 3500"
         id="path4998"
         style="fill:none;stroke:#000000;stroke-width:100" />
    </g>
    <g
       id="g5000">
      <path
         d="m 0,-13800 v 1900"
         id="path5002"
         style="fill:none;stroke:#000000;stroke-width:100" />
    </g>
    <g
       id="g5004">
      <rect
         width="1600"
         height="1600"
         rx="200"
         ry="200"
         x="-800"
         y="-4600"
         id="rect5006"
         style="fill:#ffffff;stroke:#000000;stroke-width:100" />
      <g
         transform="translate(-300,-4100)"
         id="g5008" />
    </g>
    <g
       id="g5010">
      <rect
         width="1600"
         height="1600"
         rx="200"
         ry="200"
         x="-800"
         y="-6800"
         id="rect5012"
         style="fill:#ffffff;stroke:#000000;stroke-width:100" />
      <g
         transform="translate(-300,-6300)"
         id="g5014" />
    </g>
    <g
       id="g5016">
      <rect
         width="1600"
         height="1600"
         rx="200"
         ry="200"
         x="-800"
         y="-11900"
         id="rect5018"
         style="fill:#ffffff;stroke:#000000;stroke-width:100" />
      <g
         transform="translate(-300,-11400)"
         id="g5020" />
    </g>
  </g>
  <g
     transform="translate(18400,-2300)"
     id="g5022">
    <g
       id="g5024">
      <rect
         width="8800"
         height="10400"
         rx="200"
         ry="200"
         x="-3300"
         y="-10400"
         id="rect5026"
         style="fill:#ffffff;stroke:#000000;stroke-width:100" />
      <g
         transform="translate(4400,-1100)"
         id="g5028" />
    </g>
    <g
       id="g5030">
      <rect
         width="6800"
         height="3800"
         rx="200"
         ry="200"
         x="-2700"
         y="-5300"
         id="rect5032"
         style="fill:#ffffff;stroke:#000000;stroke-width:100" />
      <g
         transform="translate(3000,-2600)"
         id="g5034" />
    </g>
    <g
       id="g5036">
      <rect
         width="2900"
         height="3800"
         rx="200"
         ry="200"
         x="-1400"
         y="-9700"
         id="rect5038"
         style="fill:#ffffff;stroke:#000000;stroke-width:100" />
      <g
         transform="translate(400,-7000)"
         id="g5040" />
    </g>
    <g
       id="g5042">
      <path
         d="M 0,-3000 V 1200"
         id="path5044"
         style="fill:none;stroke:#000000;stroke-width:100" />
    </g>
    <g
       id="g5046">
      <path
         d="m 3600,-5900 v 1900 a 200,200 0 0 1 -200,200 H 800"
         id="path5048"
         style="fill:none;stroke:#000000;stroke-width:100" />
    </g>
    <g
       id="g5050">
      <path
         d="m 5000,-11600 v 4700 a 200,200 0 0 1 -200,200 h -400"
         id="path5052"
         style="fill:none;stroke:#000000;stroke-width:100" />
    </g>
    <g
       id="g5054">
      <path
         d="m 2200,-11600 v 4700 a 200,200 0 0 0 200,200 h 400"
         id="path5056"
         style="fill:none;stroke:#000000;stroke-width:100" />
    </g>
    <g
       id="g5058">
      <path
         d="m 0,-7400 v 2800"
         id="path5060"
         style="fill:none;stroke:#000000;stroke-width:100" />
    </g>
    <g
       id="g5062">
      <path
         d="m -2100,-11600 v 7600 a 200,200 0 0 0 200,200 h 1100"
         id="path5064"
         style="fill:none;stroke:#000000;stroke-width:100" />
    </g>
    <g
       id="g5066">
      <rect
         width="1600"
         height="1600"
         rx="200"
         ry="200"
         x="-800"
         y="-4600"
         id="rect5068"
         style="fill:#ffffff;stroke:#000000;stroke-width:100" />
      <g
         transform="translate(-300,-4100)"
         id="g5070" />
    </g>
    <g
       id="g5072">
      <rect
         width="1600"
         height="1600"
         rx="200"
         ry="200"
         x="2800"
         y="-7500"
         id="rect5074"
         style="fill:#ffffff;stroke:#000000;stroke-width:100" />
      <g
         transform="translate(3300,-7000)"
         id="g5076" />
    </g>
    <g
       id="g5078">
      <rect
         width="1600"
         height="1600"
         rx="200"
         ry="200"
         x="-800"
         y="-9000"
         id="rect5080"
         style="fill:#ffffff;stroke:#000000;stroke-width:100" />
      <g
         transform="translate(-300,-8500)"
         id="g5082" />
    </g>
  </g>
  <g
     transform="translate(28800,-2300)"
     id="g5084">
    <g
       id="g5086">
      <rect
         width="7000"
         height="10400"
         rx="200"
         ry="200"
         x="-2900"
         y="-10400"
         id="rect5088"
         style="fill:#ffffff;stroke:#000000;stroke-width:100" />
      <g
         transform="translate(3000,-1100)"
         id="g5090" />
    </g>
    <g
       id="g5092">
      <rect
         width="4700"
         height="3800"
         rx="200"
         ry="200"
         x="-2100"
         y="-5300"
         id="rect5094"
         style="fill:#ffffff;stroke:#000000;stroke-width:100" />
      <g
         transform="translate(1500,-2600)"
         id="g5096" />
    </g>
    <g
       id="g5098">
      <rect
         width="2900"
         height="3800"
         rx="200"
         ry="200"
         x="700"
         y="-9700"
         id="rect5100"
         style="fill:#ffffff;stroke:#000000;stroke-width:100" />
      <g
         transform="translate(2500,-7000)"
         id="g5102" />
    </g>
    <g
       id="g5104">
      <path
         d="M 0,-3000 V 1200"
         id="path5106"
         style="fill:none;stroke:#000000;stroke-width:100" />
    </g>
    <g
       id="g5108">
      <path
         d="m 2100,-7400 v 3400 a 200,200 0 0 1 -200,200 H 800"
         id="path5110"
         style="fill:none;stroke:#000000;stroke-width:100" />
    </g>
    <g
       id="g5112">
      <path
         d="m 2100,-11600 v 2600"
         id="path5114"
         style="fill:none;stroke:#000000;stroke-width:100" />
    </g>
    <g
       id="g5116">
      <path
         d="m 0,-11600 v 7000"
         id="path5118"
         style="fill:none;stroke:#000000;stroke-width:100" />
    </g>
    <g
       id="g5120">
      <path
         d="m -1500,-5900 v 1900 a 200,200 0 0 0 200,200 h 500"
         id="path5122"
         style="fill:none;stroke:#000000;stroke-width:100" />
    </g>
    <g
       id="g5124">
      <path
         d="m -1500,-11600 v 4100"
         id="path5126"
         style="fill:none;stroke:#000000;stroke-width:100" />
    </g>
    <g
       id="g5128">
      <rect
         width="1600"
         height="1600"
         rx="200"
         ry="200"
         x="-800"
         y="-4600"
         id="rect5130"
         style="fill:#ffffff;stroke:#000000;stroke-width:100" />
      <g
         transform="translate(-300,-4100)"
         id="g5132" />
    </g>
    <g
       id="g5134">
      <rect
         width="1600"
         height="1600"
         rx="200"
         ry="200"
         x="1300"
         y="-9000"
         id="rect5136"
         style="fill:#ffffff;stroke:#000000;stroke-width:100" />
      <g
         transform="translate(1800,-8500)"
         id="g5138" />
    </g>
    <g
       id="g5140">
      <rect
         width="1600"
         height="1600"
         rx="200"
         ry="200"
         x="-2300"
         y="-7500"
         id="rect5142"
         style="fill:#ffffff;stroke:#000000;stroke-width:100" />
      <g
         transform="translate(-1800,-7000)"
         id="g5144" />
    </g>
  </g>
  <g
     transform="translate(37000,-4500)"
     id="g5146">
    <g
       id="g5148">
      <rect
         width="5600"
         height="6000"
         rx="200"
         ry="200"
         x="-2100"
         y="-6000"
         id="rect5150"
         style="fill:#ffffff;stroke:#000000;stroke-width:100" />
      <g
         transform="translate(2400,-1100)"
         id="g5152" />
    </g>
    <g
       id="g5154">
      <path
         d="M 0,-1500 V 1200"
         id="path5156"
         style="fill:none;stroke:#000000;stroke-width:100" />
    </g>
    <g
       id="g5158">
      <path
         d="m 2200,-3700 v 1200 a 200,200 0 0 1 -200,200 H 800"
         id="path5160"
         style="fill:none;stroke:#000000;stroke-width:100" />
    </g>
    <g
       id="g5162">
      <path
         d="m 2200,-7200 v 1900"
         id="path5164"
         style="fill:none;stroke:#000000;stroke-width:100" />
    </g>
    <g
       id="g5166">
      <path
         d="m 0,-3700 v 600"
         id="path5168"
         style="fill:none;stroke:#000000;stroke-width:100" />
    </g>
    <g
       id="g5170">
      <path
         d="m 0,-7200 v 1900"
         id="path5172"
         style="fill:none;stroke:#000000;stroke-width:100" />
    </g>
    <g
       id="g5174">
      <path
         d="m -1500,-7200 v 4700 a 200,200 0 0 0 200,200 h 500"
         id="path5176"
         style="fill:none;stroke:#000000;stroke-width:100" />
    </g>
    <g
       id="g5178">
      <rect
         width="1600"
         height="1600"
         rx="200"
         ry="200"
         x="-800"
         y="-3100"
         id="rect5180"
         style="fill:#ffffff;stroke:#000000;stroke-width:100" />
      <g
         transform="translate(-300,-2600)"
         id="g5182" />
    </g>
    <g
       id="g5184">
      <rect
         width="1600"
         height="1600"
         rx="200"
         ry="200"
         x="1400"
         y="-5300"
         id="rect5186"
         style="fill:#ffffff;stroke:#000000;stroke-width:100" />
      <g
         transform="translate(1900,-4800)"
         id="g5188" />
    </g>
    <g
       id="g5190">
      <rect
         width="1600"
         height="1600"
         rx="200"
         ry="200"
         x="-800"
         y="-5300"
         id="rect5192"
         style="fill:#ffffff;stroke:#000000;stroke-width:100" />
      <g
         transform="translate(-300,-4800)"
         id="g5194" />
    </g>
  </g>
  <g
     transform="translate(43900,-6700)"
     id="g5196">
    <g
       id="g5198">
      <path
         d="M 0,0 V 1200"
         id="path5200"
         style="fill:none;stroke:#000000;stroke-width:100" />
    </g>
    <g
       id="g5202">
      <path
         d="m 1400,-2800 v 1800 a 200,200 0 0 1 -200,200 H 800"
         id="path5204"
         style="fill:none;stroke:#000000;stroke-width:100" />
    </g>
    <g
       id="g5206">
      <path
         d="m 0,-2800 v 1200"
         id="path5208"
         style="fill:none;stroke:#000000;stroke-width:100" />
    </g>
    <g
       id="g5210">
      <path
         d="m -1400,-2800 v 1800 a 200,200 0 0 0 200,200 h 400"
         id="path5212"
         style="fill:none;stroke:#000000;stroke-width:100" />
    </g>
    <g
       id="g5214">
      <rect
         width="1600"
         height="1600"
         rx="200"
         ry="200"
         x="-800"
         y="-1600"
         id="rect5216"
         style="fill:#ffffff;stroke:#000000;stroke-width:100" />
      <g
         transform="translate(-300,-1100)"
         id="g5218" />
    </g>
  </g>
</svg>
