<?xml version="1.0" encoding="UTF-8" standalone="no"?>
<!-- Created with Inkscape (http://www.inkscape.org/) -->

<svg
   xmlns:dc="http://purl.org/dc/elements/1.1/"
   xmlns:cc="http://creativecommons.org/ns#"
   xmlns:rdf="http://www.w3.org/1999/02/22-rdf-syntax-ns#"
   xmlns:svg="http://www.w3.org/2000/svg"
   xmlns="http://www.w3.org/2000/svg"
   xmlns:sodipodi="http://sodipodi.sourceforge.net/DTD/sodipodi-0.dtd"
   xmlns:inkscape="http://www.inkscape.org/namespaces/inkscape"
   version="1.1"
   width="150"
   height="75"
   id="svg4256"
   inkscape:version="0.48.4 r9939"
   sodipodi:docname="arrow.svg">
  <sodipodi:namedview
     pagecolor="#ffffff"
     bordercolor="#666666"
     borderopacity="1"
     objecttolerance="10"
     gridtolerance="10"
     guidetolerance="10"
     inkscape:pageopacity="0"
     inkscape:pageshadow="2"
     inkscape:window-width="1855"
     inkscape:window-height="1056"
     id="namedview3371"
     showgrid="false"
     inkscape:zoom="3.8933333"
     inkscape:cx="36.530504"
     inkscape:cy="50"
     inkscape:window-x="65"
     inkscape:window-y="24"
     inkscape:window-maximized="1"
     inkscape:current-layer="svg4256" />
  <defs
     id="defs4258">
    <marker
       refX="0"
       refY="0"
       orient="auto"
       id="Arrow1Send"
       style="overflow:visible">
      <path
         d="M 0,0 5,-5 -12.5,0 5,5 0,0 z"
         transform="matrix(-0.2,0,0,-0.2,-1.2,0)"
         id="path5011"
         style="fill-rule:evenodd;stroke:#000000;stroke-width:1pt"
         inkscape:connector-curvature="0" />
    </marker>
    <marker
       refX="0"
       refY="0"
       orient="auto"
       id="DotL"
       style="overflow:visible">
      <path
         d="m -2.5,-1 c 0,2.76 -2.24,5 -5,5 -2.76,0 -5,-2.24 -5,-5 0,-2.76 2.24,-5 5,-5 2.76,0 5,2.24 5,5 z"
         transform="matrix(0.8,0,0,0.8,5.92,0.8)"
         id="path5057"
         style="fill-rule:evenodd;stroke:#000000;stroke-width:1pt"
         inkscape:connector-curvature="0" />
    </marker>
    <marker
       refX="0"
       refY="0"
       orient="auto"
       id="Arrow2Mend"
       style="overflow:visible">
      <path
         d="M 8.7185878,4.0337352 -2.2072895,0.01601326 8.7185884,-4.0017078 c -1.7454984,2.3720609 -1.7354408,5.6174519 -6e-7,8.035443 z"
         transform="scale(-0.6,-0.6)"
         id="path5023"
         style="fill-rule:evenodd;stroke-width:0.625;stroke-linejoin:round"
         inkscape:connector-curvature="0" />
    </marker>
    <marker
       refX="0"
       refY="0"
       orient="auto"
       id="Arrow1Lstart"
       style="overflow:visible">
      <path
         d="M 0,0 5,-5 -12.5,0 5,5 0,0 z"
         transform="matrix(0.8,0,0,0.8,10,0)"
         id="path4996"
         style="fill-rule:evenodd;stroke:#000000;stroke-width:1pt"
         inkscape:connector-curvature="0" />
    </marker>
    <marker
       refX="0"
       refY="0"
       orient="auto"
       id="Arrow2Lend"
       style="overflow:visible">
      <path
         d="M 8.7185878,4.0337352 -2.2072895,0.01601326 8.7185884,-4.0017078 c -1.7454984,2.3720609 -1.7354408,5.6174519 -6e-7,8.035443 z"
         transform="matrix(-1.1,0,0,-1.1,-1.1,0)"
         id="path5017"
         style="fill-rule:evenodd;stroke-width:0.625;stroke-linejoin:round"
         inkscape:connector-curvature="0" />
    </marker>
  </defs>
  <metadata
     id="metadata4261">
    <rdf:RDF>
      <cc:Work
         rdf:about="">
        <dc:format>image/svg+xml</dc:format>
        <dc:type
           rdf:resource="http://purl.org/dc/dcmitype/StillImage" />
        <dc:title></dc:title>
      </cc:Work>
    </rdf:RDF>
  </metadata>
  <g
     id="g3407"
     transform="matrix(1.0648352,0,0,1.0648352,-5.0511765,-9.7201439)">
    <path
       inkscape:connector-curvature="0"
       class="stroke-f fill-f"
       style="fill:none;stroke:#000000;stroke-width:2.44763732px;stroke-linecap:butt;stroke-linejoin:miter;stroke-opacity:1;marker-mid:url(#Arrow1Send)"
       id="path6000"
       d="m 22.457987,48.220671 104.152833,0" />
    <path
       inkscape:connector-curvature="0"
       class="stroke-f fill-f"
       style="fill:#000000;fill-opacity:1;stroke:#000000;stroke-width:2.44763732;stroke-linecap:round;stroke-miterlimit:4;stroke-opacity:1;stroke-dasharray:none"
       id="path6406"
       d="m 80.038814,47.945959 -4.347836,2.510223 -4.347836,2.510225 0,-5.020448 0,-5.02045 4.347836,2.510225 z" />
    <g
       transform="matrix(0.02447637,0,0,0.02447637,130.82786,66.341075)"
       id="g8185">
      <path
         d="m 297,86 119,292 c 4,10 6,19 6,26 0,14 -14,23 -42,25 l -26,2 v 28 c 79,-3 79,-3 95,-3 16,0 16,0 95,3 v -28 l -28,-2 C 491,426 472,399 432,308 L 229,-160 c -38,-87 -81,-123 -148,-123 -19,0 -35,5 -54,15 l 24,75 h 13 c 17,-15 35,-23 51,-23 38,0 77,47 109,131 l 23,61 C 229,26 219,50 191,118 L 82,380 c -15,35 -27,46 -52,49 l -18,2 v 28 c 97,-3 97,-3 116,-3 19,0 19,0 116,3 v -28 l -38,-2 c -23,-1 -34,-9 -34,-23 0,-10 4,-25 10,-42 l 64,-168 c 18,-49 29,-72 51,-110"
         transform="scale(1,-1)"
         id="path8187"
         style="fill:#000000;stroke:#000000;stroke-width:1"
         inkscape:connector-curvature="0"
         class="stroke-y fill-y" />
    </g>
    <g
       transform="matrix(0.02447637,0,0,0.02447637,6.1726084,67.080628)"
       id="g8193">
      <path
         d="M 288,254 436,54 c 11,-15 23,-23 35,-24 l 25,-3 V -3 c -52,3 -52,3 -62,3 -9,0 -9,0 -61,-3 L 240,192 106,0 H 20 v 27 h 17 c 10,0 23,6 30,15 L 216,218 96,392 c -10,14 -32,28 -50,29 l -21,2 -5,26 116,20 c 34,-34 45,-47 60,-69 l 76,-116 124,175 h 82 v -28 h -14 c -17,0 -28,-4 -34,-11"
         transform="scale(1,-1)"
         id="path8195"
         style="fill:#000000;stroke:#000000;stroke-width:1"
         class="stroke-x fill-x"
         inkscape:connector-curvature="0" />
    </g>
    <g
       transform="matrix(0.02447637,0,0,0.02447637,68.61975,35.96997)"
       id="g8211">
      <path
         d="m 341,717 v -77 l -12,-6 c -24,21 -42,28 -69,28 -57,0 -70,-28 -70,-143 v -85 l 131,4 -7,-53 H 190 V 102 c 0,-63 3,-70 37,-72 l 46,-3 V -3 C 173,0 173,0 148,0 123,0 123,0 23,-3 v 30 l 46,3 c 34,2 37,9 37,72 v 283 l -69,-4 v 22 l 69,31 v 42 2 c 0,77 57,259 168,259 21,0 43,-6 67,-20"
         transform="scale(1,-1)"
         id="path8213"
         style="fill:#000000;stroke:#000000;stroke-width:1"
         class="stroke-f fill-f"
         inkscape:connector-curvature="0" />
    </g>
    <path
       inkscape:connector-curvature="0"
       class="stroke-x fill-x"
       style="stroke:#000000;stroke-width:4.29355526;stroke-linecap:round;stroke-miterlimit:4;stroke-opacity:1;stroke-dasharray:none"
       id="path4334"
       d="m 26.399821,47.687607 a 3.4638144,3.4638144 0 0 1 -6.927628,0 3.4638144,3.4638144 0 1 1 6.927628,0 z" />
    <path
       inkscape:connector-curvature="0"
       class="stroke-y fill-y"
       style="stroke:#000000;stroke-width:4.29355526;stroke-linecap:round;stroke-miterlimit:4;stroke-opacity:1;stroke-dasharray:none"
       id="path4334-7"
       d="m 129.79984,48.220752 a 3.4638144,3.4638144 0 0 1 -6.92762,0 3.4638144,3.4638144 0 1 1 6.92762,0 z" />
  </g>
</svg>
