<?xml version="1.0" encoding="UTF-8" standalone="no"?>
<svg
   xmlns:dc="http://purl.org/dc/elements/1.1/"
   xmlns:cc="http://creativecommons.org/ns#"
   xmlns:rdf="http://www.w3.org/1999/02/22-rdf-syntax-ns#"
   xmlns:svg="http://www.w3.org/2000/svg"
   xmlns="http://www.w3.org/2000/svg"
   xmlns:sodipodi="http://sodipodi.sourceforge.net/DTD/sodipodi-0.dtd"
   xmlns:inkscape="http://www.inkscape.org/namespaces/inkscape"
   width="522.81165"
   height="241.2989"
   viewBox="0 -13464 35228.295 16244.242"
   id="svg5279"
   version="1.1"
   inkscape:version="0.48.4 r9939"
   sodipodi:docname="bigcomplex.svg">
  <metadata
     id="metadata5665">
    <rdf:RDF>
      <cc:Work
         rdf:about="">
        <dc:format>image/svg+xml</dc:format>
        <dc:type
           rdf:resource="http://purl.org/dc/dcmitype/StillImage" />
      </cc:Work>
    </rdf:RDF>
  </metadata>
  <defs
     id="defs5663" />
  <sodipodi:namedview
     pagecolor="#ffffff"
     bordercolor="#666666"
     borderopacity="1"
     objecttolerance="10"
     gridtolerance="10"
     guidetolerance="10"
     inkscape:pageopacity="0"
     inkscape:pageshadow="2"
     inkscape:window-width="1855"
     inkscape:window-height="1056"
     id="namedview5661"
     showgrid="false"
     fit-margin-top="20"
     fit-margin-left="20"
     fit-margin-right="20"
     fit-margin-bottom="20"
     inkscape:zoom="1.8152524"
     inkscape:cx="271.05226"
     inkscape:cy="120.66859"
     inkscape:window-x="65"
     inkscape:window-y="24"
     inkscape:window-maximized="1"
     inkscape:current-layer="svg5279" />
  <g
     transform="translate(3318.6477,-22.879025)"
     id="g5345">
    <g
       id="g5347">
      <rect
         x="-1921"
         y="-10638"
         width="8956"
         height="10638"
         rx="200"
         ry="200"
         id="rect5349"
         style="fill:#ffffff;stroke:#000000;stroke-width:100" />
      <g
         transform="translate(6203,-503)"
         id="g5351">
        <path
           d="m 341,717 v -77 l -12,-6 c -24,21 -42,28 -69,28 -57,0 -70,-28 -70,-143 v -85 l 131,4 -7,-53 H 190 V 102 c 0,-63 3,-70 37,-72 l 46,-3 V -3 C 173,0 173,0 148,0 123,0 123,0 23,-3 v 30 l 46,3 c 34,2 37,9 37,72 v 283 l -69,-4 v 22 l 69,31 v 42 2 c 0,77 57,259 168,259 21,0 43,-6 67,-20"
           transform="scale(1,-1)"
           id="path5353"
           inkscape:connector-curvature="0"
           style="fill:#000000;stroke:#000000;stroke-width:1" />
      </g>
    </g>
    <g
       id="g5355">
      <rect
         x="600"
         y="-9938"
         width="5935"
         height="6181"
         rx="200"
         ry="200"
         id="rect5357"
         style="fill:#ffffff;stroke:#000000;stroke-width:100" />
      <g
         transform="translate(5557,-4277)"
         id="g5359">
        <path
           d="m 250,-20 c -89,0 -224,45 -224,239 0,104 32,173 114,221 40,24 85,29 122,29 112,0 186,-75 186,-190 0,-12 -1,-21 -2,-35 -47,-10 -156,-18 -242,-18 -34,0 -64,1 -85,4 2,-58 9,-86 28,-119 28,-49 82,-78 147,-78 43,0 66,9 130,47 L 437,70 417,36 C 405,18 315,-20 250,-20 z m 109,287 c -3,67 -10,96 -32,129 -18,27 -44,40 -77,40 -48,0 -91,-27 -112,-71 -13,-26 -17,-48 -17,-95 26,-6 69,-9 112,-9 51,0 102,3 126,6"
           transform="scale(1,-1)"
           id="path5361"
           inkscape:connector-curvature="0"
           style="fill:#000000;stroke:#000000;stroke-width:1" />
      </g>
    </g>
    <g
       id="g5363">
      <rect
         x="1200"
         y="-9238"
         width="2110"
         height="1738"
         rx="200"
         ry="200"
         id="rect5365"
         style="fill:#ffffff;stroke:#000000;stroke-width:100" />
      <g
         transform="translate(2200,-8012)"
         id="g5367">
        <path
           d="m 579,-3 c -9,0 -73,3 -91,3 -12,0 -28,-1 -77,-3 l 5,92 -111,-93 c -5,-4 -28,-8 -48,-8 -65,0 -112,13 -146,42 -49,40 -77,119 -77,199 0,122 149,257 272,257 40,0 78,-14 106,-49 v 183 c 0,30 -7,41 -25,41 h -56 v 28 c 79,12 112,20 156,37 l 9,-8 V 102 c 0,-63 3,-70 37,-72 l 46,-3 V -3 z M 412,350 c 0,16 -67,72 -146,72 -90,0 -144,-64 -144,-173 0,-119 63,-204 151,-204 47,0 96,31 124,78 13,23 15,33 15,98 v 129"
           transform="scale(1,-1)"
           id="path5369"
           inkscape:connector-curvature="0"
           style="fill:#000000;stroke:#000000;stroke-width:1" />
      </g>
    </g>
    <g
       id="g5371">
      <path
         d="M 0,-1640 V 1200"
         id="path5373"
         inkscape:connector-curvature="0"
         style="fill:none;stroke:#000000;stroke-width:100" />
    </g>
    <g
       id="g5375">
      <path
         d="m 3910,-5146 v 2547 a 200,200 0 0 1 -200,200 H 721"
         id="path5377"
         inkscape:connector-curvature="0"
         style="fill:none;stroke:#000000;stroke-width:100" />
    </g>
    <g
       id="g5379">
      <path
         d="m 5286,-7500 v 1277 a 200,200 0 0 1 -200,200 h -400"
         id="path5381"
         inkscape:connector-curvature="0"
         style="fill:none;stroke:#000000;stroke-width:100" />
    </g>
    <g
       id="g5383">
      <path
         d="m 1800,-11838 v 5615 a 200,200 0 0 0 200,200 h 1134"
         id="path5385"
         inkscape:connector-curvature="0"
         style="fill:none;stroke:#000000;stroke-width:100" />
    </g>
    <g
       id="g5387">
      <path
         d="m -1321,-11838 v 9239 a 200,200 0 0 0 200,200 h 400"
         id="path5389"
         inkscape:connector-curvature="0"
         style="fill:none;stroke:#000000;stroke-width:100" />
    </g>
    <g
       id="g5391">
      <rect
         x="-721"
         y="-3157"
         width="1442"
         height="1517"
         rx="200"
         ry="200"
         id="rect5393"
         style="fill:#ffffff;stroke:#000000;stroke-width:100" />
      <g
         transform="translate(-222,-2160)"
         id="g5395">
        <path
           d="m 399,311 h -28 l -7,61 c -18,25 -66,45 -110,45 -90,0 -140,-60 -140,-167 0,-132 73,-218 184,-218 36,0 68,9 105,29 L 413,46 392,14 C 382,-1 307,-20 255,-20 121,-20 26,75 26,210 c 0,5 -1,9 -1,14 0,137 144,273 268,273 45,0 88,-19 120,-63 -9,-36 -14,-77 -14,-123"
           transform="scale(1,-1)"
           id="path5397"
           inkscape:connector-curvature="0"
           style="fill:#000000;stroke:#000000;stroke-width:1" />
      </g>
    </g>
    <g
       id="g5399">
      <rect
         x="3134"
         y="-6900"
         width="1552"
         height="1754"
         rx="200"
         ry="200"
         id="rect5401"
         style="fill:#ffffff;stroke:#000000;stroke-width:100" />
      <g
         transform="translate(3634,-5674)"
         id="g5403">
        <path
           d="M 150,718 V 369 c 32,77 98,116 165,116 89,0 180,-71 193,-215 v -8 C 508,128 432,-28 280,-28 232,-28 177,-12 114,24 L 74,-12 58,-6 c 7,70 8,97 8,159 v 467 c 0,30 -7,41 -25,41 h -56 v 28 c 79,12 112,20 156,37 z M 284,404 C 206,404 150,343 150,308 V 93 c 0,-22 74,-54 126,-54 85,0 145,78 145,190 0,107 -53,175 -137,175"
           transform="scale(1,-1)"
           id="path5405"
           inkscape:connector-curvature="0"
           style="fill:#000000;stroke:#000000;stroke-width:1" />
      </g>
    </g>
    <g
       id="g5407">
      <rect
         x="4537"
         y="-8981"
         width="1498"
         height="1481"
         rx="200"
         ry="200"
         id="rect5409"
         style="fill:#ffffff;stroke:#000000;stroke-width:100" />
      <g
         transform="translate(5036,-8012)"
         id="g5411">
        <path
           d="M 324,82 200,-4 c -7,-5 -24,-8 -42,-8 -79,0 -126,45 -126,123 0,87 57,134 193,159 l 99,18 c -3,91 -42,128 -136,128 -46,0 -56,-7 -77,-54 l -13,-31 -26,7 v 65 l 53,32 c 38,23 78,34 121,34 116,0 158,-53 158,-199 V 87 c 0,-49 4,-57 28,-58 l 39,-2 V -3 c -44,2 -69,3 -74,3 -13,0 -13,0 -78,-3 z m 0,42 v 132 c -76,-11 -131,-25 -156,-40 -30,-19 -50,-54 -50,-91 0,-43 35,-80 75,-80 39,0 102,38 131,79"
           transform="scale(1,-1)"
           id="path5413"
           inkscape:connector-curvature="0"
           style="fill:#000000;stroke:#000000;stroke-width:1" />
      </g>
    </g>
  </g>
  <g
     transform="translate(18203.648,190.12097)"
     id="g5415">
    <g
       id="g5417">
      <rect
         x="-5850"
         y="-11064"
         width="10030"
         height="11064"
         rx="200"
         ry="200"
         id="rect5419"
         style="fill:#ffffff;stroke:#000000;stroke-width:100" />
      <g
         transform="translate(3149,-775)"
         id="g5421">
        <path
           d="m 149,473 c 28,0 17,-46 13,-104 l 7,-2 c 35,57 89,106 165,106 59,0 104,-29 113,-91 16,-105 -47,-499 17,-620 l -2,-13 c -25,-4 -48,-13 -70,-24 l -11,9 c -8,32 -16,50 -10,165 5,113 23,345 5,457 -8,46 -38,70 -83,70 C 121,426 159,137 163,18 L 158,9 C 137,3 117,-6 97,-16 L 87,-6 c 7,79 16,322 6,388 -2,11 -7,19 -18,19 -20,0 -56,-26 -72,-37 l -6,2 -8,11 2,6 c 29,21 125,90 158,90"
           transform="scale(1,-1)"
           id="path5423"
           inkscape:connector-curvature="0"
           style="fill:#000000;stroke:#000000;stroke-width:1" />
      </g>
    </g>
    <g
       id="g5425">
      <rect
         x="600"
         y="-7936"
         width="3080"
         height="3942"
         rx="200"
         ry="200"
         id="rect5427"
         style="fill:#ffffff;stroke:#000000;stroke-width:100" />
      <g
         transform="translate(2676,-4643)"
         id="g5429">
        <path
           d="m 509,26 c 12,-79 -96,-162 -164,-175 -19,12 -36,28 -53,41 l 3,8 c 16,-3 31,-4 47,-4 43,0 133,33 124,86 C 463,2 438,4 423,4 378,4 333,-5 287,-5 162,-5 87,63 67,187 40,360 118,531 232,638 l -5,5 c -22,-1 -44,-3 -66,-3 -30,0 -66,4 -94,25 l 2,19 30,21 12,-1 c 17,-37 69,-41 101,-41 62,0 120,24 171,49 l 15,-7 C 395,688 392,672 387,656 174,643 97,427 127,232 147,105 205,56 331,56 c 42,0 81,9 122,9 25,0 51,-9 56,-39"
           transform="scale(1,-1)"
           id="path5431"
           inkscape:connector-curvature="0"
           style="fill:#000000;stroke:#000000;stroke-width:1" />
      </g>
    </g>
    <g
       id="g5433">
      <rect
         x="1200"
         y="-7236"
         width="1980"
         height="1481"
         rx="200"
         ry="200"
         id="rect5435"
         style="fill:#ffffff;stroke:#000000;stroke-width:100" />
      <g
         transform="translate(2200,-6268)"
         id="g5437">
        <path
           d="m 161,146 c 0,-70 58,-116 135,-116 45,0 89,14 132,42 l 8,-5 -15,-26 C 371,5 318,-13 262,-13 160,-13 69,37 69,132 c 0,65 48,106 143,123 v 9 c -70,12 -105,45 -105,97 0,72 58,107 174,107 59,0 105,-13 138,-40 -16,-27 -29,-49 -38,-68 l -11,5 c -5,55 -36,83 -92,83 -55,0 -93,-36 -93,-90 0,-44 22,-86 98,-86 22,0 44,3 68,7 l 5,-6 c -3,-13 -6,-23 -8,-30 l -10,-6 c -23,6 -45,9 -66,9 -44,0 -111,-20 -111,-100"
           transform="scale(1,-1)"
           id="path5439"
           inkscape:connector-curvature="0"
           style="fill:#000000;stroke:#000000;stroke-width:1" />
      </g>
    </g>
    <g
       id="g5441">
      <rect
         x="-5250"
         y="-10364"
         width="4650"
         height="6370"
         rx="200"
         ry="200"
         id="rect5443"
         style="fill:#ffffff;stroke:#000000;stroke-width:100" />
      <g
         transform="translate(-1597,-4510)"
         id="g5445">
        <path
           d="M 465,287 C 489,139 403,-16 246,-16 133,-16 78,53 61,160 38,304 108,426 246,458 v 6 c -47,29 -126,75 -135,133 -13,79 102,105 163,105 25,0 50,-3 75,-8 8,-13 14,-27 19,-39 l -9,-6 c -33,19 -68,30 -103,30 -35,0 -85,-15 -78,-57 C 196,506 436,470 465,287 z M 393,269 C 380,350 339,399 268,448 141,411 116,295 137,167 148,99 183,12 267,12 385,12 408,174 393,269"
           transform="scale(1,-1)"
           id="path5447"
           inkscape:connector-curvature="0"
           style="fill:#000000;stroke:#000000;stroke-width:1" />
      </g>
    </g>
    <g
       id="g5449">
      <path
         d="M 0,-1648 V 1200"
         id="path5451"
         inkscape:connector-curvature="0"
         style="fill:none;stroke:#000000;stroke-width:100" />
    </g>
    <g
       id="g5453">
      <path
         d="m 1800,-12264 v 9543 a 200,200 0 0 1 -200,200 H 790"
         id="path5455"
         inkscape:connector-curvature="0"
         style="fill:none;stroke:#000000;stroke-width:100" />
    </g>
    <g
       id="g5457">
      <path
         d="m -2456,-5612 v 2891 a 200,200 0 0 0 200,200 h 1466"
         id="path5459"
         inkscape:connector-curvature="0"
         style="fill:none;stroke:#000000;stroke-width:100" />
    </g>
    <g
       id="g5461">
      <path
         d="m -1100,-12264 v 5470 a 200,200 0 0 1 -200,200 h -400"
         id="path5463"
         inkscape:connector-curvature="0"
         style="fill:none;stroke:#000000;stroke-width:100" />
    </g>
    <g
       id="g5465">
      <path
         d="m -2456,-12264 v 4689"
         id="path5467"
         inkscape:connector-curvature="0"
         style="fill:none;stroke:#000000;stroke-width:100" />
    </g>
    <g
       id="g5469">
      <path
         d="m -3853,-8175 v 1381 a 200,200 0 0 0 200,200 h 441"
         id="path5471"
         inkscape:connector-curvature="0"
         style="fill:none;stroke:#000000;stroke-width:100" />
    </g>
    <g
       id="g5473">
      <rect
         x="-790"
         y="-3394"
         width="1580"
         height="1746"
         rx="200"
         ry="200"
         id="rect5475"
         style="fill:#ffffff;stroke:#000000;stroke-width:100" />
      <g
         transform="translate(-291,-2421)"
         id="g5477">
        <path
           d="m 88,473 c 88,0 171,-80 146,-450 l 6,-4 c 48,89 192,260 176,366 -3,16 -10,34 -16,50 l 4,11 c 16,7 47,21 64,21 16,0 18,-17 20,-29 C 501,353 427,254 383,194 329,120 275,43 227,-36 c -2,-70 -12,-147 -26,-215 -19,-9 -38,-17 -58,-22 -5,8 -11,16 -16,24 15,68 46,163 82,220 2,82 -2,165 -16,249 -11,70 -42,192 -137,192 -37,0 -54,-18 -73,-46 l -6,-1 c -3,3 -7,6 -8,12 25,49 54,96 119,96"
           transform="scale(1,-1)"
           id="path5479"
           inkscape:connector-curvature="0"
           style="fill:#000000;stroke:#000000;stroke-width:1" />
      </g>
    </g>
    <g
       id="g5481">
      <rect
         x="-3212"
         y="-7575"
         width="1512"
         height="1963"
         rx="200"
         ry="200"
         id="rect5483"
         style="fill:#ffffff;stroke:#000000;stroke-width:100" />
      <g
         transform="translate(-2712,-6395)"
         id="g5485">
        <path
           d="M 458,205 C 478,80 382,-15 261,-15 c -44,0 -89,13 -127,44 3,-95 6,-191 17,-288 -26,-6 -50,-15 -74,-24 l -9,10 c 11,186 6,375 5,562 0,150 -15,306 135,372 28,12 57,19 88,19 64,0 103,-36 113,-99 C 426,479 355,400 268,369 l 1,-9 c 91,-2 174,-59 189,-155 z m -82,3 c -13,83 -70,131 -152,131 -17,0 -32,-3 -47,-10 l -9,8 c 4,10 5,22 6,34 106,0 187,75 169,187 -7,48 -37,88 -89,88 -19,0 -37,-6 -52,-17 -80,-56 -77,-424 -61,-526 9,-58 51,-91 108,-91 106,0 142,103 127,196"
           transform="scale(1,-1)"
           id="path5487"
           inkscape:connector-curvature="0"
           style="fill:#000000;stroke:#000000;stroke-width:1" />
      </g>
    </g>
    <g
       id="g5489">
      <rect
         x="-4650"
         y="-9664"
         width="1594"
         height="1489"
         rx="200"
         ry="200"
         id="rect5491"
         style="fill:#ffffff;stroke:#000000;stroke-width:100" />
      <g
         transform="translate(-4150,-8691)"
         id="g5493">
        <path
           d="m 562,97 c 5,-3 8,-6 9,-13 C 545,54 489,-16 443,-16 392,-16 381,95 375,128 l -3,3 C 324,64 246,-16 154,-16 86,-16 57,33 48,93 24,243 121,473 289,473 401,473 403,337 414,260 l 7,-3 c 26,58 61,134 63,202 h 11 c 11,-15 21,-31 30,-46 -25,-70 -60,-135 -99,-197 6,-32 22,-161 67,-161 27,0 46,24 62,42 h 7 z m -194,67 -4,28 c -9,60 -30,245 -117,245 -109,0 -142,-235 -128,-322 7,-45 25,-87 78,-87 71,0 137,85 171,136"
           transform="scale(1,-1)"
           id="path5495"
           inkscape:connector-curvature="0"
           style="fill:#000000;stroke:#000000;stroke-width:1" />
      </g>
    </g>
  </g>
  <g
     transform="translate(31064.648,99.120975)"
     id="g5497">
    <g
       id="g5499">
      <rect
         x="-6681"
         y="-10881"
         width="9447"
         height="10881"
         rx="200"
         ry="200"
         id="rect5501"
         style="fill:#ffffff;stroke:#000000;stroke-width:100" />
      <g
         transform="translate(1435,-503)"
         id="g5503">
        <path
           d="m 616,120 v 223 c -27,2 -43,2 -83,2 H 299 c -40,0 -56,0 -83,-2 V 120 c 0,-79 5,-87 51,-90 l 48,-3 V -3 C 256,-1 220,0 168,0 116,0 81,-1 22,-3 v 30 l 48,3 c 46,3 51,11 51,90 v 449 c 0,79 -5,87 -51,90 l -48,3 v 30 c 72,-2 96,-3 146,-3 52,0 74,0 147,3 v -30 l -48,-3 c -46,-3 -51,-11 -51,-90 V 391 c 20,-1 42,-2 83,-2 h 234 c 41,0 62,1 83,2 v 178 c 0,79 -5,87 -51,90 l -48,3 v 30 c 72,-2 96,-3 146,-3 52,0 74,0 147,3 v -30 l -48,-3 c -46,-3 -51,-11 -51,-90 V 120 c 0,-79 5,-87 51,-90 l 48,-3 V -3 C 751,-1 715,0 663,0 611,0 576,-1 517,-3 v 30 l 48,3 c 46,3 51,11 51,90"
           transform="scale(1,-1)"
           id="path5505"
           inkscape:connector-curvature="0"
           style="fill:#000000;stroke:#000000;stroke-width:1" />
      </g>
    </g>
    <g
       id="g5507">
      <rect
         x="-1405"
         y="-10181"
         width="2971"
         height="6285"
         rx="200"
         ry="200"
         id="rect5509"
         style="fill:#ffffff;stroke:#000000;stroke-width:100" />
      <g
         transform="translate(400,-4399)"
         id="g5511">
        <path
           d="M 637,663 151,44 h 273 c 153,0 167,6 174,72 l 6,57 h 34 C 633,118 632,83 632,-3 L 355,0 H 327 L 15,-3 V 25 L 500,648 H 272 c -122,0 -149,-8 -152,-47 l -6,-71 H 80 c 2,37 3,55 3,81 0,26 -1,44 -3,81 l 165,-1 182,-2 h 50 l 156,3"
           transform="scale(1,-1)"
           id="path5513"
           inkscape:connector-curvature="0"
           style="fill:#000000;stroke:#000000;stroke-width:1" />
      </g>
    </g>
    <g
       id="g5515">
      <rect
         x="-6081"
         y="-7894"
         width="4076"
         height="3998"
         rx="200"
         ry="200"
         id="rect5517"
         style="fill:#ffffff;stroke:#000000;stroke-width:100" />
      <g
         transform="translate(-3115,-4399)"
         id="g5519">
        <path
           d="M 556,0 C 420,-3 420,-3 389,-3 319,-3 203,0 157,0 129,0 100,-1 34,-3 v 30 l 36,3 c 47,4 51,11 51,90 v 449 c 0,79 -5,87 -51,90 l -48,3 v 30 c 99,-2 144,-3 178,-3 46,0 139,3 232,3 44,0 75,-1 124,-3 -11,-44 -16,-92 -16,-152 h -35 v 65 c 0,23 -3,28 -27,34 -32,9 -88,14 -145,14 -69,0 -86,-1 -117,-8 V 375 c 34,-2 68,-3 110,-3 66,0 94,3 112,11 4,8 7,17 8,26 l 5,52 h 30 c -3,-100 -3,-100 -3,-116 0,-18 0,-18 3,-111 h -30 l -5,59 -8,25 c -18,9 -45,12 -119,12 -45,0 -75,-1 -103,-3 V 47 c 29,-6 47,-8 99,-8 90,0 163,5 184,12 28,10 37,104 38,113 h 35 C 562,112 556,58 556,0"
           transform="scale(1,-1)"
           id="path5521"
           inkscape:connector-curvature="0"
           style="fill:#000000;stroke:#000000;stroke-width:1" />
      </g>
    </g>
    <g
       id="g5523">
      <path
         d="M 0,-1595 V 1200"
         id="path5525"
         inkscape:connector-curvature="0"
         style="fill:none;stroke:#000000;stroke-width:100" />
    </g>
    <g
       id="g5527">
      <path
         d="m 2266,-12081 v 9435 a 200,200 0 0 1 -200,200 H 844"
         id="path5529"
         inkscape:connector-curvature="0"
         style="fill:none;stroke:#000000;stroke-width:100" />
    </g>
    <g
       id="g5531">
      <path
         d="m 0,-5491 v 2195"
         id="path5533"
         inkscape:connector-curvature="0"
         style="fill:none;stroke:#000000;stroke-width:100" />
    </g>
    <g
       id="g5535">
      <path
         d="m 0,-7786 v 600"
         id="path5537"
         inkscape:connector-curvature="0"
         style="fill:none;stroke:#000000;stroke-width:100" />
    </g>
    <g
       id="g5539">
      <path
         d="m -3993,-5491 v 2845 a 200,200 0 0 0 200,200 h 2949"
         id="path5541"
         inkscape:connector-curvature="0"
         style="fill:none;stroke:#000000;stroke-width:100" />
    </g>
    <g
       id="g5543">
      <path
         d="m -2505,-12081 v 5538 a 200,200 0 0 1 -200,200 h -400"
         id="path5545"
         inkscape:connector-curvature="0"
         style="fill:none;stroke:#000000;stroke-width:100" />
    </g>
    <g
       id="g5547">
      <path
         d="m -5481,-12081 v 5538 a 200,200 0 0 0 200,200 h 400"
         id="path5549"
         inkscape:connector-curvature="0"
         style="fill:none;stroke:#000000;stroke-width:100" />
    </g>
    <g
       id="g5551">
      <rect
         x="-844"
         y="-3296"
         width="1688"
         height="1701"
         rx="200"
         ry="200"
         id="rect5553"
         style="fill:#ffffff;stroke:#000000;stroke-width:100" />
      <g
         transform="translate(-344,-2099)"
         id="g5555">
        <path
           d="m 27,6 c 65,122 267,584 310,691 h 25 L 662,6 656,-4 C 555,-1 454,0 353,0 246,0 140,0 34,-4 z M 537,37 C 472,215 400,391 325,564 h -7 C 242,389 171,215 105,37 h 432"
           transform="scale(1,-1)"
           id="path5557"
           inkscape:connector-curvature="0"
           style="fill:#000000;stroke:#000000;stroke-width:1" />
      </g>
    </g>
    <g
       id="g5559">
      <rect
         x="-777"
         y="-7186"
         width="1554"
         height="1695"
         rx="200"
         ry="200"
         id="rect5561"
         style="fill:#ffffff;stroke:#000000;stroke-width:100" />
      <g
         transform="translate(-278,-5994)"
         id="g5563">
        <path
           d="M 536,689 C 525,645 520,588 520,537 h -35 v 65 c 0,13 -1,24 -9,27 -53,20 -132,21 -176,21 -27,0 -56,-1 -84,-8 V 120 c 0,-82 8,-88 51,-90 l 48,-3 V -3 C 263,-1 216,0 170,0 121,0 74,-1 22,-3 v 30 l 48,3 c 43,2 51,10 51,90 v 449 c 0,82 -8,88 -51,90 l -48,3 v 30 c 55,-1 112,-3 169,-3 67,0 159,3 216,3 45,0 90,-1 129,-3"
           transform="scale(1,-1)"
           id="path5565"
           inkscape:connector-curvature="0"
           style="fill:#000000;stroke:#000000;stroke-width:1" />
      </g>
    </g>
    <g
       id="g5567">
      <rect
         x="-805"
         y="-9481"
         width="1610"
         height="1695"
         rx="200"
         ry="200"
         id="rect5569"
         style="fill:#ffffff;stroke:#000000;stroke-width:100" />
      <g
         transform="translate(-305,-8289)"
         id="g5571">
        <path
           d="M 298,-3 C 261,-3 199,0 174,0 155,0 134,-1 65,-3 v 23 l 26,10 c 14,6 22,28 22,65 v 474 c 0,79 -4,86 -51,90 l -36,3 v 30 c 139,-3 139,-3 158,-3 15,0 15,0 154,3 h 25 c 116,0 179,-48 179,-136 0,-52 -25,-95 -73,-128 -28,-19 -51,-28 -100,-38 77,-6 111,-15 149,-43 38,-27 58,-68 58,-119 C 576,134 508,-3 298,-3 z M 208,362 V 47 c 25,-6 48,-8 77,-8 119,0 188,63 188,169 0,107 -63,156 -198,156 -19,0 -28,0 -67,-2 z m 0,282 V 401 c 31,-2 44,-2 61,-2 114,0 174,47 174,134 0,83 -47,119 -154,119 -32,0 -55,-2 -81,-8"
           transform="scale(1,-1)"
           id="path5573"
           inkscape:connector-curvature="0"
           style="fill:#000000;stroke:#000000;stroke-width:1" />
      </g>
    </g>
    <g
       id="g5575">
      <rect
         x="-4881"
         y="-7194"
         width="1776"
         height="1703"
         rx="200"
         ry="200"
         id="rect5577"
         style="fill:#ffffff;stroke:#000000;stroke-width:100" />
      <g
         transform="translate(-4382,-5994)"
         id="g5579">
        <path
           d="M 408,700 650,132 C 685,51 696,34 722,30 l 34,-3 V -3 C 648,0 648,0 629,0 613,0 613,0 490,-3 v 30 l 47,3 c 25,2 41,9 41,20 0,9 -4,22 -21,64 L 511,229 H 223 L 195,162 C 174,112 160,69 160,56 160,40 173,33 208,30 l 37,-3 V -3 C 137,0 137,0 124,0 108,0 108,0 15,-3 v 30 l 37,3 c 22,2 42,20 54,49 l 231,526 39,95 h 32 z M 240,269 H 493 L 367,567"
           transform="scale(1,-1)"
           id="path5581"
           inkscape:connector-curvature="0"
           style="fill:#000000;stroke:#000000;stroke-width:1" />
      </g>
    </g>
  </g>
</svg>
