<?xml version="1.0" encoding="UTF-8" standalone="no"?>
<svg
   xmlns:dc="http://purl.org/dc/elements/1.1/"
   xmlns:cc="http://creativecommons.org/ns#"
   xmlns:rdf="http://www.w3.org/1999/02/22-rdf-syntax-ns#"
   xmlns:svg="http://www.w3.org/2000/svg"
   xmlns="http://www.w3.org/2000/svg"
   xmlns:sodipodi="http://sodipodi.sourceforge.net/DTD/sodipodi-0.dtd"
   xmlns:inkscape="http://www.inkscape.org/namespaces/inkscape"
   width="653"
   height="223"
   viewBox="0 -11159 32666 11159"
   id="svg4661"
   version="1.1"
   inkscape:version="0.48.4 r9939"
   sodipodi:docname="eqvs-tgt-2.svg">
  <metadata
     id="metadata4861">
    <rdf:RDF>
      <cc:Work
         rdf:about="">
        <dc:format>image/svg+xml</dc:format>
        <dc:type
           rdf:resource="http://purl.org/dc/dcmitype/StillImage" />
        <dc:title></dc:title>
      </cc:Work>
    </rdf:RDF>
  </metadata>
  <defs
     id="defs4859" />
  <sodipodi:namedview
     pagecolor="#ffffff"
     bordercolor="#666666"
     borderopacity="1"
     objecttolerance="10"
     gridtolerance="10"
     guidetolerance="10"
     inkscape:pageopacity="0"
     inkscape:pageshadow="2"
     inkscape:window-width="1855"
     inkscape:window-height="1056"
     id="namedview4857"
     showgrid="false"
     inkscape:zoom="2.5295581"
     inkscape:cx="326.5"
     inkscape:cy="111.5"
     inkscape:window-x="65"
     inkscape:window-y="24"
     inkscape:window-maximized="1"
     inkscape:current-layer="svg4661" />
  <g
     transform="translate(3957, -2640)"
     id="g4663">
    <g
       id="g4665">
      <rect
         x="-1957"
         y="-5879"
         width="3912"
         height="5879"
         rx="200"
         ry="200"
         fill="#FFFFFF"
         stroke="#000000"
         stroke-width="100"
         id="rect4667" />
      <g
         transform="translate(956, -503)"
         id="g4669">
        <path
           d="M455 432l-314 -397h135c96 0 138 7 142 25l18 79h30l-6 -47c-7 -48 -9 -72 -9 -95l-276 3c-43 0 -49 0 -153 -3l-6 20l90 105l170 212c27 34 44 57 65 90h-143c-74 0 -92 -5 -96 -26l-12 -68h-30c6 69 7 81 9 132l248 -3c38 0 68 1 138 3v-30"
           fill="black"
           stroke="black"
           stroke-width="1"
           transform="translate(0, 0) scale(1, -1)"
           id="path4671" />
      </g>
    </g>
    <g
       id="g4673">
      <rect
         x="-1357"
         y="-5179"
         width="2812"
         height="3814"
         rx="200"
         ry="200"
         fill="#FFFFFF"
         stroke="#000000"
         stroke-width="100"
         id="rect4675" />
      <g
         transform="translate(400, -2148)"
         id="g4677">
        <path
           d="M297 86l119 292c4 10 6 19 6 26c0 14 -14 23 -42 25l-26 2v28c79 -3 79 -3 95 -3s16 0 95 3v-28l-28 -2c-25 -3 -44 -30 -84 -121l-203 -468c-38 -87 -81 -123 -148 -123c-19 0 -35 5 -54 15l24 75h13c17 -15 35 -23 51 -23c38 0 77 47 109 131l23 61 c-18 50 -28 74 -56 142l-109 262c-15 35 -27 46 -52 49l-18 2v28c97 -3 97 -3 116 -3s19 0 116 3v-28l-38 -2c-23 -1 -34 -9 -34 -23c0 -10 4 -25 10 -42l64 -168c18 -49 29 -72 51 -110"
           fill="black"
           stroke="black"
           stroke-width="1"
           transform="translate(0, 0) scale(1, -1)"
           id="path4679" />
      </g>
    </g>
    <g
       id="g4681">
      <rect
         x="-757"
         y="-4479"
         width="1514"
         height="1472"
         rx="200"
         ry="200"
         fill="#FFFFFF"
         stroke="#000000"
         stroke-width="100"
         id="rect4683" />
      <g
         transform="translate(-258, -3510)"
         id="g4685">
        <path
           d="M288 254l148 -200c11 -15 23 -23 35 -24l25 -3v-30c-52 3 -52 3 -62 3c-9 0 -9 0 -61 -3l-133 195l-134 -192h-86v27h17c10 0 23 6 30 15l149 176l-120 174c-10 14 -32 28 -50 29l-21 2l-5 26l116 20c34 -34 45 -47 60 -69l76 -116l124 175h82v-28h-14 c-17 0 -28 -4 -34 -11"
           fill="black"
           stroke="black"
           stroke-width="1"
           transform="translate(0, 0) scale(1, -1)"
           id="path4687" />
      </g>
    </g>
  </g>
  <g
     transform="translate(9778, -1200)"
     id="g4689">
    <g
       id="g4691">
      <rect
         x="-1866"
         y="-8759"
         width="3821"
         height="8759"
         rx="200"
         ry="200"
         fill="#FFFFFF"
         stroke="#000000"
         stroke-width="100"
         id="rect4693" />
      <g
         transform="translate(900, -512)"
         id="g4695">
        <path
           d="M23 661v28c79 12 112 20 156 37l9 -8v-457l223 198h100v-30h-4c-32 0 -59 -12 -104 -47l-129 -101l190 -193c32 -31 61 -48 85 -48v-23l-96 -29l-265 252v-138c0 -63 3 -70 37 -72l44 -3v-30c-89 3 -94 3 -122 3c-26 0 -26 0 -126 -3v30l46 3c34 2 37 9 37 72v518 c0 30 -7 41 -25 41h-56"
           fill="black"
           stroke="black"
           stroke-width="1"
           transform="translate(0, 0) scale(1, -1)"
           id="path4697" />
      </g>
    </g>
    <g
       id="g4699">
      <rect
         x="-1266"
         y="-8059"
         width="2721"
         height="4092"
         rx="200"
         ry="200"
         fill="#FFFFFF"
         stroke="#000000"
         stroke-width="100"
         id="rect4701" />
      <g
         transform="translate(400, -4750)"
         id="g4703">
        <path
           d="M55 289c0 135 146 180 221 180c49 0 85 -12 122 -42l142 4l4 -12l-25 -41h-92c8 -21 11 -34 11 -54c0 -127 -143 -174 -204 -174c-8 0 -14 1 -24 2c-17 -17 -46 -34 -46 -57c0 -27 24 -39 76 -39h160c70 0 118 -50 118 -122c0 -122 -119 -217 -270 -217 c-127 0 -216 63 -216 154c0 31 14 68 28 76l87 47c-48 14 -66 30 -66 58c0 15 5 28 15 43l79 61c-74 8 -120 59 -120 133zM240 435c-64 0 -101 -45 -101 -122s45 -129 112 -129c61 0 103 45 103 110c0 85 -46 141 -114 141zM287 -14c-69 0 -97 -2 -113 -10 c-40 -17 -66 -58 -66 -103c0 -74 60 -125 147 -125c105 0 184 64 184 150c0 65 -39 88 -152 88"
           fill="black"
           stroke="black"
           stroke-width="1"
           transform="translate(0, 0) scale(1, -1)"
           id="path4705" />
      </g>
    </g>
    <g
       id="g4707">
      <path
         d="M 0 -1638 V 1200"
         fill="none"
         stroke="black"
         stroke-width="100"
         id="path4709" />
    </g>
    <g
       id="g4711">
      <path
         d="M 0 -5619 V -3367"
         fill="none"
         stroke="black"
         stroke-width="100"
         id="path4713" />
    </g>
    <g
       id="g4715">
      <path
         d="M 0 -9959 V -7359"
         fill="none"
         stroke="black"
         stroke-width="100"
         id="path4717" />
    </g>
    <g
       id="g4719">
      <rect
         x="-790"
         y="-3367"
         width="1580"
         height="1729"
         rx="200"
         ry="200"
         fill="#FFFFFF"
         stroke="#000000"
         stroke-width="100"
         id="rect4721" />
      <g
         transform="translate(-291, -2141)"
         id="g4723">
        <path
           d="M7 661v28c79 12 112 20 156 37l9 -8v-340c28 61 89 92 151 92c85 0 171 -58 171 -175v-193c0 -64 3 -70 37 -72l41 -3v-30c-69 3 -69 3 -83 3c-17 0 -18 0 -79 -3v284c0 77 -44 127 -111 127c-61 0 -127 -49 -127 -94v-212c0 -63 3 -70 37 -72l45 -3v-30 c-68 2 -95 3 -124 3s-56 -1 -124 -3v30l45 3c34 2 37 9 37 72v518c0 30 -7 41 -25 41h-56"
           fill="black"
           stroke="black"
           stroke-width="1"
           transform="translate(0, 0) scale(1, -1)"
           id="path4725" />
      </g>
    </g>
    <g
       id="g4727">
      <rect
         x="-666"
         y="-7359"
         width="1332"
         height="1740"
         rx="200"
         ry="200"
         fill="#FFFFFF"
         stroke="#000000"
         stroke-width="100"
         id="rect4729" />
      <g
         transform="translate(-166, -6122)"
         id="g4731">
        <path
           d="M341 717v-77l-12 -6c-24 21 -42 28 -69 28c-57 0 -70 -28 -70 -143v-85l131 4l-7 -53h-124v-283c0 -63 3 -70 37 -72l46 -3v-30c-100 3 -100 3 -125 3s-25 0 -125 -3v30l46 3c34 2 37 9 37 72v283l-69 -4v22l69 31v42v2c0 77 57 259 168 259c21 0 43 -6 67 -20"
           fill="black"
           stroke="black"
           stroke-width="1"
           transform="translate(0, 0) scale(1, -1)"
           id="path4733" />
      </g>
    </g>
  </g>
  <g
     transform="translate(16527, -1221)"
     id="g4735">
    <g
       id="g4737">
      <rect
         x="-2794"
         y="-8716"
         width="5150"
         height="8716"
         rx="200"
         ry="200"
         fill="#FFFFFF"
         stroke="#000000"
         stroke-width="100"
         id="rect4739" />
      <g
         transform="translate(1359, -516)"
         id="g4741">
        <path
           d="M465 287c24 -148 -62 -303 -219 -303c-113 0 -168 69 -185 176c-23 144 47 266 185 298v6c-47 29 -126 75 -135 133c-13 79 102 105 163 105c25 0 50 -3 75 -8c8 -13 14 -27 19 -39l-9 -6c-33 19 -68 30 -103 30s-85 -15 -78 -57c18 -116 258 -152 287 -335zM393 269 c-13 81 -54 130 -125 179c-127 -37 -152 -153 -131 -281c11 -68 46 -155 130 -155c118 0 141 162 126 257"
           fill="black"
           stroke="black"
           stroke-width="1"
           transform="translate(0, 0) scale(1, -1)"
           id="path4743" />
      </g>
    </g>
    <g
       id="g4745">
      <rect
         x="-1997"
         y="-5927"
         width="3853"
         height="4309"
         rx="200"
         ry="200"
         fill="#FFFFFF"
         stroke="#000000"
         stroke-width="100"
         id="rect4747" />
      <g
         transform="translate(775, -2391)"
         id="g4749">
        <path
           d="M88 473c88 0 171 -80 146 -450l6 -4c48 89 192 260 176 366c-3 16 -10 34 -16 50l4 11c16 7 47 21 64 21c16 0 18 -17 20 -29c13 -85 -61 -184 -105 -244c-54 -74 -108 -151 -156 -230c-2 -70 -12 -147 -26 -215c-19 -9 -38 -17 -58 -22c-5 8 -11 16 -16 24 c15 68 46 163 82 220c2 82 -2 165 -16 249c-11 70 -42 192 -137 192c-37 0 -54 -18 -73 -46l-6 -1c-3 3 -7 6 -8 12c25 49 54 96 119 96"
           fill="black"
           stroke="black"
           stroke-width="1"
           transform="translate(0, 0) scale(1, -1)"
           id="path4751" />
      </g>
    </g>
    <g
       id="g4753">
      <path
         d="M 0 -3264 V 1200"
         fill="none"
         stroke="black"
         stroke-width="100"
         id="path4755" />
    </g>
    <g
       id="g4757">
      <path
         d="M 1356 -9916 V -4446 A 200 200 0 0 1 1156 -4246 H 756"
         fill="none"
         stroke="black"
         stroke-width="100"
         id="path4759" />
    </g>
    <g
       id="g4761">
      <path
         d="M -1397 -6527 V -4446 A 200 200 0 0 0 -1197 -4246 H -756"
         fill="none"
         stroke="black"
         stroke-width="100"
         id="path4763" />
    </g>
    <g
       id="g4765">
      <path
         d="M -1397 -9916 V -8016"
         fill="none"
         stroke="black"
         stroke-width="100"
         id="path4767" />
    </g>
    <g
       id="g4769">
      <rect
         x="-756"
         y="-5227"
         width="1512"
         height="1963"
         rx="200"
         ry="200"
         fill="#FFFFFF"
         stroke="#000000"
         stroke-width="100"
         id="rect4771" />
      <g
         transform="translate(-256, -4047)"
         id="g4773">
        <path
           d="M458 205c20 -125 -76 -220 -197 -220c-44 0 -89 13 -127 44c3 -95 6 -191 17 -288c-26 -6 -50 -15 -74 -24l-9 10c11 186 6 375 5 562c0 150 -15 306 135 372c28 12 57 19 88 19c64 0 103 -36 113 -99c17 -102 -54 -181 -141 -212l1 -9c91 -2 174 -59 189 -155zM376 208 c-13 83 -70 131 -152 131c-17 0 -32 -3 -47 -10l-9 8c4 10 5 22 6 34c106 0 187 75 169 187c-7 48 -37 88 -89 88c-19 0 -37 -6 -52 -17c-80 -56 -77 -424 -61 -526c9 -58 51 -91 108 -91c106 0 142 103 127 196"
           fill="black"
           stroke="black"
           stroke-width="1"
           transform="translate(0, 0) scale(1, -1)"
           id="path4775" />
      </g>
    </g>
    <g
       id="g4777">
      <rect
         x="-2194"
         y="-8016"
         width="1594"
         height="1489"
         rx="200"
         ry="200"
         fill="#FFFFFF"
         stroke="#000000"
         stroke-width="100"
         id="rect4779" />
      <g
         transform="translate(-1694, -7043)"
         id="g4781">
        <path
           d="M562 97c5 -3 8 -6 9 -13c-26 -30 -82 -100 -128 -100c-51 0 -62 111 -68 144l-3 3c-48 -67 -126 -147 -218 -147c-68 0 -97 49 -106 109c-24 150 73 380 241 380c112 0 114 -136 125 -213l7 -3c26 58 61 134 63 202h11c11 -15 21 -31 30 -46c-25 -70 -60 -135 -99 -197 c6 -32 22 -161 67 -161c27 0 46 24 62 42h7zM368 164l-4 28c-9 60 -30 245 -117 245c-109 0 -142 -235 -128 -322c7 -45 25 -87 78 -87c71 0 137 85 171 136"
           fill="black"
           stroke="black"
           stroke-width="1"
           transform="translate(0, 0) scale(1, -1)"
           id="path4783" />
      </g>
    </g>
  </g>
  <rect
     x="20883"
     y="-9332"
     width="4799"
     height="7506"
     rx="200"
     ry="200"
     id="rect4789"
     style="fill:#ffffff;stroke:#1b1c1d;stroke-width:100" />
  <g
     transform="translate(24516,-2329)"
     id="g4791">
    <path
       d="M 637,663 151,44 h 273 c 153,0 167,6 174,72 l 6,57 h 34 C 633,118 632,83 632,-3 L 327,0 15,-3 V 25 L 500,648 H 272 c -122,0 -149,-8 -152,-47 l -6,-71 H 80 c 2,37 3,55 3,81 0,26 -1,44 -3,81 l 165,-1 232,-2 156,3"
       transform="scale(1,-1)"
       id="path4793"
       inkscape:connector-curvature="0"
       style="fill:#000000;stroke:#000000;stroke-width:1" />
  </g>
  <path
     d="M 22916,-4021 V -626"
     id="path4797"
     inkscape:connector-curvature="0"
     style="fill:none;stroke:#000000;stroke-width:100" />
  <polygon
     points="150,300 300,0 0,0 "
     transform="translate(22766,-3721)"
     id="polygon4799"
     style="fill:#000000;stroke:#000000;stroke-width:100" />
  <path
     d="m 24349,-6929 v 1854 a 200,200 0 0 1 -200,200 h -400"
     id="path4805"
     inkscape:connector-curvature="0"
     style="fill:none;stroke:#000000;stroke-width:100" />
  <polygon
     points="150,300 300,0 0,0 "
     transform="translate(24199,-6629)"
     id="polygon4807"
     style="fill:#000000;stroke:#000000;stroke-width:100" />
  <path
     d="m 24349,-10532 v 1900"
     id="path4811"
     inkscape:connector-curvature="0"
     style="fill:none;stroke:#000000;stroke-width:100" />
  <path
     d="m 21483,-10532 v 5457 a 200,200 0 0 0 200,200 h 400"
     id="path4815"
     inkscape:connector-curvature="0"
     style="fill:none;stroke:#000000;stroke-width:100" />
  <rect
     x="22083"
     y="-5729"
     width="1666"
     height="1708"
     rx="200"
     ry="200"
     id="rect4819"
     style="fill:#ffffff;stroke:#000000;stroke-width:100" />
  <g
     transform="translate(22583,-4524)"
     id="g4821">
    <path
       d="m 9,680 120,25 c 18,0 59,-46 91,-103 L 363,341 466,504 c 39,62 70,116 108,190 h 80 V 679 C 573,582 540,537 466,426 408,338 394,304 394,249 V 120 c 0,-79 5,-87 51,-90 l 48,-3 V -3 C 434,-1 398,0 346,0 294,0 259,-1 200,-3 v 30 l 48,3 c 46,3 51,11 51,90 v 142 c 0,16 -3,30 -9,40 L 166,518 C 124,591 72,643 38,648 l -29,3 v 29"
       transform="scale(1,-1)"
       id="path4823"
       inkscape:connector-curvature="0"
       style="fill:#000000;stroke:#000000;stroke-width:1" />
  </g>
  <rect
     x="23516"
     y="-8632"
     width="1666"
     height="1703"
     rx="200"
     ry="200"
     id="rect4827"
     style="fill:#ffffff;stroke:#000000;stroke-width:100" />
  <g
     transform="translate(24016,-7432)"
     id="g4829">
    <path
       d="M 648,27 V -3 c -43,2 -66,3 -71,3 -12,0 -12,0 -74,-3 L 319,303 117,-3 C 74,0 74,0 66,0 58,0 58,0 14,-3 v 30 l 26,3 c 22,3 34,14 59,48 L 294,341 166,554 c -33,55 -68,88 -92,90 l -45,3 -2,26 141,27 c 19,-10 34,-27 57,-65 L 353,419 538,689 h 101 v -30 l -41,-3 c -15,-2 -27,-14 -68,-68 L 376,380 552,100 c 35,-54 47,-67 66,-70"
       transform="scale(1,-1)"
       id="path4831"
       inkscape:connector-curvature="0"
       style="fill:#000000;stroke:#000000;stroke-width:1" />
  </g>
  <g
     transform="translate(29174, -4715)"
     id="g4833">
    <g
       id="g4835">
      <path
         d="M 0 0 V 1200"
         fill="none"
         stroke="black"
         stroke-width="100"
         id="path4837" />
      <polygon
         points="0,0 150,300 300,0"
         stroke="black"
         stroke-width="100"
         fill="black"
         transform="translate(-150, 300)"
         id="polygon4839" />
    </g>
    <g
       id="g4841">
      <path
         d="M 1492 -2929 V -1065 A 200 200 0 0 1 1292 -865 H 892"
         fill="none"
         stroke="black"
         stroke-width="100"
         id="path4843" />
    </g>
    <g
       id="g4845">
      <path
         d="M -1492 -2929 V -1065 A 200 200 0 0 0 -1292 -865 H -892"
         fill="none"
         stroke="black"
         stroke-width="100"
         id="path4847" />
    </g>
    <g
       id="g4849">
      <rect
         x="-892"
         y="-1729"
         width="1784"
         height="1729"
         rx="200"
         ry="200"
         fill="#FFFFFF"
         stroke="#1B1C1D"
         stroke-width="100"
         id="rect4851" />
      <g
         transform="translate(-393, -520)"
         id="g4853">
        <path
           d="M764 367c0 -215 -168 -387 -387 -387c-203 0 -355 140 -355 364c0 206 144 365 376 365c214 0 366 -120 366 -342zM657 336c0 198 -89 331 -275 331c-174 0 -253 -122 -253 -286c0 -175 82 -359 280 -359c167 0 248 130 248 314zM238 481c14 -19 -2 -81 66 -81h178 c55 0 54 33 63 77l4 4h14l3 -4c-1 -76 -1 -152 0 -228l-3 -4h-14l-4 4c-9 45 -8 78 -63 78h-178c-54 0 -53 -33 -63 -78l-3 -4h-15l-3 4c1 76 1 152 0 228l3 4h15"
           fill="black"
           stroke="black"
           stroke-width="1"
           transform="translate(0, 0) scale(1, -1)"
           id="path4855" />
      </g>
    </g>
  </g>
</svg>
