<?xml version="1.0" encoding="UTF-8" standalone="no"?>
<svg width="533" height="200" viewBox="0 -8400 22400 8400" xmlns="http://www.w3.org/2000/svg"><g transform="translate(4000, -1400)"><g><rect x="-2000" y="-5600" width="4000" height="5600" rx="200" ry="200" fill="#FFFFFF" stroke="#000000" stroke-width="100"></rect><g transform="translate(900, -1100)"></g></g><g><rect x="-1400" y="-5100" width="2900" height="3600" rx="200" ry="200" fill="#FFFFFF" stroke="#000000" stroke-width="100"></rect><g transform="translate(400, -2600)"></g></g><g><rect x="-800" y="-4600" width="1600" height="1600" rx="200" ry="200" fill="#FFFFFF" stroke="#000000" stroke-width="100"></rect><g transform="translate(-300, -4100)"></g></g></g><g transform="translate(9400, -1200)"><g><rect x="-1400" y="-6000" width="2900" height="6000" rx="200" ry="200" fill="#FFFFFF" stroke="#000000" stroke-width="100"></rect><g transform="translate(400, -1100)"></g></g><g><path d="M 0 -1500 V 1200" fill="none" stroke="black" stroke-width="100"></path></g><g><path d="M 0 -3700 V -3100" fill="none" stroke="black" stroke-width="100"></path></g><g><path d="M 0 -7200 V -5300" fill="none" stroke="black" stroke-width="100"></path></g><g><rect x="-800" y="-3100" width="1600" height="1600" rx="200" ry="200" fill="#FFFFFF" stroke="#000000" stroke-width="100"></rect><g transform="translate(-300, -2600)"></g></g><g><rect x="-800" y="-5300" width="1600" height="1600" rx="200" ry="200" fill="#FFFFFF" stroke="#000000" stroke-width="100"></rect><g transform="translate(-300, -4800)"></g></g></g><g transform="translate(14900, -2300)"><g><rect x="-2000" y="-3800" width="3900" height="3800" rx="200" ry="200" fill="#FFFFFF" stroke="#000000" stroke-width="100"></rect><g transform="translate(800, -1100)"></g></g><g><path d="M 0 -1500 V 1200" fill="none" stroke="black" stroke-width="100"></path></g><g><path d="M 1400 -5000 V -2500 A 200 200 0 0 1 1200 -2300 H 800" fill="none" stroke="black" stroke-width="100"></path></g><g><path d="M -1400 -5000 V -2500 A 200 200 0 0 0 -1200 -2300 H -800" fill="none" stroke="black" stroke-width="100"></path></g><g><rect x="-800" y="-3100" width="1600" height="1600" rx="200" ry="200" fill="#FFFFFF" stroke="#000000" stroke-width="100"></rect><g transform="translate(-300, -2600)"></g></g></g><g transform="translate(19600, -3400)"><g><path d="M 0 0 V 1200" fill="none" stroke="black" stroke-width="100"></path></g><g><path d="M 0 -2800 V -1600" fill="none" stroke="black" stroke-width="100"></path></g><g><rect x="-800" y="-1600" width="1600" height="1600" rx="200" ry="200" fill="#FFFFFF" stroke="#000000" stroke-width="100"></rect><g transform="translate(-300, -1100)"></g></g></g></svg>