<?xml version="1.0" encoding="UTF-8" standalone="no"?>
<!-- Created with Inkscape (http://www.inkscape.org/) -->

<svg
   xmlns:dc="http://purl.org/dc/elements/1.1/"
   xmlns:cc="http://creativecommons.org/ns#"
   xmlns:rdf="http://www.w3.org/1999/02/22-rdf-syntax-ns#"
   xmlns:svg="http://www.w3.org/2000/svg"
   xmlns="http://www.w3.org/2000/svg"
   version="1.1"
   width="719.78815"
   height="300"
   viewBox="0 -15000 34045.979 15000"
   id="svg3365">
  <metadata
     id="metadata3649">
    <rdf:RDF>
      <cc:Work
         rdf:about="">
        <dc:format>image/svg+xml</dc:format>
        <dc:type
           rdf:resource="http://purl.org/dc/dcmitype/StillImage" />
        <dc:title></dc:title>
      </cc:Work>
    </rdf:RDF>
  </metadata>
  <defs
     id="defs3647" />
  <g
     transform="matrix(0.8,0,0,0.8,1398.2863,-5634.9168)"
     id="g3367">
    <g
       id="g3369">
      <rect
         width="5100"
         height="7600"
         rx="200"
         ry="200"
         x="-2600"
         y="-7600"
         id="rect3371"
         style="fill:#ffffff;stroke:#000000;stroke-width:100" />
      <g
         transform="translate(1400,-1100)"
         id="g3373" />
    </g>
    <g
       id="g3375">
      <rect
         width="4000"
         height="5600"
         rx="200"
         ry="200"
         x="-2000"
         y="-7100"
         id="rect3377"
         style="fill:#ffffff;stroke:#000000;stroke-width:100" />
      <g
         transform="translate(900,-2600)"
         id="g3379" />
    </g>
    <g
       id="g3381">
      <rect
         width="2900"
         height="3600"
         rx="200"
         ry="200"
         x="-1400"
         y="-6600"
         id="rect3383"
         style="fill:#ffffff;stroke:#000000;stroke-width:100" />
      <g
         transform="translate(400,-4100)"
         id="g3385" />
    </g>
    <g
       id="g3387">
      <rect
         width="1600"
         height="1600"
         rx="200"
         ry="200"
         x="-800"
         y="-6100"
         id="rect3389"
         style="fill:#ffffff;stroke:#000000;stroke-width:100" />
      <g
         transform="translate(-300,-5600)"
         id="g3391" />
    </g>
  </g>
  <g
     transform="matrix(0.8,0,0,0.8,6547.3396,-3634.9168)"
     id="g3393">
    <g
       id="g3395">
      <rect
         width="4000"
         height="12600"
         rx="200"
         ry="200"
         x="-2000"
         y="-12600"
         id="rect3397"
         style="fill:#ffffff;stroke:#000000;stroke-width:100" />
      <g
         transform="translate(900,-1100)"
         id="g3399" />
    </g>
    <g
       id="g3401">
      <rect
         width="2900"
         height="6000"
         rx="200"
         ry="200"
         x="-1400"
         y="-7500"
         id="rect3403"
         style="fill:#ffffff;stroke:#000000;stroke-width:100" />
      <g
         transform="translate(400,-2600)"
         id="g3405" />
    </g>
    <g
       id="g3407">
      <rect
         width="2100"
         height="1600"
         rx="200"
         ry="200"
         x="-600"
         y="-9700"
         id="rect3409"
         style="fill:#ffffff;stroke:#000000;stroke-width:100" />
      <g
         transform="translate(400,-9200)"
         id="g3411" />
    </g>
    <g
       id="g3413">
      <path
         d="M 0,-3000 V 1200"
         id="path3415"
         style="fill:none;stroke:#000000;stroke-width:100" />
    </g>
    <g
       id="g3417">
      <path
         d="m 0,-5200 v 600"
         id="path3419"
         style="fill:none;stroke:#000000;stroke-width:100" />
    </g>
    <g
       id="g3421">
      <path
         d="m 0,-10300 v 3500"
         id="path3423"
         style="fill:none;stroke:#000000;stroke-width:100" />
    </g>
    <g
       id="g3425">
      <path
         d="m 0,-13800 v 1900"
         id="path3427"
         style="fill:none;stroke:#000000;stroke-width:100" />
    </g>
    <g
       id="g3429">
      <rect
         width="1600"
         height="1600"
         rx="200"
         ry="200"
         x="-800"
         y="-4600"
         id="rect3431"
         style="fill:#ffffff;stroke:#000000;stroke-width:100" />
      <g
         transform="translate(-300,-4100)"
         id="g3433" />
    </g>
    <g
       id="g3435">
      <rect
         width="1600"
         height="1600"
         rx="200"
         ry="200"
         x="-800"
         y="-6800"
         id="rect3437"
         style="fill:#ffffff;stroke:#000000;stroke-width:100" />
      <g
         transform="translate(-300,-6300)"
         id="g3439" />
    </g>
    <g
       id="g3441">
      <rect
         width="1600"
         height="1600"
         rx="200"
         ry="200"
         x="-800"
         y="-11900"
         id="rect3443"
         style="fill:#ffffff;stroke:#000000;stroke-width:100" />
      <g
         transform="translate(-300,-11400)"
         id="g3445" />
    </g>
  </g>
  <g
     transform="matrix(0.8,0,0,0.8,12647.221,-4514.9168)"
     id="g3447">
    <g
       id="g3449">
      <rect
         width="8800"
         height="10400"
         rx="200"
         ry="200"
         x="-3300"
         y="-10400"
         id="rect3451"
         style="fill:#ffffff;stroke:#000000;stroke-width:100" />
      <g
         transform="translate(4400,-1100)"
         id="g3453" />
    </g>
    <g
       id="g3455">
      <rect
         width="6800"
         height="3800"
         rx="200"
         ry="200"
         x="-2700"
         y="-5300"
         id="rect3457"
         style="fill:#ffffff;stroke:#000000;stroke-width:100" />
      <g
         transform="translate(3000,-2600)"
         id="g3459" />
    </g>
    <g
       id="g3461">
      <rect
         width="2900"
         height="3800"
         rx="200"
         ry="200"
         x="-1400"
         y="-9700"
         id="rect3463"
         style="fill:#ffffff;stroke:#000000;stroke-width:100" />
      <g
         transform="translate(400,-7000)"
         id="g3465" />
    </g>
    <g
       id="g3467">
      <path
         d="M 0,-3000 V 1200"
         id="path3469"
         style="fill:none;stroke:#000000;stroke-width:100" />
    </g>
    <g
       id="g3471">
      <path
         d="m 3600,-5900 v 1900 a 200,200 0 0 1 -200,200 H 800"
         id="path3473"
         style="fill:none;stroke:#000000;stroke-width:100" />
    </g>
    <g
       id="g3475">
      <path
         d="m 5000,-11600 v 4700 a 200,200 0 0 1 -200,200 h -400"
         id="path3477"
         style="fill:none;stroke:#000000;stroke-width:100" />
    </g>
    <g
       id="g3479">
      <path
         d="m 2200,-11600 v 4700 a 200,200 0 0 0 200,200 h 400"
         id="path3481"
         style="fill:none;stroke:#000000;stroke-width:100" />
    </g>
    <g
       id="g3483">
      <path
         d="m 0,-7400 v 2800"
         id="path3485"
         style="fill:none;stroke:#000000;stroke-width:100" />
    </g>
    <g
       id="g3487">
      <path
         d="m -2100,-11600 v 7600 a 200,200 0 0 0 200,200 h 1100"
         id="path3489"
         style="fill:none;stroke:#000000;stroke-width:100" />
    </g>
    <g
       id="g3491">
      <rect
         width="1600"
         height="1600"
         rx="200"
         ry="200"
         x="-800"
         y="-4600"
         id="rect3493"
         style="fill:#ffffff;stroke:#000000;stroke-width:100" />
      <g
         transform="translate(-300,-4100)"
         id="g3495" />
    </g>
    <g
       id="g3497">
      <rect
         width="1600"
         height="1600"
         rx="200"
         ry="200"
         x="2800"
         y="-7500"
         id="rect3499"
         style="fill:#ffffff;stroke:#000000;stroke-width:100" />
      <g
         transform="translate(3300,-7000)"
         id="g3501" />
    </g>
    <g
       id="g3503">
      <rect
         width="1600"
         height="1600"
         rx="200"
         ry="200"
         x="-800"
         y="-9000"
         id="rect3505"
         style="fill:#ffffff;stroke:#000000;stroke-width:100" />
      <g
         transform="translate(-300,-8500)"
         id="g3507" />
    </g>
  </g>
  <g
     transform="matrix(0.8,0,0,0.8,21201.659,-4514.9168)"
     id="g3509">
    <g
       id="g3511">
      <rect
         width="7000"
         height="10400"
         rx="200"
         ry="200"
         x="-2900"
         y="-10400"
         id="rect3513"
         style="fill:#ffffff;stroke:#000000;stroke-width:100" />
      <g
         transform="translate(3000,-1100)"
         id="g3515" />
    </g>
    <g
       id="g3517">
      <rect
         width="4700"
         height="3800"
         rx="200"
         ry="200"
         x="-2100"
         y="-5300"
         id="rect3519"
         style="fill:#ffffff;stroke:#000000;stroke-width:100" />
      <g
         transform="translate(1500,-2600)"
         id="g3521" />
    </g>
    <g
       id="g3523">
      <rect
         width="2900"
         height="3800"
         rx="200"
         ry="200"
         x="700"
         y="-9700"
         id="rect3525"
         style="fill:#ffffff;stroke:#000000;stroke-width:100" />
      <g
         transform="translate(2500,-7000)"
         id="g3527" />
    </g>
    <g
       id="g3529">
      <path
         d="M 0,-3000 V 1200"
         id="path3531"
         style="fill:none;stroke:#000000;stroke-width:100" />
    </g>
    <g
       id="g3533">
      <path
         d="m 2100,-7400 v 3400 a 200,200 0 0 1 -200,200 H 800"
         id="path3535"
         style="fill:none;stroke:#000000;stroke-width:100" />
    </g>
    <g
       id="g3537">
      <path
         d="m 2100,-11600 v 2600"
         id="path3539"
         style="fill:none;stroke:#000000;stroke-width:100" />
    </g>
    <g
       id="g3541">
      <path
         d="m 0,-11600 v 7000"
         id="path3543"
         style="fill:none;stroke:#000000;stroke-width:100" />
    </g>
    <g
       id="g3545">
      <path
         d="m -1500,-5900 v 1900 a 200,200 0 0 0 200,200 h 500"
         id="path3547"
         style="fill:none;stroke:#000000;stroke-width:100" />
    </g>
    <g
       id="g3549">
      <path
         d="m -1500,-11600 v 4100"
         id="path3551"
         style="fill:none;stroke:#000000;stroke-width:100" />
    </g>
    <g
       id="g3553">
      <rect
         width="1600"
         height="1600"
         rx="200"
         ry="200"
         x="-800"
         y="-4600"
         id="rect3555"
         style="fill:#ffffff;stroke:#000000;stroke-width:100" />
      <g
         transform="translate(-300,-4100)"
         id="g3557" />
    </g>
    <g
       id="g3559">
      <rect
         width="1600"
         height="1600"
         rx="200"
         ry="200"
         x="1300"
         y="-9000"
         id="rect3561"
         style="fill:#ffffff;stroke:#000000;stroke-width:100" />
      <g
         transform="translate(1800,-8500)"
         id="g3563" />
    </g>
    <g
       id="g3565">
      <rect
         width="1600"
         height="1600"
         rx="200"
         ry="200"
         x="-2300"
         y="-7500"
         id="rect3567"
         style="fill:#ffffff;stroke:#000000;stroke-width:100" />
      <g
         transform="translate(-1800,-7000)"
         id="g3569" />
    </g>
  </g>
  <g
     transform="matrix(0.8,0,0,0.8,27971.954,-6274.9168)"
     id="g3571">
    <g
       id="g3573">
      <rect
         width="5600"
         height="6000"
         rx="200"
         ry="200"
         x="-2100"
         y="-6000"
         id="rect3575"
         style="fill:#ffffff;stroke:#000000;stroke-width:100" />
      <g
         transform="translate(2400,-1100)"
         id="g3577" />
    </g>
    <g
       id="g3579">
      <path
         d="M 0,-1500 V 1200"
         id="path3581"
         style="fill:none;stroke:#000000;stroke-width:100" />
    </g>
    <g
       id="g3583">
      <path
         d="m 2200,-3700 v 1200 a 200,200 0 0 1 -200,200 H 800"
         id="path3585"
         style="fill:none;stroke:#000000;stroke-width:100" />
    </g>
    <g
       id="g3587">
      <path
         d="m 2200,-7200 v 1900"
         id="path3589"
         style="fill:none;stroke:#000000;stroke-width:100" />
    </g>
    <g
       id="g3591">
      <path
         d="m 0,-3700 v 600"
         id="path3593"
         style="fill:none;stroke:#000000;stroke-width:100" />
    </g>
    <g
       id="g3595">
      <path
         d="m 0,-7200 v 1900"
         id="path3597"
         style="fill:none;stroke:#000000;stroke-width:100" />
    </g>
    <g
       id="g3599">
      <path
         d="m -1500,-7200 v 4700 a 200,200 0 0 0 200,200 h 500"
         id="path3601"
         style="fill:none;stroke:#000000;stroke-width:100" />
    </g>
    <g
       id="g3603">
      <rect
         width="1600"
         height="1600"
         rx="200"
         ry="200"
         x="-800"
         y="-3100"
         id="rect3605"
         style="fill:#ffffff;stroke:#000000;stroke-width:100" />
      <g
         transform="translate(-300,-2600)"
         id="g3607" />
    </g>
    <g
       id="g3609">
      <rect
         width="1600"
         height="1600"
         rx="200"
         ry="200"
         x="1400"
         y="-5300"
         id="rect3611"
         style="fill:#ffffff;stroke:#000000;stroke-width:100" />
      <g
         transform="translate(1900,-4800)"
         id="g3613" />
    </g>
    <g
       id="g3615">
      <rect
         width="1600"
         height="1600"
         rx="200"
         ry="200"
         x="-800"
         y="-5300"
         id="rect3617"
         style="fill:#ffffff;stroke:#000000;stroke-width:100" />
      <g
         transform="translate(-300,-4800)"
         id="g3619" />
    </g>
  </g>
  <g
     transform="matrix(0.8,0,0,0.8,33607.694,-8034.9168)"
     id="g3621">
    <g
       id="g3623">
      <path
         d="M 0,0 V 1200"
         id="path3625"
         style="fill:none;stroke:#000000;stroke-width:100" />
    </g>
    <g
       id="g3627">
      <path
         d="m 1400,-2800 v 1800 a 200,200 0 0 1 -200,200 H 800"
         id="path3629"
         style="fill:none;stroke:#000000;stroke-width:100" />
    </g>
    <g
       id="g3631">
      <path
         d="m 0,-2800 v 1200"
         id="path3633"
         style="fill:none;stroke:#000000;stroke-width:100" />
    </g>
    <g
       id="g3635">
      <path
         d="m -1400,-2800 v 1800 a 200,200 0 0 0 200,200 h 400"
         id="path3637"
         style="fill:none;stroke:#000000;stroke-width:100" />
    </g>
    <g
       id="g3639">
      <rect
         width="1600"
         height="1600"
         rx="200"
         ry="200"
         x="-800"
         y="-1600"
         id="rect3641"
         style="fill:#ffffff;stroke:#000000;stroke-width:100" />
      <g
         transform="translate(-300,-1100)"
         id="g3643" />
    </g>
  </g>
  <path
     d="m 26057.338,-2970.6851 0,1004.175 8828.374,0 0,-920.494"
     id="path3376"
     style="fill:none;stroke:#000000;stroke-width:100;stroke-linecap:butt;stroke-linejoin:miter;stroke-miterlimit:4;stroke-opacity:1;stroke-dasharray:none" />
  <text
     x="29636.23"
     y="-821.50153"
     id="text4146"
     xml:space="preserve"
     style="font-size:918.74285889px;font-style:normal;font-weight:normal;line-height:125%;letter-spacing:0px;word-spacing:0px;fill:#000000;fill-opacity:1;stroke:none;font-family:Sans"><tspan
       x="29636.23"
       y="-821.50153"
       id="tspan4148">Head</tspan></text>
</svg>
