<?xml version="1.0" encoding="UTF-8" standalone="no"?>
<svg
   xmlns:dc="http://purl.org/dc/elements/1.1/"
   xmlns:cc="http://creativecommons.org/ns#"
   xmlns:rdf="http://www.w3.org/1999/02/22-rdf-syntax-ns#"
   xmlns:svg="http://www.w3.org/2000/svg"
   xmlns="http://www.w3.org/2000/svg"
   xmlns:sodipodi="http://sodipodi.sourceforge.net/DTD/sodipodi-0.dtd"
   xmlns:inkscape="http://www.inkscape.org/namespaces/inkscape"
   width="360"
   height="175"
   viewBox="0 -12800 23075.188 11200"
   id="svg3316"
   version="1.1"
   inkscape:version="0.48.4 r9939"
   sodipodi:docname="leftextension.svg">
  <metadata
     id="metadata3508">
    <rdf:RDF>
      <cc:Work
         rdf:about="">
        <dc:format>image/svg+xml</dc:format>
        <dc:type
           rdf:resource="http://purl.org/dc/dcmitype/StillImage" />
      </cc:Work>
    </rdf:RDF>
  </metadata>
  <defs
     id="defs3506" />
  <sodipodi:namedview
     pagecolor="#ffffff"
     bordercolor="#666666"
     borderopacity="1"
     objecttolerance="10"
     gridtolerance="10"
     guidetolerance="10"
     inkscape:pageopacity="0"
     inkscape:pageshadow="2"
     inkscape:window-width="1855"
     inkscape:window-height="1056"
     id="namedview3504"
     showgrid="false"
     fit-margin-top="5"
     fit-margin-left="5"
     fit-margin-right="5"
     fit-margin-bottom="5"
     inkscape:zoom="3.3562548"
     inkscape:cx="178.02737"
     inkscape:cy="87.553612"
     inkscape:window-x="65"
     inkscape:window-y="24"
     inkscape:window-maximized="1"
     inkscape:current-layer="svg3316" />
  <rect
     x="4390.0137"
     y="-11283.139"
     width="7668"
     height="8083"
     rx="200"
     ry="200"
     id="rect3386"
     style="fill:#ffffff;stroke:#000000;stroke-width:100"
     class="step-one" />
  <g
     transform="translate(10919.818,-4261.9418)"
     id="g3388" />
  <rect
     x="4990.0137"
     y="-10583.139"
     width="6568"
     height="5883"
     rx="200"
     ry="200"
     id="rect3392"
     style="fill:#ffffff;stroke:#000000;stroke-width:100" />
  <g
     transform="translate(10225.014,-5207.1378)"
     id="g3394">
    <path
       d="m 413,469 h 23 c 8,-27 15,-47 29,-81 L 580,98 685,398 c 0,18 -14,30 -39,31 l -34,2 v 28 c 82,-3 82,-3 98,-3 16,0 16,0 98,3 v -28 l -26,-2 c -22,-3 -34,-20 -64,-87 L 581,-7 H 535 L 399,335 249,-7 H 202 L 100,329 C 75,407 62,427 34,429 l -28,2 v 28 c 99,-3 99,-3 119,-3 20,0 20,0 119,3 v -28 l -40,-2 c -25,-1 -38,-9 -38,-24 0,-8 85,-292 88,-301"
       transform="scale(1,-1)"
       id="path3396"
       inkscape:connector-curvature="0"
       style="fill:#000000;stroke:#000000;stroke-width:1" />
  </g>
  <path
     d="m 7704.014,-6076.1378 v 4076"
     id="path3400"
     inkscape:connector-curvature="0"
     style="fill:none;stroke:#000000;stroke-width:100" />
  <path
     d="m 9681.014,-8141.1378 v 1132 a 200,200 0 0 1 -200,200 h -1028"
     id="path3404"
     inkscape:connector-curvature="0"
     style="fill:none;stroke:#000000;stroke-width:100" />
  <path
     d="m 11058.014,-12483.138 v 3271.0002 a 200,200 0 0 1 -200,200 h -400"
     id="path3408"
     inkscape:connector-curvature="0"
     style="fill:none;stroke:#000000;stroke-width:100" />
  <path
     d="m 8304.014,-12483.138 v 3271.0002 a 200,200 0 0 0 200,200 h 400"
     id="path3412"
     inkscape:connector-curvature="0"
     style="fill:none;stroke:#000000;stroke-width:100" />
  <path
     d="m 6347.014,-8141.1378 v 1132 a 200,200 0 0 0 200,200 h 408"
     id="path3416"
     inkscape:connector-curvature="0"
     style="fill:none;stroke:#000000;stroke-width:100" />
  <rect
     x="6955.0137"
     y="-7541.1372"
     width="1498"
     height="1465"
     rx="200"
     ry="200"
     id="rect3420"
     style="fill:#ffffff;stroke:#000000;stroke-width:100" />
  <g
     transform="translate(7454.014,-6579.1378)"
     id="g3422">
    <path
       d="M 455,432 141,35 h 135 c 96,0 138,7 142,25 l 18,79 h 30 L 460,92 C 453,44 451,20 451,-3 L 175,0 C 132,0 126,0 22,-3 l -6,20 90,105 170,212 c 27,34 44,57 65,90 H 198 c -74,0 -92,-5 -96,-26 L 90,330 H 60 c 6,69 7,81 9,132 l 248,-3 c 38,0 68,1 138,3 v -30"
       transform="scale(1,-1)"
       id="path3424"
       inkscape:connector-curvature="0"
       style="fill:#000000;stroke:#000000;stroke-width:1" />
  </g>
  <rect
     x="8904.0146"
     y="-9883.1387"
     width="1554"
     height="1742"
     rx="200"
     ry="200"
     id="rect3428"
     style="fill:#ffffff;stroke:#000000;stroke-width:100" />
  <g
     transform="translate(9403.014,-8924.1378)"
     id="g3430">
    <path
       d="m 297,86 119,292 c 4,10 6,19 6,26 0,14 -14,23 -42,25 l -26,2 v 28 c 79,-3 79,-3 95,-3 16,0 16,0 95,3 v -28 l -28,-2 C 491,426 472,399 432,308 L 229,-160 c -38,-87 -81,-123 -148,-123 -19,0 -35,5 -54,15 l 24,75 h 13 c 17,-15 35,-23 51,-23 38,0 77,47 109,131 l 23,61 C 229,26 219,50 191,118 L 82,380 c -15,35 -27,46 -52,49 l -18,2 v 28 c 97,-3 97,-3 116,-3 19,0 19,0 116,3 v -28 l -38,-2 c -23,-1 -34,-9 -34,-23 0,-10 4,-25 10,-42 l 64,-168 c 18,-49 29,-72 51,-110"
       transform="scale(1,-1)"
       id="path3432"
       inkscape:connector-curvature="0"
       style="fill:#000000;stroke:#000000;stroke-width:1" />
  </g>
  <rect
     x="5590.0137"
     y="-9613.1387"
     width="1514"
     height="1472"
     rx="200"
     ry="200"
     id="rect3436"
     style="fill:#ffffff;stroke:#000000;stroke-width:100" />
  <g
     transform="translate(6089.014,-8644.1378)"
     id="g3438">
    <path
       d="M 288,254 436,54 c 11,-15 23,-23 35,-24 l 25,-3 V -3 c -52,3 -52,3 -62,3 -9,0 -9,0 -61,-3 L 240,192 106,0 H 20 v 27 h 17 c 10,0 23,6 30,15 L 216,218 96,392 c -10,14 -32,28 -50,29 l -21,2 -5,26 116,20 c 34,-34 45,-47 60,-69 l 76,-116 124,175 h 82 v -28 h -14 c -17,0 -28,-4 -34,-11"
       transform="scale(1,-1)"
       id="path3440"
       inkscape:connector-curvature="0"
       style="fill:#000000;stroke:#000000;stroke-width:1" />
  </g>
  <rect
     x="14058.015"
     y="-10312.139"
     width="3632"
     height="6140"
     rx="200"
     ry="200"
     id="rect3446"
     style="fill:#ffffff;stroke:#000000;stroke-width:100"
     class="step-two" />
  <g
     transform="translate(16551.818,-5233.9418)"
     id="g3448" />
  <path
     d="m 15924.014,-5672.1378 v 2700"
     id="path3452"
     inkscape:connector-curvature="0"
     style="fill:none;stroke:#000000;stroke-width:100"
     class="step-one" />
  <rect
     x="15124.015"
     y="-7272.1372"
     width="1600"
     height="1600"
     rx="200"
     ry="200"
     id="rect3472"
     style="fill:#ffffff;stroke:#000000;stroke-width:100"
     class="step-one" />
  <g
     transform="translate(15585.818,-6733.9418)"
     id="g3474" />
  <g
     id="f-group">
    <path
       style="fill:none;stroke:#000000;stroke-width:100"
       inkscape:connector-curvature="0"
       id="path3456"
       d="m 15924.014,-7872.1378 v 600" />
    <path
       style="fill:none;stroke:#000000;stroke-width:100"
       inkscape:connector-curvature="0"
       id="path3460"
       d="m 17190.014,-11512.138 v 2570.0002 a 200,200 0 0 1 -200,200 h -400" />
    <path
       style="fill:none;stroke:#000000;stroke-width:100"
       inkscape:connector-curvature="0"
       id="path3464"
       d="m 15924.014,-11512.138 v 1900.0002" />
    <path
       style="fill:none;stroke:#000000;stroke-width:100"
       inkscape:connector-curvature="0"
       id="path3468"
       d="m 14658.014,-11512.138 v 2570.0002 a 200,200 0 0 0 200,200 h 400" />
    <rect
       style="fill:#ffffff;stroke:#000000;stroke-width:100"
       id="rect3478"
       ry="200"
       rx="200"
       height="1740"
       width="1332"
       y="-9612.1387"
       x="15258.015" />
    <g
       id="g3480"
       transform="translate(15758.014,-8375.1378)">
      <path
         style="fill:#000000;stroke:#000000;stroke-width:1"
         inkscape:connector-curvature="0"
         id="path3482"
         transform="scale(1,-1)"
         d="m 341,717 v -77 l -12,-6 c -24,21 -42,28 -69,28 -57,0 -70,-28 -70,-143 v -85 l 131,4 -7,-53 H 190 V 102 c 0,-63 3,-70 37,-72 l 46,-3 V -3 C 173,0 173,0 148,0 123,0 123,0 23,-3 v 30 l 46,3 c 34,2 37,9 37,72 v 283 l -69,-4 v 22 l 69,31 v 42 2 c 0,77 57,259 168,259 21,0 43,-6 67,-20" />
    </g>
  </g>
  <path
     d="m 21090.014,-6442.1378 v 1200"
     id="path3488"
     inkscape:connector-curvature="0"
     style="fill:none;stroke:#000000;stroke-width:100"
     class="step-two" />
  <path
     d="m 22490.014,-9242.1378 v 1800 a 200,200 0 0 1 -200,200 h -400"
     id="path3492"
     inkscape:connector-curvature="0"
     style="fill:none;stroke:#000000;stroke-width:100"
     class="step-two" />
  <path
     class="step-two"
     d="m 19690.014,-9242.1378 v 1800 a 200,200 0 0 0 200,200 h 400"
     id="path3496"
     inkscape:connector-curvature="0"
     style="fill:none;stroke:#000000;stroke-width:100" />
  <rect
     class="step-two"
     x="20290.014"
     y="-8042.1377"
     width="1600"
     height="1600"
     rx="200"
     ry="200"
     id="rect3500"
     style="fill:#ffffff;stroke:#000000;stroke-width:100" />
  <g
     id="g5334"
     transform="matrix(1.0004927,0,0,1.0004927,-1245.6937,370.27405)">
    <path
       transform="matrix(46.291018,0,0,46.291018,444.91589,-11518.83)"
       d="m 32.288166,71.141632 c 0,1.866167 -1.512827,3.378994 -3.378994,3.378994 -1.866167,0 -3.378994,-1.512827 -3.378994,-3.378994 0,-1.866167 1.512827,-3.378994 3.378994,-3.378994 1.866167,0 3.378994,1.512827 3.378994,3.378994 z"
       sodipodi:ry="3.378994"
       sodipodi:rx="3.378994"
       sodipodi:cy="71.141632"
       sodipodi:cx="28.909172"
       id="path4539"
       style="fill:#000000;fill-opacity:1;stroke:#000000;stroke-opacity:1"
       sodipodi:type="arc" />
    <path
       transform="matrix(46.291018,0,0,46.291018,1499.8469,-11518.83)"
       d="m 32.288166,71.141632 c 0,1.866167 -1.512827,3.378994 -3.378994,3.378994 -1.866167,0 -3.378994,-1.512827 -3.378994,-3.378994 0,-1.866167 1.512827,-3.378994 3.378994,-3.378994 1.866167,0 3.378994,1.512827 3.378994,3.378994 z"
       sodipodi:ry="3.378994"
       sodipodi:rx="3.378994"
       sodipodi:cy="71.141632"
       sodipodi:cx="28.909172"
       id="path4539-9"
       style="fill:#000000;fill-opacity:1;stroke:#000000;stroke-opacity:1"
       sodipodi:type="arc" />
    <path
       transform="matrix(46.291018,0,0,46.291018,2554.7777,-11518.83)"
       d="m 32.288166,71.141632 c 0,1.866167 -1.512827,3.378994 -3.378994,3.378994 -1.866167,0 -3.378994,-1.512827 -3.378994,-3.378994 0,-1.866167 1.512827,-3.378994 3.378994,-3.378994 1.866167,0 3.378994,1.512827 3.378994,3.378994 z"
       sodipodi:ry="3.378994"
       sodipodi:rx="3.378994"
       sodipodi:cy="71.141632"
       sodipodi:cx="28.909172"
       id="path4539-4"
       style="fill:#000000;fill-opacity:1;stroke:#000000;stroke-opacity:1"
       sodipodi:type="arc" />
  </g>
</svg>
