<?xml version="1.0" encoding="UTF-8" standalone="no"?>
<!-- Created with Inkscape (http://www.inkscape.org/) -->

<svg
   xmlns:dc="http://purl.org/dc/elements/1.1/"
   xmlns:cc="http://creativecommons.org/ns#"
   xmlns:rdf="http://www.w3.org/1999/02/22-rdf-syntax-ns#"
   xmlns:svg="http://www.w3.org/2000/svg"
   xmlns="http://www.w3.org/2000/svg"
   version="1.1"
   width="314.49329"
   height="219.66"
   id="svg4256">
  <defs
     id="defs4258" />
  <metadata
     id="metadata4261">
    <rdf:RDF>
      <cc:Work
         rdf:about="">
        <dc:format>image/svg+xml</dc:format>
        <dc:type
           rdf:resource="http://purl.org/dc/dcmitype/StillImage" />
        <dc:title></dc:title>
      </cc:Work>
    </rdf:RDF>
  </metadata>
  <g
     transform="translate(126.00091,-909.4189)"
     id="layer1">
    <g
       transform="matrix(0.02,0,0,0.02,1.6323901,1100.0789)"
       id="g6120"
       style="stroke:#c80000;stroke-opacity:1">
      <rect
         width="6568"
         height="8083"
         rx="200"
         ry="200"
         x="-2657"
         y="-8083"
         id="rect6122"
         style="fill:#ffffff;stroke:#c80000;stroke-width:100;stroke-opacity:1" />
      <g
         transform="translate(2811,-1100)"
         id="g6124"
         style="stroke:#c80000;stroke-opacity:1" />
    </g>
    <g
       transform="matrix(0.02,0,0,0.02,1.6323901,1100.0789)"
       id="g6126">
      <rect
         width="5468"
         height="5883"
         rx="200"
         ry="200"
         x="-2057"
         y="-7383"
         id="rect6128"
         style="fill:#ffffff;stroke:#000000;stroke-width:100" />
      <g
         transform="translate(2078,-2007)"
         id="g6130">
        <path
           d="m 413,469 h 23 c 8,-27 15,-47 29,-81 L 580,98 685,398 c 0,18 -14,30 -39,31 l -34,2 v 28 c 82,-3 82,-3 98,-3 16,0 16,0 98,3 v -28 l -26,-2 c -22,-3 -34,-20 -64,-87 L 581,-7 H 535 L 399,335 249,-7 H 202 L 100,329 C 75,407 62,427 34,429 l -28,2 v 28 c 99,-3 99,-3 119,-3 20,0 20,0 119,3 v -28 l -40,-2 c -25,-1 -38,-9 -38,-24 0,-8 85,-292 88,-301"
           transform="scale(1,-1)"
           id="path6132"
           style="fill:#000000;stroke:#000000;stroke-width:1" />
      </g>
    </g>
    <g
       transform="matrix(0.02,0,0,0.02,1.6323901,1100.0789)"
       id="g6134">
      <path
         d="M 0,-2876 V 1200"
         id="path6136"
         style="fill:none;stroke:#000000;stroke-width:100" />
    </g>
    <g
       transform="matrix(0.02,0,0,0.02,1.6323901,1100.0789)"
       id="g6138">
      <path
         d="m 2134,-4941 v 1132 a 200,200 0 0 1 -200,200 H 749"
         id="path6140"
         style="fill:none;stroke:#000000;stroke-width:100" />
    </g>
    <g
       transform="matrix(0.02,0,0,0.02,1.6323901,1100.0789)"
       id="g6142">
      <path
         d="m 2134,-9283 v 2600"
         id="path6144"
         style="fill:none;stroke:#000000;stroke-width:100" />
    </g>
    <g
       transform="matrix(0.02,0,0,0.02,1.6323901,1100.0789)"
       id="g6146">
      <path
         d="m 0,-4941 v 600"
         id="path6148"
         style="fill:none;stroke:#000000;stroke-width:100" />
    </g>
    <g
       transform="matrix(0.02,0,0,0.02,1.6323901,1100.0789)"
       id="g6150">
      <path
         d="m 0,-9283 v 2870"
         id="path6152"
         style="fill:none;stroke:#000000;stroke-width:100" />
    </g>
    <g
       transform="matrix(0.02,0,0,0.02,1.6323901,1100.0789)"
       id="g6154">
      <path
         d="m -1457,-9283 v 5474 a 200,200 0 0 0 200,200 h 508"
         id="path6156"
         style="fill:none;stroke:#000000;stroke-width:100" />
    </g>
    <g
       transform="matrix(0.02,0,0,0.02,1.6323901,1100.0789)"
       id="g6158">
      <rect
         width="1498"
         height="1465"
         rx="200"
         ry="200"
         x="-749"
         y="-4341"
         id="rect6160"
         style="fill:#ffffff;stroke:#000000;stroke-width:100" />
      <g
         transform="translate(-250,-3379)"
         id="g6162">
        <path
           d="M 455,432 141,35 h 135 c 96,0 138,7 142,25 l 18,79 h 30 L 460,92 C 453,44 451,20 451,-3 L 175,0 C 132,0 126,0 22,-3 l -6,20 90,105 170,212 c 27,34 44,57 65,90 H 198 c -74,0 -92,-5 -96,-26 L 90,330 H 60 c 6,69 7,81 9,132 l 248,-3 c 38,0 68,1 138,3 v -30"
           transform="scale(1,-1)"
           id="path6164"
           style="fill:#000000;stroke:#000000;stroke-width:1" />
      </g>
    </g>
    <g
       transform="matrix(0.02,0,0,0.02,1.6323901,1100.0789)"
       id="g6166">
      <rect
         width="1554"
         height="1742"
         rx="200"
         ry="200"
         x="1357"
         y="-6683"
         id="rect6168"
         style="fill:#ffffff;stroke:#000000;stroke-width:100" />
      <g
         transform="translate(1856,-5724)"
         id="g6170">
        <path
           d="m 297,86 119,292 c 4,10 6,19 6,26 0,14 -14,23 -42,25 l -26,2 v 28 c 79,-3 79,-3 95,-3 16,0 16,0 95,3 v -28 l -28,-2 C 491,426 472,399 432,308 L 229,-160 c -38,-87 -81,-123 -148,-123 -19,0 -35,5 -54,15 l 24,75 h 13 c 17,-15 35,-23 51,-23 38,0 77,47 109,131 l 23,61 C 229,26 219,50 191,118 L 82,380 c -15,35 -27,46 -52,49 l -18,2 v 28 c 97,-3 97,-3 116,-3 19,0 19,0 116,3 v -28 l -38,-2 c -23,-1 -34,-9 -34,-23 0,-10 4,-25 10,-42 l 64,-168 c 18,-49 29,-72 51,-110"
           transform="scale(1,-1)"
           id="path6172"
           style="fill:#000000;stroke:#000000;stroke-width:1" />
      </g>
    </g>
    <g
       transform="matrix(0.02,0,0,0.02,1.6323901,1100.0789)"
       id="g6174">
      <rect
         width="1514"
         height="1472"
         rx="200"
         ry="200"
         x="-757"
         y="-6413"
         id="rect6176"
         style="fill:#ffffff;stroke:#000000;stroke-width:100" />
      <g
         transform="translate(-258,-5444)"
         id="g6178">
        <path
           d="M 288,254 436,54 c 11,-15 23,-23 35,-24 l 25,-3 V -3 c -52,3 -52,3 -62,3 -9,0 -9,0 -61,-3 L 240,192 106,0 H 20 v 27 h 17 c 10,0 23,6 30,15 L 216,218 96,392 c -10,14 -32,28 -50,29 l -21,2 -5,26 116,20 c 34,-34 45,-47 60,-69 l 76,-116 124,175 h 82 v -28 h -14 c -17,0 -28,-4 -34,-11"
           transform="scale(1,-1)"
           id="path6180"
           style="fill:#000000;stroke:#000000;stroke-width:1" />
      </g>
    </g>
    <g
       transform="matrix(0.02,0,0,0.02,157.17239,1080.6389)"
       id="g6190">
      <path
         d="M 0,-1500 V 1200"
         id="path6192"
         style="fill:none;stroke:#000000;stroke-width:100" />
    </g>
    <g
       transform="matrix(0.02,0,0,0.02,157.17239,1080.6389)"
       id="g6194">
      <path
         d="m 0,-3700 v 600"
         id="path6196"
         style="fill:none;stroke:#000000;stroke-width:100" />
    </g>
    <g
       transform="matrix(0.02,0,0,0.02,157.17239,1080.6389)"
       id="g6198">
      <path
         d="m 1266,-7340 v 2570 a 200,200 0 0 1 -200,200 H 666"
         id="path6200"
         style="fill:none;stroke:#000000;stroke-width:100" />
    </g>
    <g
       transform="matrix(0.02,0,0,0.02,157.17239,1080.6389)"
       id="g6202">
      <path
         d="m 0,-7340 v 1900"
         id="path6204"
         style="fill:none;stroke:#000000;stroke-width:100" />
    </g>
    <g
       transform="matrix(0.02,0,0,0.02,157.17239,1080.6389)"
       id="g6206">
      <path
         d="m -1266,-7340 v 2570 a 200,200 0 0 0 200,200 h 400"
         id="path6208"
         style="fill:none;stroke:#000000;stroke-width:100" />
    </g>
    <g
       transform="matrix(0.02,0,0,0.02,157.17239,1080.6389)"
       id="g6210"
       style="stroke:#c80000;stroke-opacity:1">
      <rect
         width="1600"
         height="1600"
         rx="200"
         ry="200"
         x="-800"
         y="-3100"
         id="rect6212"
         style="fill:#ffffff;stroke:#c80000;stroke-width:100;stroke-opacity:1" />
      <g
         transform="translate(-300,-2600)"
         id="g6214"
         style="stroke:#c80000;stroke-opacity:1" />
    </g>
    <g
       transform="matrix(0.02,0,0,0.02,157.17239,1080.6389)"
       id="g6216">
      <rect
         width="1332"
         height="1740"
         rx="200"
         ry="200"
         x="-666"
         y="-5440"
         id="rect6218"
         style="fill:#ffffff;stroke:#000000;stroke-width:100" />
      <g
         transform="translate(-166,-4203)"
         id="g6220">
        <path
           d="m 341,717 v -77 l -12,-6 c -24,21 -42,28 -69,28 -57,0 -70,-28 -70,-143 v -85 l 131,4 -7,-53 H 190 V 102 c 0,-63 3,-70 37,-72 l 46,-3 V -3 C 173,0 173,0 148,0 123,0 123,0 23,-3 v 30 l 46,3 c 34,2 37,9 37,72 v 283 l -69,-4 v 22 l 69,31 v 42 2 c 0,77 57,259 168,259 21,0 43,-6 67,-20"
           transform="scale(1,-1)"
           id="path6222"
           style="fill:#000000;stroke:#000000;stroke-width:1" />
      </g>
    </g>
    <g
       transform="matrix(0.02,0,0,0.02,-416.86265,1165.0969)"
       id="g4976">
      <path
         d="m 321.30178,131.95267 a 4.7337279,4.7337279 0 1 1 -9.46745,0 4.7337279,4.7337279 0 1 1 9.46745,0 z"
         transform="matrix(27.750309,0,0,27.750309,8052.7125,-11768.236)"
         id="path4152-6"
         style="fill:#000000;fill-opacity:1;stroke:#000000;stroke-width:2.5;stroke-linecap:round;stroke-linejoin:round;stroke-miterlimit:4;stroke-opacity:1;stroke-dasharray:none;stroke-dashoffset:0" />
      <path
         d="m 321.30178,131.95267 a 4.7337279,4.7337279 0 1 1 -9.46745,0 4.7337279,4.7337279 0 1 1 9.46745,0 z"
         transform="matrix(27.750309,0,0,27.750309,7113.363,-11768.236)"
         id="path4152-6-5"
         style="fill:#000000;fill-opacity:1;stroke:#000000;stroke-width:2.5;stroke-linecap:round;stroke-linejoin:round;stroke-miterlimit:4;stroke-opacity:1;stroke-dasharray:none;stroke-dashoffset:0" />
      <path
         d="m 321.30178,131.95267 a 4.7337279,4.7337279 0 1 1 -9.46745,0 4.7337279,4.7337279 0 1 1 9.46745,0 z"
         transform="matrix(27.750309,0,0,27.750309,6174.0144,-11768.236)"
         id="path4152-6-5-0"
         style="fill:#000000;fill-opacity:1;stroke:#000000;stroke-width:2.5;stroke-linecap:round;stroke-linejoin:round;stroke-miterlimit:4;stroke-opacity:1;stroke-dasharray:none;stroke-dashoffset:0" />
    </g>
  </g>
</svg>
