<?xml version="1.0" encoding="UTF-8" standalone="no"?>
<svg width="900" height="300" viewBox="0 -15000 55055 15000" xmlns="http://www.w3.org/2000/svg"><g transform="translate(4600, -3400)"><g><rect x="-2600" y="-8200" width="5100" height="8200" rx="200" ry="200" fill="#FFFFFF" stroke="#000000" stroke-width="100"></rect><g transform="translate(1400, -1100)"></g></g><g><rect x="-2000" y="-7500" width="4000" height="6000" rx="200" ry="200" fill="#FFFFFF" stroke="#000000" stroke-width="100"></rect><g transform="translate(900, -2600)"></g></g><g><rect x="-1400" y="-6800" width="2900" height="3800" rx="200" ry="200" fill="#FFFFFF" stroke="#000000" stroke-width="100"></rect><g transform="translate(400, -4100)"></g></g><g><rect x="-800" y="-6100" width="1600" height="1600" rx="200" ry="200" fill="#FFFFFF" stroke="#000000" stroke-width="100"></rect><g transform="translate(-300, -5600)"></g></g></g><g transform="translate(11100, -1200)"><g><rect x="-2000" y="-12600" width="4000" height="12600" rx="200" ry="200" fill="#FFFFFF" stroke="#000000" stroke-width="100"></rect><g transform="translate(900, -1100)"></g></g><g><rect x="-1400" y="-7500" width="2900" height="6000" rx="200" ry="200" fill="#FFFFFF" stroke="#000000" stroke-width="100"></rect><g transform="translate(400, -2600)"></g></g><g><rect x="-600" y="-9700" width="2100" height="1600" rx="200" ry="200" fill="#FFFFFF" stroke="#000000" stroke-width="100"></rect><g transform="translate(400, -9200)"></g></g><path d="M 0 -3000 V 1200" fill="none" stroke="black" stroke-width="100"></path><path d="M 0 -5200 V -4600" fill="none" stroke="black" stroke-width="100"></path><path d="M 0 -10300 V -6800" fill="none" stroke="black" stroke-width="100"></path><path d="M 0 -13800 V -11900" fill="none" stroke="black" stroke-width="100"></path><g><rect x="-800" y="-4600" width="1600" height="1600" rx="200" ry="200" fill="#FFFFFF" stroke="#000000" stroke-width="100"></rect><g transform="translate(-300, -4100)"></g></g><g><rect x="-800" y="-6800" width="1600" height="1600" rx="200" ry="200" fill="#FFFFFF" stroke="#000000" stroke-width="100"></rect><g transform="translate(-300, -6300)"></g></g><g><rect x="-800" y="-11900" width="1600" height="1600" rx="200" ry="200" fill="#FFFFFF" stroke="#000000" stroke-width="100"></rect><g transform="translate(-300, -11400)"></g></g></g><g transform="translate(18400, -2300)"><g><rect x="-3300" y="-10400" width="8800" height="10400" rx="200" ry="200" fill="#FFFFFF" stroke="#000000" stroke-width="100"></rect><g transform="translate(4400, -1100)"></g></g><g><rect x="-2700" y="-5300" width="6800" height="3800" rx="200" ry="200" fill="#FFFFFF" stroke="#000000" stroke-width="100"></rect><g transform="translate(3000, -2600)"></g></g><g><rect x="-1400" y="-9700" width="2900" height="3800" rx="200" ry="200" fill="#FFFFFF" stroke="#000000" stroke-width="100"></rect><g transform="translate(400, -7000)"></g></g><path d="M 0 -3000 V 1200" fill="none" stroke="black" stroke-width="100"></path><path d="M 3600 -5900 V -4000 A 200 200 0 0 1 3400 -3800 H 800" fill="none" stroke="black" stroke-width="100"></path><path d="M 5000 -11600 V -6900 A 200 200 0 0 1 4800 -6700 H 4400" fill="none" stroke="black" stroke-width="100"></path><path d="M 2200 -11600 V -6900 A 200 200 0 0 0 2400 -6700 H 2800" fill="none" stroke="black" stroke-width="100"></path><path d="M 0 -7400 V -4600" fill="none" stroke="black" stroke-width="100"></path><path d="M -2100 -11600 V -4000 A 200 200 0 0 0 -1900 -3800 H -800" fill="none" stroke="black" stroke-width="100"></path><g><rect x="-800" y="-4600" width="1600" height="1600" rx="200" ry="200" fill="#FFFFFF" stroke="#000000" stroke-width="100"></rect><g transform="translate(-300, -4100)"></g></g><g><rect x="2800" y="-7500" width="1600" height="1600" rx="200" ry="200" fill="#FFFFFF" stroke="#000000" stroke-width="100"></rect><g transform="translate(3300, -7000)"></g></g><g><rect x="-800" y="-9000" width="1600" height="1600" rx="200" ry="200" fill="#FFFFFF" stroke="#000000" stroke-width="100"></rect><g transform="translate(-300, -8500)"></g></g></g><g transform="translate(28800, -2300)"><g><rect x="-2900" y="-10400" width="7000" height="10400" rx="200" ry="200" fill="#FFFFFF" stroke="#000000" stroke-width="100"></rect><g transform="translate(3000, -1100)"></g></g><g><rect x="-2100" y="-5300" width="4700" height="3800" rx="200" ry="200" fill="#FFFFFF" stroke="#000000" stroke-width="100"></rect><g transform="translate(1500, -2600)"></g></g><g><rect x="700" y="-9700" width="2900" height="3800" rx="200" ry="200" fill="#FFFFFF" stroke="#000000" stroke-width="100"></rect><g transform="translate(2500, -7000)"></g></g><path d="M 0 -3000 V 1200" fill="none" stroke="black" stroke-width="100"></path><path d="M 2100 -7400 V -4000 A 200 200 0 0 1 1900 -3800 H 800" fill="none" stroke="black" stroke-width="100"></path><path d="M 2100 -11600 V -9000" fill="none" stroke="black" stroke-width="100"></path><path d="M 0 -11600 V -4600" fill="none" stroke="black" stroke-width="100"></path><path d="M -1500 -5900 V -4000 A 200 200 0 0 0 -1300 -3800 H -800" fill="none" stroke="black" stroke-width="100"></path><path d="M -1500 -11600 V -7500" fill="none" stroke="black" stroke-width="100"></path><g><rect x="-800" y="-4600" width="1600" height="1600" rx="200" ry="200" fill="#FFFFFF" stroke="#000000" stroke-width="100"></rect><g transform="translate(-300, -4100)"></g></g><g><rect x="1300" y="-9000" width="1600" height="1600" rx="200" ry="200" fill="#FFFFFF" stroke="#000000" stroke-width="100"></rect><g transform="translate(1800, -8500)"></g></g><g><rect x="-2300" y="-7500" width="1600" height="1600" rx="200" ry="200" fill="#FFFFFF" stroke="#000000" stroke-width="100"></rect><g transform="translate(-1800, -7000)"></g></g></g><g transform="translate(37557, -3400)"><g><rect x="-2657" y="-8200" width="6568" height="8200" rx="200" ry="200" fill="#FFFFFF" stroke="#21BA45" stroke-width="100"></rect><g transform="translate(2122, -520)"><path d="M592 697l-281 -712h-17l-268 712h45l109 -296h191l109 296h112zM355 359h-159l79 -214" fill="black" stroke="black" stroke-width="1" transform="translate(0, 0) scale(1, -1)"></path><path d="" fill="black" stroke="black" stroke-width="1" transform="translate(617, 0) scale(1, -1)"></path><path d="M41 143h30v-41c0 -50 52 -85 125 -85c71 0 121 38 121 92c0 86 -94 60 -212 112c-46 21 -68 55 -68 103c0 90 71 145 187 145c41 0 77 -7 130 -25c-3 -31 -4 -55 -5 -113h-28v23c0 47 -51 82 -118 82c-61 0 -96 -28 -96 -78c0 -130 284 -37 284 -210 c0 -98 -93 -168 -224 -168c-46 0 -85 7 -137 24c8 40 11 70 11 139" fill="black" stroke="black" stroke-width="1" transform="translate(866, 0) scale(1, -1)"></path></g></g><g><rect x="-2057" y="-7500" width="5468" height="5883" rx="200" ry="200" fill="#FFFFFF" stroke="#000000" stroke-width="100"></rect><g transform="translate(2078, -2124)"><path d="M413 469h23c8 -27 15 -47 29 -81l115 -290l105 300c0 18 -14 30 -39 31l-34 2v28c82 -3 82 -3 98 -3s16 0 98 3v-28l-26 -2c-22 -3 -34 -20 -64 -87l-137 -349h-46l-136 342l-150 -342h-47l-102 336c-25 78 -38 98 -66 100l-28 2v28c99 -3 99 -3 119 -3s20 0 119 3v-28 l-40 -2c-25 -1 -38 -9 -38 -24c0 -8 85 -292 88 -301" fill="black" stroke="black" stroke-width="1" transform="translate(0, 0) scale(1, -1)"></path></g></g><path d="M 0 -2993 V 1200" fill="none" stroke="black" stroke-width="100"></path><path d="M 2134 -5058 V -3926 A 200 200 0 0 1 1934 -3726 H 749" fill="none" stroke="black" stroke-width="100"></path><path d="M 2134 -9400 V -6800" fill="none" stroke="black" stroke-width="100"></path><path d="M 0 -5058 V -4458" fill="none" stroke="black" stroke-width="100"></path><path d="M 0 -9400 V -6530" fill="none" stroke="black" stroke-width="100"></path><path d="M -1457 -9400 V -3926 A 200 200 0 0 0 -1257 -3726 H -749" fill="none" stroke="black" stroke-width="100"></path><g><rect x="-749" y="-4458" width="1498" height="1465" rx="200" ry="200" fill="#FFFFFF" stroke="#000000" stroke-width="100"></rect><g transform="translate(-250, -3496)"><path d="M455 432l-314 -397h135c96 0 138 7 142 25l18 79h30l-6 -47c-7 -48 -9 -72 -9 -95l-276 3c-43 0 -49 0 -153 -3l-6 20l90 105l170 212c27 34 44 57 65 90h-143c-74 0 -92 -5 -96 -26l-12 -68h-30c6 69 7 81 9 132l248 -3c38 0 68 1 138 3v-30" fill="black" stroke="black" stroke-width="1" transform="translate(0, 0) scale(1, -1)"></path></g></g><g><rect x="1357" y="-6800" width="1554" height="1742" rx="200" ry="200" fill="#FFFFFF" stroke="#000000" stroke-width="100"></rect><g transform="translate(1856, -5841)"><path d="M297 86l119 292c4 10 6 19 6 26c0 14 -14 23 -42 25l-26 2v28c79 -3 79 -3 95 -3s16 0 95 3v-28l-28 -2c-25 -3 -44 -30 -84 -121l-203 -468c-38 -87 -81 -123 -148 -123c-19 0 -35 5 -54 15l24 75h13c17 -15 35 -23 51 -23c38 0 77 47 109 131l23 61 c-18 50 -28 74 -56 142l-109 262c-15 35 -27 46 -52 49l-18 2v28c97 -3 97 -3 116 -3s19 0 116 3v-28l-38 -2c-23 -1 -34 -9 -34 -23c0 -10 4 -25 10 -42l64 -168c18 -49 29 -72 51 -110" fill="black" stroke="black" stroke-width="1" transform="translate(0, 0) scale(1, -1)"></path></g></g><g><rect x="-757" y="-6530" width="1514" height="1472" rx="200" ry="200" fill="#FFFFFF" stroke="#000000" stroke-width="100"></rect><g transform="translate(-258, -5561)"><path d="M288 254l148 -200c11 -15 23 -23 35 -24l25 -3v-30c-52 3 -52 3 -62 3c-9 0 -9 0 -61 -3l-133 195l-134 -192h-86v27h17c10 0 23 6 30 15l149 176l-120 174c-10 14 -32 28 -50 29l-21 2l-5 26l116 20c34 -34 45 -47 60 -69l76 -116l124 175h82v-28h-14 c-17 0 -28 -4 -34 -11" fill="black" stroke="black" stroke-width="1" transform="translate(0, 0) scale(1, -1)"></path></g></g></g><g transform="translate(45334, -4319)"><g><rect x="-1866" y="-6361" width="3957" height="6361" rx="200" ry="200" fill="#FFFFFF" stroke="#21BA45" stroke-width="100"></rect><g transform="translate(400, -515)"><path d="M592 697l-281 -712h-17l-268 712h45l109 -296h191l109 296h112zM355 359h-159l79 -214" fill="black" stroke="black" stroke-width="1" transform="translate(0, 0) scale(1, -1)"></path><path d="" fill="black" stroke="black" stroke-width="1" transform="translate(617, 0) scale(1, -1)"></path><path d="M98 382l-76 -4v21l78 35v70c0 30 -1 49 -4 79c31 10 61 23 85 38l12 -11c-8 -64 -11 -100 -11 -142v-38l137 6l-9 -54h-128v-262c0 -49 16 -69 55 -69c19 0 34 5 59 19l13 -17l-48 -53c-6 -7 -30 -12 -53 -12c-77 0 -110 32 -110 106v288" fill="black" stroke="black" stroke-width="1" transform="translate(866, 0) scale(1, -1)"></path></g></g><path d="M 0 -1612 V 1200" fill="none" stroke="black" stroke-width="100"></path><path d="M 0 -3921 V -3321" fill="none" stroke="black" stroke-width="100"></path><path d="M 1266 -7561 V -4991 A 200 200 0 0 1 1066 -4791 H 666" fill="none" stroke="black" stroke-width="100"></path><path d="M 0 -7561 V -5661" fill="none" stroke="black" stroke-width="100"></path><path d="M -1266 -7561 V -4991 A 200 200 0 0 0 -1066 -4791 H -666" fill="none" stroke="black" stroke-width="100"></path><g><rect x="-1234" y="-3321" width="2468" height="1709" rx="200" ry="200" fill="#FFFFFF" stroke="#DB2828" stroke-width="100"></rect><g transform="translate(-734, -2124)"><path d="M572 0h-526v39h388c19 0 34 16 34 53v253h-332v39h332v232c0 26 -20 42 -47 42h-364v39h515v-697" fill="black" stroke="black" stroke-width="1" transform="translate(0, 0) scale(1, -1)"></path><path d="" fill="black" stroke="black" stroke-width="1" transform="translate(617, 0) scale(1, -1)"></path><path d="M283 49c87 0 136 77 136 115v163c0 66 -4 73 -44 73h-37v28c53 6 105 20 156 41l9 -4v-363c0 -64 3 -70 37 -72l41 -3v-30c-69 3 -69 3 -83 3c-15 0 -16 0 -83 -3c3 47 4 63 4 92l-67 -62c-27 -25 -67 -39 -112 -39c-136 0 -141 82 -141 171v168c0 66 -4 73 -44 73h-37 v28c53 6 105 20 156 41l9 -4v-295c0 -76 20 -121 100 -121" fill="black" stroke="black" stroke-width="1" transform="translate(866, 0) scale(1, -1)"></path></g></g><g><rect x="-666" y="-5661" width="1332" height="1740" rx="200" ry="200" fill="#FFFFFF" stroke="#000000" stroke-width="100"></rect><g transform="translate(-166, -4424)"><path d="M341 717v-77l-12 -6c-24 21 -42 28 -69 28c-57 0 -70 -28 -70 -143v-85l131 4l-7 -53h-124v-283c0 -63 3 -70 37 -72l46 -3v-30c-100 3 -100 3 -125 3s-25 0 -125 -3v30l46 3c34 2 37 9 37 72v283l-69 -4v22l69 31v42v2c0 77 57 259 168 259c21 0 43 -6 67 -20" fill="black" stroke="black" stroke-width="1" transform="translate(0, 0) scale(1, -1)"></path></g></g></g><g transform="translate(51240, -6648)"><path d="M 0 0 V 1200" fill="none" stroke="black" stroke-width="100"></path><path d="M 1815 -2904 V -1052 A 200 200 0 0 1 1615 -852 H 1215" fill="none" stroke="black" stroke-width="100"></path><path d="M -1815 -2904 V -1052 A 200 200 0 0 0 -1615 -852 H -1215" fill="none" stroke="black" stroke-width="100"></path><g><rect x="-1215" y="-1704" width="2430" height="1704" rx="200" ry="200" fill="#FFFFFF" stroke="#DB2828" stroke-width="100"></rect><g transform="translate(-715, -507)"><path d="M572 0h-526v39h388c19 0 34 16 34 53v253h-332v39h332v232c0 26 -20 42 -47 42h-364v39h515v-697" fill="black" stroke="black" stroke-width="1" transform="translate(0, 0) scale(1, -1)"></path><path d="" fill="black" stroke="black" stroke-width="1" transform="translate(617, 0) scale(1, -1)"></path><path d="M539 431l-31 -2c-20 -2 -34 -20 -56 -67l-159 -369h-50l-172 403c-11 25 -16 31 -31 33l-34 2v28c49 -2 97 -3 116 -3s19 0 117 3v-28l-49 -2c-16 -1 -25 -8 -25 -19s3 -24 9 -38l119 -288c38 83 92 217 104 246c12 30 19 57 19 73s-8 25 -24 26l-41 2v28 c60 -2 78 -3 94 -3s34 1 94 3v-28" fill="black" stroke="black" stroke-width="1" transform="translate(866, 0) scale(1, -1)"></path></g></g></g></svg>