<?xml version="1.0" encoding="UTF-8" standalone="no"?>
<svg
   xmlns:dc="http://purl.org/dc/elements/1.1/"
   xmlns:cc="http://creativecommons.org/ns#"
   xmlns:rdf="http://www.w3.org/1999/02/22-rdf-syntax-ns#"
   xmlns:svg="http://www.w3.org/2000/svg"
   xmlns="http://www.w3.org/2000/svg"
   xmlns:sodipodi="http://sodipodi.sourceforge.net/DTD/sodipodi-0.dtd"
   xmlns:inkscape="http://www.inkscape.org/namespaces/inkscape"
   width="186.01999"
   height="263.95999"
   viewBox="0 -15000 8780.3295 13198"
   id="svg5077"
   version="1.1"
   inkscape:version="0.48.4 r9939"
   sodipodi:docname="nesting.svg">
  <metadata
     id="metadata5367">
    <rdf:RDF>
      <cc:Work
         rdf:about="">
        <dc:format>image/svg+xml</dc:format>
        <dc:type
           rdf:resource="http://purl.org/dc/dcmitype/StillImage" />
      </cc:Work>
    </rdf:RDF>
  </metadata>
  <defs
     id="defs5365" />
  <sodipodi:namedview
     pagecolor="#ffffff"
     bordercolor="#666666"
     borderopacity="1"
     objecttolerance="10"
     gridtolerance="10"
     guidetolerance="10"
     inkscape:pageopacity="0"
     inkscape:pageshadow="2"
     inkscape:window-width="1855"
     inkscape:window-height="1056"
     id="namedview5363"
     showgrid="false"
     fit-margin-top="5"
     fit-margin-left="5"
     fit-margin-right="5"
     fit-margin-bottom="5"
     inkscape:zoom="1.69"
     inkscape:cx="198.7933"
     inkscape:cy="131.98"
     inkscape:window-x="65"
     inkscape:window-y="24"
     inkscape:window-maximized="1"
     inkscape:current-layer="svg5077" />
  <g
     transform="translate(3288.6649,-3302)"
     id="g5159">
    <g
       id="g5161">
      <rect
         x="-3249"
         y="-10198"
         width="8701"
         height="10198"
         rx="200"
         ry="200"
         id="rect5163"
         style="fill:#ffffff;stroke:#000000;stroke-width:100" />
      <g
         transform="translate(4352,-1100)"
         id="g5165" />
    </g>
    <g
       id="g5167">
      <rect
         x="-2649"
         y="-5217"
         width="6725"
         height="3717"
         rx="200"
         ry="200"
         id="rect5169"
         style="fill:#ffffff;stroke:#000000;stroke-width:100" />
      <g
         transform="translate(2976,-2600)"
         id="g5171" />
    </g>
    <g
       id="g5173">
      <rect
         x="-1349"
         y="-9498"
         width="2849"
         height="3681"
         rx="200"
         ry="200"
         id="rect5175"
         style="fill:#ffffff;stroke:#000000;stroke-width:100" />
      <g
         transform="translate(400,-6917)"
         id="g5177" />
    </g>
    <g
       id="g5179">
      <path
         d="M 0,-3000 V 1200"
         id="path5181"
         inkscape:connector-curvature="0"
         style="fill:none;stroke:#000000;stroke-width:100" />
    </g>
    <g
       id="g5183">
      <path
         d="m 3576,-5817 v 1858 a 200,200 0 0 1 -200,200 H 721"
         id="path5185"
         inkscape:connector-curvature="0"
         style="fill:none;stroke:#000000;stroke-width:100" />
    </g>
    <g
       id="g5187">
      <path
         d="m 4952,-11398 v 4504 a 200,200 0 0 1 -200,200 h -400"
         id="path5189"
         inkscape:connector-curvature="0"
         style="fill:none;stroke:#000000;stroke-width:100" />
    </g>
    <g
       id="g5191">
      <path
         d="m 2200,-11398 v 4504 a 200,200 0 0 0 200,200 h 400"
         id="path5193"
         inkscape:connector-curvature="0"
         style="fill:none;stroke:#000000;stroke-width:100" />
    </g>
    <g
       id="g5195">
      <path
         d="m 0,-7317 v 2800"
         id="path5197"
         inkscape:connector-curvature="0"
         style="fill:none;stroke:#000000;stroke-width:100" />
    </g>
    <g
       id="g5199">
      <path
         d="m -2049,-11398 v 7439 a 200,200 0 0 0 200,200 h 1128"
         id="path5201"
         inkscape:connector-curvature="0"
         style="fill:none;stroke:#000000;stroke-width:100" />
    </g>
    <g
       id="g5203">
      <rect
         x="-721"
         y="-4517"
         width="1442"
         height="1517"
         rx="200"
         ry="200"
         id="rect5205"
         style="fill:#ffffff;stroke:#000000;stroke-width:100" />
      <g
         transform="translate(-222,-3520)"
         id="g5207">
        <path
           d="m 399,311 h -28 l -7,61 c -18,25 -66,45 -110,45 -90,0 -140,-60 -140,-167 0,-132 73,-218 184,-218 36,0 68,9 105,29 L 413,46 392,14 C 382,-1 307,-20 255,-20 121,-20 26,75 26,210 c 0,5 -1,9 -1,14 0,137 144,273 268,273 45,0 88,-19 120,-63 -9,-36 -14,-77 -14,-123"
           transform="scale(1,-1)"
           id="path5209"
           inkscape:connector-curvature="0"
           style="fill:#000000;stroke:#000000;stroke-width:1" />
      </g>
    </g>
    <g
       id="g5211">
      <rect
         x="2800"
         y="-7571"
         width="1552"
         height="1754"
         rx="200"
         ry="200"
         id="rect5213"
         style="fill:#ffffff;stroke:#000000;stroke-width:100" />
      <g
         transform="translate(3300,-6345)"
         id="g5215">
        <path
           d="M 150,718 V 369 c 32,77 98,116 165,116 89,0 180,-71 193,-215 v -8 C 508,128 432,-28 280,-28 232,-28 177,-12 114,24 L 74,-12 58,-6 c 7,70 8,97 8,159 v 467 c 0,30 -7,41 -25,41 h -56 v 28 c 79,12 112,20 156,37 z M 284,404 C 206,404 150,343 150,308 V 93 c 0,-22 74,-54 126,-54 85,0 145,78 145,190 0,107 -53,175 -137,175"
           transform="scale(1,-1)"
           id="path5217"
           inkscape:connector-curvature="0"
           style="fill:#000000;stroke:#000000;stroke-width:1" />
      </g>
    </g>
    <g
       id="g5219">
      <rect
         x="-749"
         y="-8798"
         width="1498"
         height="1481"
         rx="200"
         ry="200"
         id="rect5221"
         style="fill:#ffffff;stroke:#000000;stroke-width:100" />
      <g
         transform="translate(-250,-7829)"
         id="g5223">
        <path
           d="M 324,82 200,-4 c -7,-5 -24,-8 -42,-8 -79,0 -126,45 -126,123 0,87 57,134 193,159 l 99,18 c -3,91 -42,128 -136,128 -46,0 -56,-7 -77,-54 l -13,-31 -26,7 v 65 l 53,32 c 38,23 78,34 121,34 116,0 158,-53 158,-199 V 87 c 0,-49 4,-57 28,-58 l 39,-2 V -3 c -44,2 -69,3 -74,3 -13,0 -13,0 -78,-3 z m 0,42 v 132 c -76,-11 -131,-25 -156,-40 -30,-19 -50,-54 -50,-91 0,-43 35,-80 75,-80 39,0 102,38 131,79"
           transform="scale(1,-1)"
           id="path5225"
           inkscape:connector-curvature="0"
           style="fill:#000000;stroke:#000000;stroke-width:1" />
      </g>
    </g>
  </g>
</svg>
