<?xml version="1.0" encoding="UTF-8" standalone="no"?>
<svg
   xmlns:dc="http://purl.org/dc/elements/1.1/"
   xmlns:cc="http://creativecommons.org/ns#"
   xmlns:rdf="http://www.w3.org/1999/02/22-rdf-syntax-ns#"
   xmlns:svg="http://www.w3.org/2000/svg"
   xmlns="http://www.w3.org/2000/svg"
   xmlns:sodipodi="http://sodipodi.sourceforge.net/DTD/sodipodi-0.dtd"
   xmlns:inkscape="http://www.inkscape.org/namespaces/inkscape"
   width="393.16"
   height="313.38"
   viewBox="0 -15000 18501.323 15669"
   id="svg4404"
   version="1.1"
   inkscape:version="0.48.4 r9939"
   sodipodi:docname="newzoom.svg">
  <metadata
     id="metadata4712">
    <rdf:RDF>
      <cc:Work
         rdf:about="">
        <dc:format>image/svg+xml</dc:format>
        <dc:type
           rdf:resource="http://purl.org/dc/dcmitype/StillImage" />
      </cc:Work>
    </rdf:RDF>
  </metadata>
  <defs
     id="defs4710" />
  <sodipodi:namedview
     pagecolor="#ffffff"
     bordercolor="#666666"
     borderopacity="1"
     objecttolerance="10"
     gridtolerance="10"
     guidetolerance="10"
     inkscape:pageopacity="0"
     inkscape:pageshadow="2"
     inkscape:window-width="1855"
     inkscape:window-height="1056"
     id="namedview4708"
     showgrid="false"
     fit-margin-top="20"
     fit-margin-left="20"
     fit-margin-right="20"
     fit-margin-bottom="20"
     inkscape:zoom="1.6518014"
     inkscape:cx="207.43323"
     inkscape:cy="156.7"
     inkscape:window-x="65"
     inkscape:window-y="24"
     inkscape:window-maximized="1"
     inkscape:current-layer="svg4404" />
  <g
     transform="translate(3720.6615,-1983)"
     id="g4486">
    <g
       id="g4488">
      <rect
         x="-3249"
         y="-10365"
         width="8711"
         height="10365"
         rx="200"
         ry="200"
         id="rect4490"
         style="fill:#ffffff;stroke:#000000;stroke-width:100" />
      <g
         transform="translate(4630,-503)"
         id="g4492">
        <path
           d="m 341,717 v -77 l -12,-6 c -24,21 -42,28 -69,28 -57,0 -70,-28 -70,-143 v -85 l 131,4 -7,-53 H 190 V 102 c 0,-63 3,-70 37,-72 l 46,-3 V -3 C 173,0 173,0 148,0 123,0 123,0 23,-3 v 30 l 46,3 c 34,2 37,9 37,72 v 283 l -69,-4 v 22 l 69,31 v 42 2 c 0,77 57,259 168,259 21,0 43,-6 67,-20"
           transform="scale(1,-1)"
           id="path4494"
           inkscape:connector-curvature="0"
           style="fill:#000000;stroke:#000000;stroke-width:1" />
      </g>
    </g>
    <g
       id="g4496">
      <rect
         x="-2649"
         y="-5246"
         width="6735"
         height="3606"
         rx="200"
         ry="200"
         id="rect4498"
         style="fill:#ffffff;stroke:#000000;stroke-width:100" />
      <g
         transform="translate(3108,-2160)"
         id="g4500">
        <path
           d="m 250,-20 c -89,0 -224,45 -224,239 0,104 32,173 114,221 40,24 85,29 122,29 112,0 186,-75 186,-190 0,-12 -1,-21 -2,-35 -47,-10 -156,-18 -242,-18 -34,0 -64,1 -85,4 2,-58 9,-86 28,-119 28,-49 82,-78 147,-78 43,0 66,9 130,47 L 437,70 417,36 C 405,18 315,-20 250,-20 z m 109,287 c -3,67 -10,96 -32,129 -18,27 -44,40 -77,40 -48,0 -91,-27 -112,-71 -13,-26 -17,-48 -17,-95 26,-6 69,-9 112,-9 51,0 102,3 126,6"
           transform="scale(1,-1)"
           id="path4502"
           inkscape:connector-curvature="0"
           style="fill:#000000;stroke:#000000;stroke-width:1" />
      </g>
    </g>
    <g
       id="g4504">
      <rect
         x="-1349"
         y="-9665"
         width="2859"
         height="3819"
         rx="200"
         ry="200"
         id="rect4506"
         style="fill:#ffffff;stroke:#000000;stroke-width:100" />
      <g
         transform="translate(400,-6358)"
         id="g4508">
        <path
           d="m 579,-3 c -9,0 -73,3 -91,3 -12,0 -28,-1 -77,-3 l 5,92 -111,-93 c -5,-4 -28,-8 -48,-8 -65,0 -112,13 -146,42 -49,40 -77,119 -77,199 0,122 149,257 272,257 40,0 78,-14 106,-49 v 183 c 0,30 -7,41 -25,41 h -56 v 28 c 79,12 112,20 156,37 l 9,-8 V 102 c 0,-63 3,-70 37,-72 l 46,-3 V -3 z M 412,350 c 0,16 -67,72 -146,72 -90,0 -144,-64 -144,-173 0,-119 63,-204 151,-204 47,0 96,31 124,78 13,23 15,33 15,98 v 129"
           transform="scale(1,-1)"
           id="path4510"
           inkscape:connector-curvature="0"
           style="fill:#000000;stroke:#000000;stroke-width:1" />
      </g>
    </g>
    <g
       id="g4512">
      <path
         d="M 0,-3029 V 1200"
         id="path4514"
         inkscape:connector-curvature="0"
         style="fill:none;stroke:#000000;stroke-width:100" />
    </g>
    <g
       id="g4516">
      <path
         d="m 3586,-5846 v 1858 a 200,200 0 0 1 -200,200 H 721"
         id="path4518"
         inkscape:connector-curvature="0"
         style="fill:none;stroke:#000000;stroke-width:100" />
    </g>
    <g
       id="g4520">
      <path
         d="m 4962,-11565 v 4642 a 200,200 0 0 1 -200,200 h -400"
         id="path4522"
         inkscape:connector-curvature="0"
         style="fill:none;stroke:#000000;stroke-width:100" />
    </g>
    <g
       id="g4524">
      <path
         d="m 2210,-11565 v 4642 a 200,200 0 0 0 200,200 h 400"
         id="path4526"
         inkscape:connector-curvature="0"
         style="fill:none;stroke:#000000;stroke-width:100" />
    </g>
    <g
       id="g4528">
      <path
         d="m 0,-7484 v 2938"
         id="path4530"
         inkscape:connector-curvature="0"
         style="fill:none;stroke:#000000;stroke-width:100" />
    </g>
    <g
       id="g4532">
      <path
         d="m -2049,-11565 v 7577 a 200,200 0 0 0 200,200 h 1128"
         id="path4534"
         inkscape:connector-curvature="0"
         style="fill:none;stroke:#000000;stroke-width:100" />
    </g>
    <g
       id="g4536">
      <rect
         x="-721"
         y="-4546"
         width="1442"
         height="1517"
         rx="200"
         ry="200"
         id="rect4538"
         style="fill:#ffffff;stroke:#000000;stroke-width:100" />
      <g
         transform="translate(-222,-3549)"
         id="g4540">
        <path
           d="m 399,311 h -28 l -7,61 c -18,25 -66,45 -110,45 -90,0 -140,-60 -140,-167 0,-132 73,-218 184,-218 36,0 68,9 105,29 L 413,46 392,14 C 382,-1 307,-20 255,-20 121,-20 26,75 26,210 c 0,5 -1,9 -1,14 0,137 144,273 268,273 45,0 88,-19 120,-63 -9,-36 -14,-77 -14,-123"
           transform="scale(1,-1)"
           id="path4542"
           inkscape:connector-curvature="0"
           style="fill:#000000;stroke:#000000;stroke-width:1" />
      </g>
    </g>
    <g
       id="g4544">
      <rect
         x="2810"
         y="-7600"
         width="1552"
         height="1754"
         rx="200"
         ry="200"
         id="rect4546"
         style="fill:#ffffff;stroke:#000000;stroke-width:100" />
      <g
         transform="translate(3310,-6374)"
         id="g4548">
        <path
           d="M 150,718 V 369 c 32,77 98,116 165,116 89,0 180,-71 193,-215 v -8 C 508,128 432,-28 280,-28 232,-28 177,-12 114,24 L 74,-12 58,-6 c 7,70 8,97 8,159 v 467 c 0,30 -7,41 -25,41 h -56 v 28 c 79,12 112,20 156,37 z M 284,404 C 206,404 150,343 150,308 V 93 c 0,-22 74,-54 126,-54 85,0 145,78 145,190 0,107 -53,175 -137,175"
           transform="scale(1,-1)"
           id="path4550"
           inkscape:connector-curvature="0"
           style="fill:#000000;stroke:#000000;stroke-width:1" />
      </g>
    </g>
    <g
       id="g4552">
      <rect
         x="-749"
         y="-8965"
         width="1498"
         height="1481"
         rx="200"
         ry="200"
         id="rect4554"
         style="fill:#ffffff;stroke:#000000;stroke-width:100" />
      <g
         transform="translate(-250,-7996)"
         id="g4556">
        <path
           d="M 324,82 200,-4 c -7,-5 -24,-8 -42,-8 -79,0 -126,45 -126,123 0,87 57,134 193,159 l 99,18 c -3,91 -42,128 -136,128 -46,0 -56,-7 -77,-54 l -13,-31 -26,7 v 65 l 53,32 c 38,23 78,34 121,34 116,0 158,-53 158,-199 V 87 c 0,-49 4,-57 28,-58 l 39,-2 V -3 c -44,2 -69,3 -74,3 -13,0 -13,0 -78,-3 z m 0,42 v 132 c -76,-11 -131,-25 -156,-40 -30,-19 -50,-54 -50,-91 0,-43 35,-80 75,-80 39,0 102,38 131,79"
           transform="scale(1,-1)"
           id="path4558"
           inkscape:connector-curvature="0"
           style="fill:#000000;stroke:#000000;stroke-width:1" />
      </g>
    </g>
  </g>
  <g
     transform="translate(14076.662,-1581)"
     id="g4560">
    <g
       id="g4562">
      <rect
         x="-2894"
         y="-11169"
         width="6847"
         height="11169"
         rx="200"
         ry="200"
         id="rect4564"
         style="fill:#ffffff;stroke:#000000;stroke-width:100" />
      <g
         transform="translate(2949,-649)"
         id="g4566">
        <path
           d="m 509,26 c 12,-79 -96,-162 -164,-175 -19,12 -36,28 -53,41 l 3,8 c 16,-3 31,-4 47,-4 43,0 133,33 124,86 C 463,2 438,4 423,4 378,4 333,-5 287,-5 162,-5 87,63 67,187 40,360 118,531 232,638 l -5,5 c -22,-1 -44,-3 -66,-3 -30,0 -66,4 -94,25 l 2,19 30,21 12,-1 c 17,-37 69,-41 101,-41 62,0 120,24 171,49 l 15,-7 C 395,688 392,672 387,656 174,643 97,427 127,232 147,105 205,56 331,56 c 42,0 81,9 122,9 25,0 51,-9 56,-39"
           transform="scale(1,-1)"
           id="path4568"
           inkscape:connector-curvature="0"
           style="fill:#000000;stroke:#000000;stroke-width:1" />
      </g>
    </g>
    <g
       id="g4570">
      <rect
         x="-2097"
         y="-5588"
         width="4653"
         height="3827"
         rx="200"
         ry="200"
         id="rect4572"
         style="fill:#ffffff;stroke:#000000;stroke-width:100" />
      <g
         transform="translate(1576,-2274)"
         id="g4574">
        <path
           d="m 161,146 c 0,-70 58,-116 135,-116 45,0 89,14 132,42 l 8,-5 -15,-26 C 371,5 318,-13 262,-13 160,-13 69,37 69,132 c 0,65 48,106 143,123 v 9 c -70,12 -105,45 -105,97 0,72 58,107 174,107 59,0 105,-13 138,-40 -16,-27 -29,-49 -38,-68 l -11,5 c -5,55 -36,83 -92,83 -55,0 -93,-36 -93,-90 0,-44 22,-86 98,-86 22,0 44,3 68,7 l 5,-6 c -3,-13 -6,-23 -8,-30 l -10,-6 c -23,6 -45,9 -66,9 -44,0 -111,-20 -111,-100"
           transform="scale(1,-1)"
           id="path4576"
           inkscape:connector-curvature="0"
           style="fill:#000000;stroke:#000000;stroke-width:1" />
      </g>
    </g>
    <g
       id="g4578">
      <rect
         x="700"
         y="-10469"
         width="2753"
         height="4281"
         rx="200"
         ry="200"
         id="rect4580"
         style="fill:#ffffff;stroke:#000000;stroke-width:100" />
      <g
         transform="translate(2456,-6704)"
         id="g4582">
        <path
           d="M 465,287 C 489,139 403,-16 246,-16 133,-16 78,53 61,160 38,304 108,426 246,458 v 6 c -47,29 -126,75 -135,133 -13,79 102,105 163,105 25,0 50,-3 75,-8 8,-13 14,-27 19,-39 l -9,-6 c -33,19 -68,30 -103,30 -35,0 -85,-15 -78,-57 C 196,506 436,470 465,287 z M 393,269 C 380,350 339,399 268,448 141,411 116,295 137,167 148,99 183,12 267,12 385,12 408,174 393,269"
           transform="scale(1,-1)"
           id="path4584"
           inkscape:connector-curvature="0"
           style="fill:#000000;stroke:#000000;stroke-width:1" />
      </g>
    </g>
    <g
       id="g4586">
      <path
         d="M 0,-3142 V 1200"
         id="path4588"
         inkscape:connector-curvature="0"
         style="fill:none;stroke:#000000;stroke-width:100" />
    </g>
    <g
       id="g4590">
      <path
         d="m 2056,-7806 v 3591 a 200,200 0 0 1 -200,200 H 790"
         id="path4592"
         inkscape:connector-curvature="0"
         style="fill:none;stroke:#000000;stroke-width:100" />
    </g>
    <g
       id="g4594">
      <path
         d="m 2056,-12369 v 2600"
         id="path4596"
         inkscape:connector-curvature="0"
         style="fill:none;stroke:#000000;stroke-width:100" />
    </g>
    <g
       id="g4598">
      <path
         d="m 0,-12369 v 7481"
         id="path4600"
         inkscape:connector-curvature="0"
         style="fill:none;stroke:#000000;stroke-width:100" />
    </g>
    <g
       id="g4602">
      <path
         d="m -1497,-6188 v 1973 a 200,200 0 0 0 200,200 h 507"
         id="path4604"
         inkscape:connector-curvature="0"
         style="fill:none;stroke:#000000;stroke-width:100" />
    </g>
    <g
       id="g4606">
      <path
         d="m -1497,-12369 v 4692"
         id="path4608"
         inkscape:connector-curvature="0"
         style="fill:none;stroke:#000000;stroke-width:100" />
    </g>
    <g
       id="g4610">
      <rect
         x="-790"
         y="-4888"
         width="1580"
         height="1746"
         rx="200"
         ry="200"
         id="rect4612"
         style="fill:#ffffff;stroke:#000000;stroke-width:100" />
      <g
         transform="translate(-291,-3915)"
         id="g4614">
        <path
           d="m 88,473 c 88,0 171,-80 146,-450 l 6,-4 c 48,89 192,260 176,366 -3,16 -10,34 -16,50 l 4,11 c 16,7 47,21 64,21 16,0 18,-17 20,-29 C 501,353 427,254 383,194 329,120 275,43 227,-36 c -2,-70 -12,-147 -26,-215 -19,-9 -38,-17 -58,-22 -5,8 -11,16 -16,24 15,68 46,163 82,220 2,82 -2,165 -16,249 -11,70 -42,192 -137,192 -37,0 -54,-18 -73,-46 l -6,-1 c -3,3 -7,6 -8,12 25,49 54,96 119,96"
           transform="scale(1,-1)"
           id="path4616"
           inkscape:connector-curvature="0"
           style="fill:#000000;stroke:#000000;stroke-width:1" />
      </g>
    </g>
    <g
       id="g4618">
      <rect
         x="1300"
         y="-9769"
         width="1512"
         height="1963"
         rx="200"
         ry="200"
         id="rect4620"
         style="fill:#ffffff;stroke:#000000;stroke-width:100" />
      <g
         transform="translate(1800,-8589)"
         id="g4622">
        <path
           d="M 458,205 C 478,80 382,-15 261,-15 c -44,0 -89,13 -127,44 3,-95 6,-191 17,-288 -26,-6 -50,-15 -74,-24 l -9,10 c 11,186 6,375 5,562 0,150 -15,306 135,372 28,12 57,19 88,19 64,0 103,-36 113,-99 C 426,479 355,400 268,369 l 1,-9 c 91,-2 174,-59 189,-155 z m -82,3 c -13,83 -70,131 -152,131 -17,0 -32,-3 -47,-10 l -9,8 c 4,10 5,22 6,34 106,0 187,75 169,187 -7,48 -37,88 -89,88 -19,0 -37,-6 -52,-17 -80,-56 -77,-424 -61,-526 9,-58 51,-91 108,-91 106,0 142,103 127,196"
           transform="scale(1,-1)"
           id="path4624"
           inkscape:connector-curvature="0"
           style="fill:#000000;stroke:#000000;stroke-width:1" />
      </g>
    </g>
    <g
       id="g4626">
      <rect
         x="-2294"
         y="-7677"
         width="1594"
         height="1489"
         rx="200"
         ry="200"
         id="rect4628"
         style="fill:#ffffff;stroke:#000000;stroke-width:100" />
      <g
         transform="translate(-1794,-6704)"
         id="g4630">
        <path
           d="m 562,97 c 5,-3 8,-6 9,-13 C 545,54 489,-16 443,-16 392,-16 381,95 375,128 l -3,3 C 324,64 246,-16 154,-16 86,-16 57,33 48,93 24,243 121,473 289,473 401,473 403,337 414,260 l 7,-3 c 26,58 61,134 63,202 h 11 c 11,-15 21,-31 30,-46 -25,-70 -60,-135 -99,-197 6,-32 22,-161 67,-161 27,0 46,24 62,42 h 7 z m -194,67 -4,28 c -9,60 -30,245 -117,245 -109,0 -142,-235 -128,-322 7,-45 25,-87 78,-87 71,0 137,85 171,136"
           transform="scale(1,-1)"
           id="path4632"
           inkscape:connector-curvature="0"
           style="fill:#000000;stroke:#000000;stroke-width:1" />
      </g>
    </g>
  </g>
</svg>
