<?xml version="1.0" encoding="UTF-8" standalone="no"?>
<svg
   xmlns:dc="http://purl.org/dc/elements/1.1/"
   xmlns:cc="http://creativecommons.org/ns#"
   xmlns:rdf="http://www.w3.org/1999/02/22-rdf-syntax-ns#"
   xmlns:svg="http://www.w3.org/2000/svg"
   xmlns="http://www.w3.org/2000/svg"
   xmlns:sodipodi="http://sodipodi.sourceforge.net/DTD/sodipodi-0.dtd"
   xmlns:inkscape="http://www.inkscape.org/namespaces/inkscape"
   width="370.34003"
   height="314.73535"
   viewBox="0 -15000 17427.461 15736.767"
   id="svg4404"
   version="1.1"
   inkscape:version="0.48.4 r9939"
   sodipodi:docname="newzoomreveal.svg">
  <metadata
     id="metadata4712">
    <rdf:RDF>
      <cc:Work
         rdf:about="">
        <dc:format>image/svg+xml</dc:format>
        <dc:type
           rdf:resource="http://purl.org/dc/dcmitype/StillImage" />
        <dc:title></dc:title>
      </cc:Work>
    </rdf:RDF>
  </metadata>
  <defs
     id="defs4710" />
  <sodipodi:namedview
     pagecolor="#ffffff"
     bordercolor="#666666"
     borderopacity="1"
     objecttolerance="10"
     gridtolerance="10"
     guidetolerance="10"
     inkscape:pageopacity="0"
     inkscape:pageshadow="2"
     inkscape:window-width="1855"
     inkscape:window-height="1056"
     id="namedview4708"
     showgrid="false"
     fit-margin-top="20"
     fit-margin-left="20"
     fit-margin-right="20"
     fit-margin-bottom="20"
     inkscape:zoom="3.3036029"
     inkscape:cx="196.02441"
     inkscape:cy="130.85935"
     inkscape:window-x="65"
     inkscape:window-y="24"
     inkscape:window-maximized="1"
     inkscape:current-layer="svg4404" />
  <rect
     x="505.23013"
     y="-12280.233"
     width="8711"
     height="10365"
     rx="200"
     ry="200"
     id="rect4490"
     style="fill:#ffffff;stroke:#000000;stroke-width:100" />
  <path
     style="fill:#000000;stroke:#000000;stroke-width:1"
     inkscape:connector-curvature="0"
     id="path4494"
     d="m 8725.2302,-3135.233 v 77 l -12,6 c -24,-21 -42,-28 -69,-28 -57,0 -70,28 -70,143 v 85 l 131,-4 -7,53 h -124 v 283 c 0,63 3,70 37,72 l 46,3 v 30 c -100,-3 -100,-3 -125,-3 -25,0 -25,0 -125,3 v -30 l 46,-3 c 34,-2 37,-9 37,-72 v -283 l -69,4 v -22 l 69,-31 v -42 -2 c 0,-77 57,-259 168,-259 21,0 43,6 67,20" />
  <rect
     x="1105.2301"
     y="-7161.2329"
     width="6735"
     height="3606"
     rx="200"
     ry="200"
     id="rect4498"
     style="fill:#ffffff;stroke:#000000;stroke-width:100" />
  <path
     style="fill:#000000;stroke:#000000;stroke-width:1"
     inkscape:connector-curvature="0"
     id="path4502"
     d="m 7112.2302,-4055.233 c -89,0 -224,-45 -224,-239 0,-104 32,-173 114,-221 40,-24 85,-29 122,-29 112,0 186,75 186,190 0,12 -1,21 -2,35 -47,10 -156,18 -242,18 -34,0 -64,-1 -85,-4 2,58 9,86 28,119 28,49 82,78 147,78 43,0 66,-9 130,-47 l 13,10 -20,34 c -12,18 -102,56 -167,56 z m 109,-287 c -3,-67 -10,-96 -32,-129 -18,-27 -44,-40 -77,-40 -48,0 -91,27 -112,71 -13,26 -17,48 -17,95 26,6 69,9 112,9 51,0 102,-3 126,-6" />
  <rect
     x="2405.23"
     y="-11580.233"
     width="2859"
     height="3819"
     rx="200"
     ry="200"
     id="rect4506"
     style="fill:#ffffff;stroke:#000000;stroke-width:100" />
  <path
     style="fill:#000000;stroke:#000000;stroke-width:1"
     inkscape:connector-curvature="0"
     id="path4510"
     d="m 4733.2302,-8270.233 c -9,0 -73,-3 -91,-3 -12,0 -28,1 -77,3 l 5,-92 -111,93 c -5,4 -28,8 -48,8 -65,0 -112,-13 -146,-42 -49,-40 -77,-119 -77,-199 0,-122 149,-257 272,-257 40,0 78,14 106,49 v -183 c 0,-30 -7,-41 -25,-41 h -56 v -28 c 79,-12 112,-20 156,-37 l 9,8 v 616 c 0,63 3,70 37,72 l 46,3 v 30 z m -167,-353 c 0,-16 -67,-72 -146,-72 -90,0 -144,64 -144,173 0,119 63,204 151,204 47,0 96,-31 124,-78 13,-23 15,-33 15,-98 v -129" />
  <rect
     x="3033.23"
     y="-6461.2329"
     width="1442"
     height="1517"
     rx="200"
     ry="200"
     id="rect4538"
     style="fill:#ffffff;stroke:#000000;stroke-width:100" />
  <path
     style="fill:#000000;stroke:#000000;stroke-width:1"
     inkscape:connector-curvature="0"
     id="path4542"
     d="m 3931.2302,-5775.233 h -28 l -7,-61 c -18,-25 -66,-45 -110,-45 -90,0 -140,60 -140,167 0,132 73,218 184,218 36,0 68,-9 105,-29 l 10,15 -21,32 c -10,15 -85,34 -137,34 -134,0 -229,-95 -229,-230 0,-5 -1,-9 -1,-14 0,-137 144,-273 268,-273 45,0 88,19 120,63 -9,36 -14,77 -14,123" />
  <rect
     x="6564.23"
     y="-9515.2334"
     width="1552"
     height="1754"
     rx="200"
     ry="200"
     id="rect4546"
     style="fill:#ffffff;stroke:#000000;stroke-width:100" />
  <path
     style="fill:#000000;stroke:#000000;stroke-width:1"
     inkscape:connector-curvature="0"
     id="path4550"
     d="m 7214.2302,-9007.233 v 349 c 32,-77 98,-116 165,-116 89,0 180,71 193,215 v 8 c 0,134 -76,290 -228,290 -48,0 -103,-16 -166,-52 l -40,36 -16,-6 c 7,-70 8,-97 8,-159 v -467 c 0,-30 -7,-41 -25,-41 h -56 v -28 c 79,-12 112,-20 156,-37 z m 134,314 c -78,0 -134,61 -134,96 v 215 c 0,22 74,54 126,54 85,0 145,-78 145,-190 0,-107 -53,-175 -137,-175" />
  <rect
     x="3005.23"
     y="-10880.233"
     width="1498"
     height="1481"
     rx="200"
     ry="200"
     id="rect4554"
     style="fill:#ffffff;stroke:#000000;stroke-width:100" />
  <path
     style="fill:#000000;stroke:#000000;stroke-width:1"
     inkscape:connector-curvature="0"
     id="path4558"
     d="m 3828.2302,-9993.233 -124,86 c -7,5 -24,8 -42,8 -79,0 -126,-45 -126,-123 0,-87 57,-134 193,-159 l 99,-18 c -3,-91 -42,-128 -136,-128 -46,0 -56,7 -77,54 l -13,31 -26,-7 v -65 l 53,-32 c 38,-23 78,-34 121,-34 116,0 158,53 158,199 v 183 c 0,49 4,57 28,58 l 39,2 v 30 c -44,-2 -69,-3 -74,-3 -13,0 -13,0 -78,3 z m 0,-42 v -132 c -76,11 -131,25 -156,40 -30,19 -50,54 -50,91 0,43 35,80 75,80 39,0 102,-38 131,-79" />
  <path
     d="M 14110.231,-4655.233 V -313.23306"
     id="path4588"
     inkscape:connector-curvature="0"
     style="fill:none;stroke:#000000;stroke-width:100" />
  <path
     d="m 16166.231,-9319.233 v 3591 a 200,200 0 0 1 -200,200 h -1066"
     id="path4592"
     inkscape:connector-curvature="0"
     style="fill:none;stroke:#000000;stroke-width:100" />
  <path
     d="m 16166.231,-13882.233 v 2600"
     id="path4596"
     inkscape:connector-curvature="0"
     style="fill:none;stroke:#000000;stroke-width:100" />
  <path
     d="m 14110.231,-13882.233 v 7481"
     id="path4600"
     inkscape:connector-curvature="0"
     style="fill:none;stroke:#000000;stroke-width:100" />
  <path
     d="m 12613.231,-7701.233 v 1973 a 200,200 0 0 0 200,200 h 507"
     id="path4604"
     inkscape:connector-curvature="0"
     style="fill:none;stroke:#000000;stroke-width:100" />
  <path
     d="m 12613.231,-13882.233 v 4692"
     id="path4608"
     inkscape:connector-curvature="0"
     style="fill:none;stroke:#000000;stroke-width:100" />
  <rect
     x="13320.23"
     y="-6401.2329"
     width="1580"
     height="1746"
     rx="200"
     ry="200"
     id="rect4612"
     style="fill:#ffffff;stroke:#000000;stroke-width:100" />
  <rect
     x="15410.23"
     y="-11282.233"
     width="1512"
     height="1963"
     rx="200"
     ry="200"
     id="rect4620"
     style="fill:#ffffff;stroke:#000000;stroke-width:100" />
  <rect
     x="11816.23"
     y="-9190.2334"
     width="1594"
     height="1489"
     rx="200"
     ry="200"
     id="rect4628"
     style="fill:#ffffff;stroke:#000000;stroke-width:100" />
  <path
     style="fill:#000000;stroke:#000000;stroke-width:0.99999994"
     inkscape:connector-curvature="0"
     id="path4558-5"
     d="m 12688.423,-14305.514 -124,86 c -7,5 -24,8 -42,8 -79,0 -126,-45 -126,-123 0,-87 57,-134 193,-159 l 99,-18 c -3,-91 -42,-128 -136,-128 -46,0 -56,7 -77,54 l -13,31 -26,-7 v -65 l 53,-32 c 38,-23 78,-34 121,-34 116,0 158,53 158,199 v 183 c 0,49 4,57 28,58 l 39,2 v 30 c -44,-2 -69,-3 -74,-3 -13,0 -13,0 -78,3 z m 0,-42 v -132 c -76,11 -131,25 -156,40 -30,19 -50,54 -50,91 0,43 35,80 75,80 39,0 102,-38 131,-79" />
  <path
     style="fill:#000000;stroke:#000000;stroke-width:0.99999994"
     inkscape:connector-curvature="0"
     id="path4510-1"
     d="m 12283.023,-5586.1494 c -9,0 -73,-3 -91,-3 -12,0 -28,1 -77,3 l 5,-92 -111,93 c -5,4 -28,8 -48,8 -65,0 -112,-13 -146,-42 -49,-40 -77,-119 -77,-199 0,-122 149,-257 272,-257 40,0 78,14 106,49 v -183 c 0,-30 -7,-41 -25,-41 h -56 v -28 c 79,-12 112,-20 156,-37 l 9,8 v 616 c 0,63 3,70 37,72 l 46,3 v 30 z m -167,-353 c 0,-16 -67,-72 -146,-72 -90,0 -144,64 -144,173 0,119 63,204 151,204 47,0 96,-31 124,-78 13,-23 15,-33 15,-98 v -129" />
  <path
     style="fill:#000000;stroke:#000000;stroke-width:0.99999994"
     inkscape:connector-curvature="0"
     id="path4550-8"
     d="m 14032.922,-14896.975 v 349 c 32,-77 98,-116 165,-116 89,0 180,71 193,215 v 8 c 0,134 -76,290 -228,290 -48,0 -103,-16 -166,-52 l -40,36 -16,-6 c 7,-70 8,-97 8,-159 v -467 c 0,-30 -7,-41 -25,-41 h -56 v -28 c 79,-12 112,-20 156,-37 z m 134,314 c -78,0 -134,61 -134,96 v 215 c 0,22 74,54 126,54 85,0 145,-78 145,-190 0,-107 -53,-175 -137,-175" />
  <path
     style="fill:#000000;stroke:#000000;stroke-width:0.99999994"
     inkscape:connector-curvature="0"
     id="path4542-0"
     d="m 16352.646,-14466.839 h -28 l -7,-61 c -18,-25 -66,-45 -110,-45 -90,0 -140,60 -140,167 0,132 73,218 184,218 36,0 68,-9 105,-29 l 10,15 -21,32 c -10,15 -85,34 -137,34 -134,0 -229,-95 -229,-230 0,-5 -1,-9 -1,-14 0,-137 144,-273 268,-273 45,0 88,19 120,63 -9,36 -14,77 -14,123" />
  <path
     style="fill:#000000;stroke:#000000;stroke-width:0.99999994"
     inkscape:connector-curvature="0"
     id="path4502-9"
     d="m 16685.101,-5577.1494 c -89,0 -224,-45 -224,-239 0,-104 32,-173 114,-221 40,-24 85,-29 122,-29 112,0 186,75 186,190 0,12 -1,21 -2,35 -47,10 -156,18 -242,18 -34,0 -64,-1 -85,-4 2,58 9,86 28,119 28,49 82,78 147,78 43,0 66,-9 130,-47 l 13,10 -20,34 c -12,18 -102,56 -167,56 z m 109,-287 c -3,-67 -10,-96 -32,-129 -18,-27 -44,-40 -77,-40 -48,0 -91,27 -112,71 -13,26 -17,48 -17,95 26,6 69,9 112,9 51,0 102,-3 126,-6" />
  <path
     style="fill:#000000;stroke:#000000;stroke-width:0.99999994"
     inkscape:connector-curvature="0"
     id="path4494-3"
     d="m 14258.152,-75.668174 v 77 l -12,6 c -24,-21 -42,-28 -69,-28 -57,0 -70,28 -70,142.999944 v 85 l 131,-4 -7,53 h -124 v 283 c 0,63 3,70 37,72 l 46,3 v 30 c -100,-3 -100,-3 -125,-3 -25,0 -25,0 -125,3 v -30 l 46,-3 c 34,-2 37,-9 37,-72 v -283 l -69,4 v -22 l 69,-31 v -42 -2 c 0,-77.000004 57,-258.999944 168,-258.999944 21,0 43,6 67,20" />
</svg>
