<?xml version="1.0" encoding="UTF-8" standalone="no"?>
<!-- Created with Inkscape (http://www.inkscape.org/) -->

<svg
   xmlns:dc="http://purl.org/dc/elements/1.1/"
   xmlns:cc="http://creativecommons.org/ns#"
   xmlns:rdf="http://www.w3.org/1999/02/22-rdf-syntax-ns#"
   xmlns:svg="http://www.w3.org/2000/svg"
   xmlns="http://www.w3.org/2000/svg"
   xmlns:sodipodi="http://sodipodi.sourceforge.net/DTD/sodipodi-0.dtd"
   xmlns:inkscape="http://www.inkscape.org/namespaces/inkscape"
   version="1.1"
   width="75"
   height="75"
   id="svg4256"
   inkscape:version="0.48.4 r9939"
   sodipodi:docname="object.svg"
   inkscape:export-filename="/home/ericfinster/Documents/opcats/pngs/0-cell.png"
   inkscape:export-xdpi="263.85999"
   inkscape:export-ydpi="263.85999">
  <sodipodi:namedview
     pagecolor="#ffffff"
     bordercolor="#666666"
     borderopacity="1"
     objecttolerance="10"
     gridtolerance="10"
     guidetolerance="10"
     inkscape:pageopacity="0"
     inkscape:pageshadow="2"
     inkscape:window-width="1855"
     inkscape:window-height="1056"
     id="namedview7111"
     showgrid="false"
     inkscape:zoom="2.36"
     inkscape:cx="7.8793251"
     inkscape:cy="19.528263"
     inkscape:window-x="65"
     inkscape:window-y="24"
     inkscape:window-maximized="1"
     inkscape:current-layer="svg4256"
     fit-margin-top="5"
     fit-margin-left="5"
     fit-margin-right="5"
     fit-margin-bottom="5" />
  <defs
     id="defs4258" />
  <metadata
     id="metadata4261">
    <rdf:RDF>
      <cc:Work
         rdf:about="">
        <dc:format>image/svg+xml</dc:format>
        <dc:type
           rdf:resource="http://purl.org/dc/dcmitype/StillImage" />
        <dc:title />
      </cc:Work>
    </rdf:RDF>
  </metadata>
  <g
     id="g3278"
     transform="matrix(2.093208,0,0,2.093208,5.5509089,-86.754151)">
    <g
       id="layer1"
       transform="translate(-42.120675,-946.89044)">
      <path
         inkscape:connector-curvature="0"
         class="stroke-x fill-x"
         style="stroke:#000000;stroke-width:1.5;stroke-linecap:round;stroke-miterlimit:4;stroke-opacity:1;stroke-dasharray:none"
         id="path4334"
         transform="matrix(2.3388842,0,0,2.3388842,29.834417,891.11867)"
         d="m 10.561056,46.974697 a 1.210121,1.210121 0 1 1 -2.4202421,0 1.210121,1.210121 0 1 1 2.4202421,0 z" />
    </g>
    <g
       id="g7193"
       transform="matrix(0.02,0,0,0.02,14.583734,69.877501)">
      <path
         class="stroke-x fill-x"
         style="fill:#000000;stroke:#000000;stroke-width:1"
         inkscape:connector-curvature="0"
         id="path7195"
         transform="scale(1,-1)"
         d="M 288,254 436,54 c 11,-15 23,-23 35,-24 l 25,-3 V -3 c -52,3 -52,3 -62,3 -9,0 -9,0 -61,-3 L 240,192 106,0 H 20 v 27 h 17 c 10,0 23,6 30,15 L 216,218 96,392 c -10,14 -32,28 -50,29 l -21,2 -5,26 116,20 c 34,-34 45,-47 60,-69 l 76,-116 124,175 h 82 v -28 h -14 c -17,0 -28,-4 -34,-11" />
    </g>
  </g>
</svg>
