<?xml version="1.0" encoding="UTF-8" standalone="no"?>
<svg width="1000" height="300" viewBox="0 -15000 47300 15000" xmlns="http://www.w3.org/2000/svg"><g transform="translate(4600, -3700)"><g><rect x="-2600" y="-7600" width="5100" height="7600" rx="200" ry="200" fill="#FFFFFF" stroke="#000000" stroke-width="100"></rect><g transform="translate(1400, -1100)"></g></g><g><rect x="-2000" y="-7100" width="4000" height="5600" rx="200" ry="200" fill="#FFFFFF" stroke="#000000" stroke-width="100"></rect><g transform="translate(900, -2600)"></g></g><g><rect x="-1400" y="-6600" width="2900" height="3600" rx="200" ry="200" fill="#FFFFFF" stroke="#000000" stroke-width="100"></rect><g transform="translate(400, -4100)"></g></g><g><rect x="-800" y="-6100" width="1600" height="1600" rx="200" ry="200" fill="#FFFFFF" stroke="#000000" stroke-width="100"></rect><g transform="translate(-300, -5600)"></g></g></g><g transform="translate(11100, -1200)"><g><rect x="-2000" y="-12600" width="4000" height="12600" rx="200" ry="200" fill="#FFFFFF" stroke="#000000" stroke-width="100"></rect><g transform="translate(900, -1100)"></g></g><g><rect x="-1400" y="-7500" width="2900" height="6000" rx="200" ry="200" fill="#FFFFFF" stroke="#000000" stroke-width="100"></rect><g transform="translate(400, -2600)"></g></g><g><rect x="-600" y="-9700" width="2100" height="1600" rx="200" ry="200" fill="#FFFFFF" stroke="#000000" stroke-width="100"></rect><g transform="translate(400, -9200)"></g></g><g><path d="M 0 -3000 V 1200" fill="none" stroke="black" stroke-width="100"></path></g><g><path d="M 0 -5200 V -4600" fill="none" stroke="black" stroke-width="100"></path></g><g><path d="M 0 -10300 V -6800" fill="none" stroke="black" stroke-width="100"></path></g><g><path d="M 0 -13800 V -11900" fill="none" stroke="black" stroke-width="100"></path></g><g><rect x="-800" y="-4600" width="1600" height="1600" rx="200" ry="200" fill="#FFFFFF" stroke="#000000" stroke-width="100"></rect><g transform="translate(-300, -4100)"></g></g><g><rect x="-800" y="-6800" width="1600" height="1600" rx="200" ry="200" fill="#FFFFFF" stroke="#000000" stroke-width="100"></rect><g transform="translate(-300, -6300)"></g></g><g><rect x="-800" y="-11900" width="1600" height="1600" rx="200" ry="200" fill="#FFFFFF" stroke="#000000" stroke-width="100"></rect><g transform="translate(-300, -11400)"></g></g></g><g transform="translate(18400, -2300)"><g><rect x="-3300" y="-10400" width="8800" height="10400" rx="200" ry="200" fill="#FFFFFF" stroke="#000000" stroke-width="100"></rect><g transform="translate(4400, -1100)"></g></g><g><rect x="-2700" y="-5300" width="6800" height="3800" rx="200" ry="200" fill="#FFFFFF" stroke="#000000" stroke-width="100"></rect><g transform="translate(3000, -2600)"></g></g><g><rect x="-1400" y="-9700" width="2900" height="3800" rx="200" ry="200" fill="#FFFFFF" stroke="#000000" stroke-width="100"></rect><g transform="translate(400, -7000)"></g></g><g><path d="M 0 -3000 V 1200" fill="none" stroke="black" stroke-width="100"></path></g><g><path d="M 3600 -5900 V -4000 A 200 200 0 0 1 3400 -3800 H 800" fill="none" stroke="black" stroke-width="100"></path></g><g><path d="M 5000 -11600 V -6900 A 200 200 0 0 1 4800 -6700 H 4400" fill="none" stroke="black" stroke-width="100"></path></g><g><path d="M 2200 -11600 V -6900 A 200 200 0 0 0 2400 -6700 H 2800" fill="none" stroke="black" stroke-width="100"></path></g><g><path d="M 0 -7400 V -4600" fill="none" stroke="black" stroke-width="100"></path></g><g><path d="M -2100 -11600 V -4000 A 200 200 0 0 0 -1900 -3800 H -800" fill="none" stroke="black" stroke-width="100"></path></g><g><rect x="-800" y="-4600" width="1600" height="1600" rx="200" ry="200" fill="#FFFFFF" stroke="#000000" stroke-width="100"></rect><g transform="translate(-300, -4100)"></g></g><g><rect x="2800" y="-7500" width="1600" height="1600" rx="200" ry="200" fill="#FFFFFF" stroke="#000000" stroke-width="100"></rect><g transform="translate(3300, -7000)"></g></g><g><rect x="-800" y="-9000" width="1600" height="1600" rx="200" ry="200" fill="#FFFFFF" stroke="#000000" stroke-width="100"></rect><g transform="translate(-300, -8500)"></g></g></g><g transform="translate(28800, -2300)"><g><rect x="-2900" y="-10400" width="7000" height="10400" rx="200" ry="200" fill="#FFFFFF" stroke="#000000" stroke-width="100"></rect><g transform="translate(3000, -1100)"></g></g><g><rect x="-2100" y="-5300" width="4700" height="3800" rx="200" ry="200" fill="#FFFFFF" stroke="#000000" stroke-width="100"></rect><g transform="translate(1500, -2600)"></g></g><g><rect x="700" y="-9700" width="2900" height="3800" rx="200" ry="200" fill="#FFFFFF" stroke="#000000" stroke-width="100"></rect><g transform="translate(2500, -7000)"></g></g><g><path d="M 0 -3000 V 1200" fill="none" stroke="black" stroke-width="100"></path></g><g><path d="M 2100 -7400 V -4000 A 200 200 0 0 1 1900 -3800 H 800" fill="none" stroke="black" stroke-width="100"></path></g><g><path d="M 2100 -11600 V -9000" fill="none" stroke="black" stroke-width="100"></path></g><g><path d="M 0 -11600 V -4600" fill="none" stroke="black" stroke-width="100"></path></g><g><path d="M -1500 -5900 V -4000 A 200 200 0 0 0 -1300 -3800 H -800" fill="none" stroke="black" stroke-width="100"></path></g><g><path d="M -1500 -11600 V -7500" fill="none" stroke="black" stroke-width="100"></path></g><g><rect x="-800" y="-4600" width="1600" height="1600" rx="200" ry="200" fill="#FFFFFF" stroke="#000000" stroke-width="100"></rect><g transform="translate(-300, -4100)"></g></g><g><rect x="1300" y="-9000" width="1600" height="1600" rx="200" ry="200" fill="#FFFFFF" stroke="#000000" stroke-width="100"></rect><g transform="translate(1800, -8500)"></g></g><g><rect x="-2300" y="-7500" width="1600" height="1600" rx="200" ry="200" fill="#FFFFFF" stroke="#000000" stroke-width="100"></rect><g transform="translate(-1800, -7000)"></g></g></g><g transform="translate(37000, -4500)"><g><rect x="-2100" y="-6000" width="5600" height="6000" rx="200" ry="200" fill="#FFFFFF" stroke="#000000" stroke-width="100"></rect><g transform="translate(2400, -1100)"></g></g><g><path d="M 0 -1500 V 1200" fill="none" stroke="black" stroke-width="100"></path></g><g><path d="M 2200 -3700 V -2500 A 200 200 0 0 1 2000 -2300 H 800" fill="none" stroke="black" stroke-width="100"></path></g><g><path d="M 2200 -7200 V -5300" fill="none" stroke="black" stroke-width="100"></path></g><g><path d="M 0 -3700 V -3100" fill="none" stroke="black" stroke-width="100"></path></g><g><path d="M 0 -7200 V -5300" fill="none" stroke="black" stroke-width="100"></path></g><g><path d="M -1500 -7200 V -2500 A 200 200 0 0 0 -1300 -2300 H -800" fill="none" stroke="black" stroke-width="100"></path></g><g><rect x="-800" y="-3100" width="1600" height="1600" rx="200" ry="200" fill="#FFFFFF" stroke="#000000" stroke-width="100"></rect><g transform="translate(-300, -2600)"></g></g><g><rect x="1400" y="-5300" width="1600" height="1600" rx="200" ry="200" fill="#FFFFFF" stroke="#000000" stroke-width="100"></rect><g transform="translate(1900, -4800)"></g></g><g><rect x="-800" y="-5300" width="1600" height="1600" rx="200" ry="200" fill="#FFFFFF" stroke="#000000" stroke-width="100"></rect><g transform="translate(-300, -4800)"></g></g></g><g transform="translate(43900, -6700)"><g><path d="M 0 0 V 1200" fill="none" stroke="black" stroke-width="100"></path></g><g><path d="M 1400 -2800 V -1000 A 200 200 0 0 1 1200 -800 H 800" fill="none" stroke="black" stroke-width="100"></path></g><g><path d="M 0 -2800 V -1600" fill="none" stroke="black" stroke-width="100"></path></g><g><path d="M -1400 -2800 V -1000 A 200 200 0 0 0 -1200 -800 H -800" fill="none" stroke="black" stroke-width="100"></path></g><g><rect x="-800" y="-1600" width="1600" height="1600" rx="200" ry="200" fill="#FFFFFF" stroke="#000000" stroke-width="100"></rect><g transform="translate(-300, -1100)"></g></g></g></svg>