<?xml version="1.0" encoding="UTF-8" standalone="no"?>
<!-- Created with Inkscape (http://www.inkscape.org/) -->

<svg
   xmlns:dc="http://purl.org/dc/elements/1.1/"
   xmlns:cc="http://creativecommons.org/ns#"
   xmlns:rdf="http://www.w3.org/1999/02/22-rdf-syntax-ns#"
   xmlns:svg="http://www.w3.org/2000/svg"
   xmlns="http://www.w3.org/2000/svg"
   xmlns:sodipodi="http://sodipodi.sourceforge.net/DTD/sodipodi-0.dtd"
   xmlns:inkscape="http://www.inkscape.org/namespaces/inkscape"
   width="175"
   height="175"
   id="svg4256"
   version="1.1"
   inkscape:version="0.48.4 r9939"
   sodipodi:docname="quad.svg">
  <defs
     id="defs4258" />
  <sodipodi:namedview
     id="base"
     pagecolor="#ffffff"
     bordercolor="#666666"
     borderopacity="1.0"
     inkscape:pageopacity="0.0"
     inkscape:pageshadow="2"
     inkscape:zoom="4.545"
     inkscape:cx="34.244115"
     inkscape:cy="85.533484"
     inkscape:document-units="px"
     inkscape:current-layer="layer1"
     showgrid="false"
     inkscape:window-width="1855"
     inkscape:window-height="1056"
     inkscape:window-x="65"
     inkscape:window-y="24"
     inkscape:window-maximized="1" />
  <metadata
     id="metadata4261">
    <rdf:RDF>
      <cc:Work
         rdf:about="">
        <dc:format>image/svg+xml</dc:format>
        <dc:type
           rdf:resource="http://purl.org/dc/dcmitype/StillImage" />
        <dc:title></dc:title>
      </cc:Work>
    </rdf:RDF>
  </metadata>
  <g
     inkscape:label="Layer 1"
     inkscape:groupmode="layer"
     id="layer1"
     transform="translate(0,-877.36218)">
    <path
       inkscape:connector-curvature="0"
       style="fill:#f5f5f5;fill-opacity:1;stroke:none"
       id="path9962-9"
       d="m 121.76135,934.64999 27.96642,60.2868 -120.79768,0 27.032438,-60.2868 z"
       sodipodi:nodetypes="ccccc" />
    <path
       style="fill:#f5f5f5;fill-opacity:1;stroke:#000000;stroke-width:2;stroke-linecap:butt;stroke-linejoin:miter;stroke-miterlimit:4;stroke-opacity:1;stroke-dasharray:none"
       d="m 28.716294,995.21746 27.03244,-60.28678"
       id="path5398"
       class="stroke-f"
       inkscape:connector-curvature="0" />
    <path
       style="fill:#f5f5f5;fill-opacity:1;stroke:#000000;stroke-width:2;stroke-linecap:butt;stroke-linejoin:miter;stroke-miterlimit:4;stroke-opacity:1;stroke-dasharray:none"
       d="m 55.748734,934.93068 65.798826,0"
       id="path5396"
       class="stroke-g"
       inkscape:connector-curvature="0" />
    <path
       style="fill:#f5f5f5;fill-opacity:1;stroke:#000000;stroke-width:2;stroke-linecap:butt;stroke-linejoin:miter;stroke-miterlimit:4;stroke-opacity:1;stroke-dasharray:none"
       d="m 121.54756,934.93068 27.96642,60.28678"
       id="path5394"
       class="stroke-h"
       inkscape:connector-curvature="0" />
    <path
       style="fill:#f5f5f5;fill-opacity:1;stroke:#000000;stroke-width:2;stroke-linecap:butt;stroke-linejoin:miter;stroke-miterlimit:4;stroke-opacity:1;stroke-dasharray:none"
       d="m 149.51398,995.21746 -120.797686,0"
       id="path9962"
       class="stroke-k"
       inkscape:connector-curvature="0" />
    <path
       inkscape:connector-curvature="0"
       style="fill:#000000;fill-opacity:1;stroke:#000000;stroke-width:2;stroke-linecap:round;stroke-miterlimit:4;stroke-opacity:1;stroke-dasharray:none"
       id="path6406-8"
       d="m 135.68216,965.72066 0.27771,-4.0929 0.27773,-4.0929 -3.68341,1.80596 -3.68338,1.80594 3.40566,2.287 z"
       class="stroke-h fill-h" />
    <path
       inkscape:connector-curvature="0"
       style="fill:#000000;fill-opacity:1;stroke:#000000;stroke-width:2;stroke-linecap:round;stroke-miterlimit:4;stroke-opacity:1;stroke-dasharray:none"
       id="path6406-5"
       d="m 92.086081,995.21836 -3.552677,-2.0512 -3.55268,-2.0511 0,4.1023 0,4.1022 3.55268,-2.0511 z"
       class="stroke-k fill-k" />
    <path
       inkscape:connector-curvature="0"
       style="fill:#000000;fill-opacity:1;stroke:#000000;stroke-width:2;stroke-linecap:round;stroke-miterlimit:4;stroke-opacity:1;stroke-dasharray:none"
       id="path6406"
       d="m 40.034635,960.51676 3.244885,-2.51 3.24478,-2.50987 0.551232,4.06506 0.551186,4.06521 -3.796008,-1.5553 z"
       class="stroke-f fill-f" />
    <g
       style="fill:#000000;fill-opacity:1;stroke:#000000;stroke-opacity:1"
       id="g8436"
       transform="translate(0.21889337,-37.307009)">
      <path
         inkscape:connector-curvature="0"
         style="fill:#000000;fill-opacity:1;stroke:#000000;stroke-width:2;stroke-linecap:round;stroke-miterlimit:4;stroke-opacity:1;stroke-dasharray:none"
         id="path6406-2"
         d="m 82.788421,1010.0157 -2.0512,-3.5527 -2.05112,-3.5526 4.10232,0 4.10221,0 -2.05111,3.5526 z"
         class="stroke-alpha fill-alpha" />
      <rect
         style="fill:#000000;fill-opacity:1;stroke:#000000;stroke-width:2;stroke-linecap:round;stroke-miterlimit:4;stroke-opacity:1;stroke-dasharray:none"
         id="rect8434"
         y="991.50159"
         x="82.018295"
         height="11.001101"
         width="0.88008803"
         class="stroke-alpha fill-alpha" />
    </g>
    <path
       inkscape:connector-curvature="0"
       style="fill:#000000;fill-opacity:1;stroke:#000000;stroke-width:2;stroke-linecap:round;stroke-miterlimit:4;stroke-opacity:1;stroke-dasharray:none"
       id="path6406-5-2"
       d="m 92.273221,934.90089 -3.552677,-2.0512 -3.55268,-2.0511 0,4.1023 0,4.1022 3.55268,-2.0511 z"
       class="stroke-g fill-g" />
    <g
       transform="matrix(0.02,0,0,0.02,145.367,1010.7574)"
       id="g11700">
      <path
         d="m 413,469 h 23 c 8,-27 15,-47 29,-81 L 580,98 685,398 c 0,18 -14,30 -39,31 l -34,2 v 28 c 82,-3 82,-3 98,-3 16,0 16,0 98,3 v -28 l -26,-2 c -22,-3 -34,-20 -64,-87 L 581,-7 H 535 L 399,335 249,-7 H 202 L 100,329 C 75,407 62,427 34,429 l -28,2 v 28 c 99,-3 99,-3 119,-3 20,0 20,0 119,3 v -28 l -40,-2 c -25,-1 -38,-9 -38,-24 0,-8 85,-292 88,-301"
         transform="scale(1,-1)"
         id="path11702"
         inkscape:connector-curvature="0"
         style="fill:#000000;stroke:#000000;stroke-width:1"
         class="stroke-w fill-w" />
    </g>
    <g
       transform="matrix(0.02,0,0,0.02,126.80025,931.0428)"
       id="g11708">
      <path
         d="M 455,432 141,35 h 135 c 96,0 138,7 142,25 l 18,79 h 30 L 460,92 C 453,44 451,20 451,-3 L 175,0 C 132,0 126,0 22,-3 l -6,20 90,105 170,212 c 27,34 44,57 65,90 H 198 c -74,0 -92,-5 -96,-26 L 90,330 H 60 c 6,69 7,81 9,132 l 248,-3 c 38,0 68,1 138,3 v -30"
         transform="scale(1,-1)"
         id="path11710"
         inkscape:connector-curvature="0"
         style="fill:#000000;stroke:#000000;stroke-width:1"
         class="stroke-z fill-z" />
    </g>
    <g
       transform="matrix(0.02,0,0,0.02,41.313463,931.43671)"
       id="g11716">
      <path
         d="m 297,86 119,292 c 4,10 6,19 6,26 0,14 -14,23 -42,25 l -26,2 v 28 c 79,-3 79,-3 95,-3 16,0 16,0 95,3 v -28 l -28,-2 C 491,426 472,399 432,308 L 229,-160 c -38,-87 -81,-123 -148,-123 -19,0 -35,5 -54,15 l 24,75 h 13 c 17,-15 35,-23 51,-23 38,0 77,47 109,131 l 23,61 C 229,26 219,50 191,118 L 82,380 c -15,35 -27,46 -52,49 l -18,2 v 28 c 97,-3 97,-3 116,-3 19,0 19,0 116,3 v -28 l -38,-2 c -23,-1 -34,-9 -34,-23 0,-10 4,-25 10,-42 l 64,-168 c 18,-49 29,-72 51,-110"
         transform="scale(1,-1)"
         id="path11718"
         inkscape:connector-curvature="0"
         style="fill:#000000;stroke:#000000;stroke-width:1"
         class="stroke-y fill-y" />
    </g>
    <g
       transform="matrix(0.02,0,0,0.02,19.752194,1012.1686)"
       id="g11724">
      <path
         d="M 288,254 436,54 c 11,-15 23,-23 35,-24 l 25,-3 V -3 c -52,3 -52,3 -62,3 -9,0 -9,0 -61,-3 L 240,192 106,0 H 20 v 27 h 17 c 10,0 23,6 30,15 L 216,218 96,392 c -10,14 -32,28 -50,29 l -21,2 -5,26 116,20 c 34,-34 45,-47 60,-69 l 76,-116 124,175 h 82 v -28 h -14 c -17,0 -28,-4 -34,-11"
         transform="scale(1,-1)"
         id="path11726"
         inkscape:connector-curvature="0"
         style="fill:#000000;stroke:#000000;stroke-width:1"
         class="stroke-x fill-x" />
    </g>
    <g
       transform="matrix(0.02,0,0,0.02,82.9132,1018.163)"
       id="g11734">
      <path
         d="m 23,661 v 28 c 79,12 112,20 156,37 l 9,-8 V 261 l 223,198 h 100 v -30 h -4 c -32,0 -59,-12 -104,-47 L 274,281 464,88 C 496,57 525,40 549,40 V 17 L 453,-12 188,240 V 102 c 0,-63 3,-70 37,-72 l 44,-3 V -3 C 180,0 175,0 147,0 121,0 121,0 21,-3 v 30 l 46,3 c 34,2 37,9 37,72 v 518 c 0,30 -7,41 -25,41 H 23"
         transform="scale(1,-1)"
         id="path11736"
         inkscape:connector-curvature="0"
         style="fill:#000000;stroke:#000000;stroke-width:1"
         class="stroke-k fill-k" />
    </g>
    <g
       transform="matrix(0.02,0,0,0.02,141.9042,964.42429)"
       id="g11758">
      <path
         d="m 7,661 v 28 c 79,12 112,20 156,37 l 9,-8 V 378 c 28,61 89,92 151,92 85,0 171,-58 171,-175 V 102 c 0,-64 3,-70 37,-72 l 41,-3 V -3 c -69,3 -69,3 -83,3 -17,0 -18,0 -79,-3 v 284 c 0,77 -44,127 -111,127 -61,0 -127,-49 -127,-94 V 102 c 0,-63 3,-70 37,-72 l 45,-3 V -3 C 186,-1 159,0 130,0 101,0 74,-1 6,-3 v 30 l 45,3 c 34,2 37,9 37,72 v 518 c 0,30 -7,41 -25,41 H 7"
         transform="scale(1,-1)"
         id="path11760"
         inkscape:connector-curvature="0"
         style="fill:#000000;stroke:#000000;stroke-width:1"
         class="stroke-h fill-h" />
    </g>
    <g
       transform="matrix(0.02,0,0,0.02,83.355314,920.95671)"
       id="g11766">
      <path
         d="m 55,289 c 0,135 146,180 221,180 49,0 85,-12 122,-42 l 142,4 4,-12 -25,-41 h -92 c 8,-21 11,-34 11,-54 0,-127 -143,-174 -204,-174 -8,0 -14,1 -24,2 -17,-17 -46,-34 -46,-57 0,-27 24,-39 76,-39 h 160 c 70,0 118,-50 118,-122 0,-122 -119,-217 -270,-217 -127,0 -216,63 -216,154 0,31 14,68 28,76 l 87,47 C 99,8 81,24 81,52 c 0,15 5,28 15,43 l 79,61 C 101,164 55,215 55,289 z m 185,146 c -64,0 -101,-45 -101,-122 0,-77 45,-129 112,-129 61,0 103,45 103,110 0,85 -46,141 -114,141 z m 47,-449 c -69,0 -97,-2 -113,-10 -40,-17 -66,-58 -66,-103 0,-74 60,-125 147,-125 105,0 184,64 184,150 0,65 -39,88 -152,88"
         transform="scale(1,-1)"
         id="path11768"
         inkscape:connector-curvature="0"
         style="fill:#000000;stroke:#000000;stroke-width:1"
         class="stroke-g fill-g" />
    </g>
    <g
       transform="matrix(0.02,0,0,0.02,24.297169,965.70753)"
       id="g11774">
      <path
         d="m 341,717 v -77 l -12,-6 c -24,21 -42,28 -69,28 -57,0 -70,-28 -70,-143 v -85 l 131,4 -7,-53 H 190 V 102 c 0,-63 3,-70 37,-72 l 46,-3 V -3 C 173,0 173,0 148,0 123,0 123,0 23,-3 v 30 l 46,3 c 34,2 37,9 37,72 v 283 l -69,-4 v 22 l 69,31 v 42 2 c 0,77 57,259 168,259 21,0 43,-6 67,-20"
         transform="scale(1,-1)"
         id="path11776"
         inkscape:connector-curvature="0"
         style="fill:#000000;stroke:#000000;stroke-width:1"
         class="stroke-f fill-f" />
    </g>
    <g
       transform="matrix(0.02,0,0,0.02,93.202205,969.03105)"
       id="g11800">
      <path
         d="m 562,97 c 5,-3 8,-6 9,-13 C 545,54 489,-16 443,-16 392,-16 381,95 375,128 l -3,3 C 324,64 246,-16 154,-16 86,-16 57,33 48,93 24,243 121,473 289,473 401,473 403,337 414,260 l 7,-3 c 26,58 61,134 63,202 h 11 c 11,-15 21,-31 30,-46 -25,-70 -60,-135 -99,-197 6,-32 22,-161 67,-161 27,0 46,24 62,42 h 7 z m -194,67 -4,28 c -9,60 -30,245 -117,245 -109,0 -142,-235 -128,-322 7,-45 25,-87 78,-87 71,0 137,85 171,136"
         transform="scale(1,-1)"
         id="path11802"
         inkscape:connector-curvature="0"
         style="fill:#000000;stroke:#000000;stroke-width:1"
         class="stroke-alpha fill-alpha" />
    </g>
    <path
       inkscape:connector-curvature="0"
       style="stroke:#000000;stroke-width:3.50832629;stroke-linecap:round;stroke-miterlimit:4;stroke-opacity:1;stroke-dasharray:none"
       id="path4334-2"
       d="m 31.905904,994.30906 a 2.830333,2.830333 0 0 1 -5.660666,0 2.830333,2.830333 0 1 1 5.660666,0 z"
       class="stroke-x fill-x" />
    <path
       inkscape:connector-curvature="0"
       style="stroke:#000000;stroke-width:3.50832629;stroke-linecap:round;stroke-miterlimit:4;stroke-opacity:1;stroke-dasharray:none"
       id="path4334"
       d="m 58.792962,935.47689 a 2.830333,2.830333 0 0 1 -5.660666,0 2.830333,2.830333 0 1 1 5.660666,0 z"
       class="stroke-y fill-y" />
    <path
       inkscape:connector-curvature="0"
       style="stroke:#000000;stroke-width:3.50832629;stroke-linecap:round;stroke-miterlimit:4;stroke-opacity:1;stroke-dasharray:none"
       id="path4334-7"
       d="m 123.72301,934.74887 a 2.830333,2.830333 0 0 1 -5.66066,0 2.830333,2.830333 0 1 1 5.66066,0 z"
       class="stroke-z fill-z" />
    <path
       inkscape:connector-curvature="0"
       style="stroke:#000000;stroke-width:3.50832629;stroke-linecap:round;stroke-miterlimit:4;stroke-opacity:1;stroke-dasharray:none"
       id="path4334-7-1"
       d="m 151.48594,993.73916 a 2.830335,2.830335 0 0 1 -5.66067,0 2.830335,2.830335 0 1 1 5.66067,0 z"
       class="stroke-w fill-w" />
  </g>
</svg>
