<?xml version="1.0" encoding="UTF-8" standalone="no"?>
<!-- Created with Inkscape (http://www.inkscape.org/) -->

<svg
   xmlns:dc="http://purl.org/dc/elements/1.1/"
   xmlns:cc="http://creativecommons.org/ns#"
   xmlns:rdf="http://www.w3.org/1999/02/22-rdf-syntax-ns#"
   xmlns:svg="http://www.w3.org/2000/svg"
   xmlns="http://www.w3.org/2000/svg"
   xmlns:sodipodi="http://sodipodi.sourceforge.net/DTD/sodipodi-0.dtd"
   xmlns:inkscape="http://www.inkscape.org/namespaces/inkscape"
   version="1.1"
   width="175"
   height="175"
   id="svg4256"
   inkscape:version="0.48.4 r9939"
   sodipodi:docname="simplex.svg">
  <sodipodi:namedview
     pagecolor="#ffffff"
     bordercolor="#666666"
     borderopacity="1"
     objecttolerance="10"
     gridtolerance="10"
     guidetolerance="10"
     inkscape:pageopacity="0"
     inkscape:pageshadow="2"
     inkscape:window-width="1855"
     inkscape:window-height="1056"
     id="namedview3948"
     showgrid="false"
     inkscape:zoom="3.814336"
     inkscape:cx="5.8511509"
     inkscape:cy="88.168186"
     inkscape:window-x="65"
     inkscape:window-y="24"
     inkscape:window-maximized="1"
     inkscape:current-layer="svg4256" />
  <defs
     id="defs4258" />
  <metadata
     id="metadata4261">
    <rdf:RDF>
      <cc:Work
         rdf:about="">
        <dc:format>image/svg+xml</dc:format>
        <dc:type
           rdf:resource="http://purl.org/dc/dcmitype/StillImage" />
        <dc:title />
      </cc:Work>
    </rdf:RDF>
  </metadata>
  <path
     inkscape:connector-curvature="0"
     d="M 29.525073,104.47062 89.811951,44.183723 150.32274,104.47062 z"
     id="path9962-4"
     style="fill:#f5f5f5;fill-opacity:1;stroke:none" />
  <path
     style="fill:#f5f5f5;fill-opacity:1;stroke:#000000;stroke-width:2;stroke-linecap:butt;stroke-linejoin:miter;stroke-miterlimit:4;stroke-opacity:1;stroke-dasharray:none"
     d="M 28.707276,104.28168 88.994154,43.994785"
     id="path4759"
     class="stroke-f"
     inkscape:connector-curvature="0" />
  <path
     style="fill:#f5f5f5;fill-opacity:1;stroke:#000000;stroke-width:2;stroke-linecap:butt;stroke-linejoin:miter;stroke-miterlimit:4;stroke-opacity:1;stroke-dasharray:none"
     d="M 88.994154,43.994785 149.50495,104.28168"
     id="path4757"
     class="stroke-g"
     inkscape:connector-curvature="0" />
  <path
     style="fill:#f5f5f5;fill-opacity:1;stroke:#000000;stroke-width:2;stroke-linecap:butt;stroke-linejoin:miter;stroke-miterlimit:4;stroke-opacity:1;stroke-dasharray:none"
     d="m 149.50495,104.28168 -120.797674,0"
     id="path9962"
     class="stroke-h"
     inkscape:connector-curvature="0" />
  <path
     d="m 123.08586,78.094305 -1.06175,-3.9625 -1.06174,-3.9625 -2.90076,2.90075 -2.90075,2.90075 3.9625,1.06175 z"
     id="path6406-8"
     style="fill:#000000;fill-opacity:1;stroke:#000000;stroke-width:2;stroke-linecap:round;stroke-miterlimit:4;stroke-opacity:1;stroke-dasharray:none"
     class="stroke-g fill-g"
     inkscape:connector-curvature="0" />
  <path
     d="m 95.390676,104.28249 -3.55268,-2.05114 -3.55268,-2.05114 0,4.10228 0,4.10228 3.55268,-2.05114 z"
     id="path6406-5"
     style="fill:#000000;fill-opacity:1;stroke:#000000;stroke-width:2;stroke-linecap:round;stroke-miterlimit:4;stroke-opacity:1;stroke-dasharray:none"
     class="stroke-h fill-h"
     inkscape:connector-curvature="0" />
  <path
     d="m 62.043029,70.619135 -1.061749,3.9625 -1.061749,3.9625 -2.90075,-2.90075 -2.900752,-2.90075 3.9625,-1.06175 z"
     id="path6406"
     style="fill:#000000;fill-opacity:1;stroke:#000000;stroke-width:2;stroke-linecap:round;stroke-miterlimit:4;stroke-opacity:1;stroke-dasharray:none"
     class="stroke-f fill-f"
     inkscape:connector-curvature="0" />
  <g
     transform="translate(1.5116511,-922.56242)"
     id="g8436"
     style="fill:#000000;fill-opacity:1;stroke:#000000;stroke-opacity:1">
    <path
       d="m 81.695852,1010.3269 -2.0512,-3.5527 -2.05112,-3.5526 4.10232,0 4.10221,0 -2.05111,3.5526 z"
       id="path6406-2"
       style="fill:#000000;fill-opacity:1;stroke:#000000;stroke-width:2;stroke-linecap:round;stroke-miterlimit:4;stroke-opacity:1;stroke-dasharray:none"
       class="stroke-alpha fill-alpha"
       inkscape:connector-curvature="0" />
    <rect
       width="0.88008803"
       height="11.001101"
       x="80.92572"
       y="991.81274"
       id="rect8434"
       style="fill:#000000;fill-opacity:1;stroke:#000000;stroke-width:2;stroke-linecap:round;stroke-miterlimit:4;stroke-opacity:1;stroke-dasharray:none"
       class="stroke-alpha fill-alpha" />
  </g>
  <g
     transform="matrix(0.02,0,0,0.02,152.6886,119.16565)"
     id="g10704">
    <path
       d="M 455,432 141,35 h 135 c 96,0 138,7 142,25 l 18,79 h 30 L 460,92 C 453,44 451,20 451,-3 L 175,0 C 132,0 126,0 22,-3 l -6,20 90,105 170,212 c 27,34 44,57 65,90 H 198 c -74,0 -92,-5 -96,-26 L 90,330 H 60 c 6,69 7,81 9,132 l 248,-3 c 38,0 68,1 138,3 v -30"
       transform="scale(1,-1)"
       id="path10706"
       style="fill:#000000;stroke:#000000;stroke-width:1"
       class="stroke-z fill-z"
       inkscape:connector-curvature="0" />
  </g>
  <path
     d="m 101.68902,35.645756 2.38,-5.840003 c 0.08,-0.2 0.12,-0.38 0.12,-0.52 0,-0.28 -0.28,-0.46 -0.84,-0.5 l -0.52,-0.04 v -0.56 c 1.58,0.06 1.58,0.06 1.9,0.06 0.32,0 0.32,0 1.9,-0.06 v 0.56 l -0.56,0.04 c -0.5,0.06 -0.88,0.6 -1.68,2.42 l -4.06,9.360003 c -0.759999,1.74 -1.619999,2.46 -2.959999,2.46 -0.38,0 -0.7,-0.1 -1.08,-0.3 l 0.48,-1.5 h 0.26 c 0.34,0.3 0.7,0.46 1.02,0.46 0.76,0 1.54,-0.94 2.179999,-2.62 l 0.46,-1.22 c -0.36,-1 -0.56,-1.48 -1.119999,-2.84 l -2.18,-5.240003 c -0.3,-0.7 -0.54,-0.92 -1.04,-0.98 l -0.36,-0.04 v -0.56 c 1.94,0.06 1.94,0.06 2.32,0.06 0.38,0 0.38,0 2.319999,-0.06 v 0.56 l -0.759999,0.04 c -0.46,0.02 -0.68,0.18 -0.68,0.46 0,0.2 0.08,0.5 0.2,0.84 l 1.279999,3.36 c 0.36,0.980003 0.58,1.440003 1.02,2.200003"
     id="path10714"
     style="fill:#000000;stroke:#000000;stroke-width:0.02"
     class="stroke-y fill-y"
     inkscape:connector-curvature="0" />
  <g
     transform="matrix(0.02,0,0,0.02,12.897052,119.09165)"
     id="g10720">
    <path
       d="M 288,254 436,54 c 11,-15 23,-23 35,-24 l 25,-3 V -3 c -52,3 -52,3 -62,3 -9,0 -9,0 -61,-3 L 240,192 106,0 H 20 v 27 h 17 c 10,0 23,6 30,15 L 216,218 96,392 c -10,14 -32,28 -50,29 l -21,2 -5,26 116,20 c 34,-34 45,-47 60,-69 l 76,-116 124,175 h 82 v -28 h -14 c -17,0 -28,-4 -34,-11"
       transform="scale(1,-1)"
       id="path10722"
       style="fill:#000000;stroke:#000000;stroke-width:1"
       class="stroke-x fill-x"
       inkscape:connector-curvature="0" />
  </g>
  <g
     transform="matrix(0.02,0,0,0.02,85.144799,127.62305)"
     id="g10730">
    <path
       d="m 7,661 v 28 c 79,12 112,20 156,37 l 9,-8 V 378 c 28,61 89,92 151,92 85,0 171,-58 171,-175 V 102 c 0,-64 3,-70 37,-72 l 41,-3 V -3 c -69,3 -69,3 -83,3 -17,0 -18,0 -79,-3 v 284 c 0,77 -44,127 -111,127 -61,0 -127,-49 -127,-94 V 102 c 0,-63 3,-70 37,-72 l 45,-3 V -3 C 186,-1 159,0 130,0 101,0 74,-1 6,-3 v 30 l 45,3 c 34,2 37,9 37,72 v 518 c 0,30 -7,41 -25,41 H 7"
       transform="scale(1,-1)"
       id="path10732"
       style="fill:#000000;stroke:#000000;stroke-width:1"
       class="stroke-h fill-h"
       inkscape:connector-curvature="0" />
  </g>
  <g
     transform="matrix(0.02,0,0,0.02,126.45279,66.533259)"
     id="g10750">
    <path
       d="m 55,289 c 0,135 146,180 221,180 49,0 85,-12 122,-42 l 142,4 4,-12 -25,-41 h -92 c 8,-21 11,-34 11,-54 0,-127 -143,-174 -204,-174 -8,0 -14,1 -24,2 -17,-17 -46,-34 -46,-57 0,-27 24,-39 76,-39 h 160 c 70,0 118,-50 118,-122 0,-122 -119,-217 -270,-217 -127,0 -216,63 -216,154 0,31 14,68 28,76 l 87,47 C 99,8 81,24 81,52 c 0,15 5,28 15,43 l 79,61 C 101,164 55,215 55,289 z m 185,146 c -64,0 -101,-45 -101,-122 0,-77 45,-129 112,-129 61,0 103,45 103,110 0,85 -46,141 -114,141 z m 47,-449 c -69,0 -97,-2 -113,-10 -40,-17 -66,-58 -66,-103 0,-74 60,-125 147,-125 105,0 184,64 184,150 0,65 -39,88 -152,88"
       transform="scale(1,-1)"
       id="path10752"
       style="fill:#000000;stroke:#000000;stroke-width:1"
       class="stroke-g fill-g"
       inkscape:connector-curvature="0" />
  </g>
  <g
     transform="matrix(0.02,0,0,0.02,44.561873,68.795126)"
     id="g10758">
    <path
       d="m 341,717 v -77 l -12,-6 c -24,21 -42,28 -69,28 -57,0 -70,-28 -70,-143 v -85 l 131,4 -7,-53 H 190 V 102 c 0,-63 3,-70 37,-72 l 46,-3 V -3 C 173,0 173,0 148,0 123,0 123,0 23,-3 v 30 l 46,3 c 34,2 37,9 37,72 v 283 l -69,-4 v 22 l 69,31 v 42 2 c 0,77 57,259 168,259 21,0 43,-6 67,-20"
       transform="scale(1,-1)"
       id="path10760"
       style="fill:#000000;stroke:#000000;stroke-width:1"
       class="stroke-f fill-f"
       inkscape:connector-curvature="0" />
  </g>
  <g
     transform="matrix(0.02,0,0,0.02,90.601983,84.97374)"
     id="g10780">
    <path
       d="m 562,97 c 5,-3 8,-6 9,-13 C 545,54 489,-16 443,-16 392,-16 381,95 375,128 l -3,3 C 324,64 246,-16 154,-16 86,-16 57,33 48,93 24,243 121,473 289,473 401,473 403,337 414,260 l 7,-3 c 26,58 61,134 63,202 h 11 c 11,-15 21,-31 30,-46 -25,-70 -60,-135 -99,-197 6,-32 22,-161 67,-161 27,0 46,24 62,42 h 7 z m -194,67 -4,28 c -9,60 -30,245 -117,245 -109,0 -142,-235 -128,-322 7,-45 25,-87 78,-87 71,0 137,85 171,136"
       transform="scale(1,-1)"
       id="path10782"
       style="fill:#000000;stroke:#000000;stroke-width:1"
       class="stroke-alpha fill-alpha"
       inkscape:connector-curvature="0" />
  </g>
  <path
     d="m 31.328323,104.54107 a 2.830333,2.830333 0 0 1 -5.660666,0 2.830333,2.830333 0 1 1 5.660666,0 z"
     id="path4334"
     style="stroke:#000000;stroke-width:3.50832629;stroke-linecap:round;stroke-miterlimit:4;stroke-opacity:1;stroke-dasharray:none"
     class="stroke-x fill-x"
     inkscape:connector-curvature="0" />
  <path
     d="m 91.879672,43.339602 a 2.830333,2.830333 0 0 1 -5.660666,0 2.830333,2.830333 0 1 1 5.660666,0 z"
     id="path4334-7"
     style="stroke:#000000;stroke-width:3.50832629;stroke-linecap:round;stroke-miterlimit:4;stroke-opacity:1;stroke-dasharray:none"
     class="stroke-y fill-y"
     inkscape:connector-curvature="0" />
  <path
     d="m 151.83194,103.86842 a 2.830335,2.830335 0 0 1 -5.66067,0 2.830335,2.830335 0 1 1 5.66067,0 z"
     id="path4334-7-1"
     style="stroke:#000000;stroke-width:3.50832629;stroke-linecap:round;stroke-miterlimit:4;stroke-opacity:1;stroke-dasharray:none"
     class="stroke-z fill-z"
     inkscape:connector-curvature="0" />
</svg>
