<?xml version="1.0" encoding="UTF-8" standalone="no"?>
<!-- Created with Inkscape (http://www.inkscape.org/) -->

<svg
   xmlns:dc="http://purl.org/dc/elements/1.1/"
   xmlns:cc="http://creativecommons.org/ns#"
   xmlns:rdf="http://www.w3.org/1999/02/22-rdf-syntax-ns#"
   xmlns:svg="http://www.w3.org/2000/svg"
   xmlns="http://www.w3.org/2000/svg"
   xmlns:sodipodi="http://sodipodi.sourceforge.net/DTD/sodipodi-0.dtd"
   xmlns:inkscape="http://www.inkscape.org/namespaces/inkscape"
   version="1.1"
   width="150"
   height="150"
   id="svg4256"
   inkscape:version="0.48.4 r9939"
   sodipodi:docname="twoglob.svg"
   inkscape:export-filename="/home/ericfinster/Documents/opcats/pngs/2-cell-1.png"
   inkscape:export-xdpi="263.85999"
   inkscape:export-ydpi="263.85999">
  <sodipodi:namedview
     pagecolor="#ffffff"
     bordercolor="#666666"
     borderopacity="1"
     objecttolerance="10"
     gridtolerance="10"
     guidetolerance="10"
     inkscape:pageopacity="0"
     inkscape:pageshadow="2"
     inkscape:window-width="1855"
     inkscape:window-height="1056"
     id="namedview10482"
     showgrid="false"
     inkscape:zoom="6.06"
     inkscape:cx="75"
     inkscape:cy="75"
     inkscape:window-x="65"
     inkscape:window-y="24"
     inkscape:window-maximized="1"
     inkscape:current-layer="svg4256" />
  <defs
     id="defs4258" />
  <metadata
     id="metadata4261">
    <rdf:RDF>
      <cc:Work
         rdf:about="">
        <dc:format>image/svg+xml</dc:format>
        <dc:type
           rdf:resource="http://purl.org/dc/dcmitype/StillImage" />
        <dc:title></dc:title>
      </cc:Work>
    </rdf:RDF>
  </metadata>
  <path
     style="fill:#f5f5f5;fill-opacity:1;stroke:#000000;stroke-width:2px;stroke-linecap:butt;stroke-linejoin:miter;stroke-opacity:1;marker-mid:none"
     d="m 33.987237,64.19585 c 0,0 0.402009,-31.90319 42.882428,-31.90319 42.480415,0 42.552395,31.90319 42.552395,31.90319"
     id="path3838"
     class="stroke-f"
     inkscape:connector-curvature="0" />
  <path
     style="fill:#f5f5f5;fill-opacity:1;stroke:#000000;stroke-width:2px;stroke-linecap:butt;stroke-linejoin:miter;stroke-opacity:1;marker-mid:none"
     d="m 119.42206,64.19585 c 0,0 0.28386,35.2668 -42.579375,35.4191 C 33.979449,99.76735 34.31727,64.19585 34.31727,64.19585"
     id="path6000"
     class="stroke-g"
     inkscape:connector-curvature="0" />
  <path
     d="m 80.267289,32.288209 -3.55268,2.05114 -3.55268,2.051141 0,-4.102281 0,-4.102282 3.55268,2.051141 z"
     id="path6406"
     style="fill:#000000;fill-opacity:1;stroke:#000000;stroke-width:2;stroke-linecap:round;stroke-miterlimit:4;stroke-opacity:1;stroke-dasharray:none"
     inkscape:connector-curvature="0"
     class="stroke-f fill-f" />
  <path
     d="m 37.5382,63.760277 a 2.830333,2.830333 0 0 1 -5.660666,0 2.830333,2.830333 0 1 1 5.660666,0 z"
     id="path4334"
     style="stroke:#000000;stroke-width:3.50832629;stroke-linecap:round;stroke-miterlimit:4;stroke-opacity:1;stroke-dasharray:none"
     inkscape:connector-curvature="0"
     class="stroke-x fill-x" />
  <path
     d="m 122.02786,64.195917 a 2.830335,2.830335 0 0 1 -5.66067,0 2.830335,2.830335 0 1 1 5.66067,0 z"
     id="path4334-7"
     style="stroke:#000000;stroke-width:3.50832629;stroke-linecap:round;stroke-miterlimit:4;stroke-opacity:1;stroke-dasharray:none"
     inkscape:connector-curvature="0"
     class="stroke-y fill-y" />
  <g
     style="fill:#000000;fill-opacity:1;stroke:#000000;stroke-opacity:1"
     id="g8436"
     transform="translate(30.308032,-934.72159)">
    <path
       inkscape:connector-curvature="0"
       style="fill:#000000;fill-opacity:1;stroke:#000000;stroke-width:2;stroke-linecap:round;stroke-miterlimit:4;stroke-opacity:1;stroke-dasharray:none"
       id="path6406-2"
       d="m 43.014356,1008.8852 -2.0512,-3.5527 -2.05112,-3.5526 4.10232,0 4.10221,0 -2.05111,3.5526 z"
       class="stroke-alpha fill-alpha" />
    <rect
       style="fill:#000000;fill-opacity:1;stroke:#000000;stroke-width:2;stroke-linecap:round;stroke-miterlimit:4;stroke-opacity:1;stroke-dasharray:none"
       id="rect8434"
       y="990.37097"
       x="42.244225"
       height="11.001101"
       width="0.88008803"
       class="stroke-alpha fill-alpha" />
  </g>
  <path
     inkscape:connector-curvature="0"
     style="fill:#000000;fill-opacity:1;stroke:#000000;stroke-width:2;stroke-linecap:round;stroke-miterlimit:4;stroke-opacity:1;stroke-dasharray:none"
     id="path6406-8"
     d="m 81.495474,99.174909 -3.55268,2.051141 -3.55268,2.05114 0,-4.102281 0,-4.102282 3.55268,2.051141 z"
     class="stroke-g fill-g" />
  <g
     transform="matrix(0.02,0,0,0.02,123.85059,76.846341)"
     id="g9783">
    <path
       d="m 297,86 119,292 c 4,10 6,19 6,26 0,14 -14,23 -42,25 l -26,2 v 28 c 79,-3 79,-3 95,-3 16,0 16,0 95,3 v -28 l -28,-2 C 491,426 472,399 432,308 L 229,-160 c -38,-87 -81,-123 -148,-123 -19,0 -35,5 -54,15 l 24,75 h 13 c 17,-15 35,-23 51,-23 38,0 77,47 109,131 l 23,61 C 229,26 219,50 191,118 L 82,380 c -15,35 -27,46 -52,49 l -18,2 v 28 c 97,-3 97,-3 116,-3 19,0 19,0 116,3 v -28 l -38,-2 c -23,-1 -34,-9 -34,-23 0,-10 4,-25 10,-42 l 64,-168 c 18,-49 29,-72 51,-110"
       transform="scale(1,-1)"
       id="path9785"
       inkscape:connector-curvature="0"
       style="fill:#000000;stroke:#000000;stroke-width:1"
       class="stroke-y fill-y" />
  </g>
  <g
     transform="matrix(0.02,0,0,0.02,18.44637,75.84396)"
     id="g9791">
    <path
       d="M 288,254 436,54 c 11,-15 23,-23 35,-24 l 25,-3 V -3 c -52,3 -52,3 -62,3 -9,0 -9,0 -61,-3 L 240,192 106,0 H 20 v 27 h 17 c 10,0 23,6 30,15 L 216,218 96,392 c -10,14 -32,28 -50,29 l -21,2 -5,26 116,20 c 34,-34 45,-47 60,-69 l 76,-116 124,175 h 82 v -28 h -14 c -17,0 -28,-4 -34,-11"
       transform="scale(1,-1)"
       id="path9793"
       inkscape:connector-curvature="0"
       style="fill:#000000;stroke:#000000;stroke-width:1"
       class="stroke-x fill-x" />
  </g>
  <g
     transform="matrix(0.02,0,0,0.02,70.580828,117.59994)"
     id="g9801">
    <path
       d="m 55,289 c 0,135 146,180 221,180 49,0 85,-12 122,-42 l 142,4 4,-12 -25,-41 h -92 c 8,-21 11,-34 11,-54 0,-127 -143,-174 -204,-174 -8,0 -14,1 -24,2 -17,-17 -46,-34 -46,-57 0,-27 24,-39 76,-39 h 160 c 70,0 118,-50 118,-122 0,-122 -119,-217 -270,-217 -127,0 -216,63 -216,154 0,31 14,68 28,76 l 87,47 C 99,8 81,24 81,52 c 0,15 5,28 15,43 l 79,61 C 101,164 55,215 55,289 z m 185,146 c -64,0 -101,-45 -101,-122 0,-77 45,-129 112,-129 61,0 103,45 103,110 0,85 -46,141 -114,141 z m 47,-449 c -69,0 -97,-2 -113,-10 -40,-17 -66,-58 -66,-103 0,-74 60,-125 147,-125 105,0 184,64 184,150 0,65 -39,88 -152,88"
       transform="scale(1,-1)"
       id="path9803"
       inkscape:connector-curvature="0"
       style="fill:#000000;stroke:#000000;stroke-width:1"
       class="stroke-g fill-g" />
  </g>
  <g
     transform="matrix(0.02,0,0,0.02,71.142016,24.31835)"
     id="g9817">
    <path
       d="m 341,717 v -77 l -12,-6 c -24,21 -42,28 -69,28 -57,0 -70,-28 -70,-143 v -85 l 131,4 -7,-53 H 190 V 102 c 0,-63 3,-70 37,-72 l 46,-3 V -3 C 173,0 173,0 148,0 123,0 123,0 23,-3 v 30 l 46,3 c 34,2 37,9 37,72 v 283 l -69,-4 v 22 l 69,31 v 42 2 c 0,77 57,259 168,259 21,0 43,-6 67,-20"
       transform="scale(1,-1)"
       id="path9819"
       inkscape:connector-curvature="0"
       style="fill:#000000;stroke:#000000;stroke-width:1"
       class="stroke-f fill-f" />
  </g>
  <g
     transform="matrix(0.02,0,0,0.02,81.944854,69.692211)"
     id="g9835">
    <path
       d="m 562,97 c 5,-3 8,-6 9,-13 C 545,54 489,-16 443,-16 392,-16 381,95 375,128 l -3,3 C 324,64 246,-16 154,-16 86,-16 57,33 48,93 24,243 121,473 289,473 401,473 403,337 414,260 l 7,-3 c 26,58 61,134 63,202 h 11 c 11,-15 21,-31 30,-46 -25,-70 -60,-135 -99,-197 6,-32 22,-161 67,-161 27,0 46,24 62,42 h 7 z m -194,67 -4,28 c -9,60 -30,245 -117,245 -109,0 -142,-235 -128,-322 7,-45 25,-87 78,-87 71,0 137,85 171,136"
       transform="scale(1,-1)"
       id="path9837"
       inkscape:connector-curvature="0"
       style="fill:#000000;stroke:#000000;stroke-width:1"
       class="stroke-alpha fill-alpha" />
  </g>
</svg>
