<?xml version="1.0" encoding="UTF-8" standalone="no"?>
<svg
   xmlns:dc="http://purl.org/dc/elements/1.1/"
   xmlns:cc="http://creativecommons.org/ns#"
   xmlns:rdf="http://www.w3.org/1999/02/22-rdf-syntax-ns#"
   xmlns:svg="http://www.w3.org/2000/svg"
   xmlns="http://www.w3.org/2000/svg"
   xmlns:sodipodi="http://sodipodi.sourceforge.net/DTD/sodipodi-0.dtd"
   xmlns:inkscape="http://www.inkscape.org/namespaces/inkscape"
   width="675"
   height="222"
   viewBox="0 -11116 33798 11116"
   id="svg5116"
   version="1.1"
   inkscape:version="0.48.4 r9939"
   sodipodi:docname="uprops-ext.svg">
  <metadata
     id="metadata5330">
    <rdf:RDF>
      <cc:Work
         rdf:about="">
        <dc:format>image/svg+xml</dc:format>
        <dc:type
           rdf:resource="http://purl.org/dc/dcmitype/StillImage" />
        <dc:title></dc:title>
      </cc:Work>
    </rdf:RDF>
  </metadata>
  <defs
     id="defs5328" />
  <sodipodi:namedview
     pagecolor="#ffffff"
     bordercolor="#666666"
     borderopacity="1"
     objecttolerance="10"
     gridtolerance="10"
     guidetolerance="10"
     inkscape:pageopacity="0"
     inkscape:pageshadow="2"
     inkscape:window-width="1855"
     inkscape:window-height="1056"
     id="namedview5326"
     showgrid="false"
     inkscape:zoom="2.4471132"
     inkscape:cx="337.5"
     inkscape:cy="111"
     inkscape:window-x="65"
     inkscape:window-y="24"
     inkscape:window-maximized="1"
     inkscape:current-layer="svg5116" />
  <g
     transform="translate(3957, -2618)"
     id="g5118">
    <g
       id="g5120">
      <rect
         x="-1957"
         y="-5879"
         width="3912"
         height="5879"
         rx="200"
         ry="200"
         fill="#FFFFFF"
         stroke="#000000"
         stroke-width="100"
         id="rect5122" />
      <g
         transform="translate(956, -503)"
         id="g5124">
        <path
           d="M455 432l-314 -397h135c96 0 138 7 142 25l18 79h30l-6 -47c-7 -48 -9 -72 -9 -95l-276 3c-43 0 -49 0 -153 -3l-6 20l90 105l170 212c27 34 44 57 65 90h-143c-74 0 -92 -5 -96 -26l-12 -68h-30c6 69 7 81 9 132l248 -3c38 0 68 1 138 3v-30"
           fill="black"
           stroke="black"
           stroke-width="1"
           transform="translate(0, 0) scale(1, -1)"
           id="path5126" />
      </g>
    </g>
    <g
       id="g5128">
      <rect
         x="-1357"
         y="-5179"
         width="2812"
         height="3814"
         rx="200"
         ry="200"
         fill="#FFFFFF"
         stroke="#000000"
         stroke-width="100"
         id="rect5130" />
      <g
         transform="translate(400, -2148)"
         id="g5132">
        <path
           d="M297 86l119 292c4 10 6 19 6 26c0 14 -14 23 -42 25l-26 2v28c79 -3 79 -3 95 -3s16 0 95 3v-28l-28 -2c-25 -3 -44 -30 -84 -121l-203 -468c-38 -87 -81 -123 -148 -123c-19 0 -35 5 -54 15l24 75h13c17 -15 35 -23 51 -23c38 0 77 47 109 131l23 61 c-18 50 -28 74 -56 142l-109 262c-15 35 -27 46 -52 49l-18 2v28c97 -3 97 -3 116 -3s19 0 116 3v-28l-38 -2c-23 -1 -34 -9 -34 -23c0 -10 4 -25 10 -42l64 -168c18 -49 29 -72 51 -110"
           fill="black"
           stroke="black"
           stroke-width="1"
           transform="translate(0, 0) scale(1, -1)"
           id="path5134" />
      </g>
    </g>
    <g
       id="g5136">
      <rect
         x="-757"
         y="-4479"
         width="1514"
         height="1472"
         rx="200"
         ry="200"
         fill="#FFFFFF"
         stroke="#000000"
         stroke-width="100"
         id="rect5138" />
      <g
         transform="translate(-258, -3510)"
         id="g5140">
        <path
           d="M288 254l148 -200c11 -15 23 -23 35 -24l25 -3v-30c-52 3 -52 3 -62 3c-9 0 -9 0 -61 -3l-133 195l-134 -192h-86v27h17c10 0 23 6 30 15l149 176l-120 174c-10 14 -32 28 -50 29l-21 2l-5 26l116 20c34 -34 45 -47 60 -69l76 -116l124 175h82v-28h-14 c-17 0 -28 -4 -34 -11"
           fill="black"
           stroke="black"
           stroke-width="1"
           transform="translate(0, 0) scale(1, -1)"
           id="path5142" />
      </g>
    </g>
  </g>
  <g
     transform="translate(9778, -1202)"
     id="g5144">
    <g
       id="g5146">
      <rect
         x="-1866"
         y="-8711"
         width="3821"
         height="8711"
         rx="200"
         ry="200"
         fill="#FFFFFF"
         stroke="#000000"
         stroke-width="100"
         id="rect5148" />
      <g
         transform="translate(1165, -503)"
         id="g5150">
        <path
           d="M188 465v-363c0 -63 3 -70 37 -72l46 -3v-30c-100 3 -100 3 -125 3s-25 0 -125 -3v30l46 3c34 2 37 9 37 72v225c0 66 -4 73 -44 73h-37v28c53 6 105 20 156 41zM142 687c28 0 55 -28 55 -56c0 -29 -27 -55 -56 -55s-55 26 -55 55c0 30 26 56 56 56"
           fill="black"
           stroke="black"
           stroke-width="1"
           transform="translate(0, 0) scale(1, -1)"
           id="path5152" />
      </g>
    </g>
    <g
       id="g5154">
      <rect
         x="-1266"
         y="-8011"
         width="2721"
         height="4092"
         rx="200"
         ry="200"
         fill="#FFFFFF"
         stroke="#000000"
         stroke-width="100"
         id="rect5156" />
      <g
         transform="translate(400, -4702)"
         id="g5158">
        <path
           d="M55 289c0 135 146 180 221 180c49 0 85 -12 122 -42l142 4l4 -12l-25 -41h-92c8 -21 11 -34 11 -54c0 -127 -143 -174 -204 -174c-8 0 -14 1 -24 2c-17 -17 -46 -34 -46 -57c0 -27 24 -39 76 -39h160c70 0 118 -50 118 -122c0 -122 -119 -217 -270 -217 c-127 0 -216 63 -216 154c0 31 14 68 28 76l87 47c-48 14 -66 30 -66 58c0 15 5 28 15 43l79 61c-74 8 -120 59 -120 133zM240 435c-64 0 -101 -45 -101 -122s45 -129 112 -129c61 0 103 45 103 110c0 85 -46 141 -114 141zM287 -14c-69 0 -97 -2 -113 -10 c-40 -17 -66 -58 -66 -103c0 -74 60 -125 147 -125c105 0 184 64 184 150c0 65 -39 88 -152 88"
           fill="black"
           stroke="black"
           stroke-width="1"
           transform="translate(0, 0) scale(1, -1)"
           id="path5160" />
      </g>
    </g>
    <g
       id="g5162">
      <path
         d="M 0 -1590 V 1200"
         fill="none"
         stroke="black"
         stroke-width="100"
         id="path5164" />
    </g>
    <g
       id="g5166">
      <path
         d="M 0 -5571 V -3319"
         fill="none"
         stroke="black"
         stroke-width="100"
         id="path5168" />
    </g>
    <g
       id="g5170">
      <path
         d="M 0 -9911 V -7311"
         fill="none"
         stroke="black"
         stroke-width="100"
         id="path5172" />
    </g>
    <g
       id="g5174">
      <rect
         x="-790"
         y="-3319"
         width="1580"
         height="1729"
         rx="200"
         ry="200"
         fill="#FFFFFF"
         stroke="#000000"
         stroke-width="100"
         id="rect5176" />
      <g
         transform="translate(-291, -2093)"
         id="g5178">
        <path
           d="M7 661v28c79 12 112 20 156 37l9 -8v-340c28 61 89 92 151 92c85 0 171 -58 171 -175v-193c0 -64 3 -70 37 -72l41 -3v-30c-69 3 -69 3 -83 3c-17 0 -18 0 -79 -3v284c0 77 -44 127 -111 127c-61 0 -127 -49 -127 -94v-212c0 -63 3 -70 37 -72l45 -3v-30 c-68 2 -95 3 -124 3s-56 -1 -124 -3v30l45 3c34 2 37 9 37 72v518c0 30 -7 41 -25 41h-56"
           fill="black"
           stroke="black"
           stroke-width="1"
           transform="translate(0, 0) scale(1, -1)"
           id="path5180" />
      </g>
    </g>
    <g
       id="g5182">
      <rect
         x="-666"
         y="-7311"
         width="1332"
         height="1740"
         rx="200"
         ry="200"
         fill="#FFFFFF"
         stroke="#000000"
         stroke-width="100"
         id="rect5184" />
      <g
         transform="translate(-166, -6074)"
         id="g5186">
        <path
           d="M341 717v-77l-12 -6c-24 21 -42 28 -69 28c-57 0 -70 -28 -70 -143v-85l131 4l-7 -53h-124v-283c0 -63 3 -70 37 -72l46 -3v-30c-100 3 -100 3 -125 3s-25 0 -125 -3v30l46 3c34 2 37 9 37 72v283l-69 -4v22l69 31v42v2c0 77 57 259 168 259c21 0 43 -6 67 -20"
           fill="black"
           stroke="black"
           stroke-width="1"
           transform="translate(0, 0) scale(1, -1)"
           id="path5188" />
      </g>
    </g>
  </g>
  <g
     id="g5192"
     transform="translate(17127,-1200)">
    <rect
       style="fill:#ffffff;stroke:#21ba45;stroke-width:100"
       id="rect5194"
       ry="200"
       rx="200"
       height="8716"
       width="5750"
       y="-8716"
       x="-3394" />
    <g
       id="g5196"
       transform="translate(493,-516)">
      <path
         style="fill:#000000;stroke:#000000;stroke-width:1"
         inkscape:connector-curvature="0"
         id="path5198"
         transform="scale(1,-1)"
         d="M 592,697 311,-15 H 294 L 26,697 H 71 L 180,401 H 371 L 480,697 H 592 z M 355,359 H 196 l 79,-214" />
      <path
         style="fill:#000000;stroke:#000000;stroke-width:1"
         inkscape:connector-curvature="0"
         id="path5200"
         transform="matrix(1,0,0,-1,617,0)"
         d="" />
      <path
         style="fill:#000000;stroke:#000000;stroke-width:1"
         inkscape:connector-curvature="0"
         id="path5202"
         transform="matrix(1,0,0,-1,866,0)"
         d="M 465,287 C 489,139 403,-16 246,-16 133,-16 78,53 61,160 38,304 108,426 246,458 v 6 c -47,29 -126,75 -135,133 -13,79 102,105 163,105 25,0 50,-3 75,-8 8,-13 14,-27 19,-39 l -9,-6 c -33,19 -68,30 -103,30 -35,0 -85,-15 -78,-57 C 196,506 436,470 465,287 z M 393,269 C 380,350 339,399 268,448 141,411 116,295 137,167 148,99 183,12 267,12 385,12 408,174 393,269" />
    </g>
  </g>
  <g
     id="g5204"
     transform="translate(17127,-1200)">
    <rect
       style="fill:#ffffff;stroke:#000000;stroke-width:100"
       id="rect5206"
       ry="200"
       rx="200"
       height="6398"
       width="4650"
       y="-8016"
       x="-2794" />
    <g
       id="g5208"
       transform="translate(775,-2391)">
      <path
         style="fill:#000000;stroke:#000000;stroke-width:1"
         inkscape:connector-curvature="0"
         id="path5210"
         transform="scale(1,-1)"
         d="m 88,473 c 88,0 171,-80 146,-450 l 6,-4 c 48,89 192,260 176,366 -3,16 -10,34 -16,50 l 4,11 c 16,7 47,21 64,21 16,0 18,-17 20,-29 C 501,353 427,254 383,194 329,120 275,43 227,-36 c -2,-70 -12,-147 -26,-215 -19,-9 -38,-17 -58,-22 -5,8 -11,16 -16,24 15,68 46,163 82,220 2,82 -2,165 -16,249 -11,70 -42,192 -137,192 -37,0 -54,-18 -73,-46 l -6,-1 c -3,3 -7,6 -8,12 25,49 54,96 119,96" />
    </g>
  </g>
  <g
     id="g5212"
     transform="translate(17127,-1200)">
    <path
       style="fill:none;stroke:#000000;stroke-width:100"
       inkscape:connector-curvature="0"
       id="path5214"
       d="M 0,-3264 V 1200" />
  </g>
  <g
     id="g5216"
     transform="translate(17127,-1200)">
    <path
       style="fill:none;stroke:#000000;stroke-width:100"
       inkscape:connector-curvature="0"
       id="path5218"
       d="m 1356,-9916 v 5470 a 200,200 0 0 1 -200,200 H 756" />
  </g>
  <g
     id="g5220"
     transform="translate(17127,-1200)">
    <path
       style="fill:none;stroke:#000000;stroke-width:100"
       inkscape:connector-curvature="0"
       id="path5222"
       d="m -1397,-5827 v 1381 a 200,200 0 0 0 200,200 h 441" />
  </g>
  <g
     id="g5224"
     transform="translate(17127,-1200)">
    <path
       style="fill:none;stroke:#000000;stroke-width:100"
       inkscape:connector-curvature="0"
       id="path5226"
       d="m -1397,-9916 v 2600" />
  </g>
  <g
     id="g5228"
     transform="translate(17127,-1200)">
    <rect
       style="fill:#ffffff;stroke:#000000;stroke-width:100"
       id="rect5230"
       ry="200"
       rx="200"
       height="1963"
       width="1512"
       y="-5227"
       x="-756" />
    <g
       id="g5232"
       transform="translate(-256,-4047)">
      <path
         style="fill:#000000;stroke:#000000;stroke-width:1"
         inkscape:connector-curvature="0"
         id="path5234"
         transform="scale(1,-1)"
         d="M 458,205 C 478,80 382,-15 261,-15 c -44,0 -89,13 -127,44 3,-95 6,-191 17,-288 -26,-6 -50,-15 -74,-24 l -9,10 c 11,186 6,375 5,562 0,150 -15,306 135,372 28,12 57,19 88,19 64,0 103,-36 113,-99 C 426,479 355,400 268,369 l 1,-9 c 91,-2 174,-59 189,-155 z m -82,3 c -13,83 -70,131 -152,131 -17,0 -32,-3 -47,-10 l -9,8 c 4,10 5,22 6,34 106,0 187,75 169,187 -7,48 -37,88 -89,88 -19,0 -37,-6 -52,-17 -80,-56 -77,-424 -61,-526 9,-58 51,-91 108,-91 106,0 142,103 127,196" />
    </g>
  </g>
  <g
     id="g5236"
     transform="translate(17127,-1200)">
    <rect
       style="fill:#ffffff;stroke:#000000;stroke-width:100"
       id="rect5238"
       ry="200"
       rx="200"
       height="1489"
       width="1594"
       y="-7316"
       x="-2194" />
    <g
       id="g5240"
       transform="translate(-1694,-6343)">
      <path
         style="fill:#000000;stroke:#000000;stroke-width:1"
         inkscape:connector-curvature="0"
         id="path5242"
         transform="scale(1,-1)"
         d="m 562,97 c 5,-3 8,-6 9,-13 C 545,54 489,-16 443,-16 392,-16 381,95 375,128 l -3,3 C 324,64 246,-16 154,-16 86,-16 57,33 48,93 24,243 121,473 289,473 401,473 403,337 414,260 l 7,-3 c 26,58 61,134 63,202 h 11 c 11,-15 21,-31 30,-46 -25,-70 -60,-135 -99,-197 6,-32 22,-161 67,-161 27,0 46,24 62,42 h 7 z m -194,67 -4,28 c -9,60 -30,245 -117,245 -109,0 -142,-235 -128,-322 7,-45 25,-87 78,-87 71,0 137,85 171,136" />
    </g>
  </g>
  <g
     id="g5258"
     transform="translate(23516,-2096)">
    <path
       style="fill:none;stroke:#000000;stroke-width:100"
       inkscape:connector-curvature="0"
       id="path5260"
       d="M 0,-1620 V 1200" />
  </g>
  <g
     id="g5262"
     transform="translate(23516,-2096)">
    <path
       style="fill:none;stroke:#000000;stroke-width:100"
       inkscape:connector-curvature="0"
       id="path5264"
       d="m 0,-4520 v 1200" />
    <polygon
       style="fill:#000000;stroke:#000000;stroke-width:100"
       id="polygon5266"
       transform="translate(-150,-4220)"
       points="300,0 0,0 150,300 " />
  </g>
  <g
     id="g5268"
     transform="translate(23516,-2096)">
    <path
       style="fill:none;stroke:#000000;stroke-width:100"
       inkscape:connector-curvature="0"
       id="path5270"
       d="m 1433,-8123 v 2551 a 200,200 0 0 1 -200,200 H 833" />
  </g>
  <g
     id="g5272"
     transform="translate(23516,-2096)">
    <path
       style="fill:none;stroke:#000000;stroke-width:100"
       inkscape:connector-curvature="0"
       id="path5274"
       d="m -1433,-8123 v 2551 a 200,200 0 0 0 200,200 h 400" />
  </g>
  <rect
     x="22250"
     y="-5416"
     width="2532"
     height="1700"
     rx="200"
     ry="200"
     id="rect5278"
     style="fill:#ffffff;stroke:#000000;stroke-width:100;stroke-opacity:1" />
  <g
     id="g5288"
     transform="translate(23516,-2096)">
    <rect
       style="fill:#ffffff;stroke:#000000;stroke-width:100"
       id="rect5290"
       ry="200"
       rx="200"
       height="1703"
       width="1666"
       y="-6223"
       x="-833" />
    <g
       id="g5292"
       transform="translate(-333,-5023)">
      <path
         style="fill:#000000;stroke:#000000;stroke-width:1"
         inkscape:connector-curvature="0"
         id="path5294"
         transform="scale(1,-1)"
         d="M 648,27 V -3 c -43,2 -66,3 -71,3 -12,0 -12,0 -74,-3 L 319,303 117,-3 C 74,0 74,0 66,0 58,0 58,0 14,-3 v 30 l 26,3 c 22,3 34,14 59,48 L 294,341 166,554 c -33,55 -68,88 -92,90 l -45,3 -2,26 141,27 c 19,-10 34,-27 57,-65 L 353,419 538,689 h 101 v -30 l -41,-3 c -15,-2 -27,-14 -68,-68 L 376,380 552,100 c 35,-54 47,-67 66,-70" />
    </g>
  </g>
</svg>
