<?xml version="1.0" encoding="UTF-8" standalone="no"?>
<svg
   xmlns:dc="http://purl.org/dc/elements/1.1/"
   xmlns:cc="http://creativecommons.org/ns#"
   xmlns:rdf="http://www.w3.org/1999/02/22-rdf-syntax-ns#"
   xmlns:svg="http://www.w3.org/2000/svg"
   xmlns="http://www.w3.org/2000/svg"
   xmlns:sodipodi="http://sodipodi.sourceforge.net/DTD/sodipodi-0.dtd"
   xmlns:inkscape="http://www.inkscape.org/namespaces/inkscape"
   width="675"
   height="222"
   viewBox="0 -11116 33798 11116"
   id="svg9451"
   version="1.1"
   inkscape:version="0.48.4 r9939"
   sodipodi:docname="uprops-ext.svg">
  <metadata
     id="metadata9665">
    <rdf:RDF>
      <cc:Work
         rdf:about="">
        <dc:format>image/svg+xml</dc:format>
        <dc:type
           rdf:resource="http://purl.org/dc/dcmitype/StillImage" />
        <dc:title></dc:title>
      </cc:Work>
    </rdf:RDF>
  </metadata>
  <defs
     id="defs9663" />
  <sodipodi:namedview
     pagecolor="#ffffff"
     bordercolor="#666666"
     borderopacity="1"
     objecttolerance="10"
     gridtolerance="10"
     guidetolerance="10"
     inkscape:pageopacity="0"
     inkscape:pageshadow="2"
     inkscape:window-width="640"
     inkscape:window-height="480"
     id="namedview9661"
     showgrid="false"
     inkscape:zoom="0.43259259"
     inkscape:cx="337.5"
     inkscape:cy="111"
     inkscape:window-x="65"
     inkscape:window-y="24"
     inkscape:window-maximized="0"
     inkscape:current-layer="svg9451" />
  <g
     transform="translate(3957, -2618)"
     id="g9453">
    <g
       id="g9455">
      <rect
         x="-1957"
         y="-5879"
         width="3912"
         height="5879"
         rx="200"
         ry="200"
         fill="#FFFFFF"
         stroke="#000000"
         stroke-width="100"
         id="rect9457" />
      <g
         transform="translate(956, -503)"
         id="g9459">
        <path
           d="M455 432l-314 -397h135c96 0 138 7 142 25l18 79h30l-6 -47c-7 -48 -9 -72 -9 -95l-276 3c-43 0 -49 0 -153 -3l-6 20l90 105l170 212c27 34 44 57 65 90h-143c-74 0 -92 -5 -96 -26l-12 -68h-30c6 69 7 81 9 132l248 -3c38 0 68 1 138 3v-30"
           fill="black"
           stroke="black"
           stroke-width="1"
           transform="translate(0, 0) scale(1, -1)"
           id="path9461" />
      </g>
    </g>
    <g
       id="g9463">
      <rect
         x="-1357"
         y="-5179"
         width="2812"
         height="3814"
         rx="200"
         ry="200"
         fill="#FFFFFF"
         stroke="#000000"
         stroke-width="100"
         id="rect9465" />
      <g
         transform="translate(400, -2148)"
         id="g9467">
        <path
           d="M297 86l119 292c4 10 6 19 6 26c0 14 -14 23 -42 25l-26 2v28c79 -3 79 -3 95 -3s16 0 95 3v-28l-28 -2c-25 -3 -44 -30 -84 -121l-203 -468c-38 -87 -81 -123 -148 -123c-19 0 -35 5 -54 15l24 75h13c17 -15 35 -23 51 -23c38 0 77 47 109 131l23 61 c-18 50 -28 74 -56 142l-109 262c-15 35 -27 46 -52 49l-18 2v28c97 -3 97 -3 116 -3s19 0 116 3v-28l-38 -2c-23 -1 -34 -9 -34 -23c0 -10 4 -25 10 -42l64 -168c18 -49 29 -72 51 -110"
           fill="black"
           stroke="black"
           stroke-width="1"
           transform="translate(0, 0) scale(1, -1)"
           id="path9469" />
      </g>
    </g>
    <g
       id="g9471">
      <rect
         x="-757"
         y="-4479"
         width="1514"
         height="1472"
         rx="200"
         ry="200"
         fill="#FFFFFF"
         stroke="#000000"
         stroke-width="100"
         id="rect9473" />
      <g
         transform="translate(-258, -3510)"
         id="g9475">
        <path
           d="M288 254l148 -200c11 -15 23 -23 35 -24l25 -3v-30c-52 3 -52 3 -62 3c-9 0 -9 0 -61 -3l-133 195l-134 -192h-86v27h17c10 0 23 6 30 15l149 176l-120 174c-10 14 -32 28 -50 29l-21 2l-5 26l116 20c34 -34 45 -47 60 -69l76 -116l124 175h82v-28h-14 c-17 0 -28 -4 -34 -11"
           fill="black"
           stroke="black"
           stroke-width="1"
           transform="translate(0, 0) scale(1, -1)"
           id="path9477" />
      </g>
    </g>
  </g>
  <g
     transform="translate(9778, -1202)"
     id="g9479">
    <g
       id="g9481">
      <rect
         x="-1866"
         y="-8711"
         width="3821"
         height="8711"
         rx="200"
         ry="200"
         fill="#FFFFFF"
         stroke="#000000"
         stroke-width="100"
         id="rect9483" />
      <g
         transform="translate(1165, -503)"
         id="g9485">
        <path
           d="M188 465v-363c0 -63 3 -70 37 -72l46 -3v-30c-100 3 -100 3 -125 3s-25 0 -125 -3v30l46 3c34 2 37 9 37 72v225c0 66 -4 73 -44 73h-37v28c53 6 105 20 156 41zM142 687c28 0 55 -28 55 -56c0 -29 -27 -55 -56 -55s-55 26 -55 55c0 30 26 56 56 56"
           fill="black"
           stroke="black"
           stroke-width="1"
           transform="translate(0, 0) scale(1, -1)"
           id="path9487" />
      </g>
    </g>
    <g
       id="g9489">
      <rect
         x="-1266"
         y="-8011"
         width="2721"
         height="4092"
         rx="200"
         ry="200"
         fill="#FFFFFF"
         stroke="#000000"
         stroke-width="100"
         id="rect9491" />
      <g
         transform="translate(400, -4702)"
         id="g9493">
        <path
           d="M55 289c0 135 146 180 221 180c49 0 85 -12 122 -42l142 4l4 -12l-25 -41h-92c8 -21 11 -34 11 -54c0 -127 -143 -174 -204 -174c-8 0 -14 1 -24 2c-17 -17 -46 -34 -46 -57c0 -27 24 -39 76 -39h160c70 0 118 -50 118 -122c0 -122 -119 -217 -270 -217 c-127 0 -216 63 -216 154c0 31 14 68 28 76l87 47c-48 14 -66 30 -66 58c0 15 5 28 15 43l79 61c-74 8 -120 59 -120 133zM240 435c-64 0 -101 -45 -101 -122s45 -129 112 -129c61 0 103 45 103 110c0 85 -46 141 -114 141zM287 -14c-69 0 -97 -2 -113 -10 c-40 -17 -66 -58 -66 -103c0 -74 60 -125 147 -125c105 0 184 64 184 150c0 65 -39 88 -152 88"
           fill="black"
           stroke="black"
           stroke-width="1"
           transform="translate(0, 0) scale(1, -1)"
           id="path9495" />
      </g>
    </g>
    <g
       id="g9497">
      <path
         d="M 0 -1590 V 1200"
         fill="none"
         stroke="black"
         stroke-width="100"
         id="path9499" />
    </g>
    <g
       id="g9501">
      <path
         d="M 0 -5571 V -3319"
         fill="none"
         stroke="black"
         stroke-width="100"
         id="path9503" />
    </g>
    <g
       id="g9505">
      <path
         d="M 0 -9911 V -7311"
         fill="none"
         stroke="black"
         stroke-width="100"
         id="path9507" />
    </g>
    <g
       id="g9509">
      <rect
         x="-790"
         y="-3319"
         width="1580"
         height="1729"
         rx="200"
         ry="200"
         fill="#FFFFFF"
         stroke="#000000"
         stroke-width="100"
         id="rect9511" />
      <g
         transform="translate(-291, -2093)"
         id="g9513">
        <path
           d="M7 661v28c79 12 112 20 156 37l9 -8v-340c28 61 89 92 151 92c85 0 171 -58 171 -175v-193c0 -64 3 -70 37 -72l41 -3v-30c-69 3 -69 3 -83 3c-17 0 -18 0 -79 -3v284c0 77 -44 127 -111 127c-61 0 -127 -49 -127 -94v-212c0 -63 3 -70 37 -72l45 -3v-30 c-68 2 -95 3 -124 3s-56 -1 -124 -3v30l45 3c34 2 37 9 37 72v518c0 30 -7 41 -25 41h-56"
           fill="black"
           stroke="black"
           stroke-width="1"
           transform="translate(0, 0) scale(1, -1)"
           id="path9515" />
      </g>
    </g>
    <g
       id="g9517">
      <rect
         x="-666"
         y="-7311"
         width="1332"
         height="1740"
         rx="200"
         ry="200"
         fill="#FFFFFF"
         stroke="#000000"
         stroke-width="100"
         id="rect9519" />
      <g
         transform="translate(-166, -6074)"
         id="g9521">
        <path
           d="M341 717v-77l-12 -6c-24 21 -42 28 -69 28c-57 0 -70 -28 -70 -143v-85l131 4l-7 -53h-124v-283c0 -63 3 -70 37 -72l46 -3v-30c-100 3 -100 3 -125 3s-25 0 -125 -3v30l46 3c34 2 37 9 37 72v283l-69 -4v22l69 31v42v2c0 77 57 259 168 259c21 0 43 -6 67 -20"
           fill="black"
           stroke="black"
           stroke-width="1"
           transform="translate(0, 0) scale(1, -1)"
           id="path9523" />
      </g>
    </g>
  </g>
  <g
     transform="translate(17127, -1200)"
     id="g9525">
    <g
       id="g9527">
      <rect
         x="-3394"
         y="-8716"
         width="5750"
         height="8716"
         rx="200"
         ry="200"
         fill="#FFFFFF"
         stroke="#21BA45"
         stroke-width="100"
         id="rect9529" />
      <g
         transform="translate(493, -516)"
         id="g9531">
        <path
           d="M592 697l-281 -712h-17l-268 712h45l109 -296h191l109 296h112zM355 359h-159l79 -214"
           fill="black"
           stroke="black"
           stroke-width="1"
           transform="translate(0, 0) scale(1, -1)"
           id="path9533" />
        <path
           d=""
           fill="black"
           stroke="black"
           stroke-width="1"
           transform="translate(617, 0) scale(1, -1)"
           id="path9535" />
        <path
           d="M465 287c24 -148 -62 -303 -219 -303c-113 0 -168 69 -185 176c-23 144 47 266 185 298v6c-47 29 -126 75 -135 133c-13 79 102 105 163 105c25 0 50 -3 75 -8c8 -13 14 -27 19 -39l-9 -6c-33 19 -68 30 -103 30s-85 -15 -78 -57c18 -116 258 -152 287 -335zM393 269 c-13 81 -54 130 -125 179c-127 -37 -152 -153 -131 -281c11 -68 46 -155 130 -155c118 0 141 162 126 257"
           fill="black"
           stroke="black"
           stroke-width="1"
           transform="translate(866, 0) scale(1, -1)"
           id="path9537" />
      </g>
    </g>
    <g
       id="g9539">
      <rect
         x="-2794"
         y="-8016"
         width="4650"
         height="6398"
         rx="200"
         ry="200"
         fill="#FFFFFF"
         stroke="#000000"
         stroke-width="100"
         id="rect9541" />
      <g
         transform="translate(775, -2391)"
         id="g9543">
        <path
           d="M88 473c88 0 171 -80 146 -450l6 -4c48 89 192 260 176 366c-3 16 -10 34 -16 50l4 11c16 7 47 21 64 21c16 0 18 -17 20 -29c13 -85 -61 -184 -105 -244c-54 -74 -108 -151 -156 -230c-2 -70 -12 -147 -26 -215c-19 -9 -38 -17 -58 -22c-5 8 -11 16 -16 24 c15 68 46 163 82 220c2 82 -2 165 -16 249c-11 70 -42 192 -137 192c-37 0 -54 -18 -73 -46l-6 -1c-3 3 -7 6 -8 12c25 49 54 96 119 96"
           fill="black"
           stroke="black"
           stroke-width="1"
           transform="translate(0, 0) scale(1, -1)"
           id="path9545" />
      </g>
    </g>
    <g
       id="g9547">
      <path
         d="M 0 -3264 V 1200"
         fill="none"
         stroke="black"
         stroke-width="100"
         id="path9549" />
    </g>
    <g
       id="g9551">
      <path
         d="M 1356 -9916 V -4446 A 200 200 0 0 1 1156 -4246 H 756"
         fill="none"
         stroke="black"
         stroke-width="100"
         id="path9553" />
    </g>
    <g
       id="g9555">
      <path
         d="M -1397 -5827 V -4446 A 200 200 0 0 0 -1197 -4246 H -756"
         fill="none"
         stroke="black"
         stroke-width="100"
         id="path9557" />
    </g>
    <g
       id="g9559">
      <path
         d="M -1397 -9916 V -7316"
         fill="none"
         stroke="black"
         stroke-width="100"
         id="path9561" />
    </g>
    <g
       id="g9563">
      <rect
         x="-756"
         y="-5227"
         width="1512"
         height="1963"
         rx="200"
         ry="200"
         fill="#FFFFFF"
         stroke="#000000"
         stroke-width="100"
         id="rect9565" />
      <g
         transform="translate(-256, -4047)"
         id="g9567">
        <path
           d="M458 205c20 -125 -76 -220 -197 -220c-44 0 -89 13 -127 44c3 -95 6 -191 17 -288c-26 -6 -50 -15 -74 -24l-9 10c11 186 6 375 5 562c0 150 -15 306 135 372c28 12 57 19 88 19c64 0 103 -36 113 -99c17 -102 -54 -181 -141 -212l1 -9c91 -2 174 -59 189 -155zM376 208 c-13 83 -70 131 -152 131c-17 0 -32 -3 -47 -10l-9 8c4 10 5 22 6 34c106 0 187 75 169 187c-7 48 -37 88 -89 88c-19 0 -37 -6 -52 -17c-80 -56 -77 -424 -61 -526c9 -58 51 -91 108 -91c106 0 142 103 127 196"
           fill="black"
           stroke="black"
           stroke-width="1"
           transform="translate(0, 0) scale(1, -1)"
           id="path9569" />
      </g>
    </g>
    <g
       id="g9571">
      <rect
         x="-2194"
         y="-7316"
         width="1594"
         height="1489"
         rx="200"
         ry="200"
         fill="#FFFFFF"
         stroke="#000000"
         stroke-width="100"
         id="rect9573" />
      <g
         transform="translate(-1694, -6343)"
         id="g9575">
        <path
           d="M562 97c5 -3 8 -6 9 -13c-26 -30 -82 -100 -128 -100c-51 0 -62 111 -68 144l-3 3c-48 -67 -126 -147 -218 -147c-68 0 -97 49 -106 109c-24 150 73 380 241 380c112 0 114 -136 125 -213l7 -3c26 58 61 134 63 202h11c11 -15 21 -31 30 -46c-25 -70 -60 -135 -99 -197 c6 -32 22 -161 67 -161c27 0 46 24 62 42h7zM368 164l-4 28c-9 60 -30 245 -117 245c-109 0 -142 -235 -128 -322c7 -45 25 -87 78 -87c71 0 137 85 171 136"
           fill="black"
           stroke="black"
           stroke-width="1"
           transform="translate(0, 0) scale(1, -1)"
           id="path9577" />
      </g>
    </g>
  </g>
  <g
     transform="translate(23516, -2096)"
     id="g9579">
    <g
       id="g9581">
      <rect
         x="-2033"
         y="-6923"
         width="4465"
         height="6923"
         rx="200"
         ry="200"
         fill="#FFFFFF"
         stroke="#21BA45"
         stroke-width="100"
         id="rect9583" />
      <g
         transform="translate(400, -515)"
         id="g9585">
        <path
           d="M592 697l-281 -712h-17l-268 712h45l109 -296h191l109 296h112zM355 359h-159l79 -214"
           fill="black"
           stroke="black"
           stroke-width="1"
           transform="translate(0, 0) scale(1, -1)"
           id="path9587" />
        <path
           d=""
           fill="black"
           stroke="black"
           stroke-width="1"
           transform="translate(617, 0) scale(1, -1)"
           id="path9589" />
        <path
           d="M9 680l120 25c18 0 59 -46 91 -103l143 -261l103 163c39 62 70 116 108 190h80v-15c-81 -97 -114 -142 -188 -253c-58 -88 -72 -122 -72 -177v-129c0 -79 5 -87 51 -90l48 -3v-30c-59 2 -95 3 -147 3s-87 -1 -146 -3v30l48 3c46 3 51 11 51 90v142c0 16 -3 30 -9 40 l-124 216c-42 73 -94 125 -128 130l-29 3v29"
           fill="black"
           stroke="black"
           stroke-width="1"
           transform="translate(866, 0) scale(1, -1)"
           id="path9591" />
      </g>
    </g>
    <g
       id="g9593">
      <path
         d="M 0 -1620 V 1200"
         fill="none"
         stroke="black"
         stroke-width="100"
         id="path9595" />
    </g>
    <g
       id="g9597">
      <path
         d="M 0 -4520 V -3320"
         fill="none"
         stroke="black"
         stroke-width="100"
         id="path9599" />
      <polygon
         points="0,0 150,300 300,0"
         stroke="black"
         stroke-width="100"
         fill="black"
         transform="translate(-150, -4220)"
         id="polygon9601" />
    </g>
    <g
       id="g9603">
      <path
         d="M 1433 -8123 V -5572 A 200 200 0 0 1 1233 -5372 H 833"
         fill="none"
         stroke="black"
         stroke-width="100"
         id="path9605" />
    </g>
    <g
       id="g9607">
      <path
         d="M -1433 -8123 V -5572 A 200 200 0 0 0 -1233 -5372 H -833"
         fill="none"
         stroke="black"
         stroke-width="100"
         id="path9609" />
    </g>
    <g
       id="g9611">
      <rect
         x="-1266"
         y="-3320"
         width="2532"
         height="1700"
         rx="200"
         ry="200"
         fill="#FFFFFF"
         stroke="#DB2828"
         stroke-width="100"
         id="rect9613" />
      <g
         transform="translate(-766, -2123)"
         id="g9615">
        <path
           d="M572 0h-526v39h388c19 0 34 16 34 53v253h-332v39h332v232c0 26 -20 42 -47 42h-364v39h515v-697"
           fill="black"
           stroke="black"
           stroke-width="1"
           transform="translate(0, 0) scale(1, -1)"
           id="path9617" />
        <path
           d=""
           fill="black"
           stroke="black"
           stroke-width="1"
           transform="translate(617, 0) scale(1, -1)"
           id="path9619" />
        <path
           d="M637 663l-486 -619h273c153 0 167 6 174 72l6 57h34c-5 -55 -6 -90 -6 -176l-305 3l-312 -3v28l485 623h-228c-122 0 -149 -8 -152 -47l-6 -71h-34c2 37 3 55 3 81s-1 44 -3 81l165 -1l232 -2l156 3"
           fill="black"
           stroke="black"
           stroke-width="1"
           transform="translate(866, 0) scale(1, -1)"
           id="path9621" />
      </g>
    </g>
    <g
       id="g9623">
      <rect
         x="-833"
         y="-6223"
         width="1666"
         height="1703"
         rx="200"
         ry="200"
         fill="#FFFFFF"
         stroke="#000000"
         stroke-width="100"
         id="rect9625" />
      <g
         transform="translate(-333, -5023)"
         id="g9627">
        <path
           d="M648 27v-30c-43 2 -66 3 -71 3c-12 0 -12 0 -74 -3l-184 306l-202 -306c-43 3 -43 3 -51 3s-8 0 -52 -3v30l26 3c22 3 34 14 59 48l195 263l-128 213c-33 55 -68 88 -92 90l-45 3l-2 26l141 27c19 -10 34 -27 57 -65l128 -216l185 270h101v-30l-41 -3 c-15 -2 -27 -14 -68 -68l-154 -208l176 -280c35 -54 47 -67 66 -70"
           fill="black"
           stroke="black"
           stroke-width="1"
           transform="translate(0, 0) scale(1, -1)"
           id="path9629" />
      </g>
    </g>
  </g>
  <g
     transform="translate(29873, -4693)"
     id="g9631">
    <g
       id="g9633">
      <path
         d="M 0 0 V 1200"
         fill="none"
         stroke="black"
         stroke-width="100"
         id="path9635" />
      <polygon
         points="0,0 150,300 300,0"
         stroke="red"
         stroke-width="100"
         fill="red"
         transform="translate(-150, 300)"
         id="polygon9637" />
    </g>
    <g
       id="g9639">
      <path
         d="M 1925 -2929 V -1065 A 200 200 0 0 1 1725 -865 H 1325"
         fill="none"
         stroke="black"
         stroke-width="100"
         id="path9641" />
      <polygon
         points="150,0 300,300 0,300"
         stroke="red"
         stroke-width="100"
         fill="red"
         transform="translate(1775, -2329)"
         id="polygon9643" />
    </g>
    <g
       id="g9645">
      <path
         d="M -1925 -2929 V -1065 A 200 200 0 0 0 -1725 -865 H -1325"
         fill="none"
         stroke="black"
         stroke-width="100"
         id="path9647" />
    </g>
    <g
       id="g9649">
      <rect
         x="-1325"
         y="-1729"
         width="2650"
         height="1729"
         rx="200"
         ry="200"
         fill="#FFFFFF"
         stroke="#DB2828"
         stroke-width="100"
         id="rect9651" />
      <g
         transform="translate(-826, -520)"
         id="g9653">
        <path
           d="M572 0h-526v39h388c19 0 34 16 34 53v253h-332v39h332v232c0 26 -20 42 -47 42h-364v39h515v-697"
           fill="black"
           stroke="black"
           stroke-width="1"
           transform="translate(0, 0) scale(1, -1)"
           id="path9655" />
        <path
           d=""
           fill="black"
           stroke="black"
           stroke-width="1"
           transform="translate(617, 0) scale(1, -1)"
           id="path9657" />
        <path
           d="M764 367c0 -215 -168 -387 -387 -387c-203 0 -355 140 -355 364c0 206 144 365 376 365c214 0 366 -120 366 -342zM657 336c0 198 -89 331 -275 331c-174 0 -253 -122 -253 -286c0 -175 82 -359 280 -359c167 0 248 130 248 314zM238 481c14 -19 -2 -81 66 -81h178 c55 0 54 33 63 77l4 4h14l3 -4c-1 -76 -1 -152 0 -228l-3 -4h-14l-4 4c-9 45 -8 78 -63 78h-178c-54 0 -53 -33 -63 -78l-3 -4h-15l-3 4c1 76 1 152 0 228l3 4h15"
           fill="black"
           stroke="black"
           stroke-width="1"
           transform="translate(866, 0) scale(1, -1)"
           id="path9659" />
      </g>
    </g>
  </g>
</svg>
