<?xml version="1.0" encoding="UTF-8" standalone="no"?>
<!-- Created with Inkscape (http://www.inkscape.org/) -->

<svg
   xmlns:dc="http://purl.org/dc/elements/1.1/"
   xmlns:cc="http://creativecommons.org/ns#"
   xmlns:rdf="http://www.w3.org/1999/02/22-rdf-syntax-ns#"
   xmlns:svg="http://www.w3.org/2000/svg"
   xmlns="http://www.w3.org/2000/svg"
   version="1.1"
   width="148.94"
   height="283.38"
   viewBox="0 -15000 7008.8184 14169"
   id="svg3457">
  <metadata
     id="metadata3765">
    <rdf:RDF>
      <cc:Work
         rdf:about="">
        <dc:format>image/svg+xml</dc:format>
        <dc:type
           rdf:resource="http://purl.org/dc/dcmitype/StillImage" />
        <dc:title></dc:title>
      </cc:Work>
    </rdf:RDF>
  </metadata>
  <defs
     id="defs3763" />
  <g
     transform="translate(2974.9092,-2331)"
     id="g3613">
    <g
       id="g3615">
      <rect
         width="6847"
         height="11169"
         rx="200"
         ry="200"
         x="-2894"
         y="-11169"
         id="rect3617"
         style="fill:#ffffff;stroke:#000000;stroke-width:100" />
      <g
         transform="translate(2949,-649)"
         id="g3619">
        <path
           d="m 509,26 c 12,-79 -96,-162 -164,-175 -19,12 -36,28 -53,41 l 3,8 c 16,-3 31,-4 47,-4 43,0 133,33 124,86 C 463,2 438,4 423,4 378,4 333,-5 287,-5 162,-5 87,63 67,187 40,360 118,531 232,638 l -5,5 c -22,-1 -44,-3 -66,-3 -30,0 -66,4 -94,25 l 2,19 30,21 12,-1 c 17,-37 69,-41 101,-41 62,0 120,24 171,49 l 15,-7 C 395,688 392,672 387,656 174,643 97,427 127,232 147,105 205,56 331,56 c 42,0 81,9 122,9 25,0 51,-9 56,-39"
           transform="scale(1,-1)"
           id="path3621"
           style="fill:#000000;stroke:#000000;stroke-width:1" />
      </g>
    </g>
    <g
       id="g3623">
      <rect
         width="4653"
         height="3827"
         rx="200"
         ry="200"
         x="-2097"
         y="-5588"
         id="rect3625"
         style="fill:#ffffff;stroke:#000000;stroke-width:100" />
      <g
         transform="translate(1576,-2274)"
         id="g3627">
        <path
           d="m 161,146 c 0,-70 58,-116 135,-116 45,0 89,14 132,42 l 8,-5 -15,-26 C 371,5 318,-13 262,-13 160,-13 69,37 69,132 c 0,65 48,106 143,123 v 9 c -70,12 -105,45 -105,97 0,72 58,107 174,107 59,0 105,-13 138,-40 -16,-27 -29,-49 -38,-68 l -11,5 c -5,55 -36,83 -92,83 -55,0 -93,-36 -93,-90 0,-44 22,-86 98,-86 22,0 44,3 68,7 l 5,-6 c -3,-13 -6,-23 -8,-30 l -10,-6 c -23,6 -45,9 -66,9 -44,0 -111,-20 -111,-100"
           transform="scale(1,-1)"
           id="path3629"
           style="fill:#000000;stroke:#000000;stroke-width:1" />
      </g>
    </g>
    <g
       id="g3631">
      <rect
         width="2753"
         height="4281"
         rx="200"
         ry="200"
         x="700"
         y="-10469"
         id="rect3633"
         style="fill:#ffffff;stroke:#000000;stroke-width:100" />
      <g
         transform="translate(2456,-6704)"
         id="g3635">
        <path
           d="M 465,287 C 489,139 403,-16 246,-16 133,-16 78,53 61,160 38,304 108,426 246,458 v 6 c -47,29 -126,75 -135,133 -13,79 102,105 163,105 25,0 50,-3 75,-8 8,-13 14,-27 19,-39 l -9,-6 c -33,19 -68,30 -103,30 -35,0 -85,-15 -78,-57 C 196,506 436,470 465,287 z M 393,269 C 380,350 339,399 268,448 141,411 116,295 137,167 148,99 183,12 267,12 385,12 408,174 393,269"
           transform="scale(1,-1)"
           id="path3637"
           style="fill:#000000;stroke:#000000;stroke-width:1" />
      </g>
    </g>
    <g
       id="g3639">
      <path
         d="M 0,-3142 V 1200"
         id="path3641"
         style="fill:none;stroke:#000000;stroke-width:100" />
    </g>
    <g
       id="g3643">
      <path
         d="m 2056,-7806 v 3591 a 200,200 0 0 1 -200,200 H 790"
         id="path3645"
         style="fill:none;stroke:#000000;stroke-width:100" />
    </g>
    <g
       id="g3647">
      <path
         d="m 2056,-12369 v 2600"
         id="path3649"
         style="fill:none;stroke:#000000;stroke-width:100" />
    </g>
    <g
       id="g3651">
      <path
         d="m 0,-12369 v 7481"
         id="path3653"
         style="fill:none;stroke:#000000;stroke-width:100" />
    </g>
    <g
       id="g3655">
      <path
         d="m -1497,-6188 v 1973 a 200,200 0 0 0 200,200 h 507"
         id="path3657"
         style="fill:none;stroke:#000000;stroke-width:100" />
    </g>
    <g
       id="g3659">
      <path
         d="m -1497,-12369 v 4692"
         id="path3661"
         style="fill:none;stroke:#000000;stroke-width:100" />
    </g>
    <g
       id="g3663">
      <rect
         width="1580"
         height="1746"
         rx="200"
         ry="200"
         x="-790"
         y="-4888"
         id="rect3665"
         style="fill:#ffffff;stroke:#000000;stroke-width:100" />
      <g
         transform="translate(-291,-3915)"
         id="g3667">
        <path
           d="m 88,473 c 88,0 171,-80 146,-450 l 6,-4 c 48,89 192,260 176,366 -3,16 -10,34 -16,50 l 4,11 c 16,7 47,21 64,21 16,0 18,-17 20,-29 C 501,353 427,254 383,194 329,120 275,43 227,-36 c -2,-70 -12,-147 -26,-215 -19,-9 -38,-17 -58,-22 -5,8 -11,16 -16,24 15,68 46,163 82,220 2,82 -2,165 -16,249 -11,70 -42,192 -137,192 -37,0 -54,-18 -73,-46 l -6,-1 c -3,3 -7,6 -8,12 25,49 54,96 119,96"
           transform="scale(1,-1)"
           id="path3669"
           style="fill:#000000;stroke:#000000;stroke-width:1" />
      </g>
    </g>
    <g
       id="g3671">
      <rect
         width="1512"
         height="1963"
         rx="200"
         ry="200"
         x="1300"
         y="-9769"
         id="rect3673"
         style="fill:#ffffff;stroke:#000000;stroke-width:100" />
      <g
         transform="translate(1800,-8589)"
         id="g3675">
        <path
           d="M 458,205 C 478,80 382,-15 261,-15 c -44,0 -89,13 -127,44 3,-95 6,-191 17,-288 -26,-6 -50,-15 -74,-24 l -9,10 c 11,186 6,375 5,562 0,150 -15,306 135,372 28,12 57,19 88,19 64,0 103,-36 113,-99 C 426,479 355,400 268,369 l 1,-9 c 91,-2 174,-59 189,-155 z m -82,3 c -13,83 -70,131 -152,131 -17,0 -32,-3 -47,-10 l -9,8 c 4,10 5,22 6,34 106,0 187,75 169,187 -7,48 -37,88 -89,88 -19,0 -37,-6 -52,-17 -80,-56 -77,-424 -61,-526 9,-58 51,-91 108,-91 106,0 142,103 127,196"
           transform="scale(1,-1)"
           id="path3677"
           style="fill:#000000;stroke:#000000;stroke-width:1" />
      </g>
    </g>
    <g
       id="g3679">
      <rect
         width="1594"
         height="1489"
         rx="200"
         ry="200"
         x="-2294"
         y="-7677"
         id="rect3681"
         style="fill:#ffffff;stroke:#000000;stroke-width:100" />
      <g
         transform="translate(-1794,-6704)"
         id="g3683">
        <path
           d="m 562,97 c 5,-3 8,-6 9,-13 C 545,54 489,-16 443,-16 392,-16 381,95 375,128 l -3,3 C 324,64 246,-16 154,-16 86,-16 57,33 48,93 24,243 121,473 289,473 401,473 403,337 414,260 l 7,-3 c 26,58 61,134 63,202 h 11 c 11,-15 21,-31 30,-46 -25,-70 -60,-135 -99,-197 6,-32 22,-161 67,-161 27,0 46,24 62,42 h 7 z m -194,67 -4,28 c -9,60 -30,245 -117,245 -109,0 -142,-235 -128,-322 7,-45 25,-87 78,-87 71,0 137,85 171,136"
           transform="scale(1,-1)"
           id="path3685"
           style="fill:#000000;stroke:#000000;stroke-width:1" />
      </g>
    </g>
  </g>
</svg>
