<?xml version="1.0" encoding="UTF-8" standalone="no"?>
<!-- Created with Inkscape (http://www.inkscape.org/) -->

<svg
   xmlns:dc="http://purl.org/dc/elements/1.1/"
   xmlns:cc="http://creativecommons.org/ns#"
   xmlns:rdf="http://www.w3.org/1999/02/22-rdf-syntax-ns#"
   xmlns:svg="http://www.w3.org/2000/svg"
   xmlns="http://www.w3.org/2000/svg"
   version="1.1"
   width="186.22"
   height="265.29999"
   id="svg4256">
  <defs
     id="defs4258" />
  <metadata
     id="metadata4261">
    <rdf:RDF>
      <cc:Work
         rdf:about="">
        <dc:format>image/svg+xml</dc:format>
        <dc:type
           rdf:resource="http://purl.org/dc/dcmitype/StillImage" />
        <dc:title></dc:title>
      </cc:Work>
    </rdf:RDF>
  </metadata>
  <g
     transform="translate(52.515941,-868.9971)"
     id="layer1">
    <g
       transform="matrix(0.02,0,0,0.02,18.464059,1105.2971)"
       id="g3539">
      <g
         id="g3541">
        <rect
           width="8711"
           height="10365"
           rx="200"
           ry="200"
           x="-3249"
           y="-10365"
           id="rect3543"
           style="fill:#ffffff;stroke:#000000;stroke-width:100" />
        <g
           transform="translate(4630,-503)"
           id="g3545">
          <path
             d="m 341,717 v -77 l -12,-6 c -24,21 -42,28 -69,28 -57,0 -70,-28 -70,-143 v -85 l 131,4 -7,-53 H 190 V 102 c 0,-63 3,-70 37,-72 l 46,-3 V -3 C 173,0 173,0 148,0 123,0 123,0 23,-3 v 30 l 46,3 c 34,2 37,9 37,72 v 283 l -69,-4 v 22 l 69,31 v 42 2 c 0,77 57,259 168,259 21,0 43,-6 67,-20"
             transform="scale(1,-1)"
             id="path3547"
             style="fill:#000000;stroke:#000000;stroke-width:1" />
        </g>
      </g>
      <g
         id="g3549">
        <rect
           width="6735"
           height="3606"
           rx="200"
           ry="200"
           x="-2649"
           y="-5246"
           id="rect3551"
           style="fill:#ffffff;stroke:#000000;stroke-width:100" />
        <g
           transform="translate(3108,-2160)"
           id="g3553">
          <path
             d="m 250,-20 c -89,0 -224,45 -224,239 0,104 32,173 114,221 40,24 85,29 122,29 112,0 186,-75 186,-190 0,-12 -1,-21 -2,-35 -47,-10 -156,-18 -242,-18 -34,0 -64,1 -85,4 2,-58 9,-86 28,-119 28,-49 82,-78 147,-78 43,0 66,9 130,47 L 437,70 417,36 C 405,18 315,-20 250,-20 z m 109,287 c -3,67 -10,96 -32,129 -18,27 -44,40 -77,40 -48,0 -91,-27 -112,-71 -13,-26 -17,-48 -17,-95 26,-6 69,-9 112,-9 51,0 102,3 126,6"
             transform="scale(1,-1)"
             id="path3555"
             style="fill:#000000;stroke:#000000;stroke-width:1" />
        </g>
      </g>
      <g
         id="g3557">
        <rect
           width="2859"
           height="3819"
           rx="200"
           ry="200"
           x="-1349"
           y="-9665"
           id="rect3559"
           style="fill:#ffffff;stroke:#000000;stroke-width:100" />
        <g
           transform="translate(400,-6358)"
           id="g3561">
          <path
             d="m 579,-3 c -9,0 -73,3 -91,3 -12,0 -28,-1 -77,-3 l 5,92 -111,-93 c -5,-4 -28,-8 -48,-8 -65,0 -112,13 -146,42 -49,40 -77,119 -77,199 0,122 149,257 272,257 40,0 78,-14 106,-49 v 183 c 0,30 -7,41 -25,41 h -56 v 28 c 79,12 112,20 156,37 l 9,-8 V 102 c 0,-63 3,-70 37,-72 l 46,-3 V -3 z M 412,350 c 0,16 -67,72 -146,72 -90,0 -144,-64 -144,-173 0,-119 63,-204 151,-204 47,0 96,31 124,78 13,23 15,33 15,98 v 129"
             transform="scale(1,-1)"
             id="path3563"
             style="fill:#000000;stroke:#000000;stroke-width:1" />
        </g>
      </g>
      <g
         id="g3565">
        <path
           d="M 0,-3029 V 1200"
           id="path3567"
           style="fill:none;stroke:#000000;stroke-width:100" />
      </g>
      <g
         id="g3569">
        <path
           d="m 3586,-5846 v 1858 a 200,200 0 0 1 -200,200 H 721"
           id="path3571"
           style="fill:none;stroke:#000000;stroke-width:100" />
      </g>
      <g
         id="g3573">
        <path
           d="m 4962,-11565 v 4642 a 200,200 0 0 1 -200,200 h -400"
           id="path3575"
           style="fill:none;stroke:#000000;stroke-width:100" />
      </g>
      <g
         id="g3577">
        <path
           d="m 2210,-11565 v 4642 a 200,200 0 0 0 200,200 h 400"
           id="path3579"
           style="fill:none;stroke:#000000;stroke-width:100" />
      </g>
      <g
         id="g3581">
        <path
           d="m 0,-7484 v 2938"
           id="path3583"
           style="fill:none;stroke:#000000;stroke-width:100" />
      </g>
      <g
         id="g3585">
        <path
           d="m -2049,-11565 v 7577 a 200,200 0 0 0 200,200 h 1128"
           id="path3587"
           style="fill:none;stroke:#000000;stroke-width:100" />
      </g>
      <g
         id="g3589">
        <rect
           width="1442"
           height="1517"
           rx="200"
           ry="200"
           x="-721"
           y="-4546"
           id="rect3591"
           style="fill:#ffffff;stroke:#000000;stroke-width:100" />
        <g
           transform="translate(-222,-3549)"
           id="g3593">
          <path
             d="m 399,311 h -28 l -7,61 c -18,25 -66,45 -110,45 -90,0 -140,-60 -140,-167 0,-132 73,-218 184,-218 36,0 68,9 105,29 L 413,46 392,14 C 382,-1 307,-20 255,-20 121,-20 26,75 26,210 c 0,5 -1,9 -1,14 0,137 144,273 268,273 45,0 88,-19 120,-63 -9,-36 -14,-77 -14,-123"
             transform="scale(1,-1)"
             id="path3595"
             style="fill:#000000;stroke:#000000;stroke-width:1" />
        </g>
      </g>
      <g
         id="g3597">
        <rect
           width="1552"
           height="1754"
           rx="200"
           ry="200"
           x="2810"
           y="-7600"
           id="rect3599"
           style="fill:#ffffff;stroke:#000000;stroke-width:100" />
        <g
           transform="translate(3310,-6374)"
           id="g3601">
          <path
             d="M 150,718 V 369 c 32,77 98,116 165,116 89,0 180,-71 193,-215 v -8 C 508,128 432,-28 280,-28 232,-28 177,-12 114,24 L 74,-12 58,-6 c 7,70 8,97 8,159 v 467 c 0,30 -7,41 -25,41 h -56 v 28 c 79,12 112,20 156,37 z M 284,404 C 206,404 150,343 150,308 V 93 c 0,-22 74,-54 126,-54 85,0 145,78 145,190 0,107 -53,175 -137,175"
             transform="scale(1,-1)"
             id="path3603"
             style="fill:#000000;stroke:#000000;stroke-width:1" />
        </g>
      </g>
      <g
         id="g3605">
        <rect
           width="1498"
           height="1481"
           rx="200"
           ry="200"
           x="-749"
           y="-8965"
           id="rect3607"
           style="fill:#ffffff;stroke:#000000;stroke-width:100" />
        <g
           transform="translate(-250,-7996)"
           id="g3609">
          <path
             d="M 324,82 200,-4 c -7,-5 -24,-8 -42,-8 -79,0 -126,45 -126,123 0,87 57,134 193,159 l 99,18 c -3,91 -42,128 -136,128 -46,0 -56,-7 -77,-54 l -13,-31 -26,7 v 65 l 53,32 c 38,23 78,34 121,34 116,0 158,-53 158,-199 V 87 c 0,-49 4,-57 28,-58 l 39,-2 V -3 c -44,2 -69,3 -74,3 -13,0 -13,0 -78,-3 z m 0,42 v 132 c -76,-11 -131,-25 -156,-40 -30,-19 -50,-54 -50,-91 0,-43 35,-80 75,-80 39,0 102,38 131,79"
             transform="scale(1,-1)"
             id="path3611"
             style="fill:#000000;stroke:#000000;stroke-width:1" />
        </g>
      </g>
    </g>
  </g>
</svg>
