<?xml version="1.0" encoding="UTF-8" standalone="no"?>
<svg width="253" height="155" viewBox="0 -6214 10144 6214" xmlns="http://www.w3.org/2000/svg"><g transform="translate(3357, -1200)"><g><rect x="-1357" y="-3814" width="2812" height="3814" rx="200" ry="200" fill="#FFFFFF" stroke="#000000" stroke-width="100"></rect><g transform="translate(400, -783)"><path d="M297 86l119 292c4 10 6 19 6 26c0 14 -14 23 -42 25l-26 2v28c79 -3 79 -3 95 -3s16 0 95 3v-28l-28 -2c-25 -3 -44 -30 -84 -121l-203 -468c-38 -87 -81 -123 -148 -123c-19 0 -35 5 -54 15l24 75h13c17 -15 35 -23 51 -23c38 0 77 47 109 131l23 61 c-18 50 -28 74 -56 142l-109 262c-15 35 -27 46 -52 49l-18 2v28c97 -3 97 -3 116 -3s19 0 116 3v-28l-38 -2c-23 -1 -34 -9 -34 -23c0 -10 4 -25 10 -42l64 -168c18 -49 29 -72 51 -110" fill="black" stroke="black" stroke-width="1" transform="translate(0, 0) scale(1, -1)"></path></g></g><g><rect x="-757" y="-3114" width="1514" height="1472" rx="200" ry="200" fill="#FFFFFF" stroke="#000000" stroke-width="100"></rect><g transform="translate(-258, -2145)"><path d="M288 254l148 -200c11 -15 23 -23 35 -24l25 -3v-30c-52 3 -52 3 -62 3c-9 0 -9 0 -61 -3l-133 195l-134 -192h-86v27h17c10 0 23 6 30 15l149 176l-120 174c-10 14 -32 28 -50 29l-21 2l-5 26l116 20c34 -34 45 -47 60 -69l76 -116l124 175h82v-28h-14 c-17 0 -28 -4 -34 -11" fill="black" stroke="black" stroke-width="1" transform="translate(0, 0) scale(1, -1)"></path></g></g></g><g transform="translate(7478, -2237)"><g><path d="M 0 0 V 1200" fill="none" stroke="black" stroke-width="100"></path></g><g><path d="M 0 -2940 V -1740" fill="none" stroke="black" stroke-width="100"></path></g><g><rect x="-666" y="-1740" width="1332" height="1740" rx="200" ry="200" fill="#FFFFFF" stroke="#000000" stroke-width="100"></rect><g transform="translate(-166, -503)"><path d="M341 717v-77l-12 -6c-24 21 -42 28 -69 28c-57 0 -70 -28 -70 -143v-85l131 4l-7 -53h-124v-283c0 -63 3 -70 37 -72l46 -3v-30c-100 3 -100 3 -125 3s-25 0 -125 -3v30l46 3c34 2 37 9 37 72v283l-69 -4v22l69 31v42v2c0 77 57 259 168 259c21 0 43 -6 67 -20" fill="black" stroke="black" stroke-width="1" transform="translate(0, 0) scale(1, -1)"></path></g></g></g></svg>