<?xml version="1.0" encoding="UTF-8" standalone="no"?>
<svg width="330" height="100" viewBox="0 -4000 13214 4000" xmlns="http://www.w3.org/2000/svg"><g transform="translate(2757, -1264)"><g><rect x="-757" y="-1472" width="1514" height="1472" rx="200" ry="200" fill="#FFFFFF" stroke="#000000" stroke-width="100"></rect><g transform="translate(-258, -503)"><path d="M288 254l148 -200c11 -15 23 -23 35 -24l25 -3v-30c-52 3 -52 3 -62 3c-9 0 -9 0 -61 -3l-133 195l-134 -192h-86v27h17c10 0 23 6 30 15l149 176l-120 174c-10 14 -32 28 -50 29l-21 2l-5 26l116 20c34 -34 45 -47 60 -69l76 -116l124 175h82v-28h-14 c-17 0 -28 -4 -34 -11" fill="black" stroke="black" stroke-width="1" transform="translate(0, 0) scale(1, -1)"></path></g></g></g><g transform="translate(6114, -1200)"><g><rect x="-600" y="-1600" width="2100" height="1600" rx="200" ry="200" fill="#FFFFFF" stroke="#000000" stroke-width="100"></rect><g transform="translate(400, -1100)"></g></g><g><path d="M 0 -2800 V 1200" fill="none" stroke="black" stroke-width="100"></path></g></g><g transform="translate(10414, -1200)"><g><path d="M 0 0 V 1200" fill="none" stroke="black" stroke-width="100"></path></g><g><rect x="-800" y="-1600" width="1600" height="1600" rx="200" ry="200" fill="#FFFFFF" stroke="#000000" stroke-width="100"></rect><g transform="translate(-300, -1100)"></g></g></g></svg>