<?xml version="1.0" encoding="UTF-8" standalone="no"?>
<svg
   xmlns:dc="http://purl.org/dc/elements/1.1/"
   xmlns:cc="http://creativecommons.org/ns#"
   xmlns:rdf="http://www.w3.org/1999/02/22-rdf-syntax-ns#"
   xmlns:svg="http://www.w3.org/2000/svg"
   xmlns="http://www.w3.org/2000/svg"
   xmlns:sodipodi="http://sodipodi.sourceforge.net/DTD/sodipodi-0.dtd"
   xmlns:inkscape="http://www.inkscape.org/namespaces/inkscape"
   width="105.23838"
   height="102.3914"
   viewBox="0 -4000 4213.9999 4095.6561"
   id="svg5580"
   version="1.1"
   inkscape:version="0.48.4 r9939"
   sodipodi:docname="x-paste.svg">
  <metadata
     id="metadata5620">
    <rdf:RDF>
      <cc:Work
         rdf:about="">
        <dc:format>image/svg+xml</dc:format>
        <dc:type
           rdf:resource="http://purl.org/dc/dcmitype/StillImage" />
        <dc:title></dc:title>
      </cc:Work>
    </rdf:RDF>
  </metadata>
  <defs
     id="defs5618" />
  <sodipodi:namedview
     pagecolor="#ffffff"
     bordercolor="#666666"
     borderopacity="1"
     objecttolerance="10"
     gridtolerance="10"
     guidetolerance="10"
     inkscape:pageopacity="0"
     inkscape:pageshadow="2"
     inkscape:window-width="1855"
     inkscape:window-height="1056"
     id="namedview5616"
     showgrid="false"
     fit-margin-top="0"
     fit-margin-left="0"
     fit-margin-right="0"
     fit-margin-bottom="0"
     inkscape:zoom="5.1212121"
     inkscape:cx="116.30165"
     inkscape:cy="51.195702"
     inkscape:window-x="65"
     inkscape:window-y="24"
     inkscape:window-maximized="1"
     inkscape:current-layer="svg5580" />
  <g
     transform="translate(807,-1216.1212)"
     id="g5582">
    <g
       id="g5584">
      <rect
         x="-757"
         y="-1472"
         width="1514"
         height="1472"
         rx="200"
         ry="200"
         id="rect5586"
         style="fill:#ffffff;stroke:#000000;stroke-width:100" />
      <g
         transform="translate(-258,-503)"
         id="g5588">
        <path
           d="M 288,254 436,54 c 11,-15 23,-23 35,-24 l 25,-3 V -3 c -52,3 -52,3 -62,3 -9,0 -9,0 -61,-3 L 240,192 106,0 H 20 v 27 h 17 c 10,0 23,6 30,15 L 216,218 96,392 c -10,14 -32,28 -50,29 l -21,2 -5,26 116,20 c 34,-34 45,-47 60,-69 l 76,-116 124,175 h 82 v -28 h -14 c -17,0 -28,-4 -34,-11"
           transform="scale(1,-1)"
           id="path5590"
           inkscape:connector-curvature="0"
           style="fill:#000000;stroke:#000000;stroke-width:1" />
      </g>
    </g>
  </g>
  <g
     transform="translate(4164,-1152.1212)"
     id="g5592">
    <g
       id="g5594">
      <g
         transform="translate(400,-1100)"
         id="g5598" />
    </g>
    <g
       id="g5600">
      <path
         d="M 0,-2096.2959 0,519.75266"
         id="path5602"
         inkscape:connector-curvature="0"
         style="fill:none;stroke:#000000;stroke-width:100"
         sodipodi:nodetypes="cc" />
    </g>
  </g>
</svg>
